<svg width="77" height="78" viewBox="0 0 77 78" fill="none" xmlns="http://www.w3.org/2000/svg">
<g opacity="0.2">
<path d="M76.6618 51.28C76.0978 50.034 75.3188 48.897 74.3618 47.92C73.9788 47.598 73.6208 47.247 73.2918 46.87C73.0038 46.463 72.6358 46.117 72.2118 45.855C71.7878 45.592 71.3148 45.417 70.8218 45.34C70.2708 45.296 69.7248 45.199 69.1918 45.05C68.8988 44.918 68.5748 44.874 68.2568 44.921C67.9398 44.969 67.6428 45.108 67.4018 45.32C66.9418 45.67 66.4018 45.99 65.9618 46.32C65.5218 46.65 65.2718 46.56 65.0418 46.15C64.8118 45.74 64.6518 45.86 64.3518 46.02C64.1318 46.099 63.8918 46.099 63.6718 46.02C62.5818 45.62 61.5218 45.13 60.4218 44.77C58.9218 44.186 57.4818 43.459 56.1218 42.6C55.3718 42.19 54.7618 41.6 54.0418 41.09C52.7518 40.27 51.5818 39.28 50.2618 38.49C48.1018 37.2 46.0818 35.66 44.0118 34.23C42.1898 32.997 40.2128 32.012 38.1318 31.3C37.2918 31 36.4818 30.64 35.6518 30.3C34.1818 29.71 32.7318 29.09 31.2518 28.53C30.2518 28.15 29.2518 27.86 28.2518 27.53C27.0818 27.1 25.9218 26.63 24.7618 26.17C23.0018 25.45 21.2318 24.81 19.5318 24C17.0368 22.703 14.7378 21.06 12.7018 19.12C12.5158 18.954 12.3698 18.749 12.2718 18.52C11.6848 16.96 11.1088 15.393 10.5418 13.82C10.3648 13.172 10.0198 12.582 9.5418 12.11C8.5418 11.26 7.59181 10.38 6.60181 9.54001C6.11481 9.14301 5.7628 8.605 5.5918 8C5.4538 7.545 5.3508 7.07999 5.28181 6.60999C5.28181 6.20999 5.28181 5.79001 5.28181 5.39001C5.17581 4.83601 4.8828 4.335 4.4518 3.97C4.0558 3.67 3.7168 3.3 3.4518 2.88C3.0048 1.998 2.3448 1.24199 1.5318 0.679993C1.1168 0.412993 0.678807 0.185 0.221807 0C0.00180726 0.73 -0.128192 1.22999 0.191808 1.76999C0.511808 2.30999 0.911799 3.14001 1.2918 3.82001C1.8018 4.64001 2.1428 5.55501 2.2918 6.51001C2.4328 7.61401 2.48981 8.727 2.46181 9.84C2.42081 10.311 2.4968 10.785 2.6818 11.22C3.0448 11.916 3.48781 12.567 4.00181 13.16C4.60381 13.782 5.04081 14.545 5.27181 15.38C5.48081 16.217 5.58181 17.077 5.57181 17.94C5.57181 19.94 5.40181 21.94 5.25181 23.94C5.01881 26.011 5.03581 28.103 5.30181 30.17C5.52181 31.46 5.6518 32.76 5.8718 34.04C6.0078 35.316 6.3068 36.57 6.7618 37.77C6.8438 38.036 6.88381 38.312 6.88181 38.59C7.00181 39.74 7.00181 40.88 7.21181 42C7.41181 43.28 7.75181 44.55 7.99181 45.83C8.39081 47.507 9.00981 49.125 9.83181 50.64C10.7718 52.56 11.8318 54.43 12.8318 56.32C13.1658 57.05 13.5578 57.752 14.0018 58.42C15.0618 59.85 16.1218 61.28 17.2618 62.62C18.4018 63.96 19.3418 65.62 20.9618 66.53C21.0398 66.563 21.1058 66.619 21.1518 66.69C21.4918 67.249 21.9798 67.702 22.5618 68C22.7028 68.085 22.8368 68.182 22.9618 68.29C24.1238 69.278 25.3608 70.175 26.6618 70.97C28.4228 72.191 30.2518 73.31 32.1418 74.32C33.6428 75.166 35.2508 75.808 36.9218 76.23C37.9218 76.41 38.8618 76.7 39.8418 76.91C41.1718 77.19 42.5118 77.52 43.8418 77.69C45.7478 77.969 47.6898 77.901 49.5718 77.49C50.5718 77.24 51.7018 77.13 52.7618 76.91C53.4218 76.78 54.0418 76.51 54.7018 76.4C56.1988 76.044 57.6448 75.496 59.0018 74.77C60.4618 74.1 61.9018 73.37 63.3918 72.77C64.3138 72.452 65.1428 71.909 65.8018 71.19C66.0428 70.917 66.3068 70.667 66.5918 70.44C68.1588 69.284 69.5328 67.887 70.6618 66.3C71.2518 65.3 72.1418 64.54 72.3518 63.36C72.3578 63.319 72.3728 63.28 72.3948 63.246C72.4178 63.212 72.4468 63.182 72.4818 63.16C73.2918 62.73 73.5918 61.85 74.1918 61.25C74.3078 61.127 74.3788 60.968 74.3918 60.8C74.5628 59.985 74.6198 59.151 74.5618 58.32C74.4938 57.753 74.6518 57.181 75.0018 56.73C75.3848 56.114 75.7188 55.468 76.0018 54.8C76.2658 54.128 76.4768 53.436 76.6318 52.73C76.7868 52.261 76.7968 51.755 76.6618 51.28Z" fill="white"/>
<path d="M76.6618 51.28C76.0978 50.034 75.3188 48.897 74.3618 47.92C73.9788 47.598 73.6208 47.247 73.2918 46.87C73.0038 46.463 72.6358 46.117 72.2118 45.855C71.7878 45.592 71.3148 45.417 70.8218 45.34C70.2708 45.296 69.7248 45.199 69.1918 45.05C68.8988 44.918 68.5748 44.874 68.2568 44.921C67.9398 44.969 67.6428 45.108 67.4018 45.32C66.9418 45.67 66.4018 45.99 65.9618 46.32C65.5218 46.65 65.2718 46.56 65.0418 46.15C64.8118 45.74 64.6518 45.86 64.3518 46.02C64.1318 46.099 63.8918 46.099 63.6718 46.02C62.5818 45.62 61.5218 45.13 60.4218 44.77C58.9218 44.186 57.4818 43.459 56.1218 42.6C55.3718 42.19 54.7618 41.6 54.0418 41.09C52.7518 40.27 51.5818 39.28 50.2618 38.49C48.1018 37.2 46.0818 35.66 44.0118 34.23C42.1898 32.997 40.2128 32.012 38.1318 31.3C37.2918 31 36.4818 30.64 35.6518 30.3C34.1818 29.71 32.7318 29.09 31.2518 28.53C30.2518 28.15 29.2518 27.86 28.2518 27.53C27.0818 27.1 25.9218 26.63 24.7618 26.17C23.0018 25.45 21.2318 24.81 19.5318 24C17.0368 22.703 14.7378 21.06 12.7018 19.12C12.5158 18.954 12.3698 18.749 12.2718 18.52C11.6848 16.96 11.1088 15.393 10.5418 13.82C10.3648 13.172 10.0198 12.582 9.5418 12.11C8.5418 11.26 7.59181 10.38 6.60181 9.54001C6.11481 9.14301 5.7628 8.605 5.5918 8C5.4538 7.545 5.3508 7.07999 5.28181 6.60999C5.28181 6.20999 5.28181 5.79001 5.28181 5.39001C5.17581 4.83601 4.8828 4.335 4.4518 3.97C4.0558 3.67 3.7168 3.3 3.4518 2.88C3.0048 1.998 2.3448 1.24199 1.5318 0.679993C1.1168 0.412993 0.678807 0.185 0.221807 0C0.00180726 0.73 -0.128192 1.22999 0.191808 1.76999C0.511808 2.30999 0.911799 3.14001 1.2918 3.82001C1.8018 4.64001 2.1428 5.55501 2.2918 6.51001C2.4328 7.61401 2.48981 8.727 2.46181 9.84C2.42081 10.311 2.4968 10.785 2.6818 11.22C3.0448 11.916 3.48781 12.567 4.00181 13.16C4.60381 13.782 5.04081 14.545 5.27181 15.38C5.48081 16.217 5.58181 17.077 5.57181 17.94C5.57181 19.94 5.40181 21.94 5.25181 23.94C5.01881 26.011 5.03581 28.103 5.30181 30.17C5.52181 31.46 5.6518 32.76 5.8718 34.04C6.0078 35.316 6.3068 36.57 6.7618 37.77C6.8438 38.036 6.88381 38.312 6.88181 38.59C7.00181 39.74 7.00181 40.88 7.21181 42C7.41181 43.28 7.75181 44.55 7.99181 45.83C8.39081 47.507 9.00981 49.125 9.83181 50.64C10.7718 52.56 11.8318 54.43 12.8318 56.32C13.1658 57.05 13.5578 57.752 14.0018 58.42C15.0618 59.85 16.1218 61.28 17.2618 62.62C18.4018 63.96 19.3418 65.62 20.9618 66.53C21.0398 66.563 21.1058 66.619 21.1518 66.69C21.4918 67.249 21.9798 67.702 22.5618 68C22.7028 68.085 22.8368 68.182 22.9618 68.29C24.1238 69.278 25.3608 70.175 26.6618 70.97C28.4228 72.191 30.2518 73.31 32.1418 74.32C33.6428 75.166 35.2508 75.808 36.9218 76.23C37.9218 76.41 38.8618 76.7 39.8418 76.91C41.1718 77.19 42.5118 77.52 43.8418 77.69C45.7478 77.969 47.6898 77.901 49.5718 77.49C50.5718 77.24 51.7018 77.13 52.7618 76.91C53.4218 76.78 54.0418 76.51 54.7018 76.4C56.1988 76.044 57.6448 75.496 59.0018 74.77C60.4618 74.1 61.9018 73.37 63.3918 72.77C64.3138 72.452 65.1428 71.909 65.8018 71.19C66.0428 70.917 66.3068 70.667 66.5918 70.44C68.1588 69.284 69.5328 67.887 70.6618 66.3C71.2518 65.3 72.1418 64.54 72.3518 63.36C72.3578 63.319 72.3728 63.28 72.3948 63.246C72.4178 63.212 72.4468 63.182 72.4818 63.16C73.2918 62.73 73.5918 61.85 74.1918 61.25C74.3078 61.127 74.3788 60.968 74.3918 60.8C74.5628 59.985 74.6198 59.151 74.5618 58.32C74.4938 57.753 74.6518 57.181 75.0018 56.73C75.3848 56.114 75.7188 55.468 76.0018 54.8C76.2658 54.128 76.4768 53.436 76.6318 52.73C76.7868 52.261 76.7968 51.755 76.6618 51.28ZM75.2118 51.44L73.7418 52.44C73.7418 51.69 74.4018 51.51 74.5118 50.9C73.6918 50.56 73.7018 51.7 73.0218 51.61C72.7318 51.22 73.1118 50.98 73.3018 50.72C73.5428 50.442 73.7998 50.178 74.0718 49.93L75.2118 51.44ZM65.0018 50C65.3448 49.86 65.6258 49.601 65.7918 49.27C66.0818 48.8 66.2718 48.27 66.9018 48.09C66.9718 48.09 67.0718 48 67.0818 47.94C67.1818 47.29 67.7718 47.08 68.2018 46.76C68.5898 46.491 69.0468 46.34 69.5188 46.324C69.9898 46.308 70.4568 46.428 70.8618 46.67C70.6248 46.738 70.3908 46.818 70.1618 46.91C69.9798 46.974 69.8148 47.08 69.6818 47.22C69.6118 47.28 69.6818 47.47 69.6818 47.59L70.0218 47.53L71.3518 47C71.8628 47.401 72.2708 47.919 72.5418 48.51C72.5418 48.3 72.6818 48.17 72.8518 48.37C73.2118 48.78 73.5418 49.22 73.8518 49.62C73.4418 49.95 73.1118 50.24 72.7418 50.49C72.5938 50.558 72.4348 50.599 72.2718 50.61C72.2868 50.44 72.3308 50.275 72.4018 50.12C72.5978 49.849 72.8118 49.592 73.0418 49.35L72.5118 48.48C72.6118 49.31 72.0818 49.84 71.1118 49.73C71.4818 49.38 71.7818 49.09 72.1118 48.79C72.1118 48.17 71.5118 48.79 71.3318 48.43C71.1508 48.156 70.9468 47.899 70.7218 47.66L70.0018 47.52C69.9958 47.686 69.9318 47.844 69.8198 47.967C69.7078 48.09 69.5568 48.169 69.3918 48.19C68.1918 48.35 67.5618 49.31 66.6818 49.92C66.5118 50.053 66.3268 50.167 66.1318 50.26C65.9768 50.314 65.8348 50.399 65.7148 50.51C65.5938 50.622 65.4978 50.757 65.4318 50.907C65.3668 51.057 65.3328 51.22 65.3328 51.383C65.3328 51.547 65.3658 51.71 65.4318 51.86C65.4508 51.519 65.5718 51.191 65.7788 50.918C65.9848 50.646 66.2678 50.441 66.5918 50.33C66.2818 50.92 66.0618 51.33 65.7918 51.79C65.7918 51.86 65.5718 51.85 65.4318 51.86C65.4068 52.326 65.4068 52.794 65.4318 53.26C65.5018 53.742 65.5988 54.219 65.7218 54.69L64.3518 55.69C64.2618 55.41 64.1918 55.2 64.1118 54.93C64.7818 54.79 65.2718 54.54 65.2818 53.82C64.8118 53.82 64.8118 53.82 64.1918 54.19C64.0018 54 63.8318 53.86 64.1918 53.62C64.5898 53.275 64.9278 52.866 65.1918 52.41H64.1918C64.3518 52.2 64.4518 52.06 64.6018 51.88C64.4918 51.78 64.4218 51.66 64.3118 51.61C64.2438 51.587 64.1828 51.549 64.1318 51.498C64.0818 51.447 64.0438 51.386 64.0218 51.318C63.9988 51.25 63.9928 51.177 64.0038 51.107C64.0138 51.036 64.0408 50.969 64.0818 50.91C64.2938 50.524 64.6138 50.208 65.0018 50ZM69.6618 57.75C68.8478 56.951 68.1448 56.047 67.5718 55.06C67.4078 54.75 67.3098 54.41 67.2818 54.06C68.1798 55.302 69.2748 56.389 70.5218 57.28C70.5218 56.98 70.6218 56.78 70.5218 56.69C70.3088 56.303 70.0198 55.963 69.6718 55.69C68.7458 54.973 67.9968 54.052 67.4818 53C67.2598 52.646 67.0718 52.27 66.9218 51.88C66.8418 51.69 66.7618 51.44 67.1418 51.32L68.9318 53.97C68.9638 54.046 69.0118 54.114 69.0718 54.17L71.0018 55.32C70.9518 55.13 70.8808 54.945 70.7918 54.77C70.4818 54.42 70.1618 54.07 69.7918 53.77C69.1698 53.109 68.6478 52.362 68.2418 51.55C68.1018 51.28 68.1318 50.92 67.7118 50.69C67.2918 50.46 67.8618 50.16 68.0818 49.9C69.5818 51.49 70.5418 53.54 72.4918 54.78C72.2118 55.44 72.0418 56.2 71.2618 56.61C71.0808 56.739 70.9308 56.906 70.8218 57.1C70.4418 57.67 70.0718 58.25 69.6518 58.9L69.0218 58.31L69.7618 58.24C69.7438 58.067 69.6958 57.898 69.6218 57.74L69.6618 57.75ZM61.4618 69.66H60.6018C60.6018 69.66 60.6018 69.59 60.6018 69.55L61.2118 69.22L61.4918 69.66L62.0818 70.2C61.3818 70.71 61.3818 70.71 60.9918 70.31C61.1518 70.09 61.3218 69.87 61.4918 69.66H61.4618ZM58.2518 65.05C58.2518 65.47 58.2518 65.84 58.2518 66.28L56.8318 66.68C56.8318 66.19 56.9018 65.79 56.9418 65.31L58.2518 65.05ZM57.0018 64.42C57.2218 63.98 57.3118 63.95 58.2618 64.07C57.8018 64.42 57.8018 64.42 57.0018 64.42ZM50.4418 59C50.4418 58.68 50.4418 58.4 50.4418 57.91L49.7318 58.84L48.8318 58.77L49.4518 57C48.7418 57.35 48.6418 58.11 48.1518 58.61L47.0018 58.54C47.3718 57.73 47.7018 56.98 48.0818 56.13L52.1618 57.13C51.9118 57.74 51.7118 58.28 51.4518 58.79C51.1918 59.3 50.8518 59.13 50.4418 59ZM49.7318 60.4L50.1018 59.56L50.9218 59.62C50.8918 60.63 50.6918 60.76 49.7318 60.4ZM49.3318 59.47C49.1218 60.47 49.1218 60.47 48.1518 60.31L48.5518 59.31L49.3318 59.47ZM47.8418 59.33C47.7218 59.66 47.6318 59.91 47.5118 60.22L46.4318 60C46.5618 59.66 46.6818 59.39 46.8118 59.06L47.8418 59.33ZM53.0818 59.81C53.0218 60.5 52.9518 60.59 52.3718 60.65C52.0218 60.65 51.6618 60.65 51.2018 60.65C51.8418 59.58 51.8418 59.58 53.0818 59.81ZM52.1518 59C52.3218 58.26 52.4618 58.22 53.7518 58.49C53.6918 58.72 53.6218 58.94 53.5418 59.23L52.1518 59ZM52.6018 57.68C52.5418 57.36 52.6018 57.17 52.9018 57.17H57.9018C57.6418 57.72 57.3018 57.63 57.0218 57.66C56.4698 57.668 55.9188 57.711 55.3718 57.79C54.8718 57.9 54.4518 57.56 53.9318 57.71C53.4918 57.782 53.0418 57.782 52.6018 57.71V57.68ZM54.0918 59.81C54.5618 59.73 54.5718 60.15 54.7618 60.51L53.6618 60.56C53.7118 60.22 53.6918 59.9 54.0918 59.84V59.81ZM54.2118 59.06C54.3518 58.35 54.6418 58.18 55.5018 58.33C55.1618 59.31 55.1418 59.32 54.2118 59.09V59.06ZM56.6518 59.66C56.3418 60.55 56.3218 60.55 55.2318 60.34C55.4018 59.49 56.2418 60.08 56.6518 59.69V59.66ZM55.8718 59.09C55.8718 58.38 55.9318 58.28 56.5218 58.3C56.8218 58.3 57.1118 58.3 57.4718 58.37C57.0018 59.27 57.0618 59.31 55.8718 59.12V59.09ZM58.0618 59.63C58.0618 60.13 57.8018 60.21 57.3118 60.23C57.4218 59.79 57.5518 59.5 58.0618 59.66V59.63ZM57.7718 59C57.8818 58.7 57.9618 58.48 58.0518 58.25L58.8118 58.31C58.6418 59 58.6418 59 57.7718 59ZM59.6518 59.92L58.6518 60.08C59.0918 59.45 59.0918 59.45 59.6518 59.9V59.92ZM59.2418 59.12C59.2598 58.942 59.2898 58.764 59.3318 58.59C59.3718 58.487 59.4188 58.387 59.4718 58.29C59.6118 58.28 59.7518 58.28 59.8918 58.29C60.0418 58.29 60.2018 58.35 60.3918 58.39C60.2918 59 59.7718 58.94 59.2418 59.1V59.12ZM58.3718 57.63V57.46H60.9918C60.1528 57.77 59.2408 57.822 58.3718 57.61V57.63ZM63.4618 58.01C63.4618 58.08 63.4618 58.15 63.4618 58.21C62.6188 58.524 61.7308 58.696 60.8318 58.72C60.9518 58.51 61.0018 58.31 61.0818 58.29C61.8918 58.16 62.6718 58.08 63.4618 58V58.01ZM61.2418 57.58C61.3718 57.36 61.4118 57.2 61.4818 57.19C62.2548 57.072 63.0438 57.109 63.8018 57.3C62.9978 57.657 62.1008 57.748 61.2418 57.56V57.58ZM62.7818 59.11C62.1038 59.493 61.3288 59.671 60.5518 59.62C61.2198 59.212 62.0008 59.026 62.7818 59.09V59.11ZM63.4018 60.89C63.6218 61.44 63.4018 61.7 62.9218 61.83L62.6018 61.29C62.5018 61.4 62.4218 61.45 62.4118 61.51C62.4278 61.661 62.3878 61.813 62.2988 61.936C62.2108 62.06 62.0798 62.147 61.9318 62.18C60.9318 62.49 59.9318 62.82 58.7518 63.18C58.6518 62.81 58.5818 62.51 58.5118 62.18L63.4018 60.89ZM66.1618 55.8L64.6618 56.58L64.5518 56.44C64.9818 56.07 65.4118 55.69 65.9118 55.27L66.1618 55.8ZM65.7618 52.07C65.9638 52.357 66.0968 52.687 66.1508 53.034C66.2048 53.381 66.1778 53.735 66.0718 54.07C65.8328 53.798 65.6768 53.463 65.6218 53.105C65.5668 52.747 65.6158 52.381 65.7618 52.05V52.07ZM64.2318 60.5C64.6018 60.36 64.9818 60.13 65.4718 60.58C65.0018 60.86 64.5918 61.11 64.2018 61.36C63.7818 60.75 63.7818 60.67 64.2318 60.48V60.5ZM64.0518 63.76C64.2518 64.22 63.9018 64.36 63.4418 64.59C63.4418 64.17 63.0818 63.85 63.5818 63.67C63.7118 63.6 64.0018 63.65 64.0518 63.74V63.76ZM63.0518 62.82C63.0518 62.42 63.3818 62.39 63.6818 62.33C63.6818 62.88 63.6818 62.88 63.0018 62.8L63.0518 62.82ZM62.3018 66.52C62.3018 65.97 62.6618 65.95 62.8518 65.76L62.1418 65.9C62.0518 65.37 61.9618 64.9 61.8618 64.32L62.7618 64.03C62.7618 64.49 63.1418 64.83 62.7618 65.24C62.6918 65.31 62.8218 65.58 62.8618 65.76L63.0518 66.08L62.3018 66.52ZM62.9618 66.93C62.7718 67.27 62.7818 67.28 62.3218 67.58C62.4718 67.08 62.4718 67.08 62.9318 66.91L62.9618 66.93ZM60.5618 64.82L61.2718 64.49C61.8918 65.83 61.7718 66.34 60.7918 66.67C60.4818 66.17 61.0718 66.19 61.2418 65.87C61.1228 65.851 61.0078 65.808 60.9068 65.743C60.8048 65.678 60.7178 65.592 60.6508 65.491C60.5838 65.391 60.5388 65.277 60.5188 65.158C60.4978 65.039 60.5028 64.917 60.5318 64.8L60.5618 64.82ZM60.4418 63.82C60.4418 63.7 60.3818 63.5 60.4418 63.47C60.6418 63.353 60.8528 63.256 61.0718 63.18C61.3118 63.39 61.2918 63.56 61.0718 63.66C60.8588 63.74 60.6368 63.797 60.4118 63.83L60.4418 63.82ZM61.7418 62.98C61.9888 62.875 62.2428 62.788 62.5018 62.72C62.5018 63.2 61.9518 63.57 61.7218 63.38C61.6318 63.33 61.6418 63 61.7118 63L61.7418 62.98ZM61.6918 67.59C61.6918 68.14 61.6918 68.15 60.8918 68.23C60.8018 67.61 60.8018 67.61 61.6618 67.6L61.6918 67.59ZM59.9418 63.59C59.9058 63.704 59.8418 63.807 59.7558 63.89C59.6708 63.973 59.5668 64.034 59.4518 64.068C59.3378 64.101 59.2168 64.106 59.0998 64.082C58.9828 64.058 58.8738 64.006 58.7818 63.93C59.1048 63.686 59.5088 63.575 59.9118 63.62L59.9418 63.59ZM58.1918 66.9C58.6518 67.62 58.5118 68.04 56.9918 68.36C56.6618 67.42 56.7918 67.25 58.1618 66.93L58.1918 66.9ZM57.3018 69.13C57.5918 69.05 57.8618 68.91 58.2418 68.76C58.3218 69.01 58.3818 69.18 58.4518 69.39C58.0378 69.729 57.5338 69.941 57.0018 70C56.7818 69.58 56.7918 69.3 57.2718 69.16L57.3018 69.13ZM58.7418 65L60.0018 64.81C60.0518 65.14 60.1018 65.45 60.1618 65.81L58.9418 66.1C58.8618 65.72 58.8018 65.39 58.7418 65ZM60.0818 66.41C60.1598 66.547 60.1858 66.707 60.1548 66.862C60.1238 67.017 60.0368 67.154 59.9118 67.25C59.5318 67.6 59.4918 67.64 58.9118 67.56C58.9118 67.34 58.9118 67.12 58.8418 66.85L60.0818 66.41ZM58.9018 68.41L60.1118 67.95C60.3218 68.89 60.0118 69.22 58.8318 69.28C58.8618 68.94 58.8818 68.69 58.9018 68.39V68.41ZM60.6018 70.93C59.8318 71.58 59.7018 71.57 59.4618 70.93C60.3218 70.39 60.3218 70.39 60.6018 70.91V70.93ZM61.8718 69.07C62.4518 68.5 62.8718 68.71 63.1918 69.71C62.5118 70 62.5118 70 61.8718 69.05V69.07ZM63.0018 68.24C63.3718 68.24 63.6618 68.16 63.7718 68.24C63.8818 68.32 64.2918 68.78 63.7718 69.24L63.0018 68.24ZM63.8618 66.16C63.5118 65.41 63.5418 65.32 64.2418 64.89C64.3718 65.12 64.4818 65.35 64.6318 65.62L63.8618 66.16ZM64.6618 67.69C64.8178 67.922 64.9618 68.162 65.0918 68.41C64.8618 68.41 64.5818 68.56 64.5518 68.5C64.3708 68.276 64.2558 68.006 64.2218 67.72C64.2118 67.51 64.4918 67.5 64.6418 67.69H64.6618ZM65.3818 62.88C65.8918 62.77 66.1218 62.02 66.8018 62.46C66.2118 63.12 65.8918 63.23 65.3618 62.88H65.3818ZM66.7118 63.65L65.1918 65.14H65.0118C65.0118 64.95 64.9318 64.68 65.0118 64.58C65.4918 64.174 66.0068 63.813 66.5518 63.5C66.6018 63.52 66.6418 63.59 66.6918 63.65H66.7118ZM65.0018 61.65L65.8718 61.27C65.5518 62 65.4118 62.08 65.0018 61.64V61.65ZM65.2318 57.85C64.9718 57.66 64.8318 57.45 65.0918 57.23C65.3518 57.01 65.9118 56.59 66.3518 56.23C66.4418 56.36 66.5718 56.49 66.5518 56.53C66.2148 57.067 65.7558 57.516 65.2118 57.84L65.2318 57.85ZM66.4718 54.61C66.5818 54.99 66.7018 55.37 66.8218 55.75C66.7128 55.709 66.6148 55.644 66.5348 55.56C66.4538 55.476 66.3938 55.375 66.3588 55.265C66.3228 55.154 66.3128 55.037 66.3288 54.922C66.3448 54.806 66.3868 54.697 66.4518 54.6L66.4718 54.61ZM68.8718 49.39C69.7118 49.18 70.1418 49.34 70.4518 49.93C70.7618 50.52 71.0018 51.14 71.3118 51.72C71.4998 52.027 71.7038 52.324 71.9218 52.61C72.1788 52.966 72.4158 53.337 72.6318 53.72C72.7118 53.926 72.7118 54.154 72.6318 54.36C71.1358 52.893 69.8628 51.215 68.8518 49.38L68.8718 49.39ZM10.7218 16.08C11.1278 16.701 11.3628 17.419 11.4018 18.16C11.1218 17.49 10.8418 16.81 10.5718 16.16L10.7218 16.08ZM6.27181 23.93L7.1218 23.52L7.7918 25L6.6218 27.13C6.1778 26.125 6.05481 25.007 6.27181 23.93ZM7.64181 18.87L7.11181 19.51L7.00181 19.46C7.00181 19.05 7.06181 18.64 7.11181 18.02L7.64181 18.87ZM7.19181 17.07L7.25181 16.55H7.41181C7.41181 16.72 7.41181 16.89 7.41181 17.07H7.19181ZM14.8018 35L14.4518 35.64C13.6318 34.8 13.4518 34.73 14.6518 33.64L15.1718 34.36L14.8018 35ZM15.5418 35L16.1518 35.82L15.4818 37C14.6118 36.21 14.6218 35.89 15.5418 35ZM14.2118 33C14.0418 33.39 13.8218 33.76 13.6118 34.16C13.1018 33.74 13.1018 33.74 13.9318 32.55C14.0618 32.78 14.2418 33 14.2118 33ZM9.91181 25.78C11.0518 27.19 10.6918 27.25 10.0418 28.18L9.21181 26.76L9.91181 25.78ZM9.00181 26.08C8.32181 25.32 8.31181 25.08 9.00181 24.08C9.76181 25 9.76181 25 9.00181 26.11V26.08ZM11.1518 30.08L10.3718 28.82L10.9818 27.94L11.7518 29C11.5918 29.3 11.4218 29.6 11.1518 30.07V30.08ZM12.0518 29.76C12.7018 30.57 12.7018 30.57 11.9418 31.53C11.7818 31.23 11.6218 30.95 11.4318 30.61L12.0518 29.76ZM10.0518 29.46C10.6518 30.12 10.7818 30.46 10.7718 30.97L11.6118 32.15C11.4918 32.41 11.4018 32.6 11.2718 32.9L11.9018 32.83L12.4818 33.93L12.0518 34.57C10.9698 33.141 10.0288 31.611 9.24181 30L10.0518 29.46ZM12.9318 31.26C13.7118 32.1 13.7118 32.26 12.9318 33.04C12.0718 32.61 12.0918 31.93 12.8918 31.25L12.9318 31.26ZM13.9318 31.26C13.3318 30.66 13.3318 30.66 13.6718 29.96L14.4218 28.42H14.6518L15.2118 29.31L13.9318 31.26ZM12.9318 29.88L12.4718 29.14C12.7718 28.56 13.1218 27.89 13.5318 27.08C13.7418 27.44 13.8918 27.73 14.0818 28.08C13.3918 28.39 13.4018 29.25 12.8818 29.86L12.9318 29.88ZM12.1718 28.52L11.4218 27.24L12.2118 25.59L13.0818 26.44C12.7318 27.12 12.4618 27.74 12.1218 28.5L12.1718 28.52ZM11.0018 26.13C10.1718 24.83 10.0818 25.23 11.0018 23.75C11.7418 24.69 11.7418 25.35 11.0018 26.13ZM9.85181 24.31C9.66181 23.99 9.50181 23.73 9.33181 23.43C9.53181 23.05 9.75181 22.67 9.96181 22.3C10.8218 22.79 10.8018 23.27 9.85181 24.31ZM9.94181 21.1L9.00181 22.88C8.70181 22.48 8.4818 22.21 8.28181 21.88C8.2598 21.83 8.2488 21.775 8.2488 21.72C8.2488 21.665 8.2598 21.61 8.28181 21.56C8.71181 20.8 9.14181 20.04 9.58181 19.28C9.58181 19.28 9.6718 19.23 9.7918 19.17L10.5918 20.42L9.94181 21.1ZM8.08181 24.27C8.08181 23.6 7.28181 23.06 7.86181 22.27C8.72181 23.38 8.81181 23.67 8.08181 24.27ZM8.83181 19C8.38181 18.63 8.39181 18.6 9.14181 17.87C9.33181 18.36 9.24181 18.71 8.83181 19ZM8.44181 17.56C8.30181 17.04 8.30181 17.04 8.82181 16.85L8.44181 17.56ZM7.72181 21C7.55181 20.78 7.39181 20.56 7.19181 20.27L8.1218 19.2C8.5018 19.93 8.42181 20.26 7.72181 21ZM6.38181 23.17C6.38181 22.69 6.38181 22.34 6.38181 21.94C7.12181 22.62 7.12181 22.72 6.38181 23.17ZM7.1218 33.63C6.6078 31.996 6.3448 30.293 6.3418 28.58C6.6818 29.58 6.9718 30.58 7.3418 31.58C7.5138 31.905 7.58481 32.273 7.54581 32.639C7.50681 33.004 7.3588 33.349 7.1218 33.63ZM7.71181 36.29C7.67581 36.172 7.64881 36.052 7.63181 35.93H7.7918L7.85181 36.29H7.71181ZM8.00181 33.41C8.14681 33.521 8.2678 33.66 8.3568 33.82C8.4458 33.979 8.5018 34.155 8.5208 34.337C8.5388 34.519 8.52081 34.702 8.46581 34.876C8.41081 35.051 8.3208 35.212 8.2018 35.35C7.6518 34.75 7.32181 34.16 8.00181 33.41ZM8.00181 37.57C7.94181 37.41 8.17181 37.15 8.30181 36.86C8.83181 37.5 9.20181 38.06 8.66181 38.86C8.31281 38.509 8.08281 38.058 8.00181 37.57ZM15.0018 47.34C14.1718 46.87 14.1218 46.75 14.4418 46.02C14.5318 45.79 14.6518 45.58 14.7918 45.29L15.2318 45.68C15.3618 45.79 15.4718 45.91 15.6318 46.07L15.0018 47.34ZM16.0018 46.53L16.6818 47.14C16.5818 47.43 16.5018 47.66 16.4118 47.88C16.3218 48.1 16.2618 48.28 16.1518 48.55C15.1418 47.87 15.1418 47.87 16.0018 46.53ZM14.1018 49.19C13.4418 48.71 13.4218 48.46 13.9518 47.54C14.6118 48.16 14.6318 48.31 14.0718 49.19H14.1018ZM14.6218 44.4C13.7918 43.63 13.7818 43.59 14.2418 42.7C15.0618 43.3 15.1118 43.5 14.5918 44.4H14.6218ZM14.4218 44.76C14.2318 45.21 14.0518 45.63 13.8718 46.07C13.1218 45.5 12.9318 45.29 13.7918 44.07L14.4218 44.76ZM13.6318 46.76C13.5618 46.98 13.5218 47.16 13.4618 47.35L13.2718 47.91C12.5418 47.05 12.4518 47.01 12.9818 46.15L13.6318 46.76ZM12.8218 44.9C11.9818 43.9 11.9818 43.9 12.6018 43.06L13.3518 43.66L12.8218 44.9ZM12.2718 46.41C12.0518 45.99 11.8718 45.68 11.7218 45.35C11.7218 45.26 11.7718 45.11 11.8118 44.97C12.5318 45.55 12.5318 45.55 12.2418 46.4L12.2718 46.41ZM11.8018 43.35C11.1018 42.82 11.1018 42.82 11.5618 41.99C12.2318 42.52 12.2518 42.64 11.7718 43.34L11.8018 43.35ZM11.5018 40.45C10.5718 39.69 10.5018 39.57 11.1218 38.21L12.0018 39.47L11.5018 40.45ZM11.2518 41.45L10.8718 42.31C10.0718 41.71 10.0418 41.56 10.5218 40.48L11.2518 41.45ZM10.2518 38.82C9.41181 38.22 9.6618 37.45 9.8718 36.6C10.7818 37.39 10.7918 37.72 10.2218 38.77L10.2518 38.82ZM9.8118 40.82C8.7018 39.7 8.81181 39.73 9.36181 38.71C9.80181 39.27 10.4418 39.85 9.78181 40.74L9.8118 40.82ZM9.1718 36.77C8.6218 36.49 8.6218 36.49 8.9818 35.09C9.5018 35.59 9.30181 36.13 9.14181 36.69L9.1718 36.77ZM8.41181 40.2C8.98181 40.93 9.54181 41.55 10.0018 42.2C10.2388 42.657 10.4298 43.136 10.5718 43.63L11.0418 43.54C11.2418 43.81 11.6118 44.01 11.4018 44.54L10.8418 44C10.9218 44.604 11.1228 45.185 11.4318 45.71C11.7178 46.191 11.9678 46.693 12.1818 47.21C10.7118 46.25 8.00181 41.86 8.41181 40.2ZM11.5118 51.28C11.0198 50.325 10.6338 49.319 10.3618 48.28C10.8618 48.96 11.3618 49.62 11.8618 50.28C12.1118 50.72 11.7718 50.9 11.5118 51.28ZM11.9918 51.92C12.2258 51.191 12.5958 50.512 13.0818 49.92C12.8218 49.37 12.5118 49.81 12.2718 49.86C9.92181 47.19 8.32181 44.2 8.53181 42.8C8.6088 42.891 8.67881 42.988 8.74181 43.09C9.64981 45.006 10.8618 46.762 12.3318 48.29C12.7518 48.75 12.9618 49.39 13.5918 49.69C13.6488 49.718 13.6968 49.761 13.7298 49.815C13.7638 49.869 13.7818 49.932 13.7818 49.995C13.7818 50.058 13.7638 50.121 13.7298 50.175C13.6968 50.229 13.6488 50.272 13.5918 50.3C13.0018 50.48 12.8118 50.96 12.5318 51.39C12.3938 51.601 12.2128 51.782 12.0018 51.92H11.9918ZM15.3518 54.66C15.6218 54.9 15.8118 54.99 15.8218 55.1C15.8218 55.64 15.4918 55.99 15.1318 56.5C14.5218 55.69 15.3918 55.37 15.3518 54.66ZM15.7118 58.07C15.3118 57.92 15.1018 57.73 15.2518 57.19C15.5918 57.48 15.8418 57.64 15.7118 58.07ZM16.4118 59.07C16.3018 58.89 16.2018 58.72 16.0418 58.43C16.5518 58.6 16.5518 58.6 16.4118 59.06V59.07ZM17.5318 60.34C16.8518 59.78 16.8518 59.78 17.2618 59.34C17.4618 59.62 17.9318 59.79 17.5318 60.33V60.34ZM18.5318 61.74C17.8218 61 17.8218 61 18.3018 60.5C19.0018 61 19.0018 61 18.5118 61.73L18.5318 61.74ZM19.5318 62.84C18.9418 62.37 18.9418 62.37 19.3518 61.56C20.0018 62.08 20.0018 62.08 19.5118 62.83L19.5318 62.84ZM20.7018 64.18C19.9718 63.8 19.9318 63.66 20.3618 62.73C21.1718 63.1 20.6218 63.67 20.6818 64.17L20.7018 64.18ZM21.3518 64.86L21.0018 64.62L21.4118 63.62C21.4728 64.031 21.4458 64.45 21.3318 64.85L21.3518 64.86ZM22.3518 65.66C21.8218 65.23 21.8218 65.01 22.2918 63.33L22.9118 63.6C22.6418 64.31 22.4618 65 22.2818 65.65L22.3518 65.66ZM23.6418 66.89C22.7518 66.24 22.7218 66.14 23.0918 65.09C23.1518 64.91 23.2218 64.74 23.3518 64.4C23.5018 65.12 22.9518 65.73 23.5318 66.3C23.9818 65.94 23.7718 65.37 23.9818 64.95C24.1678 64.512 24.3218 64.061 24.4418 63.6L23.7718 63.33C23.7718 63.01 23.7718 62.71 23.7218 62.2L23.0018 62.99C22.3918 62.67 22.3618 61.99 21.9018 61.44L21.0818 62.38C20.6818 62.17 20.6018 61.87 20.8418 61.44C20.9688 61.152 21.0728 60.855 21.1518 60.55C20.2218 60.16 20.6518 61.32 20.0318 61.37C19.7618 61.23 19.5318 61.04 19.8218 60.59C19.9768 60.299 20.1138 59.998 20.2318 59.69C19.7418 59.49 19.7418 59.49 19.1518 60.37C18.4818 60.16 18.5418 59.83 18.8118 59.37C19.0818 58.91 19.3218 58.46 19.5718 58.01C19.4948 57.968 19.4088 57.943 19.3218 57.936C19.2338 57.929 19.1458 57.941 19.0628 57.97C18.9798 57.999 18.9048 58.046 18.8408 58.106C18.7768 58.166 18.7258 58.239 18.6918 58.32C18.5018 58.65 18.3418 58.99 18.1618 59.32C17.3918 58.96 17.3518 58.85 17.8018 58.19C17.9308 58.045 18.0438 57.887 18.1418 57.72C18.1718 57.551 18.1718 57.379 18.1418 57.21C17.9718 57.21 17.7418 57.21 17.6418 57.36C17.4088 57.656 17.1948 57.967 17.0018 58.29L16.5618 58L17.6918 56.31C17.1918 56.01 16.9418 56.25 16.6918 56.57C16.4418 56.89 16.3618 57.2 16.1518 57.57L15.5218 56.95C15.7818 56.3 16.0618 55.76 16.9318 55.71C16.7718 55.45 16.6818 55.15 16.4818 55.03C16.3408 54.966 16.2148 54.872 16.1128 54.755C16.0108 54.637 15.9358 54.499 15.8918 54.35C15.8488 54.201 15.8378 54.045 15.8598 53.891C15.8818 53.737 15.9378 53.59 16.0218 53.46L15.0818 53.75C14.9628 54.539 14.5868 55.267 14.0118 55.82C13.7518 55.6 13.6918 55.41 13.9018 55.16C14.3018 54.7 14.6918 54.22 15.0818 53.75C15.0768 53.7 15.0768 53.65 15.0818 53.6C15.0818 53.39 15.2618 53.13 14.9418 53.04C14.6218 52.95 14.6218 53.22 14.4918 53.4C14.1718 53.89 13.8118 54.34 13.4918 54.78C13.0418 54.63 13.0418 54.42 13.2218 54.11C13.5618 53.54 13.9018 52.97 14.2218 52.38C14.3218 52.162 14.4088 51.938 14.4818 51.71C13.8918 51.5 13.7418 51.87 13.5818 52.18C13.3218 52.69 13.0918 53.18 12.7518 53.94L12.2218 52.84C12.6558 51.973 13.3028 51.23 14.1018 50.68C14.6418 51.29 15.1718 51.92 15.7318 52.53C16.0448 52.858 16.3788 53.165 16.7318 53.45C16.9818 53.66 17.0018 53.64 17.4718 53.37C17.3698 53.25 17.2588 53.136 17.1418 53.03C16.1308 52.238 15.2558 51.285 14.5518 50.21C14.4578 50.108 14.3978 49.978 14.3818 49.84C14.3658 49.701 14.3938 49.561 14.4618 49.44C14.6318 49.13 14.7518 48.8 14.9118 48.44C15.3918 48.71 15.7218 49.05 15.7118 49.51C15.6458 49.897 15.5278 50.274 15.3618 50.63L15.5218 50.71C15.7118 50.45 15.9118 50.2 16.1418 49.9C16.4118 50.03 16.6618 50.44 17.1418 50.03L16.3718 49.03C16.5718 48.55 16.7918 48.03 17.0218 47.52C17.6518 48.1 18.2418 48.65 18.8318 49.18C18.9618 49.268 19.0518 49.402 19.0838 49.555C19.1148 49.709 19.0858 49.868 19.0018 50C18.7918 50.45 18.5718 50.89 18.3418 51.37C17.7818 50.89 17.4918 50.46 17.8118 49.8C17.9068 49.679 17.9578 49.529 17.9578 49.375C17.9578 49.221 17.9068 49.071 17.8118 48.95C17.5178 49.487 17.2898 50.058 17.1318 50.65C17.0418 51.18 16.4718 51.65 16.7918 52.27C17.2918 52.04 17.0818 51.47 17.4518 51.19C17.8018 51.54 18.2118 51.85 17.8318 52.45C17.6718 52.69 17.7518 52.92 18.0718 53.09L18.4618 52.46C19.3058 52.932 20.1028 53.485 20.8418 54.11C21.0318 54.32 21.3118 54.63 21.7518 54.37C21.6618 54.2 21.6118 53.99 21.4718 53.89C20.8778 53.275 20.2048 52.74 19.4718 52.3C18.8318 52.04 18.7518 51.76 19.0518 51.13C19.2118 50.79 19.4018 50.46 19.5818 50.13C20.2818 50.72 20.8818 51.25 21.5118 51.73C21.7118 51.89 22.0218 52.16 22.2818 51.63C21.6918 51.15 21.0718 50.63 20.5018 50.17C19.5018 49.27 18.5018 48.35 17.5018 47.41C17.3568 47.226 17.2418 47.02 17.1618 46.8C16.9218 46.703 16.6938 46.579 16.4818 46.43C16.1018 46.1 15.7618 45.74 15.4118 45.37C15.0618 45 14.9218 44.86 15.4118 44.1C15.6498 44.393 15.9188 44.662 16.2118 44.9C16.4818 45.08 16.7318 45.56 17.2118 45.12C16.8418 44.77 16.4918 44.47 16.1618 44.12C15.8318 43.77 15.6118 43.71 15.6618 43.31C15.6618 43.25 15.5918 43.13 15.5518 43.13C14.8818 43.13 14.8618 42.41 14.4418 42.13L14.7618 41.13C13.7618 41.48 14.0118 42.48 13.5218 43.04C13.1018 42.92 13.0218 42.49 12.7818 42.24C13.0498 41.548 13.2478 40.831 13.3718 40.1C12.7618 40.46 12.7618 41.17 12.3718 41.68C12.2798 41.651 12.1958 41.603 12.1248 41.538C12.0538 41.473 11.9978 41.394 11.9608 41.306C11.9238 41.217 11.9068 41.121 11.9098 41.025C11.9138 40.93 11.9378 40.836 11.9818 40.75C12.0918 40.467 12.2218 40.193 12.3718 39.93C12.4968 39.745 12.5458 39.518 12.5058 39.297C12.4668 39.077 12.3438 38.881 12.1618 38.75C12.0088 38.63 11.8738 38.489 11.7618 38.33C10.9218 36.99 10.0618 35.66 9.25181 34.33C8.36781 32.911 7.69381 31.372 7.25181 29.76C7.25181 29.68 7.25181 29.59 7.25181 29.51C7.07181 28.99 6.68181 28.44 6.75181 27.95C6.94481 27.372 7.2388 26.834 7.6218 26.36C7.7718 26.11 7.93181 25.86 8.10181 25.6C8.68181 26.4 8.70181 26.71 8.24181 27.39C8.06281 27.604 7.89581 27.828 7.74181 28.06C7.67181 28.19 7.5618 28.45 7.9218 28.41C8.0508 28.344 8.17181 28.264 8.28181 28.17C8.49181 27.93 8.6818 27.66 8.9218 27.33C9.2118 27.85 9.44181 28.28 9.69181 28.75L9.1218 29.62C8.6318 29.26 8.5918 28.51 7.9218 28.41C8.5928 30.056 9.40881 31.639 10.3618 33.14C10.9318 34.05 11.5418 34.95 12.1518 35.84C12.3338 36.066 12.5388 36.274 12.7618 36.46C12.9718 35.95 12.6518 35.68 12.4918 35.39C12.3318 35.1 12.3518 34.77 12.7418 34.52C13.1818 35.16 13.6118 35.8 14.0518 36.47C14.0518 36.81 13.3718 37.18 14.0518 37.59L14.5218 36.99L15.1118 37.63C14.9618 37.99 14.8418 38.28 14.6918 38.63L14.1118 38.17C14.1108 38.37 14.1408 38.569 14.2018 38.76C14.9688 40.114 15.9098 41.361 17.0018 42.47C17.3018 42.76 17.5318 43.11 17.8018 43.47C17.9178 43.576 18.0418 43.673 18.1718 43.76C18.1738 43.592 18.1398 43.426 18.0728 43.273C18.0058 43.12 17.9058 42.982 17.7818 42.87C17.0818 41.93 16.4018 40.98 15.6618 40.08C15.4478 39.852 15.3168 39.559 15.2878 39.247C15.2588 38.936 15.3338 38.624 15.5018 38.36L16.9218 40C17.4218 40.56 17.9218 41.11 18.4418 41.65C18.7118 41.92 18.7818 41.92 19.2618 41.85C19.2618 41.41 18.9118 41.19 18.6618 40.91C17.8318 39.98 16.9918 39.07 16.1518 38.14C16.0098 37.941 15.8798 37.734 15.7618 37.52C15.9918 37.17 16.2218 36.8 16.4818 36.39C17.4588 37.117 18.3098 37.998 19.0018 39C19.6668 40.055 20.4858 41.006 21.4318 41.82C21.5278 41.915 21.6438 41.987 21.7718 42.03C21.8348 42.039 21.8988 42.033 21.9588 42.014C22.0198 41.995 22.0748 41.963 22.1218 41.92C22.1518 41.865 22.1668 41.803 22.1668 41.74C22.1668 41.677 22.1518 41.615 22.1218 41.56C21.7318 41.267 21.3578 40.953 21.0018 40.62C20.0018 39.42 18.9218 38.19 17.8918 37C17.1718 36.13 16.4818 35.23 15.7718 34.34L16.9218 32.62C15.9218 32.55 15.9218 33.48 15.4718 33.77C14.9518 33.19 14.9518 33.02 15.3518 32.44C15.5618 32.13 15.7118 31.78 15.9118 31.44C15.4118 31.44 15.4118 31.44 14.6718 32.38C14.3518 32.29 14.2018 32.06 14.3418 31.77C14.6318 31.15 14.9818 30.57 15.3418 29.89C16.0218 30.64 16.6618 31.32 17.2918 32.02C17.9218 32.72 18.7718 33.76 19.5618 34.57C19.9618 34.915 20.3978 35.217 20.8618 35.47C20.9248 35.499 20.9928 35.515 21.0618 35.515C21.1308 35.515 21.1988 35.499 21.2618 35.47C19.1208 33.468 17.1658 31.276 15.4218 28.92C13.6188 26.607 11.9498 24.193 10.4218 21.69L10.7918 21.07C11.0918 21.55 11.3518 21.97 11.6318 22.38C11.9118 22.79 12.1018 23.06 12.3618 23.38C12.6218 23.7 13.0318 24.2 13.3618 24.59C13.5638 24.744 13.7778 24.881 14.0018 25L14.1418 24.88C14.1028 24.741 14.0498 24.607 13.9818 24.48C13.2218 23.48 12.3518 22.48 11.6918 21.31C10.8618 19.91 10.1918 18.41 9.47181 16.94C9.41081 16.727 9.3678 16.51 9.3418 16.29C9.1818 15.74 9.0018 15.2 8.7918 14.54C8.0918 15.11 8.55181 15.66 8.52181 16.2H7.97181C7.76181 15.46 7.5618 14.78 7.4018 14.2C6.9848 13.9 6.5938 13.565 6.2318 13.2C5.7418 12.64 5.31181 12.01 4.86181 11.42C4.79181 11.33 4.75181 11.2 4.66181 11.15C3.57181 10.58 3.5918 9.45001 3.4318 8.48001C3.3618 7.54101 3.3618 6.599 3.4318 5.66C3.6918 7.2 3.94181 8.74 4.19181 10.31C4.71181 10.18 4.64181 9.89999 4.58181 9.57999C4.36181 8.28999 4.1718 6.99999 3.9518 5.70999C3.8888 5.46899 3.81181 5.232 3.72181 5C3.58181 5.16 3.5018 5.20999 3.4818 5.26999C3.4718 5.40599 3.4718 5.54399 3.4818 5.67999C3.4778 5.34299 3.43481 5.00699 3.35181 4.67999C3.17081 4.29699 2.9528 3.932 2.7018 3.59C2.3178 3.169 2.0488 2.65601 1.9218 2.10001C2.0988 2.24501 2.2658 2.40201 2.4218 2.57001C3.0718 3.37001 3.7118 4.17001 4.3418 4.98001C4.4818 5.15001 4.57481 5.35301 4.61181 5.57001C4.79181 6.32901 4.79181 7.12101 4.61181 7.88C4.42181 8.42 4.80181 8.88001 4.86181 9.32001C4.86181 9.32001 4.8618 9.42999 4.9518 9.42999C5.8018 9.60999 6.2718 10.34 6.8718 10.85C7.5128 11.389 8.1238 11.963 8.7018 12.57C8.9848 12.934 9.2358 13.322 9.4518 13.73C9.3218 14.02 9.1918 14.29 9.1218 14.44C9.2898 14.881 9.5048 15.304 9.7618 15.7C10.2118 16.457 10.5488 17.275 10.7618 18.13C11.1078 18.949 11.4948 19.75 11.9218 20.53C12.2438 21.009 12.6048 21.46 13.0018 21.88C13.3528 22.381 13.7448 22.852 14.1718 23.29C15.1718 24.17 16.1718 24.99 17.1718 25.83C17.5218 25.6 17.3718 25.4 17.2218 25.24C16.6618 24.66 16.0918 24.09 15.5118 23.54C14.9318 22.99 14.4318 22.59 13.8918 22.11L13.9918 21.96C14.1698 22.041 14.3408 22.138 14.5018 22.25C15.0418 22.69 15.5618 23.15 16.0918 23.59C17.2788 24.459 18.5688 25.178 19.9318 25.73C20.9318 26.228 21.9568 26.675 23.0018 27.07C24.8018 27.73 26.6318 28.29 28.4318 28.95C30.0118 29.54 31.5618 30.22 33.1318 30.85C34.0518 31.23 34.9918 31.58 35.9018 31.98C37.2988 32.537 38.6678 33.165 40.0018 33.86C42.1818 35.08 44.2618 36.48 46.4418 37.7C48.4418 38.84 50.3218 40.2 52.3018 41.37C54.2818 42.54 56.0718 43.61 57.9918 44.68C58.9918 45.25 60.0918 45.68 61.1518 46.19C62.0318 46.59 62.9318 46.97 63.8318 47.35C64.1518 47.48 64.4918 47.58 64.8318 47.7C64.8318 48.04 64.6318 48.13 64.3818 48.02C63.2618 47.54 62.1518 47.02 61.0318 46.55L60.6618 46.38L58.0518 45.28L55.3118 44.1C54.5798 43.783 53.8718 43.416 53.1918 43C52.1018 42.35 50.9518 41.81 49.8018 41.2C49.7538 41.268 49.7228 41.347 49.7128 41.43C49.7018 41.513 49.7108 41.597 49.7388 41.675C49.7678 41.754 49.8148 41.824 49.8758 41.881C49.9368 41.937 50.0108 41.978 50.0918 42C51.2618 42.55 52.2618 43.48 53.5918 43.72C53.7038 43.735 53.8078 43.784 53.8918 43.86C54.6998 44.538 55.6118 45.081 56.5918 45.47C57.4048 45.891 58.2438 46.261 59.1018 46.58C60.6718 47.22 62.2518 47.82 63.8218 48.44C63.9118 48.44 63.9718 48.57 64.2018 48.78C62.1418 48.5 60.5918 47.42 58.8518 46.87C57.1118 46.32 55.4118 45.67 53.6318 45.04C53.6318 45.19 53.6318 45.35 53.7218 45.42C53.9908 45.744 54.3338 45.998 54.7218 46.16C55.1108 46.322 55.5328 46.387 55.9518 46.35C56.0988 46.324 56.2488 46.331 56.3928 46.371C56.5368 46.411 56.6698 46.482 56.7818 46.58C57.7648 47.314 58.8988 47.82 60.1018 48.06C60.6318 48.2 61.1018 48.54 61.7018 48.38H61.7818L63.4318 49.38C63.3318 49.45 63.2018 49.61 63.1118 49.59C62.6138 49.549 62.1288 49.413 61.6818 49.19C61.4328 49.05 61.1628 48.952 60.8818 48.9C59.9708 48.652 59.0728 48.358 58.1918 48.02C55.9118 47.14 53.6418 46.24 51.3818 45.3C50.3318 44.87 49.3218 44.3 48.3018 43.83L44.7718 42.13C45.0158 42.68 45.4538 43.122 46.0018 43.37C47.5978 44.271 49.2508 45.066 50.9518 45.75C52.6218 46.35 54.2318 47.13 55.8718 47.83C56.2118 47.96 56.5718 48.04 56.8718 48.17C57.1528 48.28 57.4268 48.407 57.6918 48.55C57.3618 49.42 56.5518 49.7 56.0418 50.32L55.0418 50.1L56.3418 48.44L56.2518 48.31C56.0938 48.344 55.9448 48.409 55.8118 48.5C55.5618 48.75 55.3618 49.06 55.1018 49.31C54.4518 49.97 54.2718 49.98 53.3618 49.55C53.7518 48.91 53.7518 48.91 54.5018 48.92C54.5018 48.58 54.4118 48.23 54.3618 47.8C53.8918 48.42 53.3618 48.16 52.9018 47.91C52.4418 47.66 52.1318 47.61 51.6318 47.42C51.9718 48.19 51.4018 48.54 51.0318 48.95C50.4218 49.6 49.7718 50.21 49.1118 50.82C48.8538 51.02 48.5798 51.197 48.2918 51.35C48.0418 51.53 47.8918 51.35 47.6618 51.2C48.6618 50.1 49.6018 49.03 50.5518 47.95L50.4718 47.83C50.3918 47.83 50.2718 47.83 50.2318 47.89C49.7118 48.59 49.0818 48.55 48.3218 48.14L48.8318 47.47C48.3418 47.35 48.2518 47.81 47.8318 47.96L47.1418 47.71L46.4318 47.44L46.5418 46.85C45.5918 47.53 44.8818 46.94 44.0718 46.61L44.6818 45.81C44.1908 45.934 43.7458 46.198 43.4018 46.57C42.5758 47.218 41.7878 47.912 41.0418 48.65C40.8978 48.834 40.6878 48.954 40.4558 48.986C40.2248 49.018 39.9898 48.958 39.8018 48.82L39.3718 48.58C40.2688 47.509 41.2448 46.506 42.2918 45.58L41.0018 45.12L41.5118 45.75C41.5018 45.806 41.4808 45.861 41.4518 45.91L38.8318 48.08C38.5118 48.34 38.2718 48.21 37.9718 47.87L40.5718 45.27L40.4618 45.14C39.2988 45.904 38.1778 46.728 37.1018 47.61L36.6318 47.24L39.2018 44.51C38.4518 44.62 38.1018 45.25 37.5718 45.64C37.0418 46.03 36.5718 46.55 36.0218 47C29.1718 43.48 22.7718 39.48 17.3918 33.94C17.4728 34.153 17.5798 34.355 17.7118 34.54C18.1968 35.151 18.7138 35.735 19.2618 36.29C20.2618 37.29 21.2618 38.2 22.3718 39.07C23.6218 40.07 24.9518 40.99 26.2718 41.91C27.5918 42.83 28.7218 43.64 30.0018 44.41C31.2818 45.18 32.9118 46.04 34.3718 46.85C35.1718 47.3 35.9518 47.79 36.7718 48.2C37.5918 48.61 38.2418 48.84 38.9818 49.14C40.0618 49.59 41.1218 50.08 42.2218 50.46C43.3218 50.84 44.3218 51.02 45.3718 51.3C46.9218 51.73 48.4718 52.21 50.0418 52.58C51.9418 53.02 53.8618 53.41 55.7818 53.72C56.9938 53.901 58.2168 54.008 59.4418 54.04C60.4418 54.04 61.4418 54.04 62.5318 53.97L62.0918 54.52L63.0118 54.33C63.1118 54.57 63.2018 54.81 63.3118 55.1C62.4518 55.24 61.6618 55.4 60.8618 55.49C59.5028 55.545 58.1408 55.485 56.7918 55.31C55.3118 55.22 53.8518 55.01 52.3718 54.86C52.1118 54.86 51.8318 54.71 51.5918 55.03C52.1268 55.335 52.7268 55.506 53.3418 55.53C54.9818 55.66 56.6318 55.69 58.2618 55.89C59.6978 55.997 61.1398 55.973 62.5718 55.82C62.8418 55.8 63.1118 55.8 63.3818 55.82C63.4418 56.24 63.1718 56.22 62.9618 56.23L61.1318 56.32C60.8248 56.345 60.5208 56.395 60.2218 56.47C59.5678 56.656 58.8758 56.656 58.2218 56.47C57.7268 56.38 57.2218 56.359 56.7218 56.41L53.5418 56.49C53.2118 56.49 52.8218 56.49 52.8618 55.96C52.6628 56.118 52.4398 56.243 52.2018 56.33C51.9808 56.341 51.7598 56.307 51.5518 56.23C49.6218 55.78 47.6718 55.39 45.7718 54.85C44.6218 54.53 43.4418 54.33 42.2818 54.06C40.9018 53.73 39.5818 53.18 38.2818 52.73L37.2818 52.39C37.3518 52.563 37.4608 52.716 37.6018 52.838C37.7428 52.96 37.9108 53.046 38.0918 53.09C39.8078 53.827 41.5978 54.377 43.4318 54.73C44.3858 54.933 45.3268 55.19 46.2518 55.5C46.7318 55.64 47.2518 55.79 47.7118 55.96C47.6578 56.12 47.5948 56.277 47.5218 56.43L45.9618 59.37C45.7018 59.86 45.7118 59.86 44.9618 59.68C45.4008 58.5 45.9178 57.35 46.5118 56.24C46.0118 56.43 46.0118 56.43 45.2118 57.75C44.8818 58.3 44.5818 58.86 44.2118 59.46L43.3918 59.4C43.6418 58.08 44.7118 57.15 44.7218 55.79C44.1018 56.79 43.4718 57.85 42.8818 58.9C42.8498 58.998 42.7958 59.086 42.7228 59.159C42.6498 59.231 42.5608 59.284 42.4618 59.315C42.3638 59.345 42.2598 59.351 42.1588 59.333C42.0578 59.315 41.9628 59.273 41.8818 59.21L42.7818 57.04C42.2838 57.307 41.8818 57.723 41.6318 58.23C41.5418 58.37 41.5118 58.55 41.4318 58.69C41.1618 59.16 41.1418 59.17 40.4318 58.93L41.5418 56.72C41.0618 56.78 40.7918 57.09 39.7118 58.72C39.6118 58.734 39.5108 58.734 39.4118 58.72C39.3218 58.72 39.2318 58.61 39.1418 58.56C39.3018 57.85 40.0018 57.44 40.0618 56.56C39.5658 56.951 39.1338 57.416 38.7818 57.94C38.4718 58.39 38.4618 58.38 37.7818 58.15L39.0018 56.13C38.7418 56.24 38.5718 56.26 38.5018 56.35C38.1318 56.84 37.7818 57.35 37.4418 57.84C37.2318 58.13 37.0218 58.29 36.6618 57.94L37.3018 56.94L37.1218 56.79L36.0118 57.79L35.3118 57.74L35.6618 58.74C36.0868 58.58 36.5468 58.538 36.9938 58.617C37.4408 58.696 37.8578 58.894 38.2018 59.19C38.2618 59.19 38.3518 59.32 38.4118 59.3C39.4718 59.05 40.4118 59.66 41.4118 59.74C42.4118 59.82 43.1718 59.96 44.0518 60.09C44.2738 60.114 44.4918 60.164 44.7018 60.24C45.7408 60.62 46.8278 60.849 47.9318 60.92C48.8578 61.081 49.7928 61.188 50.7318 61.24C51.9258 61.283 53.1208 61.257 54.3118 61.16C56.1618 61 58.0018 60.8 59.8018 60.6C60.4018 60.53 60.9918 60.4 61.6118 60.29C61.6118 60.73 61.3518 60.8 61.1318 60.85C59.3818 61.2 57.6418 61.53 55.8918 61.85C55.8118 61.85 55.7218 61.85 55.6418 61.85C54.3948 62.128 53.1278 62.302 51.8518 62.37C51.6778 62.365 51.5048 62.403 51.3478 62.479C51.1908 62.556 51.0548 62.669 50.9518 62.81C51.5788 62.99 52.2448 62.99 52.8718 62.81C54.4818 62.62 56.0818 62.4 57.6818 62.19C57.8118 62.19 57.9518 62.19 58.1618 62.19C58.1618 62.55 58.1618 62.86 58.1618 63.19C56.9798 63.372 55.8268 63.708 54.7318 64.19V64.37H56.4918C55.3238 64.975 54.0508 65.352 52.7418 65.48C52.1218 64.99 52.9818 64.4 52.6218 63.81C52.0818 64.35 52.3518 65.05 52.1018 65.65L47.1018 66.73C47.0518 66.39 47.0118 66.13 46.9618 65.87H46.8118C46.7418 66.1 46.6618 66.33 46.5618 66.64H45.1618C45.1618 66.28 45.1618 65.98 45.1618 65.64C44.4818 65.75 44.8518 66.34 44.5518 66.64L43.6718 66.47C43.6218 67.14 44.2618 66.9 44.4818 67.2C44.4818 67.87 44.4818 68.55 44.4818 69.29L43.0118 69.18C43.0718 68.44 43.1218 67.76 43.1818 66.96C42.7018 67.27 42.7718 67.65 42.7318 67.96C42.6918 68.27 42.6718 68.67 42.6318 69.13L41.3718 68.92C41.3718 68.51 41.4318 68.14 41.4718 67.66C40.9318 67.92 41.1718 68.42 40.9318 68.66C40.3318 68.87 39.8718 68.52 39.3418 68.21C39.3418 68.02 39.3418 67.8 39.3418 67.58H39.2118L38.7618 68.29L36.3218 67.74C36.4018 67.25 36.4818 66.74 36.5618 66.3C36.1618 66.65 35.9318 67.24 35.6118 68.66C34.2518 68.569 32.9198 68.23 31.6818 67.66C30.0998 67.053 28.5988 66.254 27.2118 65.28C26.5738 64.892 25.9048 64.557 25.2118 64.28C24.7618 65.28 24.9818 66.47 24.2118 67.38L23.6418 66.89ZM49.3518 51.47C50.2418 50.4 51.1418 49.35 52.1018 48.21L53.2018 48.64C52.9118 49.45 52.3318 49.4 51.5818 49.23L52.0218 49.86L49.9318 51.86L49.3118 51.69C49.3318 51.61 49.3118 51.52 49.3518 51.47ZM52.6118 50L53.7118 50.37C53.4298 50.831 52.9998 51.184 52.4918 51.37C52.3938 51.416 52.3078 51.485 52.2418 51.57C52.0818 51.75 51.9618 52.05 51.7818 52.08C51.4258 52.1 51.0678 52.067 50.7218 51.98C51.4118 51.3 52.0018 50.67 52.6118 50ZM54.2718 51.87C53.8118 52.61 53.7818 52.62 52.9218 52.4C53.2218 51.64 53.3018 51.61 54.2718 51.89V51.87ZM53.9718 51.22C54.4118 50.56 54.4118 50.56 55.3418 50.85C55.0018 51.65 54.4718 51.23 54.0018 51.24L53.9718 51.22ZM56.4018 52.16C56.3238 52.317 56.2148 52.456 56.0818 52.57C55.9488 52.684 55.7938 52.77 55.6268 52.823C55.4608 52.876 55.2848 52.895 55.1098 52.879C54.9358 52.863 54.7658 52.813 54.6118 52.73C54.6698 52.556 54.7678 52.399 54.8988 52.271C55.0298 52.143 55.1898 52.048 55.3648 51.994C55.5398 51.94 55.7258 51.929 55.9058 51.961C56.0868 51.994 56.2558 52.069 56.4018 52.18V52.16ZM55.8818 51.57C55.8818 50.91 56.5318 51.02 56.7218 50.67C56.9128 50.345 57.1238 50.031 57.3518 49.73L58.3018 50.28C58.0018 50.83 57.4518 50.56 57.0418 50.79L57.3418 51.2C57.0018 51.91 56.3918 51.45 55.8818 51.59V51.57ZM58.3318 49.52C58.1298 49.458 57.9358 49.374 57.7518 49.27C58.0118 49.09 58.2018 48.85 58.3318 48.89C59.1388 49.025 59.9108 49.321 60.6018 49.76C60.3318 49.84 60.1718 49.94 60.0718 49.9C59.5058 49.721 58.9228 49.6 58.3318 49.54V49.52ZM59.6718 50.52C59.3018 50.88 59.0918 50.7 58.8818 50.46L59.6718 50.52ZM57.8618 52.21C57.3518 53.06 57.3518 53.06 56.6818 52.92C57.0018 52.45 57.2218 52 57.8618 52.25V52.21ZM57.7818 51.57C58.1818 51.24 58.4518 51.44 58.8718 51.46C58.4318 51.88 58.1818 51.69 57.7818 51.61V51.57ZM60.0218 52.57C59.6618 53.42 59.0218 53.1 58.4318 53.1C58.7818 52.32 58.8418 52.3 60.0018 52.65L60.0218 52.57ZM59.3318 51.7C59.8718 51.21 60.3318 51.58 60.8818 51.62C60.3518 52.1 60.3218 52.1 59.3318 51.78V51.7ZM60.1418 50.7C60.7818 50.36 61.1418 50.78 61.5418 50.77L61.4818 51.05L60.1418 50.7ZM60.9018 50C61.0718 49.9 61.1318 49.84 61.1618 49.85L62.2718 50.2C61.6518 50.45 61.3618 50.13 60.9018 50ZM61.8318 53H60.8318C61.2218 52.76 61.2218 52.76 61.8318 53.05V53ZM61.5118 51.82L62.7318 51.91C62.0718 52.4 62.0018 52.39 61.5118 51.87V51.82ZM62.2918 51.25C62.2968 51.177 62.2968 51.103 62.2918 51.03L63.2218 51.11C62.8918 51.57 62.5818 51.24 62.2918 51.3V51.25ZM45.4518 48.18C45.5368 48.068 45.6568 47.987 45.7928 47.951C45.9278 47.915 46.0728 47.925 46.2018 47.98C46.5218 48.09 46.8418 48.17 47.3918 48.33C46.8018 48.86 46.3918 49.26 45.9218 49.65C45.6848 49.869 45.4298 50.07 45.1618 50.25C44.6918 50.59 44.2818 50.31 43.7618 50.07L45.4518 48.18ZM42.7018 49.87L41.2918 49.52L43.7818 46.73C44.0818 46.98 44.2818 47.16 44.5018 47.33L45.1418 47.78C44.4448 48.602 43.6208 49.307 42.7018 49.87ZM46.2718 50.19C46.4318 49.96 46.6318 49.76 46.7818 49.54C47.3218 48.76 47.9318 48.31 48.9318 49.05L47.2318 50.7C46.8618 51.05 46.4618 50.89 45.9718 50.7C46.0628 50.525 46.1628 50.355 46.2718 50.19ZM56.2718 67.82C56.3318 68.89 56.2718 69 54.8418 69.41C54.8418 68.2 54.8418 67.02 54.8418 65.76L56.2218 65.44C56.3308 65.603 56.4028 65.787 56.4348 65.98C56.4678 66.173 56.4578 66.37 56.4078 66.56C56.3578 66.749 56.2678 66.925 56.1448 67.077C56.0208 67.229 55.8668 67.352 55.6918 67.44L56.2718 67.82ZM56.1818 69.46L56.3218 70.01C55.8418 70.3 55.4018 70.55 54.8418 70.87C54.8418 70.49 54.8418 70.21 54.8418 69.95L56.1818 69.46ZM55.5218 71.28C55.8818 70.87 56.1418 70.91 56.4318 71.19C56.1318 71.39 56.1318 71.39 55.5718 71.28H55.5218ZM56.0018 72.74C55.1618 73 55.1618 73 55.0018 72.39C55.4118 72.28 55.8018 72.06 56.0018 72.74ZM52.6518 69.52V66.18L54.5318 65.87C54.5318 67.17 54.5318 68.4 54.5318 69.69C54.2278 69.831 53.8928 69.889 53.5588 69.859C53.2258 69.829 52.9058 69.712 52.6318 69.52H52.6518ZM53.5518 71.4L52.7818 71.5C52.7818 71.3 52.7818 71.15 52.7818 70.99C52.7818 70.27 52.8418 70.24 53.6018 70.26C53.8718 70.26 54.1418 70.21 54.4718 70.18C54.5018 71.22 54.4418 71.29 53.5318 71.4H53.5518ZM50.5518 69.65C50.5518 69.45 50.8318 69.24 51.0118 68.98C50.6418 68.83 50.5918 68.46 50.6518 67.98C50.7118 67.5 50.7318 66.98 50.7718 66.46L52.0818 66.12C52.2808 66.727 52.3188 67.374 52.1918 68C52.1918 68.58 52.1018 69.16 52.0618 69.76L51.2918 70.12V70.29L52.0418 70.42C52.0418 70.5 52.1318 70.55 52.1318 70.59C52.1318 71.78 52.0218 71.83 50.5518 71.65C50.4918 70.98 50.4918 70.98 50.8818 70.59C50.7198 70.297 50.6088 69.98 50.5518 69.65ZM48.7518 70.45C48.7518 70.03 48.6718 69.68 48.6218 69.25L50.1418 69.36C50.1418 69.72 50.1418 70 50.0618 70.36L48.7518 70.45ZM49.9918 71.09L49.8118 71.76H48.6518V71L49.9918 71.09ZM48.7618 67.51C48.8118 67.11 48.9518 66.83 49.4418 66.83C49.7518 66.786 50.0558 66.712 50.3518 66.61C50.2918 67.36 50.2418 68.02 50.1918 68.67C50.1048 68.703 50.0138 68.726 49.9218 68.74C48.7118 68.78 48.6218 68.67 48.7618 67.51ZM48.2118 69.63C48.1118 70.31 48.0918 71 48.0318 71.74H46.6618C46.7718 71.06 46.8918 70.4 47.0318 69.57C46.8208 68.766 46.8478 67.918 47.1118 67.13L48.3718 67C48.5018 68.09 48.3718 68.4 47.7118 68.68C47.8918 68.757 48.0398 68.893 48.1308 69.066C48.2218 69.239 48.2508 69.438 48.2118 69.63ZM45.2118 70.45C45.1618 70.45 45.1318 70.25 45.1618 70.16C45.1848 70.115 45.2178 70.076 45.2568 70.045C45.2968 70.014 45.3428 69.992 45.3918 69.98C45.7218 69.98 46.0418 69.98 46.3918 69.98L46.5318 70.16C46.4118 70.32 46.3018 70.61 46.1818 70.62C45.8478 70.615 45.5178 70.558 45.2018 70.45H45.2118ZM46.0818 71.45C45.5718 71.83 45.5218 71.83 45.0818 71.37L46.0818 71.45ZM45.0818 69.36C45.0818 68.64 45.0818 67.96 45.1318 67.22H46.6118C46.5518 68 46.4918 68.73 46.4318 69.49L45.0818 69.36ZM43.5218 70.45C43.2518 70.45 43.0418 70.31 43.2218 69.89L44.6318 70.11C44.2818 70.7 43.8418 70.42 43.4818 70.41L43.5218 70.45ZM44.2118 71.28C44.0018 71.85 43.5318 71.51 43.1118 71.68C43.2218 71 43.2218 71 44.1718 71.24L44.2118 71.28ZM42.4318 71.59L41.1518 71.25C41.2418 70.64 41.3118 70.11 41.4018 69.53C41.7418 69.6 42.0118 69.63 42.2718 69.71C42.5318 69.79 42.6318 69.89 42.6218 69.97C42.5768 70.14 42.4828 70.293 42.3518 70.41C42.2918 70.48 42.1618 70.5 42.0318 70.56C42.0818 70.89 42.7818 70.94 42.3918 71.55L42.4318 71.59ZM40.6518 70.2L39.1518 69.72C39.1518 69.47 39.1518 69.26 39.2018 68.99C40.7318 68.78 41.0018 69 40.6518 70.2ZM37.0018 69.85C36.9018 70.15 36.8418 70.33 36.7618 70.55C36.3218 70.41 35.8918 70.35 36.0518 69.65L37.0018 69.85ZM36.2518 68.54C36.2888 68.49 36.3378 68.45 36.3928 68.422C36.4488 68.394 36.5098 68.38 36.5718 68.38C37.0418 68.38 37.1518 68.57 37.0118 69.23C36.7688 69.139 36.5338 69.025 36.3118 68.89C36.2778 68.839 36.2568 68.781 36.2498 68.72C36.2428 68.659 36.2508 68.597 36.2718 68.54H36.2518ZM25.3718 68.18C24.8818 67.96 24.7218 67.82 24.9118 67.41C25.1898 66.81 25.4268 66.192 25.6218 65.56C25.7218 65.27 25.8518 65.31 26.0218 65.4C25.8218 66.31 25.6218 67.2 25.3918 68.18H25.3718ZM26.4718 68.92C25.8218 68.52 25.7818 68.24 26.2618 67.36C27.0018 67.75 27.0018 68 26.4918 68.92H26.4718ZM28.0718 69.16C28.0718 69.35 27.9818 69.54 27.9418 69.72C27.9128 69.776 27.8798 69.829 27.8418 69.88L27.1518 69.47C27.2418 69.03 27.3118 68.63 27.4018 68.15C28.2418 68.53 28.2418 68.53 28.0918 69.16H28.0718ZM29.3318 71L28.3318 70.34C28.5018 69.82 28.6318 69.43 28.7518 69.04C29.8118 69.36 29.8818 69.58 29.3318 71ZM30.6718 71.75L29.8918 71.22C30.0218 70.75 30.1518 70.32 30.2918 69.83L31.1318 70.23C31.1358 70.762 30.9748 71.283 30.6718 71.72V71.75ZM32.4018 72.59C32.0418 72.42 31.6918 72.26 31.3118 72.1C31.3818 71.77 31.4218 71.53 31.4918 71.29C31.5478 71.076 31.6188 70.865 31.7018 70.66C32.8818 71 33.0018 71.22 32.4018 72.56V72.59ZM33.8718 73.3L33.0018 73L33.1618 72.23C33.1618 72.02 33.2618 71.81 33.3218 71.6C34.1718 71.75 34.3118 72.18 33.8718 73.27V73.3ZM35.7018 74L34.5818 73.54C34.6618 73.07 34.7418 72.65 34.8318 72.15C35.2818 72.34 35.5818 72.47 35.9718 72.62C35.8818 73 35.8018 73.44 35.7018 74ZM36.9318 74.42L36.1218 74C36.6418 73.82 36.8018 74.11 37.0418 74.2L36.9318 74.42ZM39.5118 75.22C39.5118 74.73 39.5818 74.29 39.6218 73.85C39.6628 73.545 39.6798 73.238 39.6718 72.93C39.6448 72.695 39.5738 72.468 39.4618 72.26C39.4618 72.26 39.2018 72.26 39.1718 72.31C39.0418 72.57 38.7818 72.95 38.8718 73.11C39.2518 73.74 38.9918 74.32 38.8718 74.93C38.1118 74.93 38.1118 74.93 37.6518 74.48C37.9218 74.09 38.4018 74.48 38.7118 74.18C38.7118 73.6 38.1418 73.78 37.8618 73.48C37.8618 73.2 37.8618 72.87 37.8618 72.54C37.8618 72.21 37.7818 72.03 37.4918 72.12C37.4028 72.167 37.3248 72.232 37.2618 72.311C37.1998 72.391 37.1558 72.482 37.1318 72.58C37.0968 72.852 37.0968 73.128 37.1318 73.4C36.4218 73.4 36.4118 73.4 36.4518 72.88C36.4918 72.36 36.5218 71.88 36.5618 71.4C36.0518 71.45 36.0518 71.45 35.6818 71.9C35.4918 71.83 35.2218 71.82 35.1018 71.67C34.9608 71.486 34.7738 71.344 34.5588 71.258C34.3438 71.172 34.1108 71.145 33.8818 71.18C33.7118 71.18 33.4618 70.87 33.3318 70.66C33.2508 70.474 33.2068 70.273 33.2018 70.07C32.6718 69.81 32.6918 70.3 32.4818 70.5C32.2718 70.38 32.0518 70.27 31.8518 70.17C31.8518 69.8 31.9118 69.48 31.9318 69.17C31.9118 69.063 31.8778 68.959 31.8318 68.86L31.1218 68.96C31.1218 69.26 31.2118 69.47 31.2618 69.76C31.0888 69.75 30.9198 69.705 30.7658 69.628C30.6108 69.551 30.4728 69.442 30.3618 69.31C30.4218 68.99 30.7618 68.56 30.2818 68.31C29.8018 68.06 29.7718 68.58 29.5518 68.88C29.1218 68.66 28.8618 68.41 28.9518 67.94C28.9768 67.831 28.9768 67.719 28.9518 67.61C28.9388 67.54 28.9058 67.475 28.8578 67.422C28.8088 67.37 28.7468 67.332 28.6778 67.313C28.6098 67.294 28.5368 67.295 28.4678 67.316C28.3998 67.337 28.3388 67.376 28.2918 67.43C28.2528 67.47 28.2218 67.518 28.2018 67.57C28.2018 67.7 28.1318 67.83 28.0918 67.98C27.6118 67.89 27.4518 67.67 27.5918 67.17C27.7318 66.67 27.7118 66.61 27.0818 66.55C27.0318 66.77 26.9718 67 26.9118 67.28C25.9118 66.9 26.6818 66.28 26.5218 65.56C26.7768 65.638 27.0248 65.738 27.2618 65.86C28.1018 66.36 28.8818 66.94 29.7518 67.37C30.9518 67.95 32.1918 68.43 33.4318 68.93C33.7028 68.982 33.9768 69.019 34.2518 69.04C34.5948 69.117 34.9298 69.228 35.2518 69.37C35.5218 69.49 35.4718 69.71 35.2518 69.97C34.6218 69.97 34.1318 69.57 33.5218 69.37C33.5218 69.57 33.5218 69.76 33.5218 69.93C34.0448 70.322 34.6348 70.617 35.2618 70.8C35.8748 70.885 36.4928 70.922 37.1118 70.91L37.7318 69.57C37.7318 69.41 37.5918 69.14 37.4618 68.71L38.7618 68.89C38.5018 69.89 38.2618 70.73 38.0218 71.63C38.6118 71.63 38.6118 71.63 39.0218 70.38L40.4918 70.64C40.5918 71.04 40.4218 71.19 40.0318 71.15C39.6418 71.11 39.2718 70.92 38.9018 71.21C39.1318 71.82 39.7218 71.57 40.0718 71.72C40.3788 72.942 40.5128 74.201 40.4718 75.46L39.5118 75.22ZM42.1318 75.66L41.0018 75.55C41.0618 75.29 41.1118 75.09 41.1718 74.87L42.1718 74.94C42.1718 75.21 42.1518 75.41 42.1318 75.64V75.66ZM42.7118 75.77C42.7118 75.5 42.7118 75.27 42.7118 75.03C43.4818 75.12 43.4818 75.12 43.5418 75.83L42.7118 75.77ZM42.8118 74.06C42.8118 73.94 42.9918 73.72 43.0818 73.73C43.4718 73.73 43.4418 74.06 43.4018 74.44C43.0518 74.45 42.7718 74.46 42.8118 74V74.06ZM42.9018 73.12C42.7418 72.81 42.6318 72.6 42.4518 72.27L41.4518 73.12C41.3718 73.68 42.4518 73.45 42.1318 74.21L41.2318 74.14C41.1318 73.39 41.0318 72.66 40.9418 71.92C41.0518 71.92 41.1418 71.84 41.2018 71.87C42.6878 72.338 44.2588 72.471 45.8018 72.26C46.0518 72.245 46.3018 72.245 46.5518 72.26L50.2918 72.52C50.5038 72.529 50.7098 72.59 50.8918 72.7C49.8918 72.77 49.0418 73.28 48.0118 72.98C47.4738 72.891 46.9218 72.946 46.4118 73.14C46.2538 73.214 46.0828 73.254 45.9088 73.257C45.7348 73.261 45.5618 73.227 45.4008 73.159C45.2408 73.091 45.0968 72.991 44.9778 72.863C44.8588 72.736 44.7678 72.585 44.7118 72.42C44.5718 72.68 44.5318 72.87 44.4118 72.96C44.2918 73.05 44.0018 73.09 44.0018 73C43.5918 72.64 43.2418 72.74 42.9018 73.1V73.12ZM48.3318 74.47C47.1818 74.75 47.1218 74.72 47.1018 73.82C48.0018 73.66 48.0018 73.66 48.3318 74.45V74.47ZM44.2018 75.94C44.1218 75.2 44.0518 74.52 43.9718 73.73H44.8418L45.3818 75.92L44.2018 75.94ZM45.4418 73.88C46.2818 73.51 46.4418 73.57 46.5418 74.61H45.7218L45.4418 73.88ZM45.8618 76.06C45.8618 75.76 45.8618 75.55 45.7718 75.18C46.6018 75.331 47.4518 75.331 48.2818 75.18C48.7318 75.18 48.7318 75.18 48.8518 75.85L45.8618 76.06ZM48.6418 73.67L49.7418 73.41L50.2118 74.25C49.9418 74.31 49.7518 74.37 49.5618 74.4C49.3718 74.43 49.2418 74.4 49.0418 74.4L48.6418 73.67ZM49.9218 75.74C49.4418 75.8 49.4018 75.45 49.3218 75.05C49.5698 74.966 49.8338 74.937 50.0938 74.965C50.3548 74.993 50.6068 75.076 50.8318 75.21L51.1718 74.47L50.4318 73.47L51.5318 73.31L52.4718 75.41L49.9218 75.74ZM52.9218 75.27C52.6318 74.53 52.3618 73.85 52.0718 73.09L53.0018 72.94L53.3018 73.63L52.7018 73.96L53.5518 74.17C53.6118 74.4 53.6818 74.64 53.7618 74.96L52.9218 75.27ZM53.8518 72.69C54.2118 72.48 54.4018 72.69 54.5418 73.11L53.9418 73.48C53.7818 73.15 53.5318 72.9 53.8918 72.69H53.8518ZM55.3918 74.69L54.2618 74.81C54.2018 74.53 54.1318 74.25 54.0618 73.95C54.1418 73.887 54.2358 73.844 54.3358 73.824C54.4358 73.805 54.5388 73.809 54.6368 73.838C54.7338 73.866 54.8238 73.917 54.8978 73.987C54.9718 74.057 55.0278 74.144 55.0618 74.24C55.1638 74.401 55.2808 74.551 55.4118 74.69C55.4118 74.34 55.4118 73.98 55.4118 73.59C55.7218 73.5 56.0118 73.43 56.3418 73.35L56.6018 73.98L55.4318 74.69H55.3918ZM58.1718 73.69C56.9218 73.69 56.7718 73.52 56.4518 71.97L57.3018 71.59C57.4248 71.962 57.5718 72.326 57.7418 72.68C58.0018 73 58.2818 73.24 58.2118 73.67L58.1718 73.69ZM57.4018 70.63H58.0018V71.07C58.4018 71.14 58.9418 70.97 59.0518 71.69L58.3118 72.07L57.4018 70.63ZM58.7818 73.42L58.4018 72.67C58.6478 72.538 58.9158 72.45 59.1918 72.41C59.3818 72.41 59.5618 72.63 59.8918 72.84L58.7818 73.42ZM60.2418 72.68L59.9318 72L60.8718 71.4C61.5718 72.15 61.5218 72.25 60.2818 72.66L60.2418 72.68ZM61.9218 72L61.4418 71.24L62.3718 70.73L62.9518 71.53L61.9218 72ZM63.9218 71.31C63.4718 71.31 63.1618 71.08 63.1018 70.71C63.1018 70.52 63.3018 70.28 63.4118 70.06C64.0618 70.31 64.0018 70.75 63.9218 71.29V71.31ZM64.6318 70.31L64.0018 69.69L64.0818 69.51C64.2418 69.51 64.4418 69.51 64.5418 69.51C64.6218 69.541 64.6928 69.594 64.7448 69.662C64.7978 69.73 64.8298 69.812 64.8398 69.898C64.8488 69.983 64.8338 70.07 64.7978 70.148C64.7608 70.226 64.7038 70.292 64.6318 70.34V70.31ZM65.2918 69.73L64.8918 69.19C65.1318 68.85 65.3718 68.83 65.5918 69.11C65.8118 69.39 65.6118 69.59 65.2918 69.76V69.73ZM70.9418 63.79C69.7908 65.449 68.4708 66.984 67.0018 68.37C67.0018 68.37 66.9218 68.47 66.8818 68.47H66.3718C66.3718 68.3 66.3718 68.05 66.4418 67.97C66.8518 67.59 67.3118 67.27 67.7418 66.97C67.8958 66.891 68.0138 66.755 68.0688 66.59C68.1248 66.426 68.1158 66.247 68.0418 66.09C67.1008 66.712 66.2048 67.4 65.3618 68.15C65.1618 67.81 64.9918 67.52 64.7918 67.15C65.5918 66.61 66.3918 66.1 67.1518 65.55C67.4238 65.313 67.6748 65.051 67.9018 64.77C68.3618 64.27 68.9018 63.77 69.2918 63.25C69.3958 63.112 69.5458 63.016 69.7148 62.979C69.8838 62.942 70.0598 62.967 70.2118 63.05L68.3218 65.84C68.5198 65.866 68.7198 65.832 68.8978 65.743C69.0768 65.654 69.2238 65.513 69.3218 65.34C69.8618 64.62 70.4218 63.91 70.9718 63.19L71.1518 63.3C71.0908 63.477 71.0208 63.65 70.9418 63.82V63.79ZM71.3218 61C71.2558 61.052 71.1788 61.088 71.0968 61.106C71.0148 61.124 70.9308 61.123 70.8488 61.104C70.7668 61.085 70.6908 61.047 70.6258 60.995C70.5608 60.942 70.5078 60.876 70.4718 60.8C69.9318 60.8 69.6418 61.5 69.0418 61.28L68.6918 60.64C68.3518 60.92 68.3418 60.44 68.2418 60.43C67.9928 60.466 67.7518 60.547 67.5318 60.67C66.9818 60.24 68.0618 59.99 67.6218 59.5L66.8918 59.86L66.3918 59.47L67.2118 58.05C66.9018 57.86 66.7518 58.11 66.5618 58.29C66.3718 58.47 66.1718 58.41 66.0318 58.07L67.0318 57.32L67.2418 58.05C67.3678 58.059 67.4878 58.111 67.5788 58.199C67.6708 58.287 67.7278 58.404 67.7418 58.53C67.8618 59.22 68.4718 59.53 68.8518 60.05C68.9948 60.177 69.1808 60.245 69.3718 60.24C69.8418 60.27 70.3118 60.27 70.7818 60.24C70.9858 60.186 71.1728 60.079 71.3218 59.93C71.8218 59.51 72.3218 59.07 72.8318 58.6C72.8688 59.109 72.7428 59.616 72.4708 60.048C72.1998 60.48 71.7968 60.814 71.3218 61ZM73.1018 56.52C73.1018 57.14 72.5518 57.45 72.2018 57.86C71.8568 58.261 71.4898 58.641 71.1018 59L70.9418 58.88C71.1018 58.251 71.4508 57.685 71.9418 57.26C72.4698 56.896 72.8958 56.404 73.1818 55.83C73.3018 55.6 73.4818 55.41 73.6918 55.1C74.0018 55.88 73.1318 56 73.1018 56.55V56.52ZM74.8618 53.73C74.8018 53.804 74.7218 53.86 74.6318 53.892C74.5418 53.923 74.4448 53.93 74.3518 53.91C74.2758 53.845 74.2158 53.764 74.1778 53.672C74.1398 53.579 74.1238 53.479 74.1318 53.38C74.1318 53.25 74.3118 53.12 74.4218 52.99C74.6718 52.68 74.9418 52.37 75.3418 51.9C75.1618 52.66 75.0518 53.23 74.8618 53.76V53.73ZM25.0818 29.19C24.4288 28.928 23.8078 28.593 23.2318 28.19L23.2918 28.03C23.4378 28.01 23.5858 28.01 23.7318 28.03C25.4718 28.68 27.2018 29.35 28.9518 30.03C29.7818 30.33 30.6418 30.55 31.4818 30.81C31.8258 30.893 32.1608 31.01 32.4818 31.16C33.7118 31.88 35.1518 32.16 36.3018 33C37.2248 33.209 38.0898 33.622 38.8318 34.21C40.1318 35.02 41.6018 35.44 42.8318 36.31C44.5518 37.48 46.3218 38.57 48.0718 39.69C48.3518 39.87 48.6118 40.06 48.6418 40.41C48.4118 40.71 48.2218 40.54 48.0418 40.41C46.5818 39.41 45.1318 38.41 43.6518 37.41C42.9518 36.97 42.1918 36.64 41.4618 36.25C41.1518 36.08 40.8618 35.86 40.5518 35.68C38.9818 34.76 37.3018 34.06 35.6918 33.22C34.0538 32.398 32.3598 31.692 30.6218 31.11L25.0818 29.19ZM30.4018 63.19C28.4718 62.475 26.6868 61.418 25.1318 60.07C24.9518 59.91 24.7918 59.72 24.6218 59.55L24.7418 59.35C24.9918 59.49 25.2518 59.61 25.5018 59.76C26.6318 60.4 27.7318 61.11 28.9018 61.69C30.4118 62.45 31.9818 63.1 33.5118 63.81C34.4098 64.259 35.3608 64.595 36.3418 64.81C37.0638 65.009 37.7638 65.28 38.4318 65.62C39.0248 65.999 39.7348 66.152 40.4318 66.05C40.4318 66.57 40.0518 66.56 39.7718 66.49C39.2098 66.335 38.6608 66.134 38.1318 65.89C37.3848 65.511 36.5598 65.309 35.7218 65.3C35.3758 65.272 35.0378 65.184 34.7218 65.04C33.2518 64.42 31.8418 63.78 30.4018 63.2V63.19ZM46.4818 40.43C45.8218 40.68 45.4818 40.28 45.0218 40.07C44.1518 39.65 43.3018 39.18 42.4618 38.69C41.6218 38.2 40.7818 37.63 39.9018 37.17C38.4018 36.38 37.0818 35.26 35.4018 34.83C35.4018 34.83 35.2818 34.83 35.2518 34.77C34.1918 33.71 32.6818 33.67 31.4118 33.08C31.3358 33.052 31.2678 33.008 31.2118 32.95C31.2118 32.95 31.2118 32.85 31.1418 32.68C31.8378 32.664 32.5258 32.826 33.1418 33.15C34.4718 33.71 35.8018 34.26 37.0818 34.92C38.3618 35.58 39.3718 36.29 40.5218 36.92C41.4518 37.45 42.4118 37.92 43.3418 38.47C44.2718 39.02 45.1618 39.54 46.0718 40.08C46.2518 40.21 46.4118 40.28 46.4818 40.43ZM24.7018 41.93C24.8918 41.967 25.0768 42.028 25.2518 42.11C26.5318 42.94 27.7818 43.82 29.0818 44.62C30.3818 45.42 31.5818 46.06 32.8218 46.79C33.8218 47.36 34.8218 47.97 35.7418 48.55C35.9518 48.68 36.1818 48.79 36.4018 48.9L37.4918 49.45L37.4018 49.72C37.0028 49.653 36.6108 49.55 36.2318 49.41C35.7018 49.17 35.2318 48.83 34.7018 48.56C34.1718 48.29 33.7618 48.1 33.3018 47.85C32.8418 47.6 32.1418 47.19 31.5818 46.85C31.0218 46.51 30.2518 46.04 29.6318 45.57C29.5768 45.514 29.5118 45.47 29.4398 45.44C29.3668 45.41 29.2898 45.394 29.2118 45.394C29.1338 45.394 29.0558 45.41 28.9838 45.44C28.9118 45.47 28.8468 45.514 28.7918 45.57C28.5818 44.74 27.8618 44.5 27.2718 44.13C26.6818 43.76 26.2118 43.52 25.6918 43.2C25.4478 43.068 25.2338 42.888 25.0638 42.669C24.8928 42.45 24.7698 42.199 24.7018 41.93ZM27.0018 40.46C29.9218 42.2 33.0918 43.46 35.9218 45.36C35.9218 45.45 35.9218 45.48 35.8618 45.5C35.8388 45.505 35.8148 45.505 35.7918 45.5C35.7388 45.509 35.6848 45.509 35.6318 45.5C34.9508 45.255 34.2828 44.975 33.6318 44.66C31.2318 43.502 28.9338 42.144 26.7618 40.6C26.7018 40.55 26.6818 40.46 26.6218 40.33C26.7558 40.349 26.8848 40.393 27.0018 40.46ZM34.6118 51.72C34.0018 51.34 33.4118 50.94 32.7818 50.58C32.4518 50.39 32.0618 50.33 31.7318 50.13C30.6968 49.604 29.7148 48.978 28.8018 48.26C27.9718 47.51 27.0018 46.97 26.1618 46.26C25.9848 46.1 25.8178 45.93 25.6618 45.75L25.8218 45.57C26.9618 46.35 28.0718 47.15 29.2318 47.89C30.3918 48.63 31.6818 49.39 32.9218 50.11C33.5918 50.49 34.2918 50.82 34.9218 51.18C35.0468 51.241 35.1588 51.326 35.2518 51.43C35.3118 51.5 35.3618 51.67 35.3218 51.73C35.2818 51.79 35.1018 51.94 35.0018 51.93C34.8608 51.882 34.7298 51.811 34.6118 51.72ZM22.6918 50.55C21.1118 49.25 19.6218 47.85 18.0918 46.48C17.9778 46.343 17.8778 46.196 17.7918 46.04C18.0718 45.7 18.3018 45.56 18.5918 45.89C18.8818 46.22 19.4718 46.81 19.8518 47.31C21.1168 48.905 22.6578 50.26 24.4018 51.31C25.5418 52.03 26.7618 52.61 28.1418 53.31C27.7218 53.21 27.4718 53.16 27.2418 53.09C25.5738 52.548 24.0288 51.685 22.6918 50.55ZM31.9318 61.55C32.9558 61.979 34.0038 62.346 35.0718 62.65C35.2408 62.674 35.3968 62.754 35.5148 62.877C35.6328 63.001 35.7058 63.16 35.7218 63.33C35.2518 63.291 34.7868 63.211 34.3318 63.09C33.5618 62.79 32.8318 62.38 32.0718 62.09C31.5118 61.85 30.9118 61.72 30.3718 61.45C29.4218 60.99 28.5118 60.45 27.5918 59.96C27.3688 59.845 27.1578 59.707 26.9618 59.55C26.7218 59.36 26.5018 59.13 26.2718 58.91L26.3718 58.77C26.5118 58.796 26.6498 58.836 26.7818 58.89C28.4918 59.76 30.1818 60.71 31.9318 61.55ZM23.8618 47.38C24.7018 48.02 25.5018 48.54 26.2218 49.16C27.5958 50.276 29.0728 51.261 30.6318 52.1L31.2918 52.53C31.2698 52.592 31.2428 52.652 31.2118 52.71C30.7688 52.593 30.3368 52.435 29.9218 52.24C28.3918 51.466 26.9608 50.509 25.6618 49.39C25.5108 49.268 25.3768 49.127 25.2618 48.97C25.1788 48.796 25.0608 48.641 24.9138 48.515C24.7678 48.389 24.5968 48.295 24.4118 48.24C24.3188 48.22 24.2308 48.182 24.1538 48.127C24.0758 48.073 24.0088 48.004 23.9578 47.924C23.9068 47.844 23.8718 47.755 23.8558 47.662C23.8388 47.568 23.8408 47.473 23.8618 47.38ZM19.8618 58.25C19.7468 58.152 19.6228 58.065 19.4918 57.99C18.9378 57.005 18.1518 56.171 17.2018 55.56C17.3118 55.12 17.6118 55.08 17.8818 55.28C18.2918 55.548 18.6508 55.886 18.9418 56.28C20.0298 58.027 21.4258 59.562 23.0618 60.81C22.5118 60.95 22.4618 60.95 22.0618 60.51C21.3518 59.78 20.6318 59 19.9018 58.25H19.8618ZM34.3118 36.8L41.3118 40.7C41.0828 40.731 40.8508 40.731 40.6218 40.7C39.6218 40.26 38.6218 39.8 37.6218 39.33C37.2218 39.14 36.8618 38.86 36.4718 38.66C35.5618 38.24 35.0518 37.4 34.3118 36.82V36.8ZM18.7618 54.05L22.7618 57.76C22.5418 57.93 22.3118 57.86 22.0518 57.7L20.7718 56.93C20.6468 56.872 20.5378 56.787 20.4518 56.68C20.0208 55.9 19.4308 55.219 18.7218 54.68C18.4818 54.51 18.3418 54.27 18.7618 54.05ZM44.1518 64.75V64.56C44.4408 64.496 44.7358 64.455 45.0318 64.44C46.5858 64.481 48.1398 64.37 49.6718 64.11C49.6718 64.11 49.7618 64.17 49.8618 64.24C49.7518 64.79 49.1918 64.87 48.8618 64.88C47.2918 65.022 45.7108 64.979 44.1518 64.75ZM35.4418 61.41L36.9518 61.82L40.9518 62.93C40.8218 63.094 40.6438 63.213 40.4428 63.27C40.2428 63.327 40.0288 63.32 39.8318 63.25C38.4318 62.91 37.0638 62.451 35.7418 61.88C35.6598 61.829 35.5908 61.76 35.5388 61.679C35.4868 61.598 35.4538 61.506 35.4418 61.41ZM24.6118 46.46C25.2318 46.93 25.8218 47.46 26.4218 47.93C26.5408 48.004 26.6458 48.099 26.7318 48.21C26.8218 48.35 26.9518 48.6 26.8918 48.68C26.8318 48.76 26.5018 48.77 26.3318 48.6C26.1618 48.43 25.9218 48.23 25.7118 48.05L22.5718 45.21C22.3918 45.05 22.1918 44.92 22.0018 44.78L22.1318 44.58C23.0018 45.2 23.7918 45.82 24.6118 46.46ZM24.4618 53.84C24.0018 53.4 23.2918 53.21 23.0018 52.4L29.4218 57C28.8138 56.886 28.2408 56.629 27.7518 56.25C27.2118 55.86 26.6418 55.51 26.1118 55.12C25.5368 54.727 24.9858 54.3 24.4618 53.84ZM18.3418 44C18.4718 44 18.6118 44 18.6518 44.05C19.7228 45.364 20.9078 46.582 22.1918 47.69C22.1918 47.69 22.1918 47.79 22.2718 47.92C21.1818 47.65 19.4118 45.88 18.3418 44ZM28.0718 58.26C26.6288 57.931 25.3438 57.115 24.4318 55.95C25.7558 56.522 26.9828 57.295 28.0718 58.24V58.26ZM36.6518 63.49C37.9708 63.663 39.2748 63.937 40.5518 64.31C40.4818 64.76 40.2918 64.85 40.0418 64.79C39.6118 64.68 39.1918 64.56 38.7718 64.43C38.3518 64.3 37.7118 64.11 37.1918 63.93C36.9688 63.835 36.7808 63.675 36.6518 63.47V63.49ZM30.0018 59.41C31.2588 59.696 32.4728 60.147 33.6118 60.75C33.0318 61.22 32.6118 60.9 32.1818 60.75C31.3488 60.506 30.5958 60.043 30.0018 59.41ZM31.9018 66.29L33.9718 67.29V67.48C33.7598 67.51 33.5438 67.51 33.3318 67.48C32.7218 67.29 32.1018 67.11 31.9118 66.29H31.9018ZM18.7418 43C19.5628 43.452 20.2208 44.152 20.6218 45C19.7718 44.54 19.3718 43.71 18.7418 43ZM22.0718 42.86C22.7388 43.106 23.2908 43.591 23.6218 44.22C22.9878 43.907 22.4518 43.427 22.0718 42.83V42.86ZM24.8118 57.7L24.7118 57.84L23.2918 56.84C23.9318 56.89 23.9318 56.89 24.8118 57.7ZM67.3218 48.34C67.3218 48.34 67.3218 48.25 67.3218 48.21L67.6418 48.09C67.6418 48.09 67.6418 48.18 67.6418 48.22C67.5378 48.266 67.4308 48.306 67.3218 48.34ZM10.0018 21C10.0108 21.043 10.0108 21.087 10.0018 21.13C10.0018 21.13 9.89181 21.13 9.86181 21.13C9.83181 21.13 9.60181 20.85 9.46181 20.71C9.55181 20.66 9.64181 20.55 9.71181 20.56C9.75981 20.57 9.8058 20.589 9.8458 20.616C9.8868 20.643 9.92181 20.678 9.94881 20.719C9.97581 20.76 9.99481 20.806 10.0038 20.854C10.0128 20.903 10.0118 20.952 10.0018 21Z" fill="#101A24"/>
</g>
</svg>
