<svg width="28" height="30" viewBox="0 0 28 30" fill="none" xmlns="http://www.w3.org/2000/svg">
<g clip-path="url(#clip0_302_22799)" filter="url(#filter0_d_302_22799)">
<path d="M11.1499 7.49023C10.5899 7.49023 10.1499 7.94023 10.1499 8.49023C10.1499 9.04023 10.5999 9.49023 11.1499 9.49023C11.6999 9.49023 12.1499 9.04023 12.1499 8.49023C12.1499 7.94023 11.6999 7.49023 11.1499 7.49023Z" fill="#292D32"/>
<path d="M23.46 5.04C22.62 3.09 20.77 2 18.19 2H9.81C6.6 2 4 4.6 4 7.81V16.19C4 18.77 5.09 20.62 7.04 21.46C7.23 21.54 7.45 21.49 7.59 21.35L23.35 5.59C23.5 5.44 23.55 5.22 23.46 5.04ZM12.53 12.24C12.14 12.62 11.63 12.8 11.12 12.8C10.61 12.8 10.1 12.61 9.71 12.24C8.69 11.28 7.57 9.75 8 7.93C8.38 6.28 9.84 5.54 11.12 5.54C12.4 5.54 13.86 6.28 14.24 7.94C14.66 9.75 13.54 11.28 12.53 12.24Z" fill="#292D32"/>
<path d="M21.4699 20.53C21.6899 20.75 21.6599 21.11 21.3899 21.26C20.5099 21.75 19.4399 22 18.1899 22H9.8099C9.5199 22 9.3999 21.66 9.5999 21.46L15.6399 15.42C15.8399 15.22 16.1499 15.22 16.3499 15.42L21.4699 20.53Z" fill="#292D32"/>
<path d="M24 7.8099V16.1899C24 17.4399 23.75 18.5199 23.26 19.3899C23.11 19.6599 22.75 19.6799 22.53 19.4699L17.41 14.3499C17.21 14.1499 17.21 13.8399 17.41 13.6399L23.45 7.5999C23.66 7.3999 24 7.5199 24 7.8099Z" fill="#292D32"/>
</g>
<defs>
<filter id="filter0_d_302_22799" x="-2" y="0" width="32" height="32" filterUnits="userSpaceOnUse" color-interpolation-filters="sRGB">
<feFlood flood-opacity="0" result="BackgroundImageFix"/>
<feColorMatrix in="SourceAlpha" type="matrix" values="0 0 0 0 0 0 0 0 0 0 0 0 0 0 0 0 0 0 127 0" result="hardAlpha"/>
<feOffset dy="4"/>
<feGaussianBlur stdDeviation="2"/>
<feComposite in2="hardAlpha" operator="out"/>
<feColorMatrix type="matrix" values="0 0 0 0 0 0 0 0 0 0 0 0 0 0 0 0 0 0 0.25 0"/>
<feBlend mode="normal" in2="BackgroundImageFix" result="effect1_dropShadow_302_22799"/>
<feBlend mode="normal" in="SourceGraphic" in2="effect1_dropShadow_302_22799" result="shape"/>
</filter>
<clipPath id="clip0_302_22799">
<rect width="24" height="24" fill="white" transform="translate(2)"/>
</clipPath>
</defs>
</svg>
