<svg width="89" height="128" viewBox="0 0 89 128" fill="none" xmlns="http://www.w3.org/2000/svg">
        <path d="M70.3348 31.7205C79.674 24.2468 84.5937 14.8754 81.3233 10.7888C78.053 6.70227 67.831 9.44811 58.4919 16.9218C49.1528 24.3955 44.2331 33.7669 47.5033 37.8535C50.7736 41.94 60.9956 39.1941 70.3348 31.7205Z" fill="#29C16E"/>
        <path d="M39.0125 39.0597C41.8233 36.2489 37.8459 27.7142 30.1286 19.9969C22.4113 12.2797 13.8766 8.30223 11.0658 11.113C8.25502 13.9238 12.2325 22.4586 19.9498 30.1758C27.667 37.8931 36.2017 41.8705 39.0125 39.0597Z" fill="#29C16E"/>
        <path d="M76.8375 80.585C80.9244 77.3153 78.1784 67.0933 70.7048 57.754C63.2313 48.4148 53.8597 43.4951 49.7732 46.7654C45.6866 50.0357 48.4325 60.2576 55.9061 69.5965C63.3795 78.9357 72.7513 83.8554 76.8375 80.585Z" fill="#EF3C56"/>
        <path d="M9.16293 84.1072C9.16293 93.8357 13.0276 103.166 19.9066 110.045C26.7857 116.924 36.1157 120.789 45.8442 120.789C66.1033 120.789 96.3427 87.5596 77.0816 81.2925C55.9494 74.4179 46.2034 48.1377 41.8236 47.6465C21.6917 45.3874 9.16293 63.8488 9.16293 84.1072Z" fill="#EF3C56"/>
        <path d="M0.0177757 5.53631C0.0281398 13.4455 2.15271 21.2081 6.17149 28.0201C10.1902 34.8322 15.957 40.4461 22.8747 44.2803C19.2492 46.2911 15.9228 48.7989 12.9919 51.731C6.41705 58.2993 2.07421 66.769 0.577975 75.9413C-0.918257 85.1136 0.507888 94.5245 4.65459 102.842C8.80127 111.159 15.4585 117.962 23.6843 122.287C31.91 126.612 41.2877 128.242 50.4903 126.944C59.6929 125.646 68.2546 121.487 74.9634 115.055C81.6723 108.624 86.1882 100.246 87.8731 91.1059C89.558 81.9662 88.3263 72.5281 84.3515 64.1272C80.3773 55.7264 73.8613 48.7881 65.7267 44.2942C72.6536 40.4653 78.4284 34.8516 82.452 28.0361C86.4757 21.2206 88.601 13.4521 88.6071 5.53751C88.6071 4.81034 88.4643 4.09027 88.1859 3.41841C87.9081 2.74655 87.5001 2.13609 86.9861 1.62187C86.4714 1.10765 85.861 0.699768 85.1891 0.421512C84.5178 0.143254 83.7977 7.83232e-05 83.0703 0.000157493C77.2509 -0.0154111 71.4858 1.12342 66.1099 3.35075C60.7335 5.57807 55.8521 8.84962 51.7486 12.9761C48.8168 15.907 46.3092 19.2335 44.2986 22.8588C40.4674 15.9386 34.8543 10.1695 28.0415 6.15036C21.2287 2.13117 13.4645 0.00827629 5.55452 0.00195972C4.82758 0.00180143 4.10774 0.144831 3.43607 0.422872C2.76441 0.700913 2.15409 1.10852 1.63995 1.62243C1.12582 2.13634 0.717942 2.74649 0.439608 3.41803C0.161274 4.08958 0.0179339 4.80937 0.0177757 5.53631ZM50.4132 38.1862C51.646 31.6007 54.8406 25.5416 59.5781 20.804C64.3154 16.0663 70.3746 12.8714 76.9599 11.6383C75.7179 18.2197 72.5199 24.2738 67.7846 29.0098C63.0487 33.7459 56.9946 36.9438 50.4132 38.1862ZM67.7918 59.5721C72.5307 64.3038 75.7269 70.3594 76.9599 76.9416C70.3818 75.6979 64.3304 72.501 59.5967 67.767C54.8627 63.0329 51.6653 56.9823 50.4217 50.404C57.0043 51.6368 63.0595 54.833 67.7918 59.5721ZM20.821 59.5612C25.7879 54.5682 32.2232 51.2967 39.1842 50.2263C40.4891 59.8328 44.9075 68.7468 51.7626 75.6021C58.6176 82.4573 67.5309 86.8762 77.1377 88.1815C76.3284 93.3645 74.303 98.2824 71.2273 102.532C68.1522 106.782 64.1141 110.243 59.4437 112.632C54.7735 115.021 49.6039 116.27 44.3581 116.277C39.1123 116.284 33.9394 115.049 29.2627 112.673C24.5861 110.296 20.5387 106.846 17.4518 102.604C14.3649 98.3631 12.3263 93.4507 11.5028 88.2701C10.6793 83.0894 11.0944 77.7871 12.7139 72.7975C14.3336 67.8079 17.1117 63.2733 20.821 59.5637V59.5612ZM11.6614 11.6461C18.2399 12.8897 24.291 16.0871 29.0251 20.8212C33.7592 25.5553 36.9566 31.6064 38.2002 38.185C31.622 36.9411 25.5713 33.7436 20.8377 29.0095C16.104 24.2753 12.907 18.2244 11.6638 11.6461H11.6614Z" fill="#0E1E28" fill-opacity="0.5"/>
        </svg>
        