<svg width="44" height="92" viewBox="0 0 84 132" fill="none" xmlns="http://www.w3.org/2000/svg">
<path opacity="0.3" d="M42 132C47.5228 132 52 129.761 52 127C52 124.239 47.5228 122 42 122C36.4772 122 32 124.239 32 127C32 129.761 36.4772 132 42 132Z" fill="#FF0000"/>
<path fill-rule="evenodd" clip-rule="evenodd" d="M42 0C65.196 0 84 18.804 84 42C84 63.8468 67.3197 81.7978 46 83.812V124C46 126.209 44.2091 128 42 128C39.7909 128 38 126.209 38 124V83.812C16.6803 81.7978 0 63.8468 0 42C0 18.804 18.804 0 42 0Z" fill="#FF0000" fill-opacity="0.8"/>
<path d="M76 42C76 23.2223 60.7777 8 42 8C23.2223 8 8 23.2223 8 42C8 60.7777 23.2223 76 42 76C60.7777 76 76 60.7777 76 42Z" fill="#F17272"/>
<path d="M57.54 35.7521L57.105 31.8158C56.475 27.5242 54.42 25.7763 50.025 25.7763H46.485H44.265H39.705H37.485H33.885C29.475 25.7763 27.435 27.5242 26.79 31.8584L26.385 35.7663C26.235 37.2868 26.67 38.7647 27.615 39.9158C28.755 41.3226 30.51 42.1184 32.46 42.1184C34.35 42.1184 36.165 41.2232 37.305 39.7879C38.325 41.2232 40.065 42.1184 42 42.1184C43.935 42.1184 45.63 41.2658 46.665 39.8447C47.82 41.2516 49.605 42.1184 51.465 42.1184C53.46 42.1184 55.26 41.28 56.385 39.8021C57.285 38.6653 57.69 37.23 57.54 35.7521Z" fill="white"/>
<path d="M41.025 47.6747C39.12 47.8595 37.68 49.3942 37.68 51.2132V55.1068C37.68 55.4905 38.01 55.8032 38.415 55.8032H45.57C45.975 55.8032 46.305 55.4905 46.305 55.1068V51.7105C46.32 48.7405 44.475 47.3337 41.025 47.6747Z" fill="white"/>
<path d="M56.055 44.4632V48.6979C56.055 52.62 52.695 55.8032 48.555 55.8032C48.15 55.8032 47.82 55.4905 47.82 55.1068V51.7105C47.82 49.8916 47.235 48.4705 46.095 47.5042C45.09 46.6374 43.725 46.2111 42.03 46.2111C41.655 46.2111 41.28 46.2253 40.875 46.2679C38.205 46.5237 36.18 48.6553 36.18 51.2132V55.1068C36.18 55.4905 35.85 55.8032 35.445 55.8032C31.305 55.8032 27.945 52.62 27.945 48.6979V44.4916C27.945 43.4968 28.98 42.8289 29.955 43.1558C30.36 43.2837 30.765 43.3832 31.185 43.44C31.365 43.4684 31.56 43.4968 31.74 43.4968C31.98 43.5253 32.22 43.5395 32.46 43.5395C34.2 43.5395 35.91 42.9284 37.26 41.8768C38.55 42.9284 40.23 43.5395 42 43.5395C43.785 43.5395 45.435 42.9568 46.725 41.9053C48.075 42.9426 49.755 43.5395 51.465 43.5395C51.735 43.5395 52.005 43.5253 52.26 43.4968C52.44 43.4826 52.605 43.4684 52.77 43.44C53.235 43.3832 53.655 43.2553 54.075 43.1274C55.05 42.8147 56.055 43.4968 56.055 44.4632Z" fill="white"/>
</svg>
