<svg width="253" height="343" viewBox="0 0 253 343" fill="none" xmlns="http://www.w3.org/2000/svg">
<g opacity="0.2">
<path d="M247.274 214.457C245.151 215.508 242.966 216.43 240.732 217.218C231.835 220.17 222.953 222.994 213.952 225.85C211.513 226.571 208.993 226.985 206.452 227.084C202.251 227.392 198.106 228.231 194.117 229.582C188.264 231.405 182.448 233.326 176.581 235.122C173.006 236.078 169.276 236.303 165.612 235.784C160.187 235.441 154.743 235.504 149.327 235.972C146.186 236.153 143.026 236.175 139.877 236.31C134.389 236.454 128.983 237.67 123.963 239.891C118.224 242.601 113.769 246.692 108.907 250.38C108.733 250.527 108.771 250.845 108.346 251.553C109.689 251.002 110.627 250.64 111.539 250.292C116.56 247.79 121.866 245.907 127.342 244.686C131.228 243.977 135.144 243.54 139.032 242.898C142.134 242.399 145.217 241.741 148.285 241.21C153.06 240.068 158.008 239.844 162.867 240.549C166.18 240.897 169.514 240.989 172.841 240.823C179.827 241.127 186.825 241.39 193.813 241.912C195.912 242.181 197.955 242.776 199.87 243.676C200.759 243.934 201.308 245.058 202.173 245.923C201.459 246.569 201.052 247.217 200.461 247.44C195.059 249.896 189.385 251.707 183.559 252.836C179.497 253.471 175.553 254.755 171.522 255.662C168.968 256.233 166.361 256.613 163.813 257.163C160.479 257.858 157.156 258.664 153.83 259.405C152.029 259.531 150.262 259.957 148.601 260.664C147.098 261.529 145.445 262.103 143.728 262.356C141.883 262.779 140.142 263.57 138.61 264.682C137.078 265.794 135.787 267.205 134.814 268.829C134.197 269.777 133.479 270.655 132.672 271.447C129.489 274.59 125.975 277.379 122.191 279.764C119.507 281.458 117.146 283.552 114.566 285.342C112.78 286.61 110.909 287.756 108.968 288.772C104.274 291.129 99.4991 293.309 94.8431 295.611C91.5801 297.29 88.368 299.071 85.206 300.954C81.509 303.306 77.582 305.275 73.486 306.829C68.457 308.607 63.4901 310.622 58.3801 312.223C55.5471 313.12 52.611 313.649 49.6431 313.797C46.466 313.986 43.482 315.382 41.301 317.699C37.6093 321.202 33.7997 324.583 30.2459 328.214C27.0513 331.665 24.0788 335.18 20.864 338.625C19.555 339.907 18.1498 341.086 16.6608 342.154C16.2537 342.501 15.7422 342.703 15.2076 342.726C14.6729 342.749 14.1461 342.592 13.7108 342.281C12.9677 341.824 12.1985 341.381 11.4614 340.903C8.27385 338.837 8.59855 335.69 10.9541 333.09C15.7663 327.92 20.8884 323.19 25.7865 318.177C27.3798 316.436 28.8822 314.615 30.288 312.719C30.5175 312.457 30.6292 312.074 30.8814 311.884C34.1153 309.278 35.852 305.643 38.0642 302.257C39.3755 299.9 40.139 297.277 40.298 294.584C40.8031 290.592 41.3081 286.599 42.0411 282.651C42.8251 277.57 43.909 272.539 45.287 267.585C48.2631 257.656 52.801 248.263 58.73 239.761C61.5051 235.948 64.821 232.532 67.814 228.87C70.09 226.093 72.262 223.221 74.434 220.349C76.606 217.477 78.744 214.573 80.965 211.759C81.441 211.175 82.289 210.896 83.37 210.268C83.497 211.111 83.5281 211.965 83.4611 212.814C82.8301 215.434 82.132 218.056 81.38 220.641C79.77 226.173 78.2751 231.761 76.3471 237.18C73.7781 244.426 70.79 251.529 68.059 258.729C67.34 260.6 66.937 262.585 66.373 264.524C65.885 266.018 65.2251 267.45 64.4071 268.792C62.2611 272.107 60.427 275.613 58.928 279.265C57.442 282.519 55.787 285.693 53.97 288.774C53.852 289.177 53.6141 289.546 53.2951 290.264C54.6151 289.92 55.7521 289.083 56.4731 287.925C58.8681 283.918 62.1581 280.52 66.0861 277.998C67.7561 276.738 69.0931 275.09 69.9811 273.196C71.4341 270.683 73.0571 268.272 74.8411 265.981C77.7691 262.168 80.8611 258.469 83.9121 254.757C85.1331 253.273 86.4911 251.916 87.732 250.437C90.041 247.896 91.7471 244.866 92.7221 241.573C93.6491 238.536 95.164 235.71 97.18 233.256C102.6 226.072 107.904 218.987 113.661 212.077C116.456 208.641 119.909 205.66 122.877 202.384C125.846 199.109 128.971 195.594 132.208 192.375C135.933 188.684 139.83 185.154 143.741 181.649C146.742 178.864 149.95 176.272 153.108 173.621C153.515 173.359 153.951 173.148 154.409 172.992C154.623 173.197 154.794 173.443 154.913 173.715C155.032 173.987 155.096 174.28 155.101 174.576C155.106 174.873 155.053 175.168 154.944 175.444C154.834 175.72 154.672 175.972 154.465 176.184C153.062 178.295 151.694 180.437 150.3 182.594C146.353 188.629 142.581 194.737 138.661 200.758C133.136 209.203 127.522 217.579 121.963 225.992C120.238 228.562 118.652 231.222 117.212 233.962C118.536 233.099 119.89 232.288 121.177 231.327C125.605 227.928 129.921 224.388 134.397 221.048C138.155 218.221 142.108 215.626 145.935 212.863C147.114 211.89 148.173 210.779 149.089 209.554C152.452 205.275 155.395 200.682 157.877 195.839C159.597 192.377 160.685 188.637 161.092 184.794C161.683 181.111 161.863 177.33 162.701 173.698C163.536 169.3 164.968 165.038 166.959 161.029C167.1 160.544 167.428 160.092 167.636 159.605C168.916 156.561 170.006 153.417 171.503 150.458C173.291 146.916 174.234 143.007 174.257 139.038C174.485 134.827 175.722 130.733 177.864 127.1C177.971 126.857 178.118 126.633 178.298 126.438C181.422 123.229 183.789 119.385 187.273 116.522C188.015 115.928 188.626 115.185 189.319 114.533C190.013 113.881 190.915 113.793 191.415 114.858C191.755 115.625 191.916 116.458 191.888 117.296C191.742 119.904 191.57 122.526 191.211 125.115C190.851 127.704 190.171 130.419 189.667 133.054C189.326 134.225 189.374 135.488 189.074 136.671C188.725 138.752 188.133 140.785 187.311 142.728C185.878 145.646 184.89 148.762 184.379 151.972C183.826 155.075 183.282 158.224 182.914 161.292C182.698 162.938 182.889 164.614 182.754 166.283C182.578 168.619 182.269 170.961 182.02 173.319C181.932 173.622 181.965 173.961 181.886 174.682C183.717 173.354 185.361 171.784 186.771 170.015C189.762 166.812 192.699 163.571 195.779 160.438C198.546 157.629 201.451 154.948 204.281 152.224C204.68 151.756 205.133 151.336 205.63 150.974C208.457 148.913 211.073 146.579 213.441 144.005C217.254 140.537 221.116 137.127 224.963 133.691C228.811 130.255 232.403 127.096 236.122 123.798C239.232 124.703 239.666 125.771 238.038 128.429C236.986 130.16 235.751 131.772 234.74 133.514C233 136.556 231.206 139.56 229.691 142.733C227.601 147.285 224.753 151.447 221.267 155.044C217.557 158.76 214.235 162.875 210.677 166.745C207.993 169.644 205.172 172.414 202.448 175.301C201.08 176.765 199.775 178.312 198.476 179.84C196.228 182.358 194.167 185.038 192.31 187.857C193.084 187.638 193.843 187.369 194.581 187.051C199.354 184.651 204.078 182.193 208.83 179.787C210.553 178.909 212.356 178.207 213.95 177.247C218.187 174.955 222.376 172.604 226.55 170.227C234.041 166.012 241.484 161.739 249.003 157.576C250.063 157.196 251.175 156.98 252.3 156.936C252.601 158.03 252.651 159.178 252.448 160.294C252.244 161.41 251.792 162.466 251.124 163.384C248.045 168.812 243.699 173.416 238.457 176.803C234.051 179.901 229.825 183.358 225.547 186.69C219.608 191.291 214.186 196.525 207.498 200.163C206.7 200.654 205.85 201.053 204.962 201.352C199.412 203.248 194.065 205.69 188.998 208.642C187.819 209.209 186.557 209.581 185.26 209.745C181.295 210.297 177.421 211.38 173.744 212.963C170.657 214.18 167.508 215.23 164.308 216.109C159.518 217.225 155.034 219.391 151.182 222.451C150.797 222.799 150.218 222.981 149.899 223.698C151.626 223.259 153.382 222.872 155.097 222.32C161.329 220.323 167.556 218.295 173.777 216.237C176.818 215.422 179.773 214.317 182.601 212.935C184.474 211.937 186.573 211.439 188.695 211.489C192.179 211.408 195.575 210.426 199.083 210.264C204.407 209.876 209.75 209.815 215.081 210.08C219.79 210.497 224.534 210.256 229.176 209.364C232.459 208.82 235.799 208.702 239.112 209.015C241.266 209.138 243.444 209.181 245.546 209.486C246.558 209.681 247.49 210.173 248.222 210.9C248.493 211.16 248.689 211.489 248.791 211.851C248.892 212.213 248.894 212.595 248.797 212.958C248.701 213.321 248.508 213.652 248.24 213.916C247.973 214.179 247.639 214.366 247.274 214.457ZM95.081 200.36C98.934 198.472 102.58 196.186 105.959 193.539C107.435 192.304 108.889 190.997 110.417 189.887C114.537 186.945 118.417 183.68 122.02 180.123C128.222 174.402 133.623 167.87 138.076 160.704C138.574 159.893 138.904 158.991 139.045 158.051C139.029 157.314 138.877 156.586 138.597 155.905C137.885 156.092 137.039 156.065 136.502 156.478C132.782 159.25 128.994 161.958 125.518 165.021C123.857 166.58 122.009 167.925 120.015 169.026C116.494 170.739 113.607 173.359 109.687 174.408C109.45 174.471 109.253 174.698 109.038 174.833C106.067 176.837 103.154 178.946 100.077 180.788C95.8671 183.286 91.508 185.544 87.2241 187.998C85.159 189.149 83.0591 190.268 81.12 191.588C78.662 193.417 76.0071 194.965 73.2051 196.205C71.1811 197.044 69.2121 198.007 67.3061 199.088C64.0851 200.822 60.8871 202.629 57.6831 204.456C55.6921 205.545 53.7581 206.736 51.8911 208.027C48.8471 210.207 45.935 212.536 42.94 214.774C42.94 214.774 42.6371 214.686 42.2941 214.586C42.4591 214.102 42.6681 213.635 42.9191 213.191C45.7741 208.875 48.6701 204.571 51.5161 200.361C54.8031 195.143 59.5561 191.01 65.1811 188.481C69.0221 186.796 72.7241 184.763 76.618 183.049C80.512 181.336 84.9471 180.02 88.9831 178.194C93.0181 176.368 97.4041 173.943 101.586 171.766C103.674 170.687 105.702 169.438 107.856 168.509C112.945 166.302 117.834 163.658 122.466 160.606C123.837 159.63 125.122 158.539 126.307 157.343C127.836 155.927 129.199 154.33 130.734 152.894C134.626 149.23 138.552 145.598 142.473 141.986C143.637 140.923 144.869 139.924 145.964 138.797C148.51 136.143 151.008 133.432 153.5 130.74C155.992 128.049 158.408 125.467 160.793 122.766C161.615 121.823 162.574 120.787 162.052 119.343C159.679 118.39 159.665 118.364 157.935 119.569C156.923 120.26 155.989 121.061 155.098 121.787C152.35 123.704 149.732 125.701 146.981 127.551C144.765 129.114 142.445 130.525 140.036 131.771C134.601 134.416 129.02 136.734 123.591 139.359C117.215 142.453 110.918 145.724 104.614 148.948C101.579 150.496 98.5291 152.018 95.6031 153.794C91.0291 156.566 86.539 159.45 82.133 162.446C78.8 164.717 75.6661 167.134 72.4351 169.654C70.9221 170.79 69.4451 172.025 67.9601 173.214L67.5001 172.839C68.0801 171.825 68.7141 170.849 69.2391 169.797C72.3851 163.506 76.44 157.712 81.275 152.602C81.986 151.826 82.6541 151.011 83.2781 150.163C86.3831 146.117 89.407 142.047 92.527 138.027C95.451 134.301 98.445 130.638 101.458 126.981C102.539 125.675 103.299 123.969 105.36 123.737C105.704 123.683 106.004 123.179 106.311 122.875C107.64 121.246 109.118 119.705 110.723 118.179C111.863 116.955 113.13 115.855 114.503 114.899C119.843 111.523 125.876 109.394 132.152 108.669C135.251 108.257 138.322 107.486 141.404 106.981C143 106.516 144.673 106.37 146.326 106.552C149.16 107.049 152.045 107.297 154.929 107.545C158.356 107.53 161.759 108.113 164.985 109.268C165.29 109.434 165.628 109.532 165.974 109.556C170.096 109.617 174.235 109.77 178.323 109.646C184.336 109.381 190.367 108.902 196.386 108.464C201.177 108.107 205.978 107.642 210.761 107.238C211.723 107.168 212.688 107.164 213.648 107.027C217.819 106.467 221.948 105.676 226.129 105.382C228.499 105.217 230.993 104.323 233.337 105.75C233.681 105.85 234.21 105.763 234.64 105.713C236.8 105.443 238.979 105.18 241.142 104.824C241.914 104.8 242.665 104.564 243.311 104.141C244.096 103.447 245.103 103.057 246.151 103.04C246.726 102.945 247.231 102.413 247.785 102.092C247.481 101.499 247.094 100.951 246.637 100.466C246.171 100.229 245.664 100.082 245.143 100.031C241.771 99.0491 238.419 98.0741 235.047 97.0921C233.388 96.3131 231.686 95.6281 229.95 95.0391C226.535 94.3071 223.038 94.0251 219.549 94.2021C211.838 94.5271 204.121 93.7551 196.627 91.9101C196.203 91.7871 195.779 91.6631 195.39 91.4191C191.756 90.2081 188.153 88.7431 184.437 87.8141C175.11 85.7121 165.47 85.3881 156.022 86.8591L155.233 86.9361C149.392 87.5791 143.636 88.8401 138.062 90.6991C137.509 90.8661 136.968 90.9941 135.999 91.2371C136.244 90.7371 136.523 90.2551 136.836 89.7941C139.572 86.7141 142.294 83.6081 145.079 80.5851C147.865 77.5631 151.275 74.3501 154.004 70.9181C157.135 66.8201 159.589 62.2471 161.276 57.3741C161.608 56.3802 162.061 55.4307 162.624 54.5469C165.194 50.761 167.729 46.9432 170.477 43.2968C173.476 39.2019 175.835 34.6745 177.473 29.8701C177.759 28.8579 178.147 27.8774 178.632 26.9438C181.646 21.8008 185.133 16.9498 189.048 12.4536C191.616 9.49971 193.79 6.16821 196.184 2.98801C196.346 2.79321 196.466 2.56721 196.537 2.32391C196.608 2.08071 196.629 1.82541 196.597 1.57391C196.566 1.32241 196.483 1.08011 196.354 0.861907C196.225 0.643707 196.052 0.454409 195.847 0.305709C195.001 -0.400491 194.236 0.274607 193.528 0.747707C192.047 1.69651 190.587 2.65121 189.055 3.47561C185.437 5.44511 181.627 7.09591 178.199 9.31771C174.173 11.9351 170.452 15.0134 166.619 17.9495C163.276 20.352 160.149 23.0399 157.271 25.9829C154.535 29.0621 152.132 32.4229 150.104 36.0088C145.851 43.0939 141.415 50.0597 136.998 57.0311C135.493 59.4191 133.789 61.6601 132.081 64.1421C132.166 62.7211 132.256 61.4331 132.34 60.1661C132.362 55.2561 133.047 50.3719 134.376 45.6456C135.119 43.204 135.628 40.6975 135.898 38.1598C135.938 37.7479 135.888 37.3323 135.752 36.9413C135.617 36.5503 135.398 36.1931 135.112 35.8941C134.309 35.2662 133.48 36.0102 132.873 36.6658C132.37 37.1659 131.923 37.7187 131.538 38.3145C129.145 42.6992 126.677 47.0403 124.416 51.573C123.161 54.0771 122.443 56.8471 121.297 59.4261C119.577 63.3061 117.71 67.0121 115.805 70.7721C115.717 71.0751 115.493 71.3161 115.132 71.9561L114.654 70.4371C114.08 67.5141 113.2 64.6591 112.03 61.9201C111.765 61.2791 111.63 60.5921 111.632 59.8981C111.526 58.6851 111.65 57.4291 111.445 56.252C110.841 51.5473 110.72 46.7931 111.085 42.0638C111.204 38.5941 111.254 35.1115 111.235 31.6161C111.302 25.2937 112.296 19.0153 114.184 12.9812C114.772 10.9621 115.17 8.69061 117.207 7.48751C116.548 5.23681 116.002 4.70541 114.961 5.49761C112.108 7.55351 109.665 10.1262 107.759 13.0823C105.567 16.9861 104.057 21.2349 103.292 25.6463C102.703 28.4006 101.522 30.9939 99.831 33.2466C97.078 36.7911 95.3531 41.025 94.8451 45.4845C94.4441 50.6244 94.0431 55.7643 94.049 60.9351C93.979 65.1641 94.348 69.3891 94.508 73.8821C92.054 70.8021 89.768 68.1211 87.609 65.3031C83.445 59.8191 77.585 56.6241 71.676 53.5245C66.668 51.1772 61.9141 48.3255 57.4851 45.0135C54.6771 42.7724 51.665 40.7787 48.706 38.7564C48.124 38.3462 46.904 37.9473 46.6861 38.1686C46.1241 38.8788 45.7761 39.735 45.6831 40.6364C45.6431 41.3369 45.7611 42.0375 46.0291 42.6862C46.6791 44.6001 47.7851 46.3274 49.2511 47.7198C51.9261 50.4918 54.7091 53.2729 57.2911 56.2149C61.7281 61.4081 66.6871 66.1321 72.0891 70.3131C77.1531 74.1411 81.4961 78.8391 84.9161 84.1871C88.0441 89.3581 90.601 94.8541 92.542 100.578C93.758 103.301 94.586 106.181 95.001 109.135C95.084 110.429 95.572 111.688 95.762 112.992C95.886 113.754 95.845 114.534 95.6441 115.279C93.1671 123.035 88.0441 129.122 82.7051 135.803C82.6901 134.572 82.665 133.908 82.7001 133.261C82.9211 129.339 83.1891 125.409 83.3711 121.476C83.5771 117.155 83.7021 112.811 83.8471 108.626C83.8901 107.653 84.0591 106.695 84.0091 105.738C83.9341 103.964 83.173 103.567 81.661 104.398C81.166 104.67 80.5911 104.765 80.0891 105.057C79.5881 105.349 78.783 105.706 78.544 106.228C77.633 108.153 76.849 110.247 76.096 112.305C75.343 114.364 75.0261 115.98 74.2351 117.721C70.8991 125.27 67.493 132.755 64.1021 140.266C63.897 140.973 63.319 141.528 62.637 142.665L62.5441 141.105C62.3031 135.537 63.7131 130.166 64.1941 124.677C64.6461 121.103 64.8461 117.501 64.7901 113.899C64.6091 110.934 64.655 107.96 64.927 105.002C65.376 101.955 65.215 98.8481 64.455 95.8631C63.57 93.1091 62.732 90.3461 61.815 87.6261C60.324 83.1181 58.827 78.6301 57.257 74.1651C55.9481 70.0541 53.542 66.3781 50.299 63.5321C49.6091 63.0051 49.057 62.3181 48.691 61.5311C48.293 60.6451 47.6671 59.8811 46.8771 59.3161C46.0871 58.7521 45.1621 58.4071 44.1951 58.3161C42.4781 57.8171 41.2851 59.1341 41.7931 60.9251C42.2101 62.2531 42.7701 63.5331 43.4641 64.7401C44.7211 66.6321 45.5921 68.7541 46.0271 70.9841C46.2801 72.8971 46.534 74.8111 46.5471 76.7201C46.7061 78.6661 46.73 80.6191 46.62 82.5681C46.123 87.8111 45.438 93.0221 44.968 98.2511C44.497 103.48 44.2661 108.187 43.8221 113.249C43.0621 121.208 43.689 129.238 45.674 136.983C46.328 139.627 46.844 142.295 47.524 144.925C47.915 146.44 48.59 147.885 49.079 149.364C50.293 152.182 50.9001 155.224 50.8611 158.293C50.6571 160.304 50.6391 162.33 50.8081 164.344C51.1331 166.866 51.0541 169.423 50.5741 171.92C50.306 174.244 49.8211 176.537 49.1271 178.771C47.3351 183.346 45.82 188.025 44.5891 192.782C44.1021 194.075 43.4711 195.309 42.7081 196.461C42.2911 197.216 41.6641 197.866 41.1861 198.603C38.8194 202.295 36.4929 205.998 34.1463 209.695C33.9275 209.942 33.6918 210.174 33.4409 210.388C33.2572 209.771 33.1261 209.139 33.0488 208.5C32.8449 204.761 32.5602 200.998 32.5355 197.246C32.4917 190.925 32.6414 184.617 32.6783 178.32C32.69 177.006 32.5883 175.694 32.3742 174.398C31.542 169.206 30.3658 164.067 29.8717 158.842C29.6453 155.143 28.8678 151.499 27.565 148.029C24.7248 141.158 21.6357 134.388 18.645 127.582C18.0536 126.227 17.5987 124.781 16.8771 123.498C14.7637 119.772 12.471 116.06 10.3543 112.422C8.99625 110.165 7.58025 107.957 6.15825 105.769C5.50745 104.769 4.48865 104.582 4.06265 105.443C3.01815 107.527 1.10625 109.204 1.24055 111.828C1.15355 113.052 0.989249 114.27 0.748749 115.474C0.236649 119.344 -0.0133509 123.245 0.000549134 127.149C0.430649 131.579 1.15585 135.976 2.17115 140.309C2.99185 144.337 4.24065 148.249 5.02935 152.312C6.21415 159.227 7.25755 166.102 8.08655 173.111C8.40885 177.592 8.98275 182.051 9.80565 186.468C10.4961 189.363 10.8107 192.346 11.4608 195.229C11.971 198.344 12.8159 201.395 13.9809 204.329C16.3489 209.616 18.2098 215.115 19.5383 220.753C21.2714 227.157 20.6335 233.972 17.7418 239.943C17.277 240.887 16.8699 241.858 16.5228 242.851C14.4368 249.341 12.4054 255.868 10.2992 262.351C8.87925 266.778 7.32375 271.144 5.86325 275.559C5.52675 276.605 5.57155 277.736 5.98955 278.752C6.40755 279.767 7.17175 280.602 8.14675 281.108C12.5486 282.39 17.8386 280.469 18.5156 275.584C18.8005 273.477 19.2275 271.258 19.6571 269.105C19.9686 267.019 20.4571 264.963 21.1173 262.959C22.4899 259.372 24.1999 255.906 25.7281 252.386C26.3944 250.85 26.9942 249.316 27.6402 247.774C29.885 242.47 31.5247 236.836 36.3335 232.957C38.4325 230.74 40.7291 228.718 43.1951 226.916C48.3721 224.008 53.7301 221.434 59.2371 219.211C64.8181 216.893 70.3131 214.367 75.7221 211.635C80.9191 209.301 85.9041 206.524 90.6231 203.334C92.0281 202.226 93.518 201.232 95.081 200.36Z" fill="white"/>
<path d="M248.222 210.9C247.49 210.173 246.558 209.681 245.546 209.486C243.444 209.181 241.266 209.138 239.112 209.015C235.799 208.702 232.459 208.82 229.176 209.364C224.534 210.256 219.79 210.497 215.081 210.08C209.75 209.815 204.407 209.876 199.083 210.264C195.615 210.437 192.179 211.408 188.695 211.489C186.579 211.445 184.488 211.945 182.621 212.941C179.793 214.323 176.838 215.428 173.797 216.242C167.563 218.297 161.336 220.325 155.118 222.326C153.402 222.878 151.646 223.265 149.92 223.704C150.137 222.957 150.817 222.804 151.203 222.457C155.055 219.397 159.538 217.231 164.329 216.115C167.528 215.236 170.678 214.186 173.764 212.969C177.441 211.386 181.315 210.303 185.28 209.751C186.577 209.587 187.839 209.215 189.018 208.648C194.029 205.66 199.324 203.173 204.824 201.225C205.712 200.925 206.562 200.526 207.36 200.036C214.037 196.437 219.47 191.164 225.409 186.562C229.687 183.23 233.941 179.825 238.319 176.675C243.561 173.288 247.907 168.684 250.986 163.256C251.654 162.339 252.106 161.283 252.31 160.166C252.513 159.05 252.463 157.902 252.162 156.808C251.037 156.853 249.925 157.068 248.865 157.448C241.346 161.611 233.903 165.884 226.412 170.099C222.238 172.476 218.049 174.827 213.812 177.12C212.137 178.056 210.334 178.758 208.692 179.659C203.94 182.065 199.216 184.523 194.443 186.923C193.705 187.241 192.946 187.511 192.172 187.73C194.029 184.91 196.09 182.23 198.338 179.712C199.637 178.185 200.942 176.637 202.31 175.173C205.022 172.327 207.843 169.556 210.539 166.617C214.097 162.747 217.419 158.632 221.129 154.916C224.615 151.32 227.463 147.157 229.553 142.605C231.068 139.432 232.862 136.428 234.602 133.387C235.613 131.644 236.848 130.032 237.9 128.301C239.528 125.643 238.969 124.626 235.984 123.67C232.265 126.968 228.545 130.266 224.825 133.563C221.106 136.861 217.116 140.409 213.303 143.877C210.935 146.451 208.319 148.786 205.492 150.846C204.995 151.208 204.542 151.628 204.143 152.096C201.313 154.82 198.408 157.501 195.641 160.31C192.541 163.437 189.624 166.684 186.633 169.887C185.273 171.7 183.675 173.319 181.88 174.703C181.959 173.981 181.987 173.66 182.014 173.34C182.263 170.981 182.572 168.64 182.748 166.304C182.883 164.635 182.692 162.958 182.909 161.313C183.294 158.183 183.844 155.014 184.373 151.992C184.884 148.782 185.872 145.667 187.305 142.749C188.127 140.805 188.719 138.772 189.068 136.691C189.409 135.52 189.421 134.275 189.661 133.074C190.165 130.44 190.822 127.805 191.205 125.135C191.588 122.465 191.736 119.924 191.882 117.316C191.88 116.496 191.697 115.688 191.345 114.947C190.865 113.888 190.117 113.823 189.249 114.622C188.382 115.421 187.946 116.017 187.203 116.611C183.787 119.318 181.361 123.212 178.266 126.472C178.086 126.668 177.939 126.891 177.832 127.134C175.69 130.767 174.453 134.862 174.226 139.073C174.178 143.025 173.219 146.914 171.422 150.435C169.926 153.394 168.835 156.537 167.555 159.581C167.408 160.086 167.12 160.55 166.878 161.005C164.887 165.014 163.455 169.277 162.621 173.674C161.782 177.307 161.602 181.087 161.012 184.77C160.604 188.614 159.516 192.354 157.797 195.815C155.314 200.658 152.371 205.251 149.008 209.531C148.092 210.755 147.033 211.866 145.854 212.84C142.027 215.603 138.074 218.197 134.317 221.024C129.84 224.364 125.524 227.905 121.096 231.303C119.849 232.276 118.395 233.058 117.131 233.938C118.571 231.198 120.157 228.538 121.882 225.969C127.441 217.555 133.055 209.18 138.58 200.735C142.521 194.72 146.332 188.623 150.219 182.57C151.613 180.414 152.981 178.271 154.384 176.161C154.591 175.948 154.754 175.696 154.863 175.42C154.972 175.145 155.026 174.85 155.02 174.553C155.015 174.256 154.951 173.964 154.832 173.692C154.713 173.42 154.542 173.174 154.328 172.969C153.87 173.125 153.434 173.336 153.028 173.598C149.869 176.248 146.701 178.853 143.66 181.625C139.749 185.13 135.852 188.661 132.127 192.352C128.992 195.6 125.93 199.046 122.796 202.361C119.663 205.676 116.376 208.618 113.58 212.053C107.924 218.993 102.501 226.11 97.0991 233.232C95.0831 235.687 93.569 238.513 92.641 241.55C91.666 244.842 89.9601 247.872 87.6511 250.414C86.4111 251.892 85.052 253.249 83.831 254.734C80.78 258.445 77.688 262.145 74.76 265.958C73.0031 268.258 71.4071 270.677 69.9811 273.196C69.0311 275.067 67.6381 276.677 65.9221 277.885C61.994 280.407 58.7031 283.805 56.3091 287.812C55.5881 288.97 54.451 289.807 53.1311 290.15C53.348 289.403 53.6071 289.04 53.8061 288.66C55.6231 285.579 57.2781 282.406 58.7641 279.152C60.2631 275.499 62.097 271.993 64.243 268.679C65.0611 267.337 65.7201 265.904 66.2091 264.41C66.9171 262.426 67.216 260.498 67.8951 258.615C70.6261 251.416 73.6141 244.313 76.1831 237.066C78.1101 231.648 79.5851 226.054 81.2161 220.527C81.9681 217.943 82.7271 215.338 83.2971 212.7C83.3641 211.851 83.333 210.997 83.206 210.155C82.108 210.843 81.26 211.122 80.801 211.645C78.58 214.459 76.4621 217.369 74.2701 220.236C72.0781 223.102 69.926 225.98 67.65 228.756C64.657 232.419 61.341 235.834 58.566 239.648C52.708 248.184 48.246 257.598 45.345 267.537C43.967 272.49 42.8831 277.521 42.0991 282.602C41.3661 286.55 40.861 290.543 40.356 294.536C40.197 297.229 39.4336 299.851 38.1223 302.208C35.9707 305.612 34.2339 309.246 30.9396 311.836C30.6873 312.025 30.5756 312.409 30.3461 312.67C28.9403 314.566 27.4378 316.387 25.8445 318.128C20.9464 323.142 15.8068 327.932 11.0122 333.041C8.56995 335.638 8.32015 338.828 11.5194 340.855C12.2566 341.332 13.0257 341.775 13.7688 342.232C14.2041 342.543 14.7309 342.7 15.2655 342.677C15.8001 342.654 16.3116 342.453 16.7188 342.105C18.2078 341.038 19.613 339.858 20.922 338.576C24.1166 335.125 27.0285 331.592 30.3039 328.165C33.8577 324.534 37.6673 321.153 41.359 317.65C43.54 315.333 46.524 313.937 49.701 313.748C52.669 313.601 55.605 313.071 58.438 312.174C63.548 310.573 68.52 308.538 73.544 306.781C77.647 305.229 81.581 303.262 85.284 300.911C88.4321 299.024 91.645 297.243 94.921 295.568C99.601 293.185 104.375 291.005 109.046 288.729C110.98 287.732 112.844 286.607 114.626 285.359C117.206 283.569 119.588 281.481 122.251 279.781C126.036 277.397 129.55 274.608 132.732 271.465C133.539 270.672 134.257 269.794 134.874 268.847C135.847 267.223 137.139 265.812 138.671 264.7C140.203 263.587 141.944 262.796 143.789 262.374C145.505 262.121 147.158 261.547 148.662 260.682C150.323 259.974 152.09 259.549 153.891 259.422C157.217 258.682 160.54 257.875 163.874 257.181C166.422 256.63 169.029 256.25 171.583 255.68C175.614 254.772 179.558 253.489 183.619 252.853C189.446 251.725 195.119 249.914 200.522 247.457C201.112 247.235 201.52 246.587 202.234 245.941C201.369 245.075 200.796 244.033 199.931 243.693C198.016 242.794 195.972 242.199 193.873 241.93C186.885 241.407 179.887 241.144 172.901 240.841C169.575 241.007 166.24 240.915 162.928 240.566C158.069 239.861 153.12 240.086 148.345 241.228C145.257 241.753 142.175 242.411 139.093 242.915C135.205 243.558 131.288 243.995 127.402 244.703C121.927 245.925 116.62 247.808 111.599 250.31C110.67 250.718 109.732 251.081 108.407 251.571C108.751 250.839 108.712 250.521 108.967 250.398C113.746 246.773 118.304 242.625 123.963 239.891C128.978 237.64 134.386 236.394 139.88 236.223C143.029 236.089 146.19 236.067 149.331 235.886C154.747 235.417 160.19 235.355 165.615 235.698C169.279 236.217 173.009 235.991 176.584 235.036C182.451 233.239 188.267 231.318 194.12 229.495C198.11 228.145 202.255 227.305 206.456 226.997C208.997 226.898 211.516 226.484 213.955 225.763C222.926 223.008 231.856 220.022 240.736 217.132C242.967 216.372 245.15 215.479 247.274 214.457C247.639 214.366 247.973 214.179 248.24 213.916C248.508 213.652 248.701 213.321 248.797 212.958C248.894 212.595 248.892 212.213 248.791 211.851C248.689 211.489 248.493 211.16 248.222 210.9ZM188.965 214.021C189.803 213.323 191.411 213.594 192.669 213.413C190.092 216.224 187.027 218.545 183.622 220.263L183.24 219.845C185.035 217.796 186.947 215.852 188.965 214.021ZM180.591 217.432C181.977 215.907 183.374 214.343 185.987 214.622C183.667 216.947 181.472 219.221 179.153 221.394C178.793 221.632 178.388 221.795 177.963 221.871C177.538 221.947 177.102 221.934 176.681 221.835C177.977 220.394 179.264 218.907 180.591 217.432ZM178.343 216.953C176.79 218.986 175.096 220.908 173.274 222.705C172.296 223.581 170.589 223.653 169.214 224.086C170.063 222.259 171.333 220.66 172.92 219.42C174.507 218.18 176.366 217.334 178.343 216.953ZM209.446 181.96L209.88 182.349C208.855 183.54 207.918 184.8 206.827 185.841C205.736 186.881 205.382 188.771 202.676 188.816C205.287 186.466 206.941 183.793 209.446 181.96ZM202.808 191.22C207.256 189.333 211.559 187.123 215.684 184.608C217.836 183.46 219.951 182.214 222.08 180.994C222.796 180.567 223.483 180.088 224.746 179.361C223.777 179.078 223.191 178.908 222.893 178.953C221.116 179.698 219.397 180.574 217.75 181.573C215.431 183.14 212.898 184.365 210.23 185.21C211.576 183.521 212.901 181.827 214.282 180.17C214.661 179.811 215.114 179.539 215.609 179.373C219.599 177.564 223.418 175.399 227.019 172.904C231.116 170.417 235.325 168.072 239.529 165.594C241.795 164.282 244.068 163.017 246.363 161.757C246.884 161.471 247.442 161.283 248.476 160.817C247.22 163.34 245.41 165.546 243.181 167.27C239.623 170.615 235.863 173.901 232.127 176.953C230.206 178.585 228.109 179.77 226.08 181.173C225.692 181.372 225.314 181.591 224.947 181.828C220.844 185.015 216.741 188.201 212.718 191.41C209.869 193.729 206.735 195.673 203.391 197.194C197.983 199.671 192.783 202.56 187.432 205.142C186.241 205.626 184.996 205.963 183.724 206.144C182.084 206.36 180.459 206.669 178.854 207.07C175.608 208.14 172.43 209.427 169.22 210.595C168.019 211.034 166.796 211.401 165.604 211.733L165.258 211.041C166.786 209.777 168.217 208.398 169.85 207.23C174.188 203.825 179.118 201.25 184.391 199.636C189.659 197.946 194.725 195.682 199.498 192.885C200.555 192.242 201.662 191.685 202.808 191.22ZM202.266 186.309C199.828 188.666 198.743 192.621 194.463 192.799C196.758 190.335 198.378 186.951 202.266 186.309ZM192.714 190.91C191.692 192.387 190.854 193.61 190.002 194.808C189.769 195.156 189.556 195.663 189.214 195.783C186.495 197.037 183.642 197.977 180.711 198.586C184.357 194.939 187.797 191.998 192.714 190.91ZM180.14 160.967L180.685 161.125C180.393 164.764 180.126 168.388 179.713 171.991C179.588 173.695 179.351 175.39 179.003 177.063C178.803 178.469 178.313 179.818 177.565 181.025C175.507 183.753 173.225 186.305 170.745 188.655C170.927 187.688 171.203 186.741 171.567 185.828C172.539 183.944 173.176 181.907 173.452 179.806C173.975 176.804 174.773 173.838 175.423 170.852C175.595 170.275 175.695 169.678 175.721 169.077C175.79 165.527 178.247 163.482 180.111 161.068L180.14 160.967ZM180.583 156.584C180.48 158.744 178.851 159.299 177.774 160.366C178.299 158.846 179.28 157.525 180.583 156.584ZM181.57 151.089C181.684 153.028 180.7 154.077 178.597 154.604L181.57 151.089ZM166.198 183.432C167.037 178.442 167.923 173.443 169.111 168.533C170.778 162.28 172.951 156.173 175.609 150.273C176.568 147.472 177.349 144.612 177.948 141.711C178.953 138.259 179.958 134.806 181.098 131.414C181.259 131.009 181.381 130.59 181.463 130.162C181.724 126.931 183.797 124.775 185.862 122.572C186.948 121.399 187.951 120.136 188.988 118.905L189.513 119.058C189.058 122.276 188.624 125.501 188.102 128.722C187.702 132.021 187.114 135.294 186.343 138.526C185.64 142.037 184.167 145.348 182.032 148.223C181.89 148.446 181.713 148.646 181.509 148.815C177.536 151.251 176.364 155.202 175.609 159.451C175.17 161.864 174.361 164.191 173.821 166.574C173.28 168.958 172.914 171.195 172.463 173.495C172.013 175.795 171.67 177.951 171.116 180.155C170.581 181.993 169.885 183.783 169.384 185.652C168.656 188.156 168.189 190.736 167.535 193.284C167.373 194.032 167.056 194.738 166.604 195.356C164.073 198.255 161.454 201.085 158.854 203.92C158.71 204.071 158.534 204.187 158.338 204.259C158.142 204.331 157.933 204.358 157.726 204.337C158.042 203.688 158.4 203.061 158.798 202.458C162.74 196.794 165.276 190.272 166.198 183.432ZM124.724 205.069C127.328 201.993 129.877 198.88 132.535 195.843C134.051 194.094 135.682 192.554 137.265 190.956C140.301 188.05 143.331 185.165 146.361 182.28C147.211 181.361 148.181 180.56 149.244 179.899C148.954 180.553 148.623 181.189 148.252 181.801C141.945 191.508 135.568 201.15 129.243 210.764C126.69 214.643 124.385 218.725 121.758 222.559C118.443 227.399 114.91 232.087 111.426 236.833C109.548 239.375 107.6 241.852 105.687 244.362C105.404 244.815 105.043 245.214 104.621 245.541C101.471 247.559 99.744 250.933 97.1401 253.482C94.5361 256.032 92.166 258.605 89.637 261.199C88.886 261.948 87.9721 262.514 86.9661 262.852C88.0741 261.045 89.3081 259.318 90.6601 257.685C92.4241 255.865 94.0191 253.888 95.424 251.778C96.958 249.443 98.9011 247.358 100.599 245.137C102.61 242.59 104.636 240.07 106.648 237.523C108.749 234.556 111.037 231.725 113.496 229.047C114.423 227.798 115.2 226.443 115.809 225.011C117.472 222.232 119.087 219.395 120.833 216.705C123.22 213.019 125.723 209.236 128.278 205.577C129.45 203.882 130.862 202.343 132.164 200.729L131.416 200.139L123.866 209.221C123.639 208.514 123.599 207.76 123.749 207.032C123.9 206.304 124.236 205.628 124.724 205.069ZM96.986 256.57L100.519 253.086C99.5301 255.58 99.0691 256.037 96.9741 256.61L96.986 256.57ZM121.151 209.066C120.601 211.709 121.232 214.281 118.716 216.155C119.239 213.679 118.339 211.051 121.14 209.107L121.151 209.066ZM117.02 213.777C117.394 215.879 115.98 217.351 115.72 219.072C115.585 221.005 114.893 222.857 113.729 224.406C113.703 222.088 113.879 219.772 114.255 217.484C114.951 216.095 115.887 214.84 117.02 213.777ZM80.6421 262.983C84.5991 258.418 88.803 254.056 92.562 249.346C94.358 246.865 95.871 244.19 97.0731 241.373C99.744 236.438 102.827 231.738 106.288 227.321C107.702 225.324 109.28 223.439 110.823 221.523C111.24 221.091 111.692 220.695 112.175 220.34C112.014 223.074 111.907 225.474 111.739 227.857C111.596 228.268 111.36 228.642 111.049 228.948C107.121 234.091 103.262 239.297 99.2591 244.396C96.7411 247.628 94.0251 250.714 91.4331 253.902C89.8311 255.867 88.279 257.89 86.732 259.893C83.581 264.1 79.7691 267.769 75.4441 270.756C75.6081 270.069 75.86 269.406 76.193 268.784C77.639 266.752 79.013 264.742 80.665 262.902L80.6421 262.983ZM63.538 256.58C63.116 254.267 64.7131 252.542 68.161 251.158C68.0611 254.283 65.274 254.83 63.5611 256.499L63.538 256.58ZM70.374 245.735C70.104 246.664 69.8331 247.593 69.5451 248.582L66.0891 249.394L65.8341 248.991L69.818 245.464L70.374 245.735ZM14.0692 339.319L12.8375 336.026C14.3694 334.675 15.7694 334.908 17.6365 335.867L14.0692 339.319ZM138.509 247.63C141.407 244.962 145.174 243.436 149.112 243.335C150.24 243.204 151.359 243.003 152.463 242.733C155.229 242.217 158.063 242.175 160.844 242.61C164.219 242.979 167.615 243.201 170.982 243.371C178.163 243.533 185.35 243.523 192.539 243.732C193.682 243.967 194.781 244.383 195.794 244.964L195.703 245.726C195.167 245.948 194.616 246.131 194.054 246.276C185.949 247.859 177.816 249.39 169.76 251.031C168.314 251.333 166.936 252.005 165.527 252.406C162.906 253.132 160.303 253.798 157.668 254.499C155.559 255.046 153.365 255.436 151.308 256.108C143.395 258.699 135.226 260.426 126.942 261.259C124.342 261.558 121.762 262.006 119.214 262.602C114.196 263.813 109.266 265.401 104.208 266.447C99.15 267.494 94.3901 267.97 88.9441 268.772C89.5431 268.07 89.8431 267.413 90.3411 267.208C95.3261 265.132 100.504 263.069 105.672 261.266C108.285 260.34 111.101 259.999 113.814 259.256L130.358 255.091C131.63 254.783 132.926 254.546 134.213 254.264C139.013 253.223 143.8 252.178 148.573 251.129C149.218 250.947 149.852 250.73 150.472 250.477L150.365 249.942L134.293 252.031C135.922 250.272 137.223 248.964 138.509 247.63ZM84.9201 285.079C81.0441 287.258 76.8481 288.884 72.8231 290.823C69.9331 292.172 67.023 293.668 64.187 295.208C62.055 296.362 59.9891 297.666 57.8941 298.918C57.5961 299.116 57.32 299.386 57.036 299.61C56.91 299.289 56.811 298.953 56.706 298.638C61.382 293.551 66.4221 288.81 71.786 284.454C72.151 284.217 72.5031 283.961 72.8411 283.688C75.9231 280.578 79.6151 278.141 83.6861 276.528C90.2191 273.578 96.975 271.151 103.891 269.268C107.833 268.522 111.815 268.006 115.817 267.724C119.121 267.284 122.402 266.771 125.695 266.219C127.277 265.978 128.876 265.677 130.463 265.416L130.596 265.937L121.705 269.394L100.145 277.771C94.9011 279.836 89.812 282.279 84.9201 285.079ZM82.5881 291.738C82.6561 290.75 82.698 289.93 82.781 288.815L89.6811 285.129C88.6991 289.18 85.315 289.969 82.5881 291.738ZM80.5091 290.453C78.6531 292.388 77.315 294.956 74.3101 295.57C76.343 293.928 77.2801 290.784 80.5091 290.453ZM124.965 249.842C125.385 249.526 126.01 249.336 126.234 248.941C127.442 246.598 129.704 246.578 131.872 246.202C134.041 245.825 135.841 245.736 137.835 245.506L138.093 245.975C134.423 248.499 131.302 251.774 127.113 253.599C128.673 251.096 131.468 249.698 133.051 247.268C132.952 247.111 132.842 246.962 132.721 246.821C132.355 246.895 132.002 247.021 131.671 247.194C129.076 249.111 126.475 251.048 123.915 252.997C123.351 253.412 122.852 253.909 122.434 254.471C121.687 255.459 120.745 255.535 119.365 255.461C120.911 253.294 122.803 251.396 124.965 249.842ZM115.56 254.31C116.697 253.329 117.745 252.249 118.69 251.082C120.134 248.83 122.377 248.497 124.854 248.342L113.96 257.174L113.503 256.712C114.137 255.889 114.831 255.084 115.56 254.31ZM117.185 251.06L112.002 255.399C111.331 255.971 110.696 256.574 110.041 257.019C109.617 257.448 109.109 257.785 108.548 258.008C101.206 260.026 94.1811 263.061 87.6791 267.024C86.8591 267.508 86.2081 268.239 85.4571 268.787C83.9031 269.911 82.329 271.03 80.747 272.103C79.164 273.175 77.9071 273.357 77.6291 275.291C77.44 275.937 76.3951 276.443 75.7691 276.94L73.1441 279.111C70.953 280.992 68.8951 283.021 66.564 284.708C64.104 286.684 61.8501 288.905 59.8381 291.336C56.1211 295.5 52.0691 299.353 47.7241 302.857C47.2241 303.225 46.7791 303.664 46.4031 304.159C46.1881 304.447 46.1211 305.128 46.2271 305.29C46.5711 305.652 47.0331 305.88 47.5301 305.932C47.8931 306.038 48.323 305.616 48.734 305.407C50.974 304.27 53.135 302.981 55.201 301.551C58.375 299.519 61.7041 297.742 65.1581 296.236C68.118 294.797 71.2 293.614 74.807 292.057C74.588 292.611 74.3091 293.14 73.9761 293.633C72.6691 294.769 71.4641 296.015 70.3731 297.359C69.2741 298.956 67.704 300.168 65.8811 300.827C61.8371 302.453 57.771 304.007 53.7131 305.608C53.4211 305.771 53.1461 305.963 52.8901 306.179C54.3251 306.815 55.397 306.142 56.468 305.774C60.857 304.314 65.2301 302.762 69.5911 301.249C69.7321 301.29 69.9751 301.208 70.0911 301.11C73.1211 298.225 77.075 297.208 80.572 295.203C83.179 293.771 85.8501 292.118 88.5671 290.762C91.2831 289.406 93.563 288.646 96.0881 287.497C99.4 285.899 102.641 284.17 105.848 282.41C106.846 281.78 107.787 281.065 108.66 280.272C107.258 279.447 106.5 280.168 105.698 280.592L91.732 287.938C91.419 288.11 91.092 288.256 90.536 288.51C90.995 286.935 91.3241 285.804 91.6031 284.243C104.779 278.079 118.262 272.595 131.999 267.813C130.549 269.832 128.573 271.416 126.286 272.392C122.979 274.03 119.964 276.201 117.363 278.818C114.937 280.828 112.341 282.623 109.603 284.182C107.117 285.648 104.489 286.701 101.911 288.032C97.8511 290.092 93.869 292.261 89.768 294.309C83.705 297.232 77.6871 300.299 71.4551 302.821C66.3621 305.166 60.9561 306.758 55.4051 307.546C54.1801 307.703 52.9761 307.999 51.8191 308.429C47.8651 309.596 43.7961 310.328 39.6839 310.614C38.933 311.162 38.1822 311.71 37.2774 312.41L37.6982 314.351C31.6702 320.612 25.6943 326.845 19.5008 333.3L15.9874 332.277C16.3461 331.752 16.7403 331.252 17.1676 330.781C21.1715 327.259 25.3076 323.885 29.159 320.21C31.1021 318.067 32.9264 315.82 34.6232 313.477C35.1717 312.62 35.9195 311.908 36.8027 311.402C37.6861 310.897 38.6785 310.612 39.6956 310.573C39.4548 310.524 39.2184 310.456 38.989 310.368C38.7598 310.177 38.541 309.974 38.3334 309.761C38.9771 308.678 39.7251 307.537 40.372 306.368C40.964 305.328 41.4901 304.252 41.9451 303.146C42.8901 300.727 43.8011 298.276 44.6511 295.808C45.0861 294.314 45.5261 292.799 45.9611 291.305C46.1731 290.851 46.431 290.419 46.73 290.017L46.7771 289.856C45.7501 287.367 46.9341 284.952 47.423 282.597C48.127 279.276 49.1861 276.014 50.2791 272.784C51.9901 266.908 53.7001 261.032 55.869 255.312C57.1091 251.747 58.7621 248.339 60.7951 245.159C66.6131 236.383 72.745 227.808 78.919 218.939C79.187 220.662 78.9401 222.427 78.2091 224.011C76.2641 230.015 74.257 235.783 72.281 241.669C71.951 242.799 71.531 243.641 70.057 243.891C69.401 243.962 68.8081 244.644 68.1851 245.054L67.7531 244.731C68.383 243.469 69.074 242.225 69.656 240.905C70.237 239.584 70.668 238.33 71.195 236.972C69.976 236.267 69.4361 236.92 69.0501 237.793C67.6771 240.854 66.235 243.851 64.984 246.948C62.422 253.189 60.057 259.509 57.441 265.713C55.739 269.752 53.7331 273.636 51.9361 277.625C49.9061 281.523 48.217 285.589 46.887 289.778L46.858 289.879L49.412 288.63C50.312 284.697 51.87 280.944 54.023 277.531C56.855 272.293 59.2451 266.827 61.1661 261.19C61.8661 258.788 63.665 258.326 66.037 257.549C65.522 259.207 64.9221 260.838 64.2421 262.436C63.139 264.721 61.7511 266.858 60.6681 269.149C58.9751 272.708 57.4981 276.352 55.8251 279.917C54.9141 281.843 53.7411 283.691 52.7091 285.581C51.9571 286.961 51.2451 288.353 50.5131 289.739C49.0631 292.536 47.519 295.285 46.164 298.132C45.426 299.691 45.794 300.083 47.248 300.353C50.158 297.279 52.8651 294.3 55.7241 291.475C59.1411 288.089 62.7191 284.75 66.2371 281.393C67.3741 280.039 68.888 279.053 70.587 278.563C70.877 278.483 71.146 278.341 71.376 278.147C71.606 277.953 71.792 277.712 71.921 277.441C73.46 273.508 76.576 270.779 79.962 267.8C80.152 269.783 78.234 270.276 78.176 272.055C89.8391 262.811 103.046 255.703 117.185 251.06ZM123.635 234.32C123.535 234.663 123.648 235.178 123.347 235.309C121.995 236.447 120.57 237.495 119.082 238.448C114.149 241.584 109.562 245.234 105.399 249.338C104.374 250.241 103.261 251.04 102.077 251.722C107.275 245.598 113.18 240.112 119.669 235.378C120.931 236.008 121.586 235.038 122.352 234.363L120.333 233.775L124.008 231.384C124.542 231.097 125.055 230.77 125.54 230.407C131.342 225.524 137.335 221.114 143.331 216.617C144.398 215.811 145.85 215.489 146.98 214.766C148.117 213.98 149.206 213.127 150.242 212.212C149.166 214.108 147.66 215.725 145.845 216.933C144.017 218.16 142.292 219.533 140.686 221.038C141.646 222.106 142.576 222.07 143.252 221.479C144.877 219.891 146.906 218.777 149.118 218.258C149.365 218.166 149.575 217.997 149.718 217.776C150.853 216.576 151.86 215.262 152.721 213.853C154.367 210.609 157.352 208.63 159.696 206.071C162.04 203.511 164.86 201.573 166.634 198.563C167.059 197.854 168.084 197.495 168.756 196.99C169.143 195.694 169.676 194.446 170.343 193.269C172.21 190.768 174.302 188.398 176.333 186.01C176.471 185.863 176.641 185.748 176.829 185.674C177.017 185.6 177.219 185.569 177.421 185.582C178.734 185.964 179.33 185.196 179.565 184.235C180.769 179.198 184.383 175.738 187.693 172.189C193.284 166.151 199.136 160.342 204.9 154.463C205.371 153.943 205.885 153.462 206.435 153.026C211.965 148.597 217.231 143.847 222.205 138.802C224.95 136.106 228.09 133.844 231.517 132.094C230.699 133.477 229.941 134.877 229.087 136.228C228.234 137.578 227.471 138.32 226.876 139.461C224.47 143.645 221.639 147.569 218.429 151.173C215.699 154.03 213.309 157.193 211.305 160.598C210.497 161.951 209.51 163.188 208.372 164.278C204.361 168.805 200.32 173.28 196.288 177.801C191.877 183.03 187.115 187.952 182.035 192.532C177.468 196.482 172.79 200.289 168.063 204.038C166.72 205.115 164.662 205.414 163.604 206.639C162.649 208.021 161.582 209.322 160.413 210.529C156.976 213.383 153.694 216.458 150.038 219.008C145.139 222.444 140.423 226.306 134.505 227.978C134.156 228.039 133.83 228.194 133.564 228.427C130.895 231.312 127.446 233.36 123.635 234.32ZM241.722 212.841C236.463 214.727 231.177 216.561 225.884 218.416C219.945 220.273 213.859 221.623 207.691 222.451C205.549 222.813 203.429 223.4 201.295 223.808C194.728 225.383 188.261 227.348 181.929 229.692C177.091 231.258 172.057 232.138 166.975 232.305C163.924 232.402 160.856 231.881 157.807 231.673C152.995 231.389 148.166 231.628 143.406 232.387C139.501 232.937 135.632 233.738 131.858 234.436C131.376 234.514 130.884 234.547 129.824 234.654C130.287 234.17 130.778 233.713 131.295 233.286C131.736 232.976 132.331 232.887 132.677 232.528C136.161 228.986 140.943 228.582 145.344 227.235C150.534 225.657 155.707 223.987 160.881 222.317C164.173 221.238 167.437 220.108 171.245 218.763C170.891 219.342 170.477 219.882 170.01 220.375C168.799 221.226 167.654 222.167 166.584 223.189C164.676 225.156 162.114 226.358 159.38 226.568C154.754 227.411 150.199 228.013 145.608 228.735C145.33 228.786 145.069 229.082 144.446 229.492C144.972 229.73 145.53 229.892 146.102 229.974C149.575 229.627 153.061 229.24 156.547 228.853C158.084 228.687 159.642 228.527 161.209 228.414C165.416 228.105 169.087 225.801 173.144 225.032C176.471 224.291 179.757 223.376 182.988 222.291C183.58 222.17 184.18 222.096 184.783 222.069C185.286 221.996 185.929 222.118 186.251 221.839C188.404 220.012 191.171 219.986 193.626 219.605C196.555 219.099 199.458 218.455 202.387 217.95C203.908 217.692 205.436 217.633 207.02 217.459C207.02 215.728 206.937 215.485 205.203 215.725C202.448 216.084 199.698 216.729 196.957 217.267L191.123 218.197C191.348 217.518 191.668 216.874 192.074 216.284C193.615 214.32 195.842 213.012 198.308 212.623C202.591 212.205 206.863 211.828 211.159 211.742C213.912 211.689 216.718 212.134 219.508 212.179C221.505 212.223 223.503 212.124 225.486 211.882C228.004 211.586 230.476 211.144 233.008 210.721C233.972 210.65 234.939 210.647 235.903 210.709C237.905 210.752 239.904 210.808 241.899 210.877C242.453 210.937 243.002 211.038 243.541 211.18L243.611 211.617C243.016 212.076 242.384 212.485 241.722 212.841ZM185.15 139.165C185.145 139.71 185.318 140.243 185.121 140.47C184.004 141.897 182.839 143.267 181.714 144.648C181.171 145.234 180.649 146.352 179.648 145.426C178.647 144.5 179.33 143.735 179.992 143.117C181.501 141.694 182.629 139.701 185.15 139.165ZM95.0601 200.355C98.914 198.466 102.56 196.18 105.938 193.533C107.415 192.299 108.869 190.991 110.396 189.881C114.517 186.939 118.397 183.674 122 180.117C128.202 174.397 133.603 167.864 138.056 160.698C138.554 159.887 138.883 158.985 139.025 158.045C139.009 157.308 138.857 156.581 138.576 155.899C137.865 156.086 137.019 156.059 136.482 156.472C132.762 159.244 128.973 161.953 125.497 165.015C123.844 166.575 122.002 167.922 120.015 169.026C116.494 170.739 113.607 173.359 109.687 174.408C109.45 174.471 109.253 174.698 109.038 174.833C106.067 176.837 103.154 178.946 100.077 180.788C95.8671 183.286 91.508 185.544 87.2241 187.998C85.159 189.149 83.0591 190.268 81.12 191.588C78.662 193.417 76.0071 194.966 73.2051 196.205C71.1811 197.044 69.2121 198.007 67.3061 199.088C64.0851 200.822 60.8871 202.629 57.6831 204.456C55.6921 205.545 53.7581 206.736 51.8911 208.027C48.8471 210.207 45.935 212.536 42.94 214.774C42.94 214.774 42.6371 214.686 42.2941 214.586C42.4591 214.102 42.6681 213.635 42.9191 213.191C45.7741 208.875 48.6701 204.571 51.5161 200.361C54.8031 195.143 59.5561 191.01 65.1811 188.481C69.0221 186.796 72.7241 184.763 76.618 183.049C80.512 181.336 84.9471 180.02 88.9831 178.194C93.0181 176.368 97.4041 173.943 101.586 171.766C103.674 170.687 105.702 169.438 107.856 168.509C112.945 166.302 117.834 163.658 122.466 160.606C123.837 159.63 125.122 158.539 126.307 157.343C127.836 155.927 129.199 154.33 130.734 152.894C134.626 149.23 138.552 145.598 142.473 141.986C143.637 140.923 144.869 139.924 145.964 138.797C148.51 136.143 151.008 133.432 153.5 130.74C155.992 128.049 158.408 125.467 160.793 122.766C161.615 121.823 162.574 120.787 162.052 119.343C159.679 118.39 159.665 118.364 157.935 119.569C156.923 120.26 155.989 121.061 155.098 121.787C152.35 123.704 149.732 125.701 146.981 127.551C144.765 129.114 142.445 130.525 140.036 131.771C134.601 134.416 129.02 136.734 123.591 139.359C117.215 142.453 110.918 145.724 104.614 148.948C101.579 150.496 98.5291 152.018 95.6031 153.794C91.0291 156.566 86.539 159.45 82.133 162.446C78.8 164.717 75.6661 167.134 72.4351 169.654C70.9221 170.79 69.4451 172.025 67.9601 173.214L67.5001 172.839C68.0801 171.825 68.7141 170.849 69.2391 169.797C72.3851 163.506 76.44 157.712 81.275 152.603C81.986 151.826 82.6541 151.011 83.2781 150.163C86.3831 146.117 89.407 142.047 92.527 138.027C95.451 134.301 98.445 130.638 101.458 126.981C102.539 125.675 103.299 123.969 105.36 123.737C105.704 123.683 106.004 123.179 106.311 122.875C107.64 121.246 109.118 119.705 110.723 118.179C111.863 116.955 113.13 115.855 114.503 114.899C119.843 111.523 125.876 109.394 132.152 108.669C135.251 108.257 138.322 107.486 141.404 106.981C143 106.516 144.673 106.37 146.326 106.552C149.16 107.049 152.045 107.297 154.929 107.545C158.356 107.53 161.759 108.113 164.985 109.268C165.29 109.434 165.628 109.532 165.974 109.556C170.096 109.617 174.235 109.77 178.323 109.646C184.336 109.381 190.367 108.902 196.386 108.464C201.177 108.107 205.978 107.642 210.761 107.238C211.723 107.168 212.688 107.164 213.648 107.027C217.819 106.467 221.948 105.676 226.129 105.382C228.499 105.217 230.993 104.323 233.337 105.75C233.681 105.85 234.21 105.763 234.64 105.713C236.8 105.443 238.979 105.18 241.142 104.824C241.914 104.8 242.665 104.564 243.311 104.141C244.096 103.447 245.103 103.057 246.151 103.04C246.726 102.945 247.231 102.413 247.785 102.092C247.481 101.499 247.094 100.951 246.637 100.466C246.171 100.229 245.664 100.082 245.143 100.031C241.771 99.0491 238.419 98.0741 235.047 97.0921C233.388 96.3131 231.686 95.6281 229.95 95.0391C226.535 94.3071 223.038 94.0251 219.549 94.2021C211.838 94.5271 204.121 93.7551 196.627 91.9101C196.203 91.7871 195.779 91.6631 195.39 91.4191C191.756 90.2081 188.153 88.7431 184.437 87.8141C175.11 85.7121 165.47 85.3881 156.022 86.8591L155.233 86.9361C149.392 87.5791 143.636 88.8401 138.062 90.6991C137.509 90.8661 136.968 90.9941 135.999 91.2371C136.244 90.7371 136.523 90.2551 136.836 89.7941C139.572 86.7141 142.294 83.6081 145.079 80.5851C147.865 77.5631 151.275 74.3501 154.004 70.9181C157.135 66.8201 159.589 62.2471 161.276 57.3741C161.608 56.3802 162.061 55.4307 162.624 54.5469C165.194 50.761 167.729 46.9432 170.477 43.2968C173.476 39.2019 175.835 34.6745 177.473 29.8701C177.759 28.8579 178.147 27.8774 178.632 26.9438C181.646 21.8008 185.133 16.9498 189.048 12.4536C191.616 9.49971 193.79 6.16821 196.184 2.98801C196.346 2.79321 196.466 2.56721 196.537 2.32391C196.608 2.08071 196.629 1.82541 196.597 1.57391C196.566 1.32241 196.483 1.08011 196.354 0.861907C196.225 0.643707 196.052 0.454409 195.847 0.305709C195.001 -0.400491 194.236 0.274607 193.528 0.747707C192.047 1.69651 190.587 2.65121 189.055 3.47561C185.437 5.44511 181.627 7.09591 178.199 9.31771C174.173 11.9351 170.452 15.0134 166.619 17.9495C163.276 20.352 160.149 23.0399 157.271 25.9829C154.535 29.0621 152.132 32.4229 150.104 36.0088C145.851 43.0939 141.415 50.0597 136.998 57.0311C135.493 59.4191 133.789 61.6601 132.081 64.1421C132.166 62.7211 132.256 61.4331 132.34 60.1661C132.362 55.2561 133.047 50.3719 134.376 45.6456C135.119 43.204 135.628 40.6975 135.898 38.1598C135.938 37.7479 135.888 37.3323 135.752 36.9413C135.617 36.5503 135.398 36.1931 135.112 35.8941C134.309 35.2662 133.48 36.0102 132.873 36.6658C132.37 37.1659 131.923 37.7187 131.538 38.3145C129.145 42.6992 126.677 47.0403 124.416 51.573C123.161 54.0771 122.443 56.8471 121.297 59.4261C119.577 63.3061 117.71 67.0121 115.805 70.7721C115.717 71.0751 115.493 71.3161 115.132 71.9561L114.654 70.4371C114.08 67.5141 113.2 64.6591 112.03 61.9201C111.765 61.2791 111.63 60.5921 111.632 59.8981C111.526 58.6851 111.65 57.4291 111.445 56.252C110.841 51.5473 110.72 46.7931 111.085 42.0638C111.204 38.5941 111.254 35.1115 111.235 31.6161C111.302 25.2937 112.296 19.0154 114.184 12.9812C114.772 10.9621 115.17 8.69061 117.207 7.48751C116.548 5.23681 116.002 4.70541 114.961 5.49761C112.108 7.55351 109.665 10.1262 107.759 13.0823C105.567 16.9861 104.057 21.2349 103.292 25.6463C102.703 28.4006 101.522 30.9939 99.831 33.2466C97.078 36.7912 95.3531 41.025 94.8451 45.4845C94.4441 50.6244 94.0431 55.7643 94.049 60.9351C93.979 65.1641 94.348 69.3891 94.508 73.8821C92.054 70.8021 89.768 68.1211 87.609 65.3031C83.445 59.8191 77.585 56.6241 71.676 53.5245C66.668 51.1773 61.9141 48.3255 57.4851 45.0135C54.6771 42.7724 51.665 40.7787 48.706 38.7564C48.124 38.3462 46.904 37.9473 46.6861 38.1686C46.1241 38.8788 45.7761 39.735 45.6831 40.6364C45.6431 41.3369 45.7611 42.0376 46.0291 42.6862C46.6791 44.6001 47.7851 46.3274 49.2501 47.7198C51.9261 50.4918 54.7091 53.273 57.2911 56.2149C61.7281 61.4081 66.6871 66.1321 72.0891 70.3131C77.1531 74.1411 81.4961 78.8391 84.9161 84.1871C88.0441 89.3581 90.601 94.8541 92.542 100.578C93.758 103.301 94.586 106.181 95.001 109.135C95.084 110.429 95.572 111.688 95.762 112.992C95.886 113.754 95.845 114.534 95.6441 115.279C93.1671 123.035 88.0441 129.122 82.704 135.803C82.69 134.572 82.665 133.908 82.7001 133.261C82.9211 129.339 83.1891 125.409 83.3711 121.476C83.5771 117.155 83.7021 112.811 83.8471 108.626C83.8901 107.653 84.0591 106.695 84.0091 105.738C83.9341 103.964 83.173 103.568 81.661 104.398C81.166 104.67 80.5911 104.765 80.0891 105.057C79.5881 105.349 78.783 105.707 78.544 106.228C77.633 108.153 76.849 110.247 76.096 112.305C75.343 114.364 75.0261 115.98 74.2351 117.721C70.8991 125.27 67.493 132.755 64.1021 140.266C63.897 140.973 63.319 141.528 62.637 142.665L62.5441 141.105C62.3031 135.537 63.7131 130.166 64.1941 124.677C64.6461 121.103 64.8461 117.501 64.7901 113.899C64.6091 110.934 64.655 107.96 64.927 105.002C65.376 101.955 65.215 98.8481 64.455 95.8631C63.57 93.1091 62.732 90.3461 61.815 87.6261C60.324 83.1181 58.827 78.6301 57.257 74.1651C55.9481 70.0541 53.542 66.3781 50.299 63.5321C49.6091 63.0051 49.057 62.3181 48.691 61.5311C48.293 60.6451 47.6671 59.8811 46.8771 59.3161C46.0871 58.7521 45.1621 58.4071 44.1951 58.3161C42.4781 57.8171 41.2851 59.1341 41.7931 60.9251C42.2101 62.2531 42.7701 63.5331 43.4641 64.7401C44.7211 66.6321 45.5921 68.7541 46.0271 70.9841C46.2801 72.8971 46.534 74.8111 46.5471 76.7201C46.7061 78.6661 46.73 80.6191 46.62 82.5681C46.123 87.8111 45.438 93.0221 44.968 98.2511C44.497 103.48 44.2661 108.187 43.8221 113.249C43.0621 121.208 43.689 129.238 45.674 136.983C46.328 139.627 46.844 142.296 47.524 144.925C47.915 146.44 48.59 147.885 49.079 149.364C50.293 152.182 50.9001 155.224 50.8611 158.293C50.6571 160.304 50.6391 162.33 50.8081 164.344C51.1331 166.866 51.0541 169.424 50.5741 171.92C50.306 174.244 49.8211 176.537 49.1271 178.771C47.3351 183.346 45.82 188.025 44.5891 192.782C44.1021 194.075 43.4711 195.309 42.7081 196.461C42.2911 197.216 41.6641 197.866 41.1861 198.603C38.8194 202.295 36.4929 205.998 34.1463 209.695C33.9275 209.942 33.6918 210.174 33.4409 210.388C33.2572 209.771 33.1261 209.139 33.0488 208.5C32.8449 204.761 32.5602 200.998 32.5355 197.246C32.4917 190.925 32.6414 184.617 32.6783 178.32C32.69 177.006 32.5883 175.694 32.3742 174.398C31.542 169.206 30.3657 164.067 29.8717 158.842C29.6453 155.143 28.8678 151.499 27.565 148.029C24.7248 141.158 21.6357 134.388 18.645 127.582C18.0536 126.227 17.5987 124.781 16.8771 123.498C14.7637 119.772 12.471 116.06 10.3543 112.422C8.99625 110.165 7.58025 107.957 6.15825 105.769C5.50745 104.769 4.48865 104.582 4.06265 105.443C3.01815 107.527 1.10625 109.204 1.24055 111.828C1.15355 113.052 0.989249 114.27 0.748749 115.474C0.236649 119.344 -0.0133509 123.245 0.000549134 127.149C0.430649 131.579 1.15585 135.976 2.17115 140.309C2.99185 144.337 4.24065 148.249 5.02935 152.312C6.21415 159.227 7.25755 166.102 8.08655 173.111C8.40885 177.592 8.98275 182.051 9.80565 186.468C10.4961 189.363 10.8107 192.346 11.4608 195.229C11.971 198.344 12.8159 201.395 13.9809 204.329C16.3489 209.616 18.2098 215.115 19.5383 220.753C21.2714 227.157 20.6335 233.972 17.7418 239.943C17.277 240.887 16.8699 241.858 16.5228 242.851C14.4368 249.341 12.4054 255.868 10.2992 262.351C8.87925 266.778 7.32365 271.144 5.86325 275.559C5.52675 276.605 5.57145 277.736 5.98955 278.752C6.40755 279.767 7.17175 280.602 8.14675 281.108C12.5486 282.39 17.8386 280.469 18.5156 275.584C18.8005 273.477 19.2275 271.258 19.657 269.105C19.9686 267.019 20.4571 264.963 21.1173 262.959C22.4899 259.372 24.1999 255.906 25.7281 252.386C26.3944 250.85 26.9942 249.316 27.6402 247.774C29.885 242.47 31.5247 236.836 36.3335 232.957C38.4325 230.74 40.7291 228.718 43.1951 226.916C48.3721 224.008 53.7301 221.434 59.2371 219.211C64.8181 216.893 70.3131 214.367 75.7221 211.635C80.9191 209.301 85.9041 206.524 90.6231 203.334C92.0281 202.226 93.518 201.232 95.081 200.36L95.0601 200.355ZM84.0561 191.96L84.2651 191.693C87.3071 189.972 90.371 188.323 93.344 186.538C99.008 183.105 105.022 180.278 110.466 176.475C113.518 174.341 116.966 172.804 120.21 170.988L120.612 171.565C118.196 173.468 115.815 175.404 113.405 177.287C110.995 179.17 109.176 180.83 106.973 182.379C104.248 184.215 101.565 185.909 98.852 187.704C96.14 189.498 93.8551 191.177 91.3391 192.898C90.2701 193.638 89.156 194.453 87.945 192.895C87.052 194.081 85.076 194.25 85.6011 196.134C84.5171 196.694 83.659 197.912 81.9031 197.401C82.7331 196.504 83.419 195.652 84.139 194.985C84.361 194.798 84.543 194.566 84.671 194.305C84.799 194.044 84.872 193.759 84.885 193.468C84.897 193.177 84.8491 192.887 84.7441 192.616C84.6391 192.345 84.4781 192.098 84.273 191.892L84.0581 192.027C82.7761 193.647 81.5 195.247 80.204 196.841C80.163 196.982 79.7391 196.858 79.493 196.875L79.333 197.047C78.809 197.946 78.2611 198.925 77.7741 199.769L77.2391 199.351C77.9421 198.591 78.631 197.806 79.333 197.047C79.333 197.047 79.3921 196.845 79.4161 196.764C79.8771 194.051 82.0911 193.141 84.0761 191.966L84.0561 191.96ZM74.6681 197.726C75.202 197.093 76.197 196.835 76.973 196.426L77.393 196.942L72.0711 202.884L71.374 202.418C72.477 200.812 73.4791 199.176 74.6881 197.732L74.6681 197.726ZM71.253 198.922C70.05 201.805 68.0881 204.307 65.576 206.162C66.067 205.451 66.5451 204.714 67.077 204.015C67.609 203.315 68.2891 202.484 67.3931 201.347L71.253 198.922ZM114.426 146.088C121.698 143.079 128.652 139.278 135.861 136.185C140.178 134.286 144.342 132.057 148.315 129.516C149.9 128.51 151.371 127.295 153.025 126.353C151.284 129.034 148.904 131.239 146.098 132.769C143.491 134.201 140.662 135.567 137.974 136.975C136.422 137.794 134.904 138.644 133.4 139.521C127.009 143.267 120.627 147.06 114.256 150.813C113.85 150.999 113.431 151.155 113.003 151.281C113.279 150.332 113.455 149.726 113.767 148.656C110.183 150.131 109.049 154.028 105.283 155.604C107.845 151.466 109.972 147.923 114.426 146.088ZM96.8131 155.132C97.8221 154.627 98.8691 154.199 99.9441 153.853C99.9441 153.853 99.9861 153.712 100.009 153.631C101.737 152.282 103.71 151.279 105.818 150.679C104.004 154.665 100.895 157.921 96.997 159.917C97.986 158.474 98.9141 157.167 99.8281 155.834C100.299 155.117 100.883 154.39 99.9911 153.692L99.8411 153.757C97.5501 156.661 95.286 159.55 92.934 162.436C92.131 163.494 91.0081 164.265 89.7311 164.635C90.1661 163.22 90.961 161.942 92.038 160.926C92.619 160.285 93.59 159.582 93.57 158.897C93.749 156.628 95.3411 155.974 96.8131 155.132ZM91.1491 167.063C94.6801 165.09 97.924 162.749 101.281 160.55C102.898 159.51 104.192 157.696 106.593 158.702C106.896 158.79 107.679 158.207 107.987 157.75C108.928 156.353 110.208 155.219 111.707 154.452C116.044 151.969 120.381 149.486 124.64 146.893C128.899 144.299 133.07 141.483 137.537 138.929C139.684 137.648 142.037 136.712 144.643 135.434C144.334 136.045 144.367 136.383 144.104 136.46C138.84 139.943 134.945 144.898 130.423 149.145C125.936 153.71 120.91 157.712 115.456 161.062C113.214 162.293 110.748 163.24 108.509 164.385C103.033 167.171 97.637 169.981 92.1 172.75C88.733 174.31 85.2311 175.657 81.7311 177.222C77.2611 179.185 72.8201 181.199 68.1751 182.935C71.5651 180.243 75.1221 177.73 78.3021 174.932C82.1041 171.351 86.7501 169.462 91.0691 167.04L91.1491 167.063ZM61.2561 181.798C63.6161 179.484 66.3301 177.536 68.8971 175.414C73.3501 171.611 78 168.044 82.827 164.728C85.534 162.954 88.229 161.219 90.93 159.465L91.1421 159.789C89.3771 162.167 87.5711 164.532 85.8231 167.002C85.536 167.321 85.179 167.57 84.779 167.728C80.733 169.288 77.7831 172.35 74.4831 174.959C70.7701 178.402 66.8341 181.595 62.6991 184.517C60.3741 186.031 58.313 187.621 56.1291 189.329C52.889 191.766 50.444 195.11 49.105 198.937C48.814 199.596 48.462 200.227 48.053 200.821C45.111 205.812 42.1481 210.798 39.3129 215.799C37.5084 218.973 35.2886 221.891 32.7125 224.478C32.7057 223.978 32.7556 223.478 32.8615 222.989C34.4022 219.276 35.943 215.563 37.5645 211.873C38.1576 210.513 39.0015 209.269 39.7158 207.944C41.3801 204.858 42.985 201.755 44.609 198.657C45.343 197.338 45.7391 195.679 47.7391 195.429C48.2361 195.377 48.7101 194.726 49.1251 194.277C53.1701 190.089 57.065 185.812 61.176 181.774L61.2561 181.798ZM157.797 94.2311C159.475 92.5291 161.214 90.8451 162.932 89.1551C163.861 88.2211 164.915 88.4401 166.216 88.7091C163.28 91.2711 160.415 93.5911 157.514 96.0321L157.059 95.6371C157.245 95.1391 157.493 94.6671 157.797 94.2311ZM138.327 94.3021C140.347 93.5321 142.467 93.0981 144.468 92.5421L145.243 91.9131L149.703 91.2621L149.877 91.1151L149.998 91.1511C153.647 89.8731 157.467 89.1541 161.33 89.0171C160.459 89.9031 159.95 90.5211 159.344 91.0241C156.709 92.7591 154.237 94.7301 151.957 96.9121C151.78 97.1451 151.197 97.0411 150.515 97.1271C151.689 94.4461 154.758 93.7621 155.568 91.1291C151.765 92.6071 149.221 95.8521 145.895 97.9511L145.466 97.5411C146.317 96.6501 147.104 95.8281 147.978 94.8561C148.853 93.8831 149.595 93.2891 150.347 92.4351C151.1 91.5811 150.534 91.4161 150.054 91.0351L149.892 90.9881C148.549 92.2181 147.185 93.4421 145.827 94.6461C144.469 95.8491 143.122 97.1661 141.756 98.3231C141.466 98.5671 141.035 98.6171 140.34 98.3711C141.565 97.1721 142.715 95.9301 143.983 94.8101C144.461 94.5051 144.838 94.0681 145.07 93.5521C145.302 93.0361 145.378 92.4631 145.289 91.9041C145.224 92.1261 144.995 92.3881 144.804 92.4421L144.468 92.5421C142.873 93.8081 141.284 95.0531 139.718 96.3721C138.711 97.1961 137.817 98.1621 136.77 98.9741C136.306 99.1951 135.811 99.3471 135.303 99.4231L135.045 98.9541C135.798 98.1001 136.582 97.2111 137.317 96.4171C137.254 96.2721 137.177 96.1321 137.088 96.0001C136.568 96.0761 136.06 96.2231 135.581 96.4381C134.439 97.2011 133.378 97.9871 132.229 98.9231C131.474 99.4271 130.62 99.7621 129.724 99.9061C128.828 100.049 127.911 99.9981 127.037 99.7551C127.412 99.2951 127.544 98.9171 127.813 98.8201C131.22 97.2711 134.781 95.7231 138.315 94.3431L138.327 94.3021ZM155.926 30.6069C160.451 25.2516 165.766 20.617 171.688 16.8625C174.448 14.9061 177.254 12.7881 179.985 10.9326C183.369 8.78581 186.906 6.94581 190.477 4.98481L190.977 5.52451C189.964 7.17621 188.845 8.76001 187.626 10.2656C181.924 16.5912 176.96 23.5454 172.831 30.9939C172.146 32.2182 171.781 33.6232 171.03 34.8501C169.288 37.6724 167.53 40.4022 165.526 43.1481C162.038 47.8863 159.034 52.9628 156.56 58.3011C155.328 60.6081 153.949 62.8331 152.43 64.9621C152.044 65.5451 151.618 66.1021 151.157 66.6281C149.218 68.9991 147.205 71.3261 145.333 73.6941C143.461 76.0621 141.412 78.5101 139.707 81.0591C137.641 84.2281 135.115 87.0731 132.212 89.5001C130.321 91.0301 128.715 92.8621 126.936 94.5351C126.442 94.9491 125.915 95.3241 125.362 95.6531C125.299 95.0041 125.374 94.3491 125.58 93.7301C125.787 93.1111 126.121 92.5421 126.561 92.0601C130.235 86.2081 134.1 80.4561 137.59 74.4851C140.093 70.1761 141.956 65.5051 144.37 61.1261C145.757 58.6171 147.634 56.3821 149.267 54.0099C150.673 52.1246 151.975 50.1638 153.167 48.1363C155.921 43.2185 159.2 38.6138 162.946 34.4027C165.058 32.0387 167.144 29.6889 169.336 27.5015C171.528 25.314 173.322 23.5146 175.221 21.5048C176.028 20.6884 176.798 19.7736 177.553 18.9858C179.171 17.2664 180.795 15.3737 182.482 13.5651C182.938 12.9838 183.357 12.3742 183.736 11.7398C183.124 11.5986 182.485 11.6394 181.896 11.8572C181.307 12.075 180.795 12.4603 180.422 12.9656C177.228 16.4162 174.033 19.8668 170.838 23.3174C167.228 27.3697 163.804 31.6078 160.173 35.6542C153.737 42.717 149.114 51.0743 143.544 58.6961C142.044 61.0671 140.753 63.5641 139.685 66.1581C138.101 69.2681 136.592 72.4201 134.907 75.5001C132.937 79.1101 130.79 82.6461 128.704 86.2011C128.475 86.5321 128.223 86.8471 127.949 87.1421L127.612 86.8681C128.422 85.0501 129.106 83.1781 129.659 81.2661C130.132 79.1371 130.418 76.9701 130.514 74.7911C130.669 72.6051 131.288 70.4781 132.33 68.5511C137.894 58.3851 143.97 48.5089 150.537 38.9603C152.125 36.1372 153.769 33.1989 155.926 30.6069ZM114.934 101.905C115.146 101.178 116.893 100.745 118.001 100.323C119.304 99.8521 120.633 99.4571 121.982 99.1381C123.035 98.9181 124.1 98.7521 125.17 98.6421C124.517 99.8671 123.614 100.941 122.52 101.796C121.427 102.651 120.166 103.267 118.82 103.605L117.884 102.457C116.222 102.521 115.453 103.808 114.389 104.681C113.324 105.554 112.807 106.805 110.858 106.654C111.334 106.07 111.662 105.771 111.901 105.403C112.765 104.165 114.391 103.696 114.821 101.916L114.934 101.905ZM122.788 60.6271C124.518 56.6401 125.997 52.537 127.591 48.4891C128.783 45.0115 130.723 41.8379 133.276 39.1926C133.32 39.6799 133.317 40.1704 133.266 40.6571C132.563 43.8254 131.805 46.9559 131.102 50.1242C130.769 51.3877 130.54 52.6764 130.418 53.9772C129.877 61.6541 128.588 69.2601 126.568 76.6861C126.419 77.0061 126.32 77.3461 126.274 77.6961C126.512 82.6721 124.457 87.0231 122.773 91.5271C122.314 93.0791 121.55 94.5251 120.528 95.7801C119.949 96.2611 119.309 96.6641 118.624 96.9781L118.303 96.5781C118.544 95.7501 118.9 94.9771 119.256 94.2051C120.681 90.4401 121.426 86.4521 121.458 82.4271C121.622 80.2841 122.392 78.1651 122.694 75.9971C123.39 71.4151 124.408 66.8881 125.74 62.4501C125.781 62.3081 125.655 62.1401 125.498 61.7001C125.187 62.0651 124.899 62.4501 124.637 62.8511C121.928 67.4951 121.698 72.9471 120.258 77.8941C119.518 80.8601 119.069 83.8911 118.917 86.9441C118.94 88.7781 118.416 90.5781 117.412 92.1131C117.481 89.7681 117.637 87.4261 117.554 85.0801C117.531 83.2651 117.323 81.4581 116.933 79.6861C116.217 77.1331 116.421 74.4091 117.509 71.9911C119.139 68.1941 121.119 64.4781 122.788 60.6271ZM109.885 65.1501C111.073 70.7741 112.209 76.4281 113.458 82.0701C114.939 87.2851 114.719 92.8371 112.831 97.9201L109.211 99.6701C109.41 97.1771 109.48 94.6751 109.422 92.1741C109.215 89.0481 108.675 85.9341 108.249 82.8091C107.82 79.2681 107.326 75.7221 106.768 72.1711C106.641 71.3961 106.674 70.6031 106.865 69.8421C107.057 69.0801 107.403 68.3661 107.882 67.7431C108.461 66.8061 108.966 65.8251 109.392 64.8101C109.635 64.8801 109.877 64.9511 109.885 65.1501ZM109.335 59.5141C109.468 60.5611 109.571 61.3351 109.59 61.6471L105.808 67.1171C104.859 64.9581 106.484 64.1161 107.024 62.9381C107.421 61.5661 108.271 60.3701 109.436 59.5441L109.335 59.5141ZM108.818 53.6912C109.037 54.8939 109.3 56.0218 109.49 57.3251C106.391 57.7381 106.839 61.2411 104.395 62.4131C105.355 59.3981 106.607 56.4833 108.133 53.7109L108.818 53.6912ZM98.335 64.7231C97.932 60.5371 98.1641 56.3147 99.0241 52.1983C99.5321 50.0025 99.5491 47.6859 99.8751 45.4372C100.115 43.2608 100.48 41.1002 100.97 38.9661C101.372 37.3691 102.016 35.8429 102.879 34.4403C105.917 29.3067 108.016 23.673 109.079 17.8032C109.402 15.8463 110.29 14.0264 111.633 12.5671L112.108 12.815C111.996 13.6733 111.801 14.5188 111.527 15.3397C109.463 20.324 109.476 25.6942 109.191 30.8896C108.905 36.0849 108.776 41.7202 108.625 47.13C108.583 48.629 108.7 50.1086 108.742 51.5445C106.135 52.9759 105.694 55.6949 103.961 57.8851C103.454 56.9921 103.212 56.3961 103.768 55.4629C104.901 53.6024 105.832 51.6832 106.844 49.7874C106.992 49.3637 107.118 48.9323 107.22 48.4951C106.816 48.3776 106.453 48.2718 106.328 48.4763C103.693 51.4328 101.151 54.3725 101.862 58.8501C102.298 61.9681 103.009 65.0411 103.986 68.0331C104.78 70.6911 105.328 73.4171 105.624 76.1751C106.297 81.3871 106.965 86.6191 107.398 91.8261C107.497 93.5501 107.505 95.2781 107.425 97.0031L106.921 97.2291C106.541 96.8771 105.925 96.5881 105.808 96.1601C105.355 94.4621 104.994 92.7411 104.725 91.0041C104.054 87.6641 102.993 84.4151 101.563 81.3231C100.726 79.1081 100.11 76.8161 99.7221 74.4791C99.0581 71.2851 98.5871 68.0541 98.3111 64.8041L98.335 64.7231ZM80.842 66.2021C79.633 64.7111 80.7931 63.3621 80.7561 61.5341C82.467 63.1051 82.43 63.5321 80.831 66.2431L80.842 66.2021ZM99.247 109.823C99.267 107.738 99.398 105.656 99.639 103.586C99.381 103.642 98.838 103.703 97.971 103.823C96.802 101.292 95.5971 98.5101 94.4661 95.7721C93.1931 92.6201 92.1031 89.3681 90.6661 86.2551C88.4931 82.0361 85.551 78.2611 81.9911 75.1221C76.4 69.5741 70.6551 64.1791 64.8611 58.7251C63.9011 57.8101 62.7951 57.0941 61.7651 56.2688C56.9621 52.1814 52.659 47.5397 48.9471 42.4407C48.7771 42.2222 48.6581 41.9678 48.6011 41.6968C48.5431 41.4258 48.548 41.1452 48.6141 40.8762C50.1451 42.0884 51.7341 43.2518 53.2761 44.4235C59.1181 48.944 65.4251 52.8284 72.0911 56.0109L73.503 56.7281C75.943 58.0521 75.8361 58.0431 75.314 60.7381C75.098 61.8581 74.328 63.2991 76.232 64.5101C76.725 62.8141 77.1601 61.3191 77.5781 59.8861C78.7021 59.7091 79.3411 60.2241 78.9381 61.0051C77.3371 64.1741 79.1231 66.3151 81.1491 68.4601C84.2901 71.8571 87.1041 75.5441 89.5521 79.4701C89.7791 79.7371 89.99 80.0181 90.184 80.3111C93.627 87.2921 97.705 93.9771 100.062 101.453C100.476 102.805 100.807 104.182 101.053 105.574C101.228 106.479 101.613 106.81 102.63 106.252C102.192 101.155 100.639 96.2161 98.0801 91.7861C96.4591 88.7741 94.99 85.6961 93.234 82.7751C91.182 79.4401 88.875 76.2281 86.667 72.9791C86.028 72.0311 85.315 71.1351 84.534 70.2991C83.789 69.6091 83.318 68.6731 83.21 67.6631C83.101 66.6531 83.361 65.6381 83.943 64.8051C85.556 66.2791 87.091 67.8381 88.542 69.4731C90.5 71.9261 92.2841 74.5261 94.0411 77.1411C94.7191 78.1481 95.271 79.2361 95.684 80.3781C96.18 81.6841 97.3151 82.2991 98.1041 83.2731C99.4241 85.0171 100.487 86.9421 101.259 88.9881C102.691 92.6471 103.938 96.3391 105.11 100.14C105.262 101.088 105.283 102.053 105.174 103.006C104.139 103.625 102.88 104.113 103.415 105.736C103.95 107.359 104.571 107.409 105.848 106.86C106.452 106.518 107.023 106.12 107.552 105.67C108.925 104.612 110.437 103.748 112.045 103.101C111.106 103.802 110.298 104.665 109.661 105.649C108.753 107.679 107.188 109.346 105.218 110.378C104.412 110.889 103.846 111.556 105.034 112.515C106.943 111.45 108.869 110.324 110.853 109.303C113.054 108.109 115.313 107.027 117.623 106.061C121.092 104.621 124.636 103.372 128.24 102.317C131.285 101.558 134.376 100.994 137.493 100.63C142.664 99.9451 147.896 99.2781 153.076 98.4861C156.589 97.9311 160.056 97.0791 163.598 96.4231C165.244 96.1141 166.902 95.9831 168.527 95.6681C172.471 94.9101 175.676 96.9171 179.008 98.4121C180.444 99.0491 181.759 100.023 183.44 98.9141L184.93 101.319C185.379 101.208 185.792 101.219 186.024 101.024C186.545 100.479 187.222 100.108 187.963 99.9631C188.703 99.8181 189.47 99.9051 190.159 100.212C190.31 100.29 190.474 100.338 190.643 100.353C197.288 100.097 203.935 101.265 210.601 100.336C214.05 99.8511 217.572 99.7151 221.032 99.3421C222.183 99.1591 223.32 98.8981 224.435 98.5591C224.482 98.3981 224.535 98.2161 224.427 97.9871C224.003 97.8641 223.598 97.3731 223.199 97.3891C217.709 97.7401 212.227 97.4591 206.744 98.6881C205.442 98.8861 204.118 98.8991 202.813 98.7261C199.396 98.4761 195.989 98.2151 192.593 97.9421C192.1 97.9081 191.644 97.6661 190.81 97.5981L194.167 94.5671C194.067 94.3851 193.993 94.1881 193.898 93.9851C193.378 93.9791 192.859 94.0571 192.363 94.2171C190.967 94.9501 189.692 95.8711 188.276 96.5981C187.428 96.9531 186.553 97.2401 185.66 97.4571C186.342 95.1151 189.215 95.4031 189.432 92.9261C188.882 92.8831 188.329 92.9451 187.802 93.1091C186.27 93.9331 184.789 94.8821 183.265 95.7521C182.211 96.3651 181.127 97.0791 179.735 95.6891L183.275 93.0831C182.741 91.9861 182.064 92.2051 181.418 92.5431C180.242 93.1141 179.121 93.7921 178.068 94.5681C177.326 95.1631 176.704 95.4201 175.946 94.9361C172.923 92.9831 169.759 93.6171 166.514 94.3811C165.069 94.6831 163.651 95.0371 162.232 95.3251L162.012 94.8011L168.671 88.1751C170.881 88.1021 173.093 88.1681 175.294 88.3731C180.904 88.9551 186.404 90.3211 191.636 92.4291C194.934 93.8301 198.353 94.9281 201.851 95.7091C202.007 95.7751 202.169 95.8221 202.336 95.8501C208.04 96.0431 213.723 96.3831 219.382 96.4311C223.761 96.4351 227.899 96.2161 232.026 98.1401C234.453 99.2851 237.057 100.043 239.613 101.422C238.927 101.605 238.225 101.723 237.517 101.775C232.356 101.935 227.212 102.458 222.124 103.34C217.568 103.941 212.881 104.242 208.252 104.646C207.728 104.713 207.194 104.667 206.68 104.78C202.273 105.722 197.746 105.964 193.264 105.496C190.029 105.594 186.802 105.876 183.6 106.341C177.839 106.57 172.057 106.792 166.307 106.608C163.707 106.244 161.135 105.701 158.611 104.981C156.527 104.615 154.355 104.553 152.365 104.39L145.346 103.748C139.387 103.404 133.409 103.937 127.604 105.33C123.665 106.151 119.837 107.434 116.198 109.15C114.028 110.031 112.03 111.288 110.298 112.865C109.478 113.619 108.869 114.574 108.528 115.635C108.308 116.561 107.82 117.402 107.124 118.052C101.886 122.87 97.1481 128.206 92.9831 133.976C91.0201 136.426 88.885 138.733 86.594 140.878C85.773 141.788 85.0171 142.753 84.329 143.767C81.673 147.806 78.5941 151.55 75.1421 154.935C75.3991 151.506 76.8811 148.283 79.318 145.856C80.007 145.373 80.6501 144.827 81.2391 144.225C81.7911 143.532 82.1331 142.733 83.3041 143.074C84.1521 143.321 84.7061 142.847 85.0631 141.922C85.5871 140.722 86.215 139.571 86.941 138.482C88.822 135.328 90.7241 132.18 92.5861 129.02C92.7211 128.556 92.758 127.975 93.021 127.526C93.388 126.081 94.193 124.785 95.327 123.817C96.0051 123.146 96.48 122.297 96.697 121.368C96.972 120.129 97.3141 118.905 97.7201 117.702C98.8811 115.26 99.4021 112.562 99.2351 109.864L99.247 109.823ZM62.4011 116.839C61.9371 122.421 61.347 127.987 60.7821 133.54C60.6351 134.044 60.488 134.549 60.549 135.093L59.576 151.302C59.5741 151.562 59.5131 151.818 59.396 152.05C59.279 152.282 59.1101 152.483 58.9021 152.639C58.6331 149.122 58.4111 145.597 58.1281 142.054C57.9611 140.144 57.748 138.242 57.469 136.343C57.066 133.663 56.597 130.985 56.148 128.314C56.055 127.801 56.0821 127.272 56.2281 126.771C56.3741 126.27 56.6341 125.81 56.9891 125.427C57.8701 124.281 58.586 123.022 59.524 121.609C57.504 121.021 57.143 123.391 55.303 123.315C55.308 122.397 54.9611 121.332 55.3341 120.652C57.2901 117.169 59.4091 113.8 61.7361 109.944C62.4251 112.173 62.6511 114.519 62.4011 116.839ZM62.066 102.943L62.717 103.264C61.956 108.211 58.1351 111.48 55.6031 115.89C55.1581 115.428 54.897 114.818 54.87 114.177C54.842 113.536 55.051 112.907 55.456 112.408C57.682 109.275 59.8871 106.113 62.0721 102.923L62.066 102.943ZM51.604 180.193C51.822 179.257 52.091 178.333 52.41 177.427C53.328 174.32 53.8571 171.112 53.9851 167.876C54.3131 164.589 54.308 161.279 53.97 157.993C53.49 154.678 52.8941 151.306 52.2401 148.137C50.826 142.009 49.108 135.946 47.746 129.789C46.211 122.94 45.9391 115.869 46.9431 108.923C47.4711 105.375 47.4461 101.776 47.8621 98.2391C48.2831 93.7841 48.845 89.3701 49.286 84.9211C50.12 78.0101 49.528 71.0031 47.548 64.3301C47.475 63.8671 47.4511 63.3971 47.4741 62.9291C50.1681 65.0581 52.329 67.7871 53.784 70.8981C55.4641 75.1331 56.8431 79.4981 58.2091 83.8381C59.5741 88.1781 60.754 92.3991 61.984 96.6771C62.271 97.5981 62.4721 98.5441 62.5851 99.5021C62.6261 100.015 62.4781 100.525 62.1681 100.936C59.7161 103.792 57.1601 106.553 54.6701 109.464C54.4221 109.079 54.306 108.624 54.34 108.167C54.3741 107.711 54.556 107.278 54.859 106.934C55.97 105.374 57.0181 103.73 58.0201 102.094C58.326 101.353 58.551 100.581 58.69 99.7921C56.265 100.598 56.06 103.035 53.913 103.636L53.2531 96.8741C51.7461 97.4641 51.9791 98.6931 52.0281 99.4301C52.0731 101.984 52.2771 104.518 52.4611 107.046C52.6881 110.179 53.1551 113.316 53.1421 116.444C53.194 121.264 53.718 126.067 54.706 130.785C55.911 137.707 56.2471 144.529 56.8191 151.441C57.0231 154.129 56.6681 156.851 56.6401 159.581C56.5941 161.32 56.6351 163.062 56.562 164.815C56.5391 165.682 56.4211 166.543 56.2091 167.384C55.5341 169.252 54.9781 171.16 54.5461 173.098C54.055 176.567 52.876 179.903 51.077 182.909C51.2751 182.002 51.4121 181.079 51.6101 180.173L51.604 180.193ZM63.3931 165.577C64.3081 163.412 65.3991 161.32 66.3201 159.135C67.7401 155.759 69.0801 152.36 70.4811 148.979C70.7791 148.26 71.128 147.564 71.525 146.895C73.682 142.861 74.94 138.408 75.215 133.842C74.8811 134.118 74.5981 134.451 74.3811 134.826C73.4211 137.372 72.548 139.921 71.648 142.485C71.3781 143.414 71.107 144.342 70.702 145.21C67.969 150.985 65.109 156.899 62.414 162.773C61.701 164.317 61.1241 165.924 60.4861 167.512C60.1461 168.683 59.805 169.854 59.328 170.964L58.6421 170.764C58.7171 170.137 58.917 169.531 59.231 168.983C59.545 168.435 59.966 167.955 60.469 167.573L60.51 167.431C60.407 167.182 60.1631 166.892 60.2361 166.716C62.6161 160.422 65.1111 154.183 67.3901 147.86C68.7511 144.16 69.709 140.343 70.969 136.614C72.1301 133.229 73.473 129.896 74.74 126.52C75.469 124.542 76.174 122.798 76.833 120.909C77.944 117.771 78.9591 114.584 80.0631 111.467C80.3211 110.841 80.7821 110.32 81.3711 109.986C81.3101 112.377 81.2951 114.761 81.1881 117.161C80.9171 122.908 80.646 128.655 80.262 134.413C80.167 138.387 78.914 142.247 76.6571 145.52C74.397 148.542 73.6311 152.152 72.1901 155.521C71.9491 156.349 71.527 157.124 71.124 157.905C69.443 161.271 67.7831 164.642 66.007 167.958C64.896 170.044 63.595 172.031 62.302 174.217C63.747 175.799 62.701 177.137 61.4901 178.361C59.0661 180.744 56.567 183.083 53.801 185.739C54.237 183.051 55.372 180.526 57.093 178.418C58.56 176.561 59.785 174.525 60.7401 172.361C61.7881 170.191 62.461 167.802 63.399 165.556L63.3931 165.577ZM24.6618 147.469C24.7971 148.087 24.8195 148.724 24.7277 149.35C23.6319 152.117 21.9557 154.616 19.8122 156.68C20.3066 153.101 23.0022 150.688 24.0266 147.394L24.6618 147.469ZM23.0999 146.138C21.6879 148.356 20.2414 150.541 18.7949 152.726C18.7185 152.989 18.2416 153.047 17.7924 153.311C17.6996 152.802 17.485 152.411 17.59 152.2C19.1538 149.085 20.726 146.017 22.4469 142.663C23.4839 143.841 23.9033 144.883 23.1174 146.078L23.0999 146.138ZM17.9437 199.744C16.349 193.936 15.5442 187.898 14.3633 181.947C14.2355 180.644 14.0188 179.352 13.7151 178.078C11.7874 172.436 12.0651 166.515 11.4353 160.703C10.7979 155.685 9.69385 150.736 8.13745 145.923C6.96255 141.682 5.62535 137.547 4.45625 133.287C4.10485 131.787 3.89005 130.258 3.81445 128.719C3.57375 125.408 3.55855 122.074 3.20515 118.773C3.17635 115.218 3.80285 111.688 5.05345 108.36C13.0982 118.346 17.0076 129.822 21.9311 140.673L16.3587 149.433C16.5096 147.563 17.1317 145.763 18.1668 144.199C18.8448 142.622 19.5431 141.051 20.2968 139.365C19.303 138.791 18.8447 139.161 18.4044 139.997C17.5837 141.684 16.6097 143.292 15.4948 144.801C15.432 142.975 15.9999 141.184 17.1029 139.727C17.6729 138.973 18.0719 138.279 16.9501 137.318C16.0163 138.645 15.1783 139.868 13.9679 141.618C12.8574 138.36 12.0325 135.777 11.0611 133.019C9.95935 133.268 9.81855 134.278 10.0909 135.299C10.525 136.893 11.176 138.418 11.7026 139.995C12.434 142.223 13.1334 144.486 13.8648 146.714C14.5961 148.942 15.2155 151.027 16.0806 153.097C16.9456 155.167 18.409 157.739 19.3995 160.13C19.8969 161.34 20.1892 162.624 20.2645 163.93C20.6625 168.733 20.9478 173.547 21.239 178.341C21.5868 181.737 21.4158 185.165 20.7321 188.51C20.3316 191.085 20.4058 193.712 20.9509 196.261C21.6129 200.834 22.4616 205.593 23.3196 210.246C23.8468 212.026 24.0472 213.888 23.9107 215.74C21.7315 210.134 19.3935 205.073 17.9614 199.684L17.9437 199.744ZM14.229 277.294C13.79 277.932 13.1419 278.396 12.3966 278.607C11.6513 278.818 10.8557 278.762 10.1474 278.449C9.88825 278.285 9.66825 278.066 9.50275 277.807C9.33725 277.549 9.23035 277.257 9.18945 276.953C9.14855 276.649 9.17475 276.34 9.26605 276.047C9.35745 275.754 9.51175 275.485 9.71825 275.258C10.1582 274.705 10.7881 274.337 11.4852 274.224C12.1822 274.111 12.8964 274.261 13.4882 274.647C14.5881 275.383 14.8662 276.384 14.2467 277.233L14.229 277.294ZM22.996 251.087C21.1997 255.076 19.3168 259.062 17.7771 263.148C16.6616 266.152 15.9845 269.306 15.1653 272.572L11.0034 271.821C11.0845 271.2 11.219 270.587 11.4053 269.988C12.3823 267.535 13.4747 265.137 14.4516 262.684C16.6979 257.073 18.9443 251.463 21.0896 245.823C21.5928 244.546 21.5684 243.05 22.043 241.72C22.9249 239.217 24.0086 236.773 24.9569 234.267C25.2899 233.479 25.4827 232.638 25.5268 231.783C25.5469 230.059 25.3593 228.296 25.3129 226.574C25.0765 224.485 25.2458 222.37 25.8117 220.345C26.168 218.992 26.2805 217.586 26.1442 216.193C26.1098 214.173 25.9656 212.157 25.712 210.153C25.3666 207.578 24.8361 205.036 24.3577 202.466L22.8958 194.922L27.1263 188.816C25.1423 188.107 24.8979 190.226 23.7028 190.645C23.032 188.434 22.9578 188.238 25.1096 185.36C26.2318 183.912 26.8112 181.847 29.088 181.173L28.6873 179.239C25.9216 179.485 26.0504 182.655 23.8386 183.632C23.652 183.21 23.5759 182.748 23.6176 182.288C23.6593 181.829 23.8174 181.388 24.0769 181.007C25.2957 179.303 26.5978 177.689 27.7358 175.961C28.088 175.507 28.3069 174.964 28.3676 174.393C28.3719 173.524 28.3095 172.657 28.1812 171.798C26.7354 173.83 25.2897 175.862 23.8641 177.901L23.2103 177.513C22.3124 173.901 25.5593 172.152 27.1234 169.563C26.98 168.776 26.4146 168.612 25.8201 169.074C24.6774 169.989 23.6264 171.042 22.2013 172.401C21.9665 169.069 21.8631 166.038 21.5611 162.862C23.6813 161.299 25.1731 159.03 25.767 156.464C23.9477 155.19 24.0162 157.663 22.8168 157.796C23.219 155.702 24.1362 153.741 25.4854 152.089C26.9178 153.339 26.7042 155.05 26.8185 156.464C27.0877 160.908 27.714 165.324 28.6914 169.669C28.7412 170.262 28.7218 170.859 28.6335 171.448C29.8153 173.38 30.3908 175.623 30.2857 177.886C30.342 179.886 30.2857 181.888 30.1173 183.882L29.8562 191.1C30.2239 197.361 30.5975 203.603 30.6185 209.851C30.4255 212.209 29.9752 214.538 29.2755 216.798C28.1297 221.194 27.4709 225.703 27.311 230.244C27.3039 231.096 27.7502 231.97 27.6422 232.793C27.2868 235.143 27.9494 237.832 27.047 239.804C25.4028 243.421 24.6436 247.383 23.0136 251.027L22.996 251.087ZM45.941 219.59C42.344 222.091 38.8727 224.76 35.3496 227.458C34.5348 228.075 33.7916 228.823 32.6136 229.86C32.7011 229.282 32.8652 228.718 33.1014 228.184C35.1039 224.785 37.789 221.837 40.9871 219.528C42.8611 218.176 44.6391 216.695 46.3071 215.097C52.3281 210.427 58.648 206.158 65.2281 202.316C65.526 202.137 65.8361 201.979 66.1541 201.841L66.6121 202.149C66.3871 202.655 66.121 203.142 65.816 203.604C64.1021 205.58 62.469 207.58 60.605 209.468C60.0131 210.085 59.3481 210.627 58.6241 211.082C54.3811 213.921 50.1271 216.647 45.9591 219.529L45.941 219.59ZM59.107 215.143C57.266 215.823 55.3791 216.372 53.4601 216.785L53.231 216.214C53.97 215.86 54.659 215.447 55.4061 215.139C56.1531 214.831 56.7161 214.929 57.1281 214.567C63.1061 209.079 70.5971 205.916 77.5411 202.001C80.8901 200.128 84.482 198.699 87.792 196.881C91.103 195.063 94.3101 193.149 97.5521 191.268C98.9781 190.434 100.443 189.612 101.806 188.695C102.414 188.182 102.969 187.61 103.463 186.987C103.938 186.332 104.519 185.761 105.182 185.297C107.505 183.966 109.598 182.267 111.377 180.266C113.1 178.937 114.915 177.731 116.808 176.657C118.27 175.691 119.648 174.605 120.929 173.41C121.532 172.63 121.877 171.681 121.916 170.696C126.273 167.117 130.624 163.557 134.968 160.018L135.316 160.404C133.353 162.483 131.39 164.562 129.412 166.614L116.291 180.317C113.201 183.417 109.778 186.167 106.085 188.516C99.439 192.912 92.834 197.319 86.096 201.578C77.433 206.706 68.4201 211.219 59.1241 215.082L59.107 215.143ZM162.686 205.43C162.931 205.064 163.208 204.719 163.511 204.4C165.492 202.786 167.569 201.069 169.531 199.296C170.81 198.136 171.929 196.775 173.131 195.504L175.521 193.089C176.007 192.681 176.47 192.245 176.908 191.785C183.405 184.061 190.674 176.999 196.449 168.671C197.817 166.964 199.291 165.345 200.861 163.822C204.056 160.372 206.941 157.006 210.034 153.679C211.213 152.421 212.567 151.34 214.056 150.47L214.714 151.143C214.342 151.67 214.03 152.214 213.629 152.689C211.052 155.575 208.47 158.474 205.885 161.386C204.288 163.111 202.522 164.963 200.944 166.847C198.971 169.186 197.191 171.69 195.221 173.942C192.598 177.012 189.891 179.991 187.169 182.944C183.516 186.918 179.629 190.715 176.133 194.823C172.77 198.734 168.876 202.157 164.566 204.991C164.295 205.181 163.988 205.312 163.664 205.376C163.34 205.44 163.006 205.436 162.683 205.363L162.686 205.43ZM29.2416 189.826L29.9143 191.051C29.705 191.319 29.4755 191.58 28.8652 192.323C28.8797 191.144 28.8626 190.526 28.8715 189.893L29.2416 189.826Z" fill="#101A24"/>
</g>
</svg>
