<svg width="448" height="192" viewBox="0 0 448 192" fill="none" xmlns="http://www.w3.org/2000/svg">
<g opacity="0.2">
<path d="M78.8026 0.970335C77.7285 1.77396 78.2379 2.90672 78.7903 3.73209C79.9722 5.79304 81.4473 7.73936 83.1867 9.53301C88.3414 14.4204 93.0707 19.5816 97.3426 24.9808C98.6283 26.5721 100.213 28.0146 101.526 29.5923C105.384 34.1996 109.177 38.8689 112.981 43.5032C114.747 45.0775 115.806 47.0736 115.991 49.1783C114.484 47.7873 113.234 46.555 111.897 45.3809C109.891 43.6197 107.896 41.8233 105.734 40.2002C102.926 38.0685 99.9242 36.1236 97.0404 34.0149C91.8835 30.2626 86.8132 26.4521 81.6731 22.7215C79.0189 20.785 76.1533 19.0136 73.4666 17.1083C70.7799 15.2029 67.8145 12.8937 64.91 10.8554C64.5545 10.5239 64.0961 10.2724 63.5804 10.1256C63.0646 9.9789 62.5096 9.94223 61.9704 10.0191C61.4312 10.096 60.9269 10.284 60.5074 10.5642C60.088 10.8444 59.7682 11.207 59.5798 11.616C58.5713 12.7883 57.9772 14.1544 57.8592 15.5717C57.7413 16.989 58.1041 18.4054 58.9096 19.6731C60.2016 21.425 61.6851 23.0828 63.3429 24.6276C68.3366 29.4999 74.8633 33.1152 80.6312 37.3326C85.8036 41.1418 91.4831 44.4909 97.569 47.3202C98.659 47.9116 99.7019 48.5563 100.691 49.2504L100.294 49.7336C96.0416 48.3185 91.7172 47.1499 87.552 45.4356C82.0794 43.1648 76.868 40.4785 71.5183 38.0263C67.859 36.3373 64.1494 34.7131 60.3899 33.1541C59.2548 32.6726 58.0016 32.3935 56.7174 32.336C55.4331 32.2785 54.1484 32.4441 52.9526 32.8212C50.92 33.3924 50.4452 34.3807 51.361 35.9595C51.5913 36.4227 51.9255 36.8488 52.3471 37.2173C54.0143 38.5388 55.7123 39.8352 57.441 41.1063C61.5373 43.9145 66.1431 46.2149 71.1028 47.9298C76.4327 49.9701 81.9449 51.7845 87.4916 53.4012C94.4373 55.4985 101.472 57.3711 108.476 59.3492C115.958 61.4525 123.581 63.5449 129.849 67.4092C132.48 68.9425 135.355 70.1903 138.4 71.1198C140.147 71.8322 141.817 72.6553 143.397 73.5812C142.255 73.5755 141.128 73.3678 140.099 72.9727C133.224 70.6291 125.869 69.699 118.641 68.3287C113.054 67.268 107.571 65.8908 102.231 64.2077C97.2975 62.6485 92.253 61.31 87.1625 59.8887L73.1288 56.0204C71.7905 55.6066 70.3545 55.4312 68.9219 55.5068C67.4892 55.5823 66.0949 55.9068 64.8372 56.4574C62.5109 57.4753 61.8382 58.7425 63.2971 60.4586C64.1636 61.6068 65.4375 62.5259 66.9587 63.1003C70.9405 64.4839 74.8369 66.0002 78.8854 67.155C82.3113 68.1058 85.7987 68.91 89.3326 69.5642C92.1659 70.0868 94.9997 70.6094 97.8569 70.9695C101.085 71.4165 104.332 71.7187 107.523 72.2145C113.796 73.2106 120.032 74.2493 126.232 75.3312C128.956 75.6481 131.609 76.269 134.115 77.1749C132.637 77.425 131.117 77.4706 129.62 77.3101C122.303 76.4058 114.906 75.8575 107.631 74.6461C100.356 73.4338 92.4433 72.735 84.8194 71.9225C81.7644 71.6002 78.6546 71.546 75.6213 71.4689C74.4777 71.4445 73.3448 71.6493 72.3269 72.0645C71.3091 72.4798 70.4389 73.0924 69.7967 73.8452C69.4334 74.1556 69.1717 74.532 69.0347 74.9418C68.8978 75.3516 68.8897 75.7818 69.0115 76.1948C69.133 76.6079 69.3806 76.9908 69.7321 77.3093C70.0837 77.6287 70.5285 77.8731 71.0274 78.023C72.6042 78.6503 74.2544 79.1538 75.9544 79.5253C80.6027 80.3832 85.2819 81.1343 90.0007 81.6712C96.2116 82.3711 102.45 82.8917 108.71 83.2664C112.645 83.5288 116.618 83.5011 120.556 83.5964C123.742 83.6281 126.909 83.488 130.101 83.5019C136.271 83.62 142.477 83.6143 148.599 84.0567C152.171 84.1781 155.674 84.8812 158.891 86.1219C159.386 86.2645 159.82 86.5187 160.136 86.8535C160.453 87.1892 160.639 87.5909 160.673 88.0088C160.806 88.7062 161.138 89.3702 161.645 89.9494C162.151 90.5287 162.818 91.0069 163.594 91.3491C164.398 91.7939 165.173 92.2526 166.015 92.6485C168.584 94.014 171.25 95.2613 173.999 96.3847C181.409 99.0496 188.827 101.53 196.378 104.111C196.378 104.111 196.427 104.343 196.459 104.552C192.998 103.746 189.592 102.796 186.256 101.706C180.014 99.334 173.389 97.6622 166.571 96.74C163.424 96.4434 160.256 96.2984 157.087 96.3073C156.475 96.2764 155.869 96.4108 155.365 96.6878C154.859 96.9656 154.488 97.3697 154.308 97.8357C154.051 98.1893 153.757 98.5266 153.431 98.8427L140.258 91.9422C137.341 90.281 134.131 88.9701 130.733 88.052C128.207 87.4377 126.334 87.7791 125.437 89.3384C124.294 91.3352 123.197 92.8579 125.64 94.7187C129.228 97.496 133.217 99.9254 137.525 101.956C142.09 104.059 146.607 106.247 151.156 108.403C152.755 109.162 154.321 109.951 155.967 110.626C159.571 112.131 163.203 113.593 166.864 115.01C168.96 115.824 171.111 116.443 173.212 117.239C175.329 117.767 177.336 118.544 179.165 119.542C173.935 118.769 168.806 117.618 163.84 116.104C161.179 115.149 158.471 114.278 155.81 113.324C154.854 112.999 153.963 112.538 153.023 112.161C150.671 111.189 148.265 110.319 145.966 109.245C142.47 107.636 139.117 105.774 135.556 104.227C132.452 102.875 129.255 101.841 125.976 100.605L107.861 93.851C105.88 93.2612 103.992 92.4888 102.234 91.5519C101.021 90.7315 99.6189 90.1075 98.1048 89.714C95.9227 89.1999 93.8114 88.9221 91.7048 88.3852C87.7378 87.4312 84.0556 88.6997 80.262 89.1502C80.0093 89.2023 79.7742 89.2985 79.5736 89.4313C79.0205 89.7319 78.5775 90.1441 78.2896 90.6256C78.0018 91.1071 77.8794 91.6399 77.9348 92.1711C77.9506 92.6689 78.1828 93.1463 78.592 93.5227C79.0011 93.8991 79.5617 94.1516 80.1784 94.2364C81.6393 94.5052 83.1002 94.7749 84.5747 95.1578C88.4484 95.8723 92.3853 96.4507 96.2178 97.3054C103.966 99.5417 111.53 102.164 118.864 105.156C124.363 107.097 129.733 109.237 135.164 111.334C136.402 111.804 137.621 112.344 138.846 112.866C137.702 112.934 136.553 112.842 135.45 112.592C134.609 112.38 133.728 112.286 132.847 112.316C129.778 112.568 126.676 112.306 123.741 111.546C119.599 110.751 115.551 109.675 111.64 108.331C107.382 106.933 103.365 105.191 99.1979 103.643C95.9145 102.425 92.6462 101.155 89.2839 100.127C85.1794 98.8052 80.9442 97.7575 76.6218 96.9933C70.3267 95.9432 64.1943 94.2559 57.7846 93.5186C51.3749 92.7821 45.7294 91.1845 39.4618 91.1601C37.7093 91.1707 35.976 90.7951 34.2151 90.6745C31.9291 90.4423 29.6275 90.3217 27.323 90.312C26.1236 90.378 25.0058 90.8187 24.2145 91.5389C23.4231 92.2583 23.0226 93.1984 23.1007 94.1525C23.1399 95.4258 23.6321 96.6642 24.5202 97.7249C25.4082 98.7849 26.6559 99.6232 28.1185 100.142C34.3188 102.228 40.8577 103.609 47.5424 104.244C53.7323 105.015 59.9736 105.61 66.1943 106.274L82.9883 108.037C83.918 108.208 84.8699 108.384 85.8303 108.45C85.7955 108.604 85.7509 108.756 85.6968 108.907C83.7424 109.062 81.7776 109.121 79.8139 109.083C73.3902 108.714 66.9939 109.372 60.5297 108.661C54.7892 108.029 48.9948 108.222 43.0888 107.838C37.1828 107.453 32.0346 107.19 26.5052 106.634C20.2661 106.133 13.998 105.893 7.72721 105.916C6.76188 105.938 5.80363 106.054 4.87395 106.262C3.64576 106.629 2.55484 107.237 1.70323 108.031C0.851717 108.824 0.2674 109.777 0.00518609 110.799C-0.0711036 112.961 0.915129 115.062 2.7544 116.655C4.59377 118.247 7.14134 119.208 9.85639 119.332C15.0545 119.344 20.2647 119.155 25.4325 118.791C34.5027 118.163 43.5288 117.287 52.5804 116.563C56.9768 116.206 61.3747 115.922 65.7726 115.639C66.4721 115.609 67.173 115.609 67.8726 115.637L67.9332 116.149L60.008 117.729C54.5838 118.732 49.1291 119.6 43.7745 120.764C39.2546 121.785 34.8435 122.994 30.4731 124.303C24.9299 125.752 19.8355 128.119 15.5252 131.247C14.801 131.743 14.2457 132.376 13.9105 133.087C13.5753 133.798 13.4711 134.566 13.6077 135.318C13.7441 136.07 14.1169 136.782 14.6913 137.389C15.2658 137.996 16.0236 138.478 16.8944 138.791C20.1332 139.984 23.7384 140.404 27.2718 140C30.5135 139.61 33.6455 138.774 36.5284 137.533C41.0034 135.705 45.735 134.278 50.2693 132.647C58.5866 129.562 66.9364 126.446 75.1296 123.227C81.5393 120.827 88.3155 119.101 95.2866 118.096C96.1338 117.984 96.9881 117.912 97.8446 117.881L85.9554 124.018C84.3363 124.85 82.6831 125.64 81.0249 126.447L64.1489 134.725L49.2346 141.954C48.5001 142.273 47.8949 142.751 47.4896 143.334C47.0843 143.916 46.8959 144.578 46.9462 145.242C47.0446 146.744 48.4914 147.382 50.0493 147.799C53.8521 148.788 57.9298 148.896 61.8073 148.113C66.2935 147.312 70.5648 145.882 74.4216 143.891C77.7922 142.217 81.0363 140.388 84.1371 138.411C87.0385 136.461 89.7277 134.118 92.7177 132.184C96.8324 129.511 101.212 127.054 105.379 124.52C105.892 124.297 106.435 124.124 107 124.003C106.91 124.491 106.597 124.935 106.122 125.251C100.599 128.879 95.8162 133.166 91.9433 137.959C87.9391 142.824 83.4741 147.44 78.5869 151.764C77.2866 153.081 75.7822 154.262 74.1097 155.279C73.4674 155.806 73.0118 156.458 72.7887 157.169C72.7027 157.313 72.6536 157.469 72.6446 157.628C72.6355 157.787 72.6666 157.946 72.7362 158.096C72.8056 158.245 72.9121 158.382 73.0492 158.498C73.1862 158.614 73.3512 158.707 73.5342 158.772C74.8585 159.544 76.3972 160.051 78.02 160.25C79.6428 160.45 81.3021 160.335 82.8575 159.917C85.2717 159.21 87.4966 158.147 89.4155 156.785C92.5947 154.682 96.1297 152.718 97.1346 149.194C97.1756 149.053 97.361 148.975 97.4461 148.843C99.2265 146.499 100.849 144.054 102.808 141.817C107.522 136.285 113.176 131.297 119.609 126.997C122.48 125.152 125.931 123.952 129 122.31C132.459 120.535 136.592 119.781 140.678 120.179C145.85 120.521 150.981 121.245 156.12 121.859C159.977 122.31 163.787 122.92 167.638 123.315C172.052 123.777 176.496 124.059 180.918 124.41C180.18 124.654 179.398 124.798 178.601 124.837C171.831 125.332 165.056 125.77 158.316 126.326C155.86 126.539 153.424 126.877 151.023 127.337C148.563 127.774 146.285 128.467 143.882 128.951C140.814 129.611 137.953 130.772 135.482 132.36C133.011 133.948 130.983 135.93 129.528 138.176C129.044 138.928 128.706 139.736 128.526 140.569C128.258 141.469 128.379 142.416 128.872 143.255C129.363 144.093 130.198 144.774 131.239 145.188C133.244 145.91 134.725 145.07 136.24 144.033C137.346 143.234 138.607 142.583 139.975 142.106C144.124 140.757 148.336 139.512 152.548 138.266C157.171 136.893 161.849 135.567 166.471 134.193C169.281 133.358 172.022 132.36 174.872 131.625C176.681 130.989 178.659 130.717 180.631 130.832L177.24 132.061C174.631 133.008 172.028 133.938 169.408 134.92C165.504 136.389 161.78 138.207 157.758 139.357C153.737 140.507 150.091 141.653 146.231 143.13C141.774 144.913 138.136 147.766 135.829 151.284C135.192 152.219 135.008 153.307 135.31 154.343C135.566 155.198 136.05 156.001 136.729 156.695C137.407 157.39 138.265 157.961 139.244 158.37C141.576 159.653 142.177 159.672 144.447 158.365C146.298 157.297 148.02 156.111 149.864 154.986C153.618 152.673 157.601 150.532 161.219 148.047C164.906 145.338 168.805 142.816 172.891 140.497C177.172 138.058 181.809 136.042 186.701 134.492C191.816 132.95 197.121 131.796 202.405 130.636C205.035 130.137 207.697 129.742 210.377 129.454C211.162 129.36 211.955 129.314 212.749 129.317C216.37 129.462 219.955 129.943 223.435 130.75C228.349 131.656 233.335 132.316 238.27 133.151C243.204 133.987 247.544 134.862 252.171 135.715C253.963 136.046 255.738 136.522 257.5 136.958C259.789 137.701 262.16 138.274 264.581 138.673C270.199 139.245 275.051 141.642 280.485 142.608C280.485 142.608 280.485 142.608 280.578 142.847C280.353 142.907 280.121 142.951 279.887 142.979C276.437 143.048 272.998 143.082 269.561 143.19C268.052 143.246 266.582 143.568 265.094 143.553C261.907 143.522 258.736 143.197 255.569 143.262C248.849 143.254 242.141 143.699 235.517 144.591C231.628 145.209 227.705 145.784 223.755 146.131C221.299 146.372 218.922 146.979 216.749 147.919C214.711 148.748 212.69 149.599 210.697 150.513C209.68 150.936 208.741 151.468 207.904 152.093C207.312 152.529 206.876 153.083 206.643 153.697C206.408 154.312 206.384 154.965 206.573 155.589C206.761 156.213 207.156 156.786 207.715 157.249C208.275 157.711 208.978 158.048 209.755 158.222C211.953 158.724 214.222 159.005 216.509 159.06C220.128 158.978 223.699 158.38 227.053 157.295C231.856 156.103 236.606 154.772 241.236 153.214C245.231 151.842 249.43 150.883 253.731 150.361C259.549 149.613 265.436 149.253 271.329 149.285C273.005 149.297 274.674 149.252 276.355 149.247C274.592 149.938 272.738 150.474 270.829 150.843C266.397 151.881 261.967 152.752 257.588 153.855C253.652 154.873 249.722 155.948 245.909 157.267C242.095 158.585 238.702 160.222 235 161.562C231.723 162.805 228.661 164.378 225.89 166.244C225.398 166.539 224.953 166.88 224.567 167.261C224.025 167.825 223.717 168.509 223.685 169.217C223.654 169.926 223.901 170.625 224.393 171.217C225.304 172.573 226.696 172.44 228.051 172.189C231.158 171.613 234.261 171.053 237.291 170.184C241.62 169.015 245.844 167.568 250.083 166.31C253.063 165.449 256.135 164.754 259.144 163.955C262.153 163.156 265.284 162.176 268.409 161.379C273.858 159.973 279.405 158.788 284.801 157.242C292.549 154.879 300.707 153.474 308.991 153.077C312.347 153.015 315.682 153.51 318.784 154.532C323.978 156.157 329.236 157.646 334.478 159.188C334.987 159.282 335.422 159.548 335.883 159.726C334.263 159.85 332.633 159.878 331.007 159.809C322.902 160.169 314.757 159.54 306.747 161.012C303.492 161.617 300.08 161.637 296.833 162.374C287.918 164.371 279.188 166.857 270.707 169.817C269.621 170.282 268.727 170.987 268.132 171.846C267.865 172.159 267.688 172.515 267.616 172.889C267.544 173.263 267.579 173.645 267.717 174.007C267.856 174.369 268.094 174.702 268.416 174.981C268.738 175.259 269.133 175.478 269.575 175.619C271.361 176.42 273.437 176.718 275.463 176.463C280.555 175.641 285.723 175.035 290.798 174.19C298.427 172.907 305.995 171.428 313.575 170.155C314.121 170.101 314.672 170.085 315.221 170.106C311.377 172.254 307.453 174.109 303.496 175.92C301.313 176.927 298.938 177.713 296.84 178.829C295.374 179.7 294.035 180.697 292.847 181.803C290.392 183.732 288.563 186.106 287.517 188.722C286.821 190.708 287.584 191.851 290.094 191.961C292.604 192.072 295.472 191.915 298.173 191.856C298.416 191.901 298.67 191.67 298.917 191.623C302.399 190.775 305.639 189.394 308.453 187.556C314.445 184.21 320.153 180.551 326.02 177.069C328.036 175.808 330.163 174.662 332.385 173.643C336.427 171.939 340.595 170.445 344.848 168.818C344.884 168.694 344.795 168.363 344.779 167.933C350.015 166.618 355.274 165.621 360.77 167.173C359.732 167.48 358.674 167.743 357.601 167.961C352.849 169.459 348.148 171.022 343.463 172.607C342.231 173.012 341.07 173.548 340.014 174.196C339.543 174.432 339.154 174.759 338.884 175.146C338.613 175.533 338.469 175.968 338.466 176.411C338.462 176.854 338.598 177.29 338.862 177.681C339.127 178.07 339.51 178.401 339.977 178.642C340.651 179.092 341.412 179.452 342.233 179.707C343.456 180.111 344.72 180.431 346.012 180.664C347.189 180.927 348.414 181.027 349.634 180.961C353.421 180.563 357.099 179.675 360.525 178.331C366.116 176.067 371.995 174.278 378.059 172.995C378.755 172.921 379.4 172.669 379.901 172.278C380.87 171.195 381.951 171.487 383.188 171.808C386.63 172.721 390.088 173.582 393.54 174.46C395.825 175.011 397.939 175.938 399.744 177.181C393.932 177.277 388.527 177.653 383.136 178.143C377.745 178.633 371.894 179.019 366.379 179.615C362.795 180.111 359.378 181.185 356.337 182.772C355.511 183.063 354.833 183.569 354.415 184.206C353.996 184.843 353.861 185.574 354.031 186.28C354.197 187.048 354.607 187.77 355.221 188.377C355.836 188.984 356.636 189.455 357.545 189.747C360.306 190.692 363.361 190.952 366.309 190.492C371.559 189.605 376.783 188.491 382.036 187.512C385.813 186.799 389.478 185.99 393.386 185.468C400.922 184.696 408.509 184.293 416.108 184.261C417.654 184.112 419.219 184.126 420.761 184.303C424.722 185.034 428.685 185.765 432.545 186.848C435.869 187.793 439.125 188.883 442.299 190.112C444.415 190.855 445.818 190.761 447.064 188.171C448.639 185.011 446.813 182.393 445.445 179.804L442.348 179.788C441.053 179.608 439.725 179.642 438.447 179.885C437.26 180.33 435.907 180.404 434.654 180.094C430.649 179.189 426.665 178.213 422.65 177.343C416.852 176.107 410.95 175.073 405.197 173.679C401.164 172.712 397.277 171.327 393.337 170.118C392.806 170.021 392.385 169.702 391.49 169.332L397.322 168.052C399.961 167.481 402.586 166.797 405.251 166.38C409.651 165.689 414.048 164.608 418.597 165.725C419.095 165.866 419.634 165.883 420.145 165.775C420.655 165.668 421.112 165.439 421.456 165.12C423.116 163.756 424.089 161.956 424.192 160.06C424.493 157.908 423.725 157.099 420.98 156.833C418.71 156.619 416.585 156.709 414.403 156.51C409.37 156.339 404.37 155.776 399.474 154.833C399.059 154.714 398.613 154.676 398.176 154.724C396.583 154.928 394.951 154.792 393.446 154.328C391.941 153.865 390.619 153.091 389.615 152.088C384.524 147.559 380.362 142.423 377.283 136.865C375.327 133.814 373.244 130.796 371.025 127.845C368.808 124.894 366.373 122.201 364.179 119.329C361.97 116.338 359.012 113.74 355.488 111.697C354.576 111.148 353.518 110.773 352.395 110.601C351.272 110.429 350.115 110.466 349.012 110.707C347.261 111.033 346.826 111.565 347.138 112.977C347.704 115.276 348.986 117.425 350.866 119.23C353.339 121.707 355.468 124.401 357.969 126.865C361.434 130.342 365.589 133.372 368.281 137.337C369.044 138.48 369.982 139.506 370.717 140.662L370.245 141.002C369.577 140.726 368.946 140.399 368.361 140.023C366.987 139.034 365.681 137.988 364.445 136.89C361.926 134.571 359.537 132.126 357.055 129.757C354.574 127.389 352.15 125.143 349.742 122.844C345.45 118.843 341.196 114.793 336.911 110.85C336.041 110.059 334.952 109.439 333.731 109.039C333.272 108.856 332.759 108.78 332.249 108.82C331.739 108.859 331.253 109.011 330.847 109.259C330.441 109.508 330.132 109.842 329.954 110.224C329.776 110.606 329.737 111.02 329.84 111.419C329.99 112.604 330.341 113.767 330.885 114.877C333.412 119.677 336.824 124.151 341.008 128.152C345.638 133.046 351.104 137.401 357.25 141.091C360.905 143.193 364.48 145.411 368.066 147.594C368.702 147.971 369.263 148.445 369.992 148.988C366.741 148.777 363.916 148.627 361.121 148.372C360.258 148.353 359.421 148.127 358.72 147.725C354.431 144.596 350.239 141.374 345.954 138.229C343.059 136.08 340.197 133.976 337.088 131.918C336.033 131.273 334.84 130.782 333.568 130.471C333.112 130.337 332.624 130.285 332.14 130.318C331.655 130.351 331.186 130.468 330.764 130.661C330.343 130.854 329.98 131.119 329.702 131.436C329.423 131.753 329.236 132.114 329.153 132.496C328.873 133.294 328.856 134.136 329.102 134.942C329.349 135.748 329.852 136.489 330.563 137.096C332.962 138.949 335.274 140.859 337.608 142.774C338.401 143.497 339.146 144.254 339.84 145.04C337.729 144.938 335.684 144.42 333.888 143.534C329.695 141.285 324.673 140.222 319.63 140.515C318.128 139.106 316.568 137.576 314.97 136.094C311.942 133.538 309.282 130.72 307.04 127.694C305.815 125.817 304.321 124.057 302.938 122.243C300.957 119.596 298.72 117.032 297.034 114.254C295.572 111.851 293.378 109.776 290.653 108.217C290.159 107.858 289.541 107.625 288.879 107.546C288.217 107.467 287.54 107.545 286.935 107.772C285.609 108.395 284.565 109.335 283.953 110.459C283.34 111.581 283.19 112.83 283.524 114.025C284.461 115.84 285.59 117.587 286.9 119.249C288.6 121.417 290.368 123.357 292.285 125.417C291.426 125.105 290.668 124.642 290.068 124.063C285.782 119.561 281.493 115.153 277.192 110.706C273.916 107.3 270.631 103.931 267.229 100.558C266.375 99.7641 265.306 99.136 264.102 98.7189C263.706 98.5527 263.261 98.472 262.812 98.485C262.365 98.4981 261.928 98.6048 261.547 98.793C261.167 98.982 260.855 99.2468 260.644 99.5613C260.432 99.8757 260.326 100.229 260.339 100.585C260.267 101.148 260.338 101.717 260.551 102.257C261.168 104.018 261.918 105.748 262.796 107.438C266.148 113.199 270.582 118.519 275.945 123.219C281.605 128.289 288.121 132.738 294.313 137.422C296.218 138.887 298.349 140.3 300.358 141.728C298.163 141.167 296.027 140.469 293.969 139.64C292.514 139.113 290.93 138.783 289.545 138.176C284.292 135.871 279.097 133.447 273.844 131.143C270.707 130.079 267.984 128.367 265.96 126.182C265.384 125.576 264.735 125.016 264.023 124.508C262.689 123.497 261.447 122.412 260.305 121.262C259.533 120.256 258.865 119.203 258.307 118.111C257.408 116.91 256.594 115.67 255.869 114.397C253.636 109.811 251.554 105.197 249.354 100.581C249.176 100.269 248.976 99.9662 248.756 99.6729C247.22 96.9412 245.393 94.2478 244.169 91.4069C242.767 87.7008 240.552 84.2204 237.626 81.1286C236.158 79.7632 235.053 78.1126 233.672 76.6893C232.73 75.6807 231.619 74.7715 230.59 73.8208C229.7 73.0704 228.55 72.5455 227.286 72.3123C226.022 72.0793 224.699 72.1481 223.484 72.5102C222.402 72.7003 221.784 73.1429 222.152 74.1198C222.286 74.5939 222.23 75.0893 221.995 75.5373C221.425 76.7504 221.478 78.0922 222.141 79.2744C222.546 80.1282 222.95 80.982 223.453 81.8171C225.545 85.8376 228.213 89.6537 231.403 93.1887C236.713 98.2708 241.194 103.865 244.741 109.84C244.577 109.921 244.392 109.998 244.223 110.097C241.989 107.681 239.672 105.307 237.498 102.846C234.865 99.8749 232.406 96.7872 229.778 93.7981C227.665 91.3678 225.487 89.0003 223.264 86.6238C219.219 81.8562 214.696 77.3558 209.74 73.1657C208.16 71.947 206.624 70.7362 204.934 69.5712C204.172 69.084 203.237 68.7971 202.261 68.7499C201.285 68.7027 200.314 68.8976 199.483 69.3078C198.744 69.8218 198.199 70.4883 197.908 71.2334C197.616 71.9785 197.591 72.7732 197.831 73.5299C198.501 75.3475 199.44 77.0959 200.628 78.7383C204.049 82.7548 208.057 86.4332 212.571 89.6969C217.615 93.5952 222.769 97.4398 227.815 101.413C231.61 104.395 235.248 107.44 238.761 110.592C243.651 114.721 248.872 118.597 254.388 122.193C255.053 122.704 255.673 123.253 256.242 123.834C255.799 123.741 255.367 123.618 254.95 123.465C249.002 119.864 242.242 117.69 235.752 114.99C231.842 113.36 227.92 111.691 224.187 109.852C219.245 107.137 214.901 103.791 211.33 99.9491C208.474 97.1041 205.515 94.295 202.724 91.3874C199.853 88.6174 197.376 85.6038 195.338 82.4004C193.495 79.2035 191.345 76.0987 189.49 72.9368C189.107 72.2665 188.528 71.6783 187.801 71.2215C187.074 70.7647 186.22 70.4527 185.311 70.3113C184.81 70.1751 184.266 70.1822 183.771 70.3314C183.275 70.4806 182.861 70.7625 182.6 71.1284C181.605 72.1336 180.972 73.3344 180.766 74.6029C180.56 75.8714 180.791 77.1602 181.432 78.3334C182.948 81.1881 184.65 83.9785 186.529 86.6931C187.813 88.2532 189.216 89.7506 190.726 91.1772C191.832 92.4204 192.907 93.6946 194.004 94.9729C194.224 95.267 194.424 95.57 194.602 95.8813C193.778 95.7802 192.997 95.522 192.326 95.1268C188.03 92.6648 183.85 90.039 179.431 87.7587C175.684 85.8058 172.14 83.4831 167.544 82.7654C166.779 82.6065 166.068 82.3173 165.458 81.9165C163.79 80.9877 162.446 79.7371 161.55 78.2837C159.566 75.3158 158.137 72.1335 157.307 68.8377C156.946 67.1944 156.953 65.4891 156.768 63.804C156.354 61.5074 156.544 59.1672 157.326 56.9319C157.499 56.3861 157.608 55.8283 157.649 55.2663C158.127 52.4236 158.545 49.5512 159.118 46.7073C160.049 42.0745 161.798 37.5182 161.988 32.7859C162.01 32.0193 161.912 31.2536 161.698 30.506C161.385 29.3355 160.974 28.1839 160.537 27.0457C160.172 25.9662 159.699 24.9114 159.124 23.8913C158.961 23.6 158.715 23.3428 158.406 23.1398C158.098 22.9369 157.733 22.7938 157.343 22.7218C156.952 22.6497 156.546 22.6508 156.156 22.7248C155.766 22.7988 155.403 22.9438 155.095 23.1483C153.085 23.9861 151.386 25.2287 150.168 26.7521C148.951 28.2755 148.256 30.0264 148.156 31.8298C148.018 33.6596 148.036 35.5179 147.788 37.3273C146.826 44.4622 146.831 51.6588 147.803 58.7929C148.031 60.4116 148.396 62.0373 148.718 63.6548C148.001 63.2297 147.403 62.6898 146.964 62.0699C143.471 57.1247 140.664 51.8922 138.592 46.4646C137.432 43.31 135.993 40.2242 134.288 37.2302C131.906 33.6374 129.382 30.0554 127.27 26.4196C126.035 24.7151 124.305 23.2703 122.224 22.2054C122.005 22.0494 121.742 21.9371 121.457 21.8777C121.171 21.8182 120.873 21.8133 120.585 21.8634C120.297 21.9135 120.029 22.0173 119.801 22.1659C119.573 22.3147 119.394 22.5042 119.276 22.719C117.34 25.7567 115.505 28.8501 117.301 32.3719C117.788 33.3519 118.388 34.2946 119.091 35.188C121.741 38.4221 124.559 41.5574 127.071 44.859C128.634 47.0983 130.024 49.4114 131.233 51.7854C135.079 57.961 139.886 63.7275 145.541 68.9493C146.73 70.1518 147.875 71.3461 149.146 72.5825C146.79 71.9442 144.573 71.0158 142.578 69.8313C138.38 67.2494 134.815 64.0767 132.059 60.4709C130.414 58.3906 128.993 56.2046 127.806 53.9359C126.908 52.1378 125.27 50.5557 124.141 48.8265C122.381 46.1458 120.849 43.3962 119.111 40.7197C116.677 36.9874 114.298 33.228 111.607 29.5781C108.539 25.302 105.219 21.1654 101.928 17.0151C100.114 14.6771 97.9163 12.4539 96.0733 10.0548C93.8841 7.16003 91.0718 4.59421 87.7642 2.47484C86.2899 1.57533 84.686 0.818719 82.9866 0.220891C82.2764 -0.00942503 81.4947 -0.0611584 80.7466 0.07286C79.9984 0.206878 79.3199 0.520131 78.8026 0.970335ZM376.566 161.961C373.562 159.7 370.505 157.467 367.507 155.189C367.172 154.818 366.913 154.407 366.742 153.972C367.979 154.052 368.905 154.074 369.833 154.171C370.878 154.317 371.913 154.508 372.932 154.743L396.297 159.887C395.906 160.036 395.497 160.153 395.076 160.236C389.857 161.017 384.652 161.746 379.467 162.57C378.959 162.68 378.423 162.682 377.913 162.575C377.404 162.468 376.938 162.256 376.566 161.961Z" fill="white"/>
<path d="M108.322 78.1126C109.188 78.1053 110.057 78.0059 110.719 78.7766C109.744 79.6361 108.499 79.351 107.456 79.3257C103.132 79.4023 98.8094 79.0845 94.5765 78.3782C93.3564 78.2022 92.1074 78.2047 90.8889 78.3847C88.6942 78.5411 86.4819 78.3603 84.3734 77.8503C83.2887 77.6507 81.9607 77.4054 81.9591 76.0514C83.8627 76.4025 85.5893 76.7203 87.338 77.0429C88.3746 77.1961 89.4335 77.2287 90.4819 77.1407C94.4116 76.8637 98.1692 77.8169 102 78.0409C104.118 78.1346 106.228 78.0971 108.322 78.1126ZM38.9016 112.037C33.3578 112.091 27.8108 111.995 22.2551 112.009C19.1689 112.034 16.0962 112.172 13.0203 112.161C11.4721 112.191 9.91721 112.164 8.36222 112.136C8.00808 113.351 8.86778 113.603 9.86066 113.637C11.2674 113.692 12.6689 113.766 14.0793 113.729C17.6935 113.653 21.2839 113.499 24.8981 113.424C29.9941 113.307 35.0968 113.246 40.2098 113.15C41.8738 113.124 43.5635 113.008 45.2224 112.999C48.9046 113.01 52.5987 113.061 56.2912 113.037C57.0103 112.956 57.7106 112.791 58.3697 112.548L58.3039 112.054C56.342 111.83 54.3667 111.689 52.3861 111.63C47.9015 111.73 43.3981 111.976 38.9016 112.037ZM82.9863 0.220892C84.6879 0.801204 86.2968 1.54014 87.7795 2.42197C91.0876 4.5582 93.8952 7.14211 96.0732 10.0548C97.9161 12.4539 100.114 14.677 101.989 17.045C105.281 21.1952 108.595 25.3495 111.663 29.6255C114.332 33.2714 116.733 37.0348 119.167 40.7671C120.905 43.4436 122.436 46.1932 124.197 48.8739C125.326 50.6032 126.964 52.1852 127.862 53.9834C129.049 56.2521 130.471 58.438 132.115 60.5183C134.872 64.1241 138.437 67.2968 142.634 69.8787C144.589 71.0157 146.752 71.9087 149.046 72.5269C147.885 71.3108 146.74 70.1166 145.441 68.8937C139.826 63.6847 135.052 57.9372 131.233 51.7853C129.939 49.4091 128.463 47.0986 126.812 44.8669C124.299 41.5653 121.481 38.43 118.832 35.1959C118.129 34.3025 117.529 33.3598 117.041 32.3798C115.245 28.8579 117.081 25.7645 119.016 22.7269C119.134 22.512 119.315 22.3225 119.542 22.1738C119.769 22.0251 120.038 21.9214 120.326 21.8713C120.614 21.8212 120.913 21.826 121.197 21.8855C121.482 21.945 121.746 22.0573 121.965 22.2133C124.042 23.2562 125.779 24.6764 127.032 26.357C129.232 30.0092 131.668 33.5749 134.049 37.1677C135.755 40.1616 137.193 43.2474 138.354 46.4021C140.442 51.8558 143.275 57.1118 146.799 62.0765C147.238 62.6964 147.835 63.2362 148.553 63.6614C148.231 62.0439 147.866 60.4182 147.638 58.7995C146.666 51.6474 146.666 44.433 147.638 37.2811C147.886 35.4717 147.869 33.6134 148.005 31.7836C148.106 29.9801 148.8 28.2293 150.018 26.7059C151.236 25.1825 152.934 23.9399 154.945 23.1021C155.253 22.8975 155.616 22.7526 156.006 22.6785C156.396 22.6046 156.802 22.6035 157.193 22.6755C157.583 22.7475 157.947 22.8907 158.256 23.0936C158.566 23.2966 158.812 23.5539 158.975 23.8451C159.549 24.8652 160.021 25.92 160.387 26.9996C160.825 28.1377 161.235 29.2894 161.547 30.4598C161.762 31.2074 161.859 31.9731 161.839 32.7397C161.648 37.472 159.9 42.0283 158.968 46.6611C158.396 49.5049 157.978 52.3774 157.498 55.22C157.458 55.7821 157.35 56.3399 157.177 56.8857C156.38 59.1658 156.2 61.554 156.649 63.8933C156.833 65.5784 156.826 67.2837 157.187 68.9269C158.017 72.2227 159.446 75.4045 161.43 78.3725C162.326 79.8267 163.672 81.0765 165.339 82.0061C165.948 82.4069 166.66 82.6961 167.424 82.8542C172.02 83.5719 175.564 85.8955 179.311 87.8475C183.731 90.1286 187.91 92.7544 192.207 95.2164C192.877 95.6108 193.659 95.8698 194.483 95.97C194.304 95.6588 194.104 95.3558 193.885 95.0625C192.788 93.7842 191.713 92.51 190.606 91.2668C189.096 89.8402 187.695 88.3428 186.409 86.7827C184.53 84.0673 182.829 81.2769 181.312 78.4222C180.671 77.2498 180.442 75.9602 180.647 74.6917C180.852 73.4232 181.486 72.2229 182.481 71.2176C182.742 70.8517 183.156 70.5699 183.651 70.4207C184.146 70.2715 184.691 70.2644 185.192 70.4006C186.1 70.5419 186.955 70.854 187.681 71.3107C188.409 71.7675 188.987 72.3557 189.37 73.0264C191.214 76.2233 193.365 79.3281 195.219 82.49C197.256 85.6926 199.733 88.707 202.605 91.4762C205.426 94.2787 208.474 97.1041 211.33 99.9491C214.908 103.794 219.259 107.141 224.209 109.856C227.931 111.73 231.864 113.364 235.773 114.994C242.264 117.694 249.091 119.881 254.972 123.469C255.388 123.622 255.82 123.745 256.264 123.838C255.695 123.257 255.076 122.709 254.41 122.197C248.893 118.601 243.674 114.725 238.782 110.596C235.269 107.444 231.588 104.391 227.837 101.417C222.857 97.4561 217.703 93.6115 212.592 89.7009C208.072 86.4372 204.055 82.7572 200.628 78.7383C199.44 77.0959 198.501 75.3475 197.831 73.5299C197.591 72.7732 197.616 71.9785 197.908 71.2334C198.199 70.4882 198.744 69.8218 199.483 69.3077C200.314 68.8976 201.285 68.7027 202.261 68.7499C203.237 68.7971 204.172 69.084 204.934 69.5712C206.645 70.6658 208.139 72.0174 209.74 73.1657C214.696 77.3558 219.218 81.8562 223.264 86.6238C225.487 89.0003 227.665 91.3678 229.778 93.7981C232.406 96.7872 234.865 99.8749 237.497 102.846C239.672 105.307 241.989 107.681 244.223 110.097C244.392 109.998 244.577 109.921 244.741 109.84C241.194 103.865 236.713 98.2708 231.403 93.1887C228.138 89.6952 225.39 85.9142 223.213 81.9205C222.71 81.0863 222.305 80.2325 221.901 79.3787C221.238 78.1965 221.185 76.8547 221.755 75.6416C221.99 75.1935 222.045 74.6982 221.912 74.2232C221.553 73.2114 222.172 72.7691 223.243 72.6143C224.458 72.2521 225.781 72.1833 227.045 72.4165C228.309 72.6495 229.459 73.1747 230.349 73.925C231.378 74.875 232.489 75.785 233.431 76.7936C234.802 78.2519 235.907 79.9025 237.385 81.2329C240.313 84.3247 242.527 87.8043 243.928 91.5112C245.278 94.3195 246.995 96.9925 248.515 99.7771C248.736 100.07 248.936 100.374 249.113 100.685C251.29 105.298 253.418 109.919 255.628 114.501C256.354 115.774 257.169 117.014 258.067 118.215C258.625 119.307 259.292 120.361 260.064 121.367C261.206 122.516 262.449 123.601 263.782 124.612C264.52 125.109 265.194 125.663 265.796 126.264C267.82 128.447 270.543 130.161 273.68 131.224C278.934 133.529 284.128 135.952 289.381 138.256C290.766 138.864 292.35 139.193 293.805 139.722C295.863 140.55 297.998 141.248 300.195 141.809C298.273 140.397 296.121 138.98 294.149 137.504C287.958 132.818 281.44 128.37 275.782 123.301C270.418 118.601 265.984 113.279 262.633 107.519C261.754 105.83 261.004 104.099 260.388 102.338C260.175 101.798 260.103 101.229 260.175 100.666C260.163 100.31 260.268 99.9564 260.48 99.6419C260.692 99.3274 261.003 99.0627 261.384 98.8745C261.764 98.6854 262.201 98.5795 262.649 98.5665C263.097 98.5535 263.542 98.6341 263.939 98.8003C265.142 99.2174 266.211 99.8456 267.065 100.638C270.477 103.976 273.737 107.434 277.028 110.786C281.313 115.287 285.577 119.784 289.904 124.143C290.504 124.723 291.263 125.187 292.121 125.498C290.381 123.47 288.403 121.455 286.736 119.329C285.426 117.668 284.297 115.921 283.361 114.106C283.026 112.911 283.177 111.663 283.79 110.539C284.402 109.416 285.445 108.476 286.771 107.853C287.376 107.627 288.053 107.548 288.715 107.627C289.377 107.707 289.995 107.94 290.489 108.298C293.215 109.857 295.408 111.932 296.871 114.335C298.556 117.113 300.794 119.678 302.774 122.325C304.158 124.138 305.651 125.897 306.876 127.774C309.119 130.801 311.778 133.618 314.806 136.175C316.403 137.657 317.964 139.188 319.465 140.596C324.51 140.303 329.531 141.367 333.724 143.615C335.52 144.501 337.565 145.019 339.676 145.121C338.982 144.335 338.237 143.579 337.444 142.854C335.111 140.94 332.798 139.029 330.399 137.178C329.66 136.564 329.137 135.807 328.882 134.981C328.627 134.156 328.65 133.292 328.948 132.476C329.032 132.095 329.219 131.733 329.498 131.416C329.775 131.099 330.139 130.835 330.56 130.642C330.981 130.449 331.45 130.332 331.935 130.299C332.419 130.267 332.907 130.319 333.364 130.452C334.636 130.764 335.829 131.253 336.884 131.899C339.904 133.94 342.854 136.062 345.75 138.209C350.035 141.355 354.227 144.577 358.516 147.705C359.216 148.108 360.053 148.334 360.916 148.352C363.711 148.608 366.536 148.758 369.788 148.968C369.015 148.418 368.454 147.943 367.861 147.574C364.275 145.391 360.7 143.174 357.045 141.071C350.899 137.382 345.433 133.027 340.804 128.133C336.62 124.132 333.207 119.657 330.68 114.857C330.136 113.748 329.785 112.585 329.636 111.4C329.532 111.001 329.57 110.587 329.749 110.205C329.927 109.822 330.236 109.488 330.643 109.24C331.049 108.991 331.534 108.839 332.045 108.8C332.555 108.761 333.068 108.837 333.526 109.019C334.748 109.42 335.836 110.04 336.707 110.83C341.08 114.79 345.333 118.84 349.537 122.824C351.99 125.131 354.464 127.444 356.851 129.739C359.237 132.034 361.727 134.533 364.241 136.87C365.476 137.97 366.783 139.016 368.156 140.005C368.741 140.38 369.373 140.708 370.04 140.982L370.512 140.643C369.689 139.545 368.812 138.475 368.076 137.319C365.384 133.353 361.229 130.324 357.765 126.846C355.287 124.386 353.156 121.693 350.661 119.21C348.781 117.406 347.499 115.256 346.933 112.957C346.621 111.546 347.057 111.014 348.807 110.688C349.911 110.446 351.068 110.411 352.191 110.583C353.314 110.754 354.372 111.129 355.284 111.678C358.765 113.73 361.683 116.326 363.858 119.307C366.075 122.183 368.56 124.942 370.706 127.823C372.851 130.705 375.212 133.885 377.283 136.865C380.406 142.388 384.602 147.488 389.717 151.976C390.721 152.98 392.044 153.754 393.548 154.217C395.053 154.681 396.685 154.817 398.278 154.613C398.716 154.565 399.161 154.602 399.576 154.722C404.472 155.666 409.472 156.228 414.505 156.4C416.775 156.615 418.901 156.524 421.082 156.722C423.828 156.988 424.595 157.797 424.294 159.949C424.191 161.845 423.218 163.646 421.559 165.009C421.214 165.328 420.757 165.556 420.246 165.664C419.736 165.772 419.197 165.755 418.699 165.614C414.15 164.496 409.753 165.577 405.353 166.269C402.688 166.686 400.063 167.37 397.424 167.942L391.592 169.221C392.487 169.591 392.929 169.839 393.439 170.008C397.379 171.217 401.267 172.601 405.3 173.568C411.051 174.963 416.955 175.996 422.752 177.232C426.767 178.103 430.751 179.079 434.755 179.984C435.403 180.182 436.093 180.275 436.786 180.26C437.479 180.244 438.162 180.121 438.794 179.894C440.072 179.65 441.4 179.617 442.695 179.797L445.793 179.812C447.16 182.402 448.942 185.012 447.411 188.18C446.191 190.682 444.741 190.859 442.647 190.121C439.473 188.891 436.216 187.801 432.892 186.856C429.016 185.826 425.069 185.042 421.108 184.311C419.566 184.134 418.001 184.12 416.455 184.27C408.755 184.291 401.066 184.694 393.43 185.476C389.611 186.015 385.857 186.807 382.081 187.52C376.852 188.411 371.613 189.578 366.353 190.5C363.374 190.969 360.285 190.704 357.501 189.739C356.592 189.447 355.792 188.976 355.177 188.369C354.563 187.762 354.153 187.04 353.987 186.272C353.817 185.565 353.952 184.834 354.37 184.198C354.789 183.561 355.466 183.055 356.293 182.764C359.333 181.177 362.751 180.103 366.333 179.607C371.938 179.027 377.574 178.657 383.091 178.134C388.609 177.613 393.909 177.273 399.7 177.172C397.895 175.93 395.781 175.003 393.496 174.452C390.043 173.574 386.585 172.713 383.142 171.8C381.881 171.567 380.826 171.187 379.857 172.27C379.356 172.661 378.71 172.913 378.015 172.987C371.965 174.274 366.102 176.066 360.525 178.331C357.106 179.661 353.44 180.538 349.667 180.93C348.447 180.996 347.221 180.896 346.044 180.633C344.753 180.4 343.488 180.08 342.264 179.676C341.445 179.422 340.683 179.061 340.009 178.611C339.542 178.37 339.159 178.039 338.895 177.649C338.631 177.259 338.494 176.823 338.497 176.38C338.501 175.937 338.645 175.502 338.915 175.115C339.187 174.728 339.575 174.401 340.046 174.165C341.117 173.51 342.294 172.972 343.545 172.566C348.23 170.981 352.931 169.419 357.682 167.92C358.756 167.702 359.814 167.439 360.852 167.132C355.345 165.616 350.087 166.612 344.861 167.893C344.876 168.322 344.922 168.646 344.93 168.777C340.676 170.404 336.509 171.899 332.467 173.602C330.245 174.621 328.118 175.767 326.102 177.029C320.235 180.51 314.526 184.169 308.535 187.516C305.721 189.354 302.48 190.734 298.998 191.582C298.751 191.629 298.513 191.807 298.254 191.816C295.554 191.874 292.847 192.043 290.176 191.921C287.505 191.799 286.931 190.729 287.516 188.722C288.559 186.093 290.392 183.706 292.857 181.768C294.045 180.662 295.384 179.664 296.85 178.794C298.948 177.678 301.323 176.892 303.506 175.885C307.463 174.073 311.387 172.219 315.231 170.071C314.682 170.05 314.131 170.066 313.585 170.119C305.985 171.464 298.432 172.89 290.808 174.155C285.712 175.07 280.565 175.605 275.473 176.428C273.447 176.683 271.371 176.385 269.585 175.583C269.149 175.442 268.759 175.226 268.44 174.95C268.123 174.673 267.886 174.345 267.747 173.988C267.609 173.631 267.571 173.253 267.637 172.883C267.704 172.512 267.873 172.158 268.132 171.846C268.727 170.987 269.621 170.282 270.706 169.817C279.188 166.857 287.918 164.371 296.833 162.374C300.06 161.707 303.491 161.617 306.747 161.012C314.757 159.54 322.922 160.099 331.007 159.809C332.633 159.878 334.262 159.85 335.883 159.726C335.422 159.548 334.971 159.335 334.478 159.188C329.236 157.646 323.978 156.157 318.784 154.532C315.682 153.51 312.347 153.015 308.991 153.077C300.707 153.474 292.548 154.879 284.801 157.242C279.405 158.788 273.858 159.972 268.409 161.379C265.284 162.176 262.234 163.115 259.144 163.955C256.053 164.795 253.063 165.449 250.083 166.31C245.755 167.552 241.531 168.999 237.29 170.184C234.277 171 231.174 171.56 228.051 172.189C226.696 172.44 225.304 172.573 224.393 171.217C223.901 170.625 223.654 169.926 223.685 169.217C223.717 168.509 224.025 167.825 224.567 167.261C224.953 166.88 225.398 166.539 225.89 166.244C228.661 164.378 231.723 162.805 235 161.562C238.702 160.222 242.182 158.527 245.909 157.267C249.636 156.006 253.607 154.865 257.587 153.855C261.952 152.805 266.427 151.775 270.828 150.843C272.738 150.474 274.592 149.938 276.355 149.247C274.674 149.252 273.005 149.297 271.329 149.285C265.436 149.253 259.549 149.613 253.731 150.361C249.43 150.883 245.23 151.842 241.236 153.214C236.606 154.772 231.856 156.103 227.053 157.295C223.699 158.38 220.128 158.978 216.509 159.06C214.222 159.005 211.953 158.724 209.755 158.222C208.978 158.048 208.274 157.711 207.715 157.249C207.156 156.786 206.761 156.213 206.573 155.589C206.384 154.965 206.408 154.312 206.642 153.697C206.876 153.083 207.311 152.529 207.904 152.093C208.74 151.468 209.68 150.936 210.697 150.513C212.69 149.599 214.71 148.748 216.749 147.919C218.922 146.979 221.299 146.372 223.755 146.131C227.695 145.819 231.617 145.244 235.517 144.591C242.114 143.728 248.791 143.308 255.476 143.338C258.644 143.272 261.814 143.597 265.001 143.628C266.49 143.643 267.96 143.321 269.469 143.265C272.906 143.158 276.345 143.124 279.794 143.055C280.029 143.026 280.26 142.982 280.486 142.923C280.522 142.8 280.437 142.692 280.393 142.683C274.969 141.683 270.106 139.32 264.488 138.748C262.067 138.35 259.697 137.776 257.407 137.034C255.645 136.598 253.866 136.14 252.078 135.791C247.452 134.938 242.804 134.081 238.178 133.227C233.551 132.374 228.267 131.696 223.343 130.825C219.863 130.019 216.277 129.538 212.657 129.392C211.863 129.39 211.07 129.436 210.284 129.53C207.584 129.806 204.903 130.191 202.251 130.682C197.055 131.783 191.816 132.95 186.701 134.492C181.744 135.982 177.034 137.948 172.678 140.347C168.592 142.665 164.694 145.187 161.006 147.896C157.455 150.395 153.471 152.535 149.652 154.835C147.807 155.961 146.086 157.146 144.235 158.214C141.964 159.521 141.352 159.538 139.032 158.219C138.052 157.81 137.194 157.239 136.516 156.544C135.838 155.85 135.354 155.047 135.097 154.192C134.795 153.156 134.98 152.069 135.616 151.133C137.922 147.616 141.561 144.763 146.018 142.979C149.785 141.578 153.601 140.334 157.545 139.206C161.489 138.079 165.403 136.259 169.195 134.77C171.815 133.788 174.419 132.858 177.027 131.911L180.418 130.681C178.446 130.566 176.469 130.838 174.659 131.474C171.809 132.21 169.068 133.207 166.259 134.043C161.636 135.416 156.957 136.742 152.335 138.115C148.123 139.361 143.911 140.606 139.762 141.955C138.395 142.432 137.134 143.083 136.028 143.883C134.557 144.928 133.142 145.78 131.026 145.037C129.985 144.624 129.151 143.942 128.658 143.104C128.167 142.265 128.045 141.32 128.314 140.419C128.492 139.585 128.831 138.778 129.315 138.025C130.77 135.779 132.798 133.798 135.269 132.21C137.741 130.621 140.601 129.46 143.668 128.8C146.138 128.328 148.417 127.635 150.811 127.186C153.212 126.727 155.647 126.389 158.103 126.176C164.859 125.567 171.619 125.181 178.388 124.686C179.185 124.648 179.968 124.503 180.705 124.26C176.282 123.908 171.839 123.626 167.425 123.165C163.575 122.77 159.764 122.159 155.907 121.708C150.768 121.094 145.637 120.37 140.465 120.029C136.379 119.63 132.246 120.384 128.787 122.16C125.719 123.802 122.244 124.997 119.396 126.846C112.94 131.14 107.264 136.123 102.528 141.655C100.57 143.891 98.8361 146.316 97.1673 148.68C97.1263 148.821 96.8958 148.89 96.8548 149.031C95.8283 152.551 92.3155 154.519 89.1362 156.622C87.2173 157.985 84.9924 159.047 82.5782 159.754C81.0228 160.172 79.3635 160.287 77.7407 160.088C76.1179 159.888 74.5793 159.382 73.255 158.609C73.0719 158.545 72.9069 158.451 72.7699 158.335C72.6328 158.219 72.5264 158.082 72.4569 157.933C72.3874 157.783 72.3563 157.624 72.3653 157.465C72.3743 157.306 72.4234 157.15 72.5096 157.006C72.7447 156.335 73.1882 155.721 73.7995 155.222C75.4722 154.205 76.9765 153.024 78.2768 151.707C83.164 147.382 87.6291 142.767 91.6332 137.902C95.5056 133.109 100.289 128.822 105.812 125.194C106.288 124.878 106.6 124.434 106.689 123.946C106.125 124.067 105.581 124.24 105.069 124.463C100.835 126.985 96.611 129.471 92.4076 132.127C89.5061 134.078 86.817 136.42 83.8271 138.354C80.7261 140.331 77.4821 142.16 74.1116 143.834C70.2547 145.825 65.9835 147.254 61.4973 148.056C57.6197 148.839 53.5419 148.731 49.7391 147.742C48.1916 147.29 46.7346 146.687 46.6361 145.185C46.5858 144.521 46.7743 143.859 47.1795 143.277C47.5848 142.694 48.19 142.216 48.9246 141.897L63.7945 134.659L80.6705 126.382C82.3288 125.575 83.9819 124.785 85.6011 123.953L97.4674 117.737C96.61 117.768 95.7556 117.84 94.9084 117.952C87.9374 118.958 81.1612 120.682 74.7515 123.082C66.5429 126.355 58.2085 129.418 49.8913 132.503C45.3363 134.205 40.6048 135.632 36.1503 137.389C33.2746 138.63 30.1502 139.466 26.9158 139.86C23.3825 140.265 19.7773 139.844 16.5384 138.651C15.6676 138.338 14.9099 137.856 14.3354 137.249C13.7609 136.642 13.3882 135.93 13.2516 135.178C13.1152 134.426 13.2194 133.659 13.5546 132.947C13.8897 132.236 14.4451 131.603 15.1693 131.107C19.4796 127.98 24.5739 125.613 30.1171 124.163C34.8721 123.055 39.309 121.759 43.7521 120.76C49.1068 119.596 54.5615 118.728 59.9856 117.725L67.9722 116.175L67.9116 115.662C67.212 115.634 66.5111 115.635 65.8116 115.665C61.4137 115.948 57.0157 116.232 52.6194 116.589C43.5678 117.313 34.5416 118.189 25.4715 118.817C20.3036 119.181 15.0934 119.37 9.89539 119.357C7.16763 119.241 4.60521 118.281 2.75672 116.681C0.908234 115.082 -0.0795158 112.97 0.00501034 110.799C0.258589 109.78 0.831811 108.829 1.67134 108.034C2.51096 107.238 3.58969 106.625 4.80733 106.25C5.73701 106.042 6.69526 105.926 7.66059 105.904C13.9438 105.894 20.2231 106.148 26.4726 106.665C31.9814 107.292 37.5163 107.589 43.0562 107.869C48.5962 108.149 54.6681 108.044 60.4971 108.692C66.9613 109.403 73.3576 108.746 79.7814 109.114C81.7828 109.138 83.7841 109.061 85.7733 108.884C85.8274 108.733 85.872 108.581 85.9068 108.426C84.9771 108.255 84.0253 108.079 83.0648 108.014L66.2707 106.252C60.0501 105.587 53.8088 104.992 47.6189 104.221C40.9342 103.586 34.3953 102.205 28.195 100.119C26.7324 99.6004 25.4847 98.762 24.5966 97.7013C23.7086 96.6414 23.2164 95.403 23.1772 94.1296C23.1062 93.1895 23.4998 92.264 24.2742 91.5503C25.0485 90.8374 26.1424 90.3934 27.3228 90.312C29.6273 90.3217 31.9289 90.4423 34.215 90.6745C35.9759 90.7951 37.7091 91.1706 39.4617 91.1601C45.7293 91.1845 51.6419 92.9051 57.7844 93.5186C63.9268 94.1321 70.3573 95.8381 76.6216 96.9933C80.944 97.7575 85.1791 98.8052 89.2836 100.127C92.6459 101.155 95.9144 102.425 99.1977 103.643C103.409 105.199 107.384 107.008 111.639 108.331C115.551 109.675 119.599 110.751 123.741 111.546C126.676 112.306 129.778 112.568 132.847 112.316C133.728 112.286 134.609 112.38 135.449 112.592C136.553 112.842 137.702 112.934 138.845 112.866C137.621 112.344 136.402 111.804 135.164 111.334C129.733 109.237 124.363 107.097 118.864 105.156C111.502 102.214 103.916 99.6444 96.149 97.4601C92.3373 96.5346 88.3798 96.0271 84.5061 95.3126C83.0451 95.0429 81.6099 94.6853 80.1098 94.3903C79.4932 94.3056 78.9326 94.0539 78.5234 93.6775C78.1143 93.3011 77.882 92.8229 77.8662 92.3259C77.8108 91.7947 77.9333 91.2611 78.2211 90.7796C78.5089 90.2989 78.9519 89.8867 79.505 89.5852C79.7057 89.4524 79.9407 89.3563 80.1934 89.3042C83.987 88.8536 87.6914 87.5892 91.6363 88.5392C93.8194 89.0532 95.9308 89.3319 98.037 89.8687C99.5501 90.2622 100.953 90.8863 102.165 91.7059C103.923 92.6436 105.811 93.4151 107.794 94.005L126.057 100.806C129.253 102.007 132.538 103.059 135.638 104.427C139.199 105.975 142.551 107.836 146.047 109.445C148.347 110.519 150.752 111.389 153.104 112.361C154.044 112.738 154.936 113.2 155.891 113.524C158.551 114.478 161.26 115.349 163.92 116.304C168.887 117.819 174.017 118.97 179.246 119.743C177.416 118.744 175.411 117.968 173.293 117.439C171.193 116.643 169.041 116.024 166.946 115.211C163.284 113.793 159.652 112.332 156.048 110.826C154.401 110.152 152.836 109.362 151.238 108.604C146.688 106.447 142.171 104.26 137.606 102.157C133.299 100.126 129.309 97.6964 125.721 94.9191C123.278 93.0583 124.375 91.5356 125.517 89.5388C126.416 87.9795 128.288 87.6381 130.815 88.2524C134.174 89.1551 137.35 90.4407 140.245 92.0693L153.418 98.9698C153.744 98.6537 154.037 98.3172 154.294 97.9628C154.474 97.4968 154.846 97.0927 155.35 96.8157C155.854 96.5379 156.461 96.4043 157.072 96.4344C160.242 96.4263 163.409 96.5705 166.556 96.867C173.376 97.7893 180.001 99.461 186.242 101.833C189.578 102.923 192.984 103.873 196.445 104.68C196.502 104.486 196.425 104.268 196.364 104.238C188.9 101.675 181.506 99.1971 173.985 96.5118C171.236 95.3884 168.57 94.141 166 92.7756C165.16 92.3797 164.383 91.921 163.58 91.4762C162.767 91.1193 162.074 90.6118 161.559 89.9975C161.044 89.3824 160.723 88.6785 160.622 87.9436C160.588 87.5257 160.402 87.124 160.085 86.7884C159.768 86.4535 159.335 86.1993 158.839 86.0568C155.623 84.816 152.12 84.1129 148.549 83.9923C142.404 83.545 136.192 83.5678 130.05 83.4367C126.868 83.3878 123.701 83.5271 120.505 83.5312C116.552 83.4888 112.579 83.5165 108.658 83.2012C102.415 82.7735 96.1756 82.2537 89.9495 81.606C85.2308 81.0692 80.5669 80.2651 75.9031 79.4601C74.2033 79.0886 72.5531 78.5851 70.9763 77.9578C70.4959 77.8006 70.0702 77.5537 69.7348 77.2376C69.3993 76.9223 69.1639 76.5476 69.0483 76.1443C68.9327 75.741 68.9404 75.3223 69.0706 74.9222C69.2007 74.5222 69.4497 74.1523 69.7965 73.8452C70.4414 73.1315 71.2948 72.5534 72.283 72.1605C73.2712 71.7676 74.3648 71.5715 75.4695 71.5893C78.569 71.6787 81.679 71.7328 84.6675 72.0429C92.2914 72.8553 99.9568 73.5275 107.479 74.7658C115.002 76.005 122.151 76.5264 129.469 77.4307C130.965 77.5912 132.486 77.5448 133.963 77.2946C131.457 76.3895 128.804 75.7687 126.08 75.4518C119.882 74.308 113.646 73.2692 107.372 72.3348C104.181 71.8391 100.933 71.5369 97.7051 71.0898C94.8623 70.677 91.9986 70.26 89.1807 69.6846C85.6467 69.0304 82.1593 68.2261 78.7335 67.2755C74.7003 66.0678 70.804 64.5515 66.8067 63.2206C65.2855 62.6462 64.0117 61.7273 63.1452 60.5789C61.6862 58.8629 62.359 57.5957 64.6852 56.5779C65.9625 56.0151 67.3814 55.6861 68.8388 55.6147C70.2962 55.5433 71.7552 55.7315 73.1096 56.1653L87.1434 60.0337C92.1453 61.4385 97.1898 62.777 102.212 64.3526C107.567 65.9951 113.062 67.3311 118.657 68.3504C125.896 69.6853 133.242 70.6507 140.116 72.9947C141.145 73.389 142.271 73.5967 143.414 73.6024C141.834 72.6769 140.163 71.8538 138.417 71.1415C135.372 70.212 132.496 68.9641 129.865 67.4309C123.487 63.5462 115.974 61.4741 108.493 59.3709C101.489 57.3927 94.4546 55.5201 87.5084 53.4228C81.9772 51.7534 76.4494 49.9918 71.1197 47.9514C66.1599 46.2366 61.554 43.9362 57.4578 41.1279C55.7257 39.8686 54.0277 38.5722 52.3639 37.2389C51.9423 36.8705 51.6082 36.4443 51.3778 35.9811C50.462 34.4023 50.9368 33.414 52.9695 32.8428C54.1609 32.4645 55.4415 32.2963 56.7226 32.3501C58.0037 32.4038 59.2549 32.6781 60.3897 33.154C64.1242 34.7457 67.836 36.3887 71.525 38.0832C76.8746 40.5353 82.086 43.2216 87.5585 45.4925C91.6131 47.1864 96.0486 48.3754 100.301 49.7904L100.699 49.3072C99.7089 48.6131 98.666 47.9685 97.576 47.3771C91.4897 44.5476 85.8101 41.1987 80.6377 37.3894C74.8699 33.1721 68.3875 29.5649 63.3495 24.6844C61.6916 23.1397 60.2081 21.4818 58.9161 19.73C58.1107 18.4623 57.748 17.0459 57.8658 15.6285C57.9837 14.2113 58.5779 12.8452 59.5863 11.6729C59.7747 11.2638 60.0945 10.9012 60.514 10.621C60.9334 10.3409 61.4379 10.1529 61.9769 10.076C62.5161 9.9991 63.0711 10.0358 63.5869 10.1825C64.1026 10.3292 64.5611 10.5808 64.9165 10.9122C67.821 12.9505 70.5738 15.1092 73.4731 17.1651C76.3725 19.221 79.0255 20.8419 81.6798 22.7783C86.842 26.513 91.9121 30.3235 97.0474 34.0717C99.9087 36.1763 102.866 38.1131 105.74 40.2569C107.902 41.8802 109.898 43.6766 111.904 45.4377C113.241 46.6119 114.511 47.7738 115.997 49.2352C115.812 47.1305 114.754 45.1343 112.988 43.5601C109.184 38.9258 105.39 34.2564 101.532 29.6492C100.22 28.0715 98.6343 26.6289 97.3486 25.0377C93.0777 19.6188 88.3462 14.4385 83.1865 9.53301C81.4709 7.74629 80.0165 5.81015 78.8514 3.76191C78.2768 2.93246 77.7896 1.80378 78.8637 1.00015C79.3718 0.554757 80.0375 0.241993 80.7734 0.102924C81.5091 -0.0361458 82.2805 0.00491456 82.9863 0.220892ZM328.246 162.157C328.22 162.245 328.19 162.351 328.275 162.459L329.844 162.359C329.844 162.359 329.89 162.2 329.916 162.112L328.246 162.157ZM314.541 167.402C319.157 166.528 323.772 165.58 328.377 164.667C329.119 164.526 329.848 164.345 330.571 164.182C330.421 164.031 330.23 163.909 330.013 163.823C329.796 163.739 329.557 163.693 329.315 163.69C326.303 163.783 323.29 163.877 320.295 164.067C317.567 164.2 314.85 164.442 312.153 164.791C307.648 165.445 303.184 166.272 298.719 167.025C292.996 168.01 287.2 168.61 281.89 170.822C281.108 171.011 280.294 171.105 279.476 171.1C280.163 170.173 281.193 169.437 282.424 168.991C287.109 167.561 291.957 166.499 296.901 165.818C300.696 165.127 304.572 164.71 308.354 164.22C311.035 163.824 313.715 163.354 316.379 162.937C316.556 162.969 316.722 162.722 316.879 162.583L319.879 162.933L323.868 162.37L324.135 162.419L324.334 162.456L326.599 162.688C326.579 162.532 326.57 162.376 326.572 162.219L324.423 162.472L324.179 162.427L323.958 162.386C322.788 162.319 321.662 162.26 320.477 162.245C320.322 162.217 320.133 162.701 319.967 162.949C319.109 161.975 318.045 162.187 316.968 162.6C316.413 162.432 315.832 162.325 315.241 162.281C312.616 162.484 309.986 162.703 307.38 163.002C303.46 163.484 299.535 163.985 295.639 164.547C288.056 165.871 280.672 167.836 273.613 170.408C272.642 170.775 271.727 171.228 270.886 171.761C270.167 172.147 269.224 172.66 269.798 173.415C270.015 173.659 270.298 173.863 270.626 174.01C270.954 174.157 271.319 174.244 271.695 174.266C276.536 174.492 281.389 174.071 286.055 173.019C287.891 172.559 289.733 172.083 291.615 171.707C296.928 170.659 302.248 169.643 307.573 168.659C309.864 168.079 312.268 167.836 314.541 167.402ZM341.545 164.387C337.099 165.313 332.843 166.74 328.904 168.623C327.208 169.514 325.451 170.329 323.642 171.066C318.269 173.321 313.201 176.01 308.519 179.092C307.077 179.957 305.856 181.105 304.438 182.048C302.353 183.519 300.229 184.723 298.097 186.036L297.423 185.467C299.887 182.935 303.548 181.421 306.26 179.157C309.235 176.951 312.454 174.961 315.878 173.214C319.147 171.442 322.686 169.943 326.097 168.328C325.983 168.25 325.847 168.195 325.7 168.168C325.554 168.141 325.401 168.143 325.256 168.172C319.966 170.313 314.708 172.348 309.408 174.524C304.718 176.609 300.164 178.868 295.773 181.286C293.037 182.981 290.889 185.202 289.529 187.739C289.313 188.32 289.185 188.919 289.148 189.524C289.962 189.802 290.832 189.963 291.717 189.998C295.321 189.716 299.114 189.507 302.006 187.666C304.899 185.825 308.107 183.226 311.11 180.923C313.247 179.277 315.293 177.54 317.469 175.918C321.221 173.343 325.452 171.245 330.012 169.699C330.613 169.476 331.422 169.106 331.513 168.714C331.841 167.588 332.865 167.276 333.916 166.95C335.554 166.455 337.237 166.042 338.99 165.549C339.97 165.376 340.861 164.971 341.545 164.387ZM341.921 162.138L333.862 162.099L333.873 162.62C336.552 162.631 339.209 163.437 341.921 162.138ZM362.166 169.582C361.366 169.74 360.552 169.857 359.732 169.931C353.77 170.803 348.051 172.512 342.842 174.977C341.918 175.492 341.053 176.071 340.26 176.709C344.176 178.322 347.584 179.433 351.335 178.251C356.47 176.638 361.652 174.867 366.641 173.116L374.051 170.661C372.264 169.852 370.292 169.335 368.249 169.139C366.207 168.944 364.137 169.076 362.16 169.525L362.166 169.582ZM409.011 181.079L404.549 181.183C400.572 181.303 396.598 181.33 392.657 181.568C389.475 181.761 386.344 182.259 383.179 182.473C382.419 182.644 381.619 182.67 380.843 182.549C380.069 182.429 379.34 182.165 378.716 181.78L389.475 180.481C389.062 180.176 388.523 180.003 387.96 179.998C382.938 180.217 377.935 180.657 372.974 181.314C368.664 181.663 364.487 182.704 360.698 184.374C359.199 184.943 357.637 185.4 356.032 185.74C355.642 186.354 356.115 187.054 357.053 187.597C357.783 188.053 358.647 188.354 359.564 188.47C360.48 188.588 361.419 188.518 362.292 188.267C365.164 187.535 368.055 186.9 370.933 186.151C378.107 184.409 385.48 183.24 392.945 182.661C397.731 182.244 402.778 182.137 407.694 181.837C407.942 181.865 408.227 181.528 409.004 181.022L409.011 181.079ZM403.643 179.569L402.083 179.56C402.047 179.683 402.011 179.806 401.981 179.912L403.541 179.922C403.559 179.783 403.591 179.646 403.636 179.513L403.643 179.569ZM249.038 107.423L248.699 107.546L249.258 108.67L249.782 108.47L249.038 107.423ZM241.109 110.618C240.246 109.47 239.28 108.374 238.217 107.338C235.324 104.059 232.563 100.73 229.697 97.4381C228.505 96.0865 227.15 94.8164 225.849 93.5186C225.088 92.5255 224.361 91.5006 223.547 90.5344C220.089 86.3908 215.634 82.7124 212.563 78.287C212.412 78.1208 212.237 77.97 212.04 77.8381C210.171 76.2502 208.106 74.6086 206.116 73.0354C204.78 71.9922 202.987 71.4022 201.115 71.3896C200.998 71.6766 200.912 71.9711 200.859 72.2698C200.631 74.5996 201.535 76.9109 203.384 78.7277C205.682 81.0064 207.623 83.3862 210.012 85.515C211.866 87.1558 213.988 88.4373 215.922 89.9624C219.386 92.642 222.807 95.3631 226.185 98.1258C229.664 100.993 233.077 103.923 236.551 106.809C237.995 108.095 239.532 109.306 241.057 110.552L241.109 110.618ZM252.507 114.964C251.809 113.397 250.754 111.944 249.394 110.68C248.349 109.879 247.595 108.869 247.215 107.755C247.005 107.151 246.723 106.565 246.373 106.005C244.476 103.15 242.666 100.238 240.569 97.5139C236.665 92.3414 232.598 87.2503 228.728 82.1218C228.339 81.5262 227.997 80.9111 227.703 80.2822C228.153 80.1795 228.42 80.0614 228.454 80.1054C235.168 87.823 241.266 95.869 246.714 104.194L247.353 103.922L241.197 93.9194C241.008 93.6066 240.642 93.2604 240.68 92.9711C241.063 90.5368 239.381 88.7062 237.961 86.7745C237.053 85.4938 236.094 84.2221 235.211 82.9283C233.856 80.7245 232.087 78.6968 229.967 76.915C229.103 76.2282 228.086 75.6758 226.966 75.2856C225.15 74.6355 224.358 74.9532 223.867 76.4767C223.67 77.0869 223.676 77.7273 223.885 78.335C224.302 79.4561 224.824 80.551 225.449 81.6101C227.416 85.2901 229.846 88.8023 232.702 92.0929C236.489 95.9831 239.89 100.102 242.872 104.413C244.499 106.828 246.002 109.275 247.63 111.691C248.705 113.214 250.437 114.377 252.507 114.964ZM260.274 124.485C260.316 124.344 260.55 124.257 260.675 124.151L258.022 122.529L257.725 122.827L260.274 124.485ZM144.792 80.5535L144.911 80.1485L140.61 79.6157C138.632 79.245 136.617 79.0104 134.588 78.9126C127.113 79.1106 119.864 77.8112 112.512 77.104C105.161 76.3977 98.288 75.1675 91.15 74.3699C86.4312 73.8338 81.6679 73.5299 76.9454 73.3271C75.666 73.1641 74.3552 73.3548 73.2303 73.8656C72.1054 74.3772 71.2341 75.1781 70.7607 76.1378C72.95 76.8645 75.1882 77.4943 77.4651 78.023C82.003 78.8605 86.585 79.7054 91.2202 80.208C96.5147 80.8508 101.882 81.3209 107.236 81.6777C111.536 81.9702 115.864 82.0077 120.145 82.204C121.176 82.1275 122.199 82.0069 123.214 81.8423C120.208 80.4712 116.6 81.0863 113.897 79.2336C119.049 79.4047 124.103 80.151 129.211 80.3139C134.318 80.4769 139.594 80.5412 144.794 80.6284L144.792 80.5535ZM95.1645 108.037C96.7216 108.213 98.2183 108.601 99.7458 108.882C101.782 109.258 103.796 109.629 106.418 110.002C104.961 108.676 103.987 107.698 102.147 107.767C101.121 107.784 100.095 107.701 99.0942 107.519C97.3671 107.201 95.7126 106.636 94.0028 106.34C86.7648 105.004 79.8156 102.758 72.2966 102.466L71.9646 102.405L62.114 100.829C60.4095 100.514 58.6608 100.192 56.9565 99.8774C52.3366 99.3225 47.691 98.8549 43.0711 98.2993C41.4189 98.0785 39.7852 97.7771 38.1792 97.3974C37.2938 97.2345 36.3814 96.8434 36.4049 95.8829C41.9817 96.5957 47.4581 97.254 52.9362 97.9856C55.9655 98.3962 58.9811 98.9339 62.0002 99.3796C64.6208 99.7511 67.226 100.176 69.8553 100.439C75.3475 101.155 80.7749 102.156 86.1028 103.435C89.8436 104.125 93.4701 105.128 97.1642 105.976C95.2065 104.48 92.8688 103.333 90.3073 102.616C86.2786 101.873 82.2313 101.033 78.3122 99.9947C73.1517 98.5266 67.8497 97.3933 62.4587 96.6071C59.9169 96.3391 57.4003 95.9366 54.9256 95.403C47.0852 93.4934 38.9464 93.0868 30.9328 92.0913C29.5285 92.0155 28.121 92.1939 26.8155 92.6118C26.5115 92.6778 26.2283 92.7935 25.9836 92.9516C25.7389 93.1096 25.5382 93.306 25.3943 93.5292C25.2502 93.7516 25.1661 93.996 25.1473 94.2461C25.1283 94.4963 25.1751 94.7472 25.2846 94.9818C25.4323 95.5684 25.7278 96.1248 26.1534 96.6177C26.5788 97.1106 27.1256 97.5302 27.7604 97.8504C29.9091 99.0985 32.3634 99.9751 34.9645 100.422C41.6117 101.681 48.3485 102.62 55.138 103.234C60.2997 103.61 65.4336 104.483 70.5728 105.097C78.7141 106.135 86.963 107.044 95.1645 108.037ZM109.28 111.625L110.986 112.254C111.55 112.432 112.096 112.645 112.62 112.89C113.476 113.322 114.469 113.552 115.483 113.555C116.497 113.559 117.492 113.335 118.353 112.908L109.28 111.625ZM105.712 113.86C106.951 113.773 108.204 113.875 109.46 113.884L109.615 113.356C107.296 112.382 104.862 111.591 102.349 110.995C98.7029 110.443 95.0016 110.152 91.2899 110.124C85.7428 110.029 80.2125 110.196 74.6516 110.227C71.0528 110.25 67.4252 110.212 63.8197 110.178C60.2141 110.143 57.1212 110.111 53.773 109.994C48.4884 109.798 43.2054 109.677 37.9602 109.266C31.368 108.755 24.8649 107.778 18.2227 107.76C14.6069 107.76 10.9963 107.743 7.38205 107.819C4.58882 107.879 1.71231 110.223 2.14247 112.028C2.78428 114.707 6.30403 117.675 9.51983 117.525C15.5766 117.233 21.6671 117.225 27.7512 116.918C32.4863 116.679 37.0703 116.077 41.7271 115.786C50.0717 115.248 58.3514 114.771 66.7808 114.341C69.4124 114.196 72.0895 114.374 74.6973 114.15C76.8316 113.95 79.1508 114.396 81.4157 113.348C76.6594 112.861 71.93 113.88 67.6981 112.395C68.4994 112.007 69.4144 111.792 70.3524 111.772C72.386 111.757 74.4125 111.927 76.4291 111.891C79.3382 111.834 82.244 111.628 85.1326 111.641C86.0051 111.699 86.8625 111.858 87.6781 112.111C88.7844 112.521 89.9604 112.8 91.1685 112.939C94.8357 112.763 98.4775 112.433 102.359 111.998C103.081 113.523 102.964 113.687 101.395 113.787C98.329 113.982 95.2403 114.173 92.2052 114.504C90.1242 114.76 88.0617 115.104 86.0266 115.534C81.9157 116.353 77.7522 117.033 73.6344 118.035C68.4327 119.394 63.4455 120.979 58.2996 122.627C53.1539 124.275 48.8617 125.635 44.21 127.189C40.061 128.539 35.798 129.718 31.7067 131.19C28.2494 132.407 24.2088 132.905 21.8104 135.69C20.4331 135.213 20.6215 134.488 21.3716 133.995C22.6711 133.056 24.1266 132.263 25.6974 131.639C29.9164 130.21 34.2729 129.029 38.526 127.643C46.4577 125.08 54.3383 122.453 62.2411 119.829C62.7831 119.651 63.2739 119.407 64.2299 119.009C63.7592 118.923 63.277 118.884 62.7943 118.892C52.3447 120.449 42.0467 122.591 31.9771 125.303C27.3442 126.708 22.948 128.564 18.8893 130.829C17.7138 131.547 16.6789 132.4 15.8185 133.361C15.584 133.579 15.412 133.836 15.3142 134.113C15.2165 134.389 15.1953 134.68 15.2523 134.963C15.3092 135.247 15.4428 135.518 15.6439 135.757C15.8451 135.995 16.1089 136.197 16.4173 136.347C19.0559 137.297 21.7877 138.487 24.7844 137.89C28.393 137.25 31.9272 136.369 35.3493 135.257C40.8002 133.442 46.1356 131.383 51.4659 129.343C56.0038 127.62 60.4617 125.771 65.0047 124.031C68.4981 122.69 72.0305 121.375 75.6155 120.2C79.2005 119.024 82.6862 118.351 86.0668 117.156C92.3479 115.219 98.9826 114.106 105.712 113.86ZM108.694 130.029C110.159 128.445 111.531 126.62 113.19 125.09C114.85 123.559 116.763 122.279 118.6 120.856C118.446 120.827 118.269 120.795 118.179 120.779C113.843 122.527 109.84 124.755 106.29 127.397C102.275 130.257 98.6722 133.462 95.5487 136.954C92.5514 140.586 89.2837 144.072 85.7631 147.392C82.5912 150.636 79.175 153.723 75.5332 156.636C75.2684 156.92 75.0456 157.228 74.8693 157.553C75.2714 157.61 75.6808 157.63 76.0887 157.61C81.756 156.437 86.7899 153.83 90.4309 150.183C93.2918 147.547 95.9082 144.75 98.2604 141.814C99.4098 140.431 100.494 139.035 101.599 137.644C99.8841 138.248 98.4775 139.296 97.6057 140.617C94.3081 144.426 90.4929 147.934 86.2281 151.077C85.9621 151.27 85.5329 151.301 85.1989 151.407L84.8502 151.083L88.3783 148.024C89.0978 147.396 89.8905 146.837 90.5488 146.179C92.7929 143.922 94.9371 141.609 97.199 139.373C98.2716 138.26 99.4374 137.205 100.686 136.214C103.132 134.309 105.705 132.521 108.212 130.645C108.398 130.453 108.56 130.247 108.694 130.029ZM125.259 120.099C120.007 121.396 115.394 123.962 112.062 127.441L112.378 127.796L125.259 120.099ZM200.547 129.088L195.693 129.733C191.766 130.091 187.872 130.649 184.033 131.403C179.596 132.591 175.25 133.982 171.016 135.569C168.412 136.499 165.761 137.587 163.133 138.604C161.553 139.222 159.963 139.875 158.36 140.414C154.924 141.636 151.54 142.681 148.062 143.728C143.41 145.299 139.614 148.137 137.354 151.732C137.016 152.281 136.841 152.883 136.841 153.493C136.794 154.932 138.097 155.746 139.282 156.559C141.062 157.815 141.803 157.914 143.736 156.805C145.668 155.697 146.958 154.635 148.599 153.565C153.199 150.593 157.787 147.655 162.369 144.66C164.158 143.487 165.861 142.206 167.593 140.986L167.391 140.559C166.677 140.554 165.965 140.609 165.267 140.723C164.795 140.822 164.423 141.217 163.931 141.386C157.63 143.452 152.074 146.729 147.76 150.925C147.057 151.574 146.406 152.53 144.46 152.32C145.149 151.732 145.796 151.115 146.4 150.47C149.399 147.064 153.339 144.25 157.919 142.243C161.647 140.652 165.511 139.269 169.482 138.106C171.419 137.462 173.427 136.979 175.357 136.277C177.671 135.461 179.852 134.379 182.23 133.668C184.607 132.956 186.794 132.654 189.055 132.181C190.844 131.806 192.637 131.414 194.415 130.999C196.191 130.585 198.558 129.908 200.61 129.433L200.547 129.088ZM217.794 126.815L221.048 127.415C216.186 125.851 211.235 124.511 206.317 123.14C201.153 121.901 196.166 120.235 191.438 118.17C189.84 117.411 188.236 116.671 186.59 115.995C180.477 113.44 174.36 110.902 168.222 108.434C166.56 107.633 164.732 107.076 162.823 106.789C161.447 106.643 160.155 106.179 159.108 105.455C156.065 103.65 153.175 101.8 149.996 100.064C146.276 98.0239 142.47 96.1159 138.649 94.2608C135.88 92.8783 133.089 91.4916 130.229 90.2598C128.615 89.5535 127.883 89.8264 126.866 90.993C126.666 91.1926 126.517 91.4216 126.429 91.666C126.34 91.9112 126.313 92.1678 126.35 92.4212C126.387 92.6746 126.487 92.9198 126.642 93.1422C126.799 93.3654 127.009 93.561 127.261 93.719C128.209 94.4686 129.161 95.201 130.174 95.8886C135.993 99.9295 142.861 102.532 149.189 105.869C153.9 108.353 159.056 110.268 164.056 112.322C166.553 113.357 169.083 114.362 171.697 115.234C175.783 116.581 179.927 117.809 184.06 119.073C185.237 119.438 186.456 119.737 188.229 120.212C184.402 118.06 180.316 117.436 176.866 115.668C171.893 113.285 166.636 111.313 161.456 109.079C158.435 107.76 155.344 106.523 152.429 105.076C147.555 102.674 142.756 100.176 138.021 97.6141C135.776 96.6283 133.841 95.2499 132.362 93.5838C134.055 93.1357 134.889 93.9569 135.754 94.4319C138.291 95.8087 140.701 97.3852 143.271 98.7311C147.006 100.718 150.834 102.63 154.662 104.542C157.831 106.072 161.033 107.572 164.26 108.983C166.547 110.017 168.845 111.016 171.193 112.006C173.54 112.995 175.596 113.783 177.819 114.638C182.638 116.509 187.533 118.285 192.363 120.196C193.703 120.721 195.069 121.233 196.357 121.86C196.689 121.921 196.802 122.572 196.748 122.915C196.695 123.258 196.094 123.24 195.698 123.315C195.304 123.39 195.19 123.221 194.946 123.176C192.733 122.768 190.262 122.442 187.929 122.124C183.756 121.557 179.572 121.027 175.415 120.483C173.489 120.325 171.585 120.023 169.729 119.583C164.682 118.095 159.632 116.533 154.804 114.771C150.949 113.355 147.305 111.532 143.594 109.939C140.688 108.624 137.885 107.198 134.996 105.83C133.331 105.06 131.622 104.281 129.882 103.607C127.264 102.586 124.583 101.702 121.932 100.712C116.992 98.8557 112.142 96.8483 107.112 95.1415C102.081 93.4339 97.868 91.2472 92.4931 90.9604C89.2658 89.5494 85.9076 90.5067 82.6084 90.6215C81.3856 90.6558 80.169 90.9882 80.2026 92.5524C81.3369 92.8612 82.4927 93.1178 83.6641 93.3206C91.6958 94.4425 99.4979 96.4304 106.853 99.2297C113.535 101.835 120.37 104.153 127.121 106.678C132.12 108.491 137.055 110.366 142.07 112.126C144.176 112.904 146.307 113.593 148.539 114.339C147.848 113.859 147.094 113.44 146.291 113.089C144.022 112.152 141.71 111.28 139.447 110.324C133.888 107.709 128.086 105.436 122.092 103.525C118.842 102.686 115.696 101.609 112.697 100.308C109.541 99.0358 106.293 97.9164 102.968 96.955L90.8114 92.7283C90.0896 92.4839 89.5637 92.1271 90.4098 91.226L94.8582 92.7699C97.1191 93.5765 99.3094 94.4628 101.607 95.2205C105.261 96.4507 109.128 97.3493 112.588 98.8411C116.049 100.333 120.388 101.448 124.227 102.843C126.343 103.585 128.577 103.923 130.652 104.807C134.452 106.416 138.08 108.292 141.821 110.02C143.425 110.761 145.172 111.325 146.684 112.142C150.044 114.088 153.741 115.638 157.658 116.744C158.875 116.969 159.049 117.65 158.325 118.295C157.129 118.075 156.173 117.676 155.21 117.461C152.245 116.747 149.266 116.087 146.296 115.391C145.61 115.264 144.922 114.822 144.295 114.891C140.424 115.291 136.339 113.943 132.634 115.765C132.634 115.765 132.237 115.692 131.906 115.463L132.943 114.949L134.161 114.451L124.403 113.597C123.987 115.023 122.738 115.145 120.952 115.112C117.613 114.764 114.222 115.307 111.312 116.655C105.007 119.585 98.9477 122.836 93.172 126.388C87.79 129.884 81.8334 132.792 76.1134 135.93C74.7243 136.694 73.3556 137.387 71.8373 138.035C68.1697 139.733 64.5023 141.431 60.8059 143.068C60.3252 143.276 59.5948 143.141 58.9612 143.154L58.8307 142.722C59.4711 142.27 60.153 141.856 60.8711 141.485C62.64 140.698 64.511 140.041 66.2016 139.203C68.378 138.139 70.3216 136.753 72.6118 135.859C77.6235 133.871 81.7816 130.891 86.426 128.482C88.715 127.325 90.9202 126.065 93.0306 124.71C94.7701 123.448 96.6602 122.324 98.6742 121.355C100.973 120.238 103.19 119.017 105.316 117.701C101.148 118.276 97.2165 119.637 93.8471 121.671C89.0754 124.037 84.5583 126.728 79.8372 129.159C76.9072 130.807 73.6713 132.066 70.5626 133.608C63.9125 136.814 57.3134 140.086 50.6684 143.276C50.164 143.439 49.7351 143.721 49.4409 144.085C49.1468 144.45 49.0016 144.877 49.0255 145.31C51.7543 146.191 54.7429 146.433 57.6391 146.008C65.9517 144.586 73.6945 141.553 80.1805 137.181C84.5308 134.422 88.7007 131.48 92.9773 128.652C97.8608 125.2 103.268 122.246 109.071 119.859C113.67 118.12 118.459 116.719 123.378 115.671C124.152 115.498 125.007 115.285 125.591 116.079C126.176 116.874 125.441 117.239 124.857 117.799C124.577 118.116 124.352 118.462 124.185 118.825L124.617 119.183C128.196 118.267 131.793 117.371 135.339 116.412C136.33 116.131 137.166 115.822 137.943 117.078L135.031 118.266C135.992 118.457 136.984 118.533 137.974 118.493C146.513 118.566 154.804 120.132 163.248 120.928C167.357 121.315 171.412 121.97 175.523 122.432C179.633 122.893 183.789 123.122 187.847 123.685C192.829 124.678 197.986 125.003 203.102 124.643C203.993 124.607 204.887 124.665 205.757 124.818C206.232 124.822 206.688 124.962 207.043 125.211C207.398 125.461 207.629 125.804 207.694 126.177C204.279 126.289 201.053 126.473 197.817 126.451C192.971 126.429 188.123 126.258 183.281 126.145C175.279 125.986 167.443 127.342 159.466 127.818C155.687 128.064 151.969 128.727 148.419 129.787C145.577 130.655 142.499 131.052 139.678 132.164C135.68 133.984 132.386 136.642 130.159 139.851C129.891 140.443 129.845 141.085 130.026 141.698C130.207 142.311 130.609 142.868 131.182 143.304C132.298 143.955 133.395 143.712 134.934 142.753C135.81 142.159 136.786 141.664 137.835 141.285C142.971 139.672 148.224 138.137 153.437 136.576C156.986 135.523 160.649 134.641 164.083 133.344C167.94 131.95 171.899 130.741 175.939 129.725C176.915 129.51 177.908 129.34 178.91 129.216C178.627 129.027 178.299 128.887 177.945 128.807C177.592 128.725 177.22 128.704 176.855 128.744C171.96 129.529 166.709 129.618 161.847 131.096C159.484 131.656 157.08 132.098 154.649 132.421C154.054 132.524 153.472 132.672 152.911 132.861C150.87 133.542 148.867 134.248 146.861 134.972L138.186 138.084C137.562 138.304 136.914 138.444 136.202 138.646C135.711 137.851 135.679 137.399 136.669 137.044C139.232 136.255 141.635 135.214 144.238 134.526C148.744 133.391 152.72 131.434 157.448 130.822C158.65 130.591 159.833 130.302 160.99 129.954C163.189 129.451 165.355 128.904 167.617 128.505C170.656 128.083 173.753 127.782 176.804 127.64C178.829 127.494 180.869 127.536 182.902 127.522C183.326 127.507 184.048 127.436 184.144 127.584C185.021 129.137 186.544 128.231 187.796 128.257C189.541 128.095 191.303 128.09 193.049 128.243C194.515 128.435 196.015 128.383 197.455 128.091C200.643 127.609 203.861 127.255 207.094 127.031C208.659 126.948 209.952 126.908 210.567 125.204L211.607 126.676C213.491 126.856 215.726 125.747 216.94 127.826C217.223 127.415 217.487 127.148 217.779 126.868L217.794 126.815ZM175.653 109.026L177.916 109.906C179.101 110.403 180.333 110.816 181.453 111.375C186.532 113.925 191.858 116.149 197.383 118.023C201.919 119.609 206.557 121.003 211.279 122.2C217.608 123.776 224.025 125.127 230.431 126.437C234.215 127.136 238.041 127.693 241.832 128.373C245.622 129.054 249.734 129.831 253.666 130.667C254.595 130.839 255.503 131.006 256.521 131.194C256.389 130.929 256.369 130.758 256.268 130.702L240.527 124.292C239.942 123.997 239.382 123.671 238.852 123.316C236.997 122.022 234.988 120.875 232.853 119.89C226.974 117.916 220.878 116.382 214.642 115.308C209.692 114.284 204.659 113.467 199.657 112.544C195.517 111.78 191.409 110.912 187.261 110.257C183.467 109.669 179.618 109.349 175.778 108.919L175.653 109.026ZM248.878 133.81C252.065 134.398 255.253 134.985 258.417 135.569C260.387 135.933 262.286 136.542 264.253 136.998C267.106 137.691 269.992 138.353 272.994 139.018C275.031 139.394 277.045 139.765 279.328 140.335C277.119 138.683 274.39 137.539 271.43 137.023C267.223 136.247 263.054 135.349 258.911 134.436C252.869 133.081 246.862 131.602 240.809 130.281C237.935 129.658 234.979 129.317 232.086 128.839L231.213 130.236C234.333 130.812 237.321 131.363 240.309 131.914C243.298 132.465 245.95 133.288 248.862 133.863L248.878 133.81ZM269.711 145.796C268.791 145.831 267.868 145.957 266.955 146.048L296.302 147.157C294.683 146.469 293.526 145.958 292.353 145.501C291.994 145.313 291.562 145.233 291.136 145.277C288.834 145.761 286.423 145.818 284.09 145.443C281.931 145.134 279.73 145.066 277.548 145.237C274.961 145.606 272.338 145.792 269.711 145.796ZM263.07 144.571C261.345 144.568 259.608 144.526 257.885 144.598C253.919 144.757 249.956 144.991 246.046 145.197C242.137 145.404 238.479 145.47 234.757 145.916C230.238 146.455 225.775 147.283 221.333 148.115C219.898 148.458 218.52 148.939 217.23 149.546C215.273 150.336 213.346 151.186 211.407 151.997C210.848 152.197 210.306 152.426 209.784 152.681C209.204 152.949 208.753 153.365 208.506 153.861C208.26 154.358 208.231 154.906 208.427 155.417C208.583 155.904 208.947 156.332 209.456 156.629C209.965 156.925 210.588 157.073 211.218 157.045C213.686 157.119 216.157 156.984 218.589 156.642C222.36 155.91 226.059 154.962 229.657 153.805C236.464 151.638 243.459 149.866 250.588 148.502C252.268 148.181 253.946 147.785 255.575 147.4L255.476 146.936C248.654 147.19 241.863 147.835 235.157 148.865C228.408 150.013 222.416 152.562 215.527 153.945C215.724 152.553 216.904 152.343 217.962 152.075C221.002 151.17 224.018 150.187 227.046 149.243C228.117 148.927 229.207 148.658 230.313 148.435C231.428 148.214 232.589 148.15 233.674 147.868C240.859 146.195 248.319 145.394 255.803 145.494C258.303 145.65 260.81 145.303 263.096 144.483L263.07 144.571ZM301.98 149.521C297.089 149.248 292.178 149.247 287.286 149.52C282.021 149.99 276.816 150.817 271.729 151.993C266.691 153.271 261.361 154.273 256.224 155.57C252.962 156.423 249.765 157.425 246.648 158.572C242.655 160.024 238.77 161.589 234.815 163.234C232.191 164.377 229.666 165.659 227.258 167.071C226.3 167.637 224.982 168.395 225.699 169.696C226.151 170.466 227.598 170.622 229.582 170.06C234.891 168.572 240.189 167.045 245.492 165.574C250.375 164.293 255.113 162.684 259.654 160.767C260.604 160.39 261.598 160.089 262.622 159.866L281.799 155.056C282.474 154.895 283.16 154.761 283.852 154.655C290.988 153.165 298.215 151.96 305.502 151.043C305.907 150.954 306.296 150.826 306.663 150.663C305.185 150.078 303.609 149.662 301.984 149.429L301.98 149.521ZM442.185 182.504C442.451 182.553 442.781 182.299 443.153 182.144C442.993 181.893 442.843 181.605 442.772 181.611C442.407 181.68 442.051 181.775 441.709 181.897C441.882 182.021 442.006 182.397 442.189 182.412L442.185 182.504ZM443.844 184.813C444.293 185.675 444.66 186.578 445.053 187.467C445.173 186.097 445.869 184.667 444.728 183.381C443.481 183.578 443.385 183.987 443.759 184.705L443.844 184.813ZM432.968 181.397C430.023 180.855 427.133 180.21 424.17 179.571C421.207 178.932 418.242 178.218 415.258 177.575C412.273 176.932 409.475 176.286 406.566 175.786C403.656 175.286 400.977 173.995 397.467 173.552C397.829 174.073 398.333 174.523 398.944 174.867C399.555 175.21 400.255 175.44 400.993 175.538C402.915 175.719 404.772 176.199 406.458 176.954C408.144 177.892 410.106 178.465 412.155 178.617C413.084 178.788 414.015 178.96 415.165 179.171C415.027 179.647 414.747 179.967 414.601 180.31L414.49 180.29L408.662 179.474L408.529 179.932C409.37 180.429 410.37 180.724 411.414 180.785C412.456 180.846 413.5 180.67 414.423 180.278L414.601 180.31C415.463 180.469 416.349 180.633 417.275 180.655C418.202 180.678 418.974 180.43 419.288 180.711C420.874 182.154 423.193 181.802 425.106 182.359C427.02 182.916 428.64 183.197 430.387 183.686C433.471 184.551 436.501 185.518 439.589 186.366C440.534 186.551 441.497 186.673 442.468 186.73L441.71 183.251C438.797 182.603 435.845 181.928 432.883 181.289L432.968 181.397ZM387.239 171.349L385.893 170.768L385.637 171.165L387.101 171.584L387.239 171.349ZM363.617 160.371C361.929 159.933 360.284 159.4 358.693 158.776C355.13 157.395 351.615 155.93 348.063 154.514C345.845 153.642 343.589 152.818 341.404 151.914C340.63 151.604 340.046 150.81 339.261 150.702C337.26 150.445 335.538 149.552 333.622 149.162C330.582 148.398 327.719 147.243 325.149 145.743C324.864 145.598 324.79 145.214 324.36 144.448C326.568 145.056 328.68 145.862 330.656 146.852C332.479 147.726 334.412 148.443 336.424 148.992C338.505 149.376 339.719 151.454 342.549 150.864C341.658 150.403 341.043 150.03 340.364 149.719C336.851 148.087 333.308 146.562 329.819 144.843C327.685 143.625 325.198 142.854 322.59 142.6L320.608 144.516C321.684 145.718 322.928 146.819 324.316 147.798C329.108 150.443 334.268 152.639 339.692 154.343C344.588 155.952 349.613 157.36 354.519 158.933C358.437 160.213 362.25 161.695 366.126 163.04C367.204 163.425 368.279 163.66 369.47 163.972C368.048 162.318 365.986 161.078 363.596 160.441L363.617 160.371ZM394.197 165.009C393.509 164.921 392.804 164.96 392.137 165.124C391.471 165.286 390.86 165.57 390.353 165.95L385.325 166.396L385.424 166.86C386.283 166.998 387.171 166.985 388.025 166.822C388.878 166.659 389.676 166.35 390.363 165.915C391.714 165.966 393.05 165.673 394.176 165.08L394.197 165.009ZM398.647 161.507C392.71 162.267 386.576 162.026 380.956 164.18C381.212 164.584 381.65 164.897 382.181 165.058C382.714 165.217 383.302 165.212 383.83 165.044L397.777 162.571C398.177 162.465 398.558 162.317 398.908 162.13L398.647 161.507ZM396.236 159.856L372.87 154.712C371.851 154.479 370.816 154.287 369.771 154.141C368.864 153.974 367.917 154.022 366.681 153.942C366.852 154.378 367.11 154.788 367.446 155.159C370.443 157.437 373.501 159.671 376.504 161.931C376.888 162.217 377.361 162.417 377.874 162.512C378.387 162.606 378.922 162.591 379.426 162.47C384.632 161.575 389.815 160.917 395.035 160.136C395.446 160.075 395.848 159.981 396.236 159.856ZM417.344 159.465C417.408 160.366 417.43 161.169 417.47 161.993L418.22 162.297C418.658 161.914 419.346 161.559 419.479 161.101C419.528 160.457 419.432 159.812 419.195 159.194L417.344 159.465ZM380.379 146.08L380.821 145.846C379.173 143.501 377.518 141.175 375.608 138.689C374.393 139.337 373.772 138.665 373.171 137.924C371.42 135.932 369.835 134.007 368.254 131.99C364.854 127.653 360.712 123.698 356.925 119.568C356.36 118.945 355.492 118.321 355.703 117.358C358.015 117.988 358.54 118.345 365.447 126.019C368.316 129.219 370.88 132.586 373.569 135.92C373.632 135.745 373.651 135.562 373.623 135.382C373.596 135.202 373.523 135.028 373.409 134.87C369.704 129.126 365.607 123.546 361.138 118.156C359.489 115.824 357.081 113.886 354.166 112.548C353.386 112.145 352.495 111.895 351.569 111.818C350.643 111.74 349.708 111.838 348.838 112.104C349.04 113.812 349.742 115.46 350.887 116.914C353.493 119.658 356.103 122.384 358.796 125.07C363.454 129.787 368.147 134.438 372.875 139.02C375.372 141.335 377.936 143.663 380.446 146.092L380.379 146.08ZM370.455 146.68C370.243 146.259 369.89 145.893 369.435 145.619C368.982 145.346 368.442 145.176 367.875 145.128C368.197 146.263 369.5 146.355 370.521 146.692L370.455 146.68ZM383.098 152.035C380.189 149.774 377.222 147.631 374.13 145.595C371.374 143.77 368.286 142.199 365.639 140.319C359.007 135.386 353.784 129.377 347.878 123.873C346.173 122.278 344.638 120.585 342.994 118.946C341.079 117.035 339.196 115.092 337.167 113.252C336.032 112.272 334.797 111.369 333.476 110.55C333.279 110.426 333.049 110.338 332.805 110.293C332.56 110.248 332.305 110.246 332.06 110.288C331.866 110.406 331.708 110.556 331.598 110.728C331.487 110.9 331.427 111.09 331.42 111.283C331.397 111.774 331.51 112.263 331.747 112.717C332.243 113.994 332.891 115.231 333.679 116.412C336.384 119.934 339.002 123.515 342.104 126.796C344.943 129.669 348.056 132.364 351.416 134.857C354.577 137.296 358.047 139.475 361.495 141.651C363.462 142.904 365.655 143.94 367.78 145.055C367.43 144.565 366.995 144.116 366.489 143.722C360.892 139.773 355.6 135.557 350.646 131.098C348.777 129.51 346.708 127.886 344.678 126.288C342.108 124.385 340.195 121.988 339.127 119.328C339.726 119.545 340.278 119.835 340.766 120.186C342.813 122.122 344.66 124.188 346.828 126.035C350.792 129.4 354.902 132.663 359.008 135.943C361.62 138.02 364.261 140.084 366.993 142.072C369.726 144.059 372.813 146.113 375.766 148.142C376.086 148.416 376.374 148.711 376.629 149.024L376.3 149.353L370.9 146.91C372.18 147.875 373.528 148.78 374.939 149.621C377.415 150.873 380.195 151.696 383.098 152.035ZM364.011 149.981C363.132 149.856 362.245 149.773 361.354 149.731C361.709 150.511 362.349 151.187 363.193 151.674C364.037 152.16 365.045 152.434 366.086 152.46C368.727 152.653 371.344 153.018 373.909 153.55C381.102 154.963 388.274 156.446 395.424 158.001C400.801 159.159 406.115 160.454 411.477 161.666C412.717 161.895 413.979 162.443 415.297 161.684C415.407 161.427 415.484 161.162 415.528 160.892C415.549 160.34 415.504 159.775 415.501 159.144C414.837 159.021 414.24 158.911 413.634 158.91C408.68 158.84 403.758 158.287 398.975 157.264C398.555 157.202 398.125 157.192 397.701 157.233C396.162 157.302 394.617 157.228 393.099 157.015C389.793 156.275 386.603 155.297 383.325 154.378C381.173 153.758 379.265 152.942 377.155 152.497C372.78 151.505 368.404 150.754 364.127 149.983L364.011 149.981ZM356.604 154.421C361.547 157.466 366.563 160.265 371.73 163.184C372.489 163.62 373.269 163.987 374.033 164.406C374.059 164.318 374.084 164.23 374.259 164.188L372.618 162.698L373.433 162.143L358.001 149.392C357.266 148.792 356.504 148.206 355.737 147.638C350.546 143.843 345.364 140.012 340.114 136.26C338.131 134.873 336.059 133.569 333.906 132.351C333.578 132.177 333.206 132.062 332.817 132.016C332.427 131.97 332.028 131.993 331.651 132.084C331.232 132.293 330.923 132.614 330.778 132.99C330.635 133.366 330.667 133.771 330.868 134.129C331.013 134.678 331.299 135.198 331.706 135.656C334.741 138.753 338 141.708 341.465 144.505C346.292 148.029 351.448 151.225 356.609 154.403L356.604 154.421ZM299.506 131.609C300.772 133.258 302.495 134.655 304.545 135.692C302.517 133.204 300.262 130.858 298.275 128.395C296.287 125.932 294.473 123.354 292.654 120.792C290.836 118.23 288.423 116.023 287.619 113.185L288.409 112.793C288.896 113.124 289.336 113.497 289.717 113.906C291.313 116.166 292.891 118.436 294.45 120.715C296.997 124.729 300.096 128.504 303.692 131.973C306.167 134.285 308.847 136.374 311.446 138.579L312.622 139.426C312.584 138.838 312.348 138.269 311.936 137.779C308.835 133.775 305.707 129.785 302.628 125.785C299.549 121.785 297.044 118.299 294.219 114.625C293.027 113.24 291.71 111.925 290.282 110.69C289.966 110.39 289.536 110.181 289.057 110.093C288.578 110.004 288.076 110.042 287.626 110.2C287.102 110.327 286.617 110.542 286.205 110.83C285.794 111.119 285.466 111.474 285.241 111.872C285.016 112.27 284.902 112.702 284.905 113.137C284.907 113.574 285.028 114.004 285.258 114.401C285.419 114.803 285.635 115.191 285.9 115.558C288.041 118.216 290.204 120.878 292.426 123.496C294.649 126.112 296.958 128.913 299.506 131.609ZM310.941 145.831C311.199 146.02 311.445 146.221 311.676 146.431L317.042 149.628L317.348 149.296L315.115 147.678C312.763 145.982 310.401 144.323 308.061 142.666C305.723 141.011 303.697 139.394 301.496 137.745C299.794 136.541 297.882 135.502 296.208 134.284C292.187 131.353 288.112 128.451 284.313 125.32C281.105 122.625 278.084 119.796 275.262 116.842C273.968 115.292 272.812 113.671 271.802 111.993C272.344 111.927 272.899 112.011 273.373 112.23C273.848 112.449 274.215 112.79 274.412 113.198C275.848 115.032 277.422 116.797 279.122 118.482C283.185 122.069 287.455 125.584 291.662 128.994C292.021 129.179 292.412 129.32 292.823 129.412C290.193 127.072 287.785 124.773 285.509 122.498C282.305 119.328 279.192 116.083 276.069 112.873C272.475 109.205 268.894 105.483 265.288 101.851C264.697 101.376 264.034 100.961 263.316 100.615L262.723 100.969C263.524 103.317 264.493 105.627 265.627 107.886C267.088 110.112 268.71 112.27 270.485 114.347C273.343 117.982 276.703 121.352 280.501 124.394C285.169 128.223 290.183 131.744 295.085 135.413C299.775 139.382 305.063 142.875 310.831 145.811L310.941 145.831ZM240.455 119.178C240.278 119.146 240.056 119.104 239.568 119.182L240.521 120.953L239.466 121.927C239.914 122.242 240.392 122.529 240.896 122.784C243.933 124.05 246.992 125.318 250.061 126.552C252.752 127.642 255.421 128.728 258.127 129.765C261.374 131.032 264.728 132.17 267.952 133.432C270.37 134.605 273.013 135.456 275.777 135.952C276.609 136.135 277.375 136.473 278.009 136.938C278.641 137.486 279.317 138.001 280.032 138.48C282.071 139.487 284.393 140.323 286.465 141.373C289.96 143.149 294.386 143.409 297.469 145.796C297.685 145.918 297.929 146.007 298.186 146.058C302.706 147.596 307.21 149.187 311.74 150.691C317.546 152.59 323.37 154.456 329.212 156.288C333.609 157.748 338.164 158.886 342.822 159.689C343.266 159.716 343.69 159.845 344.043 160.062C345.524 161.541 347.771 161.436 349.764 161.878C352.465 162.376 355.576 161.948 357.739 163.887C357.85 163.907 358.071 163.948 358.226 163.976C360.012 164.347 361.759 164.825 363.455 165.405C368.171 167.156 373.132 168.457 378.232 169.28C378.839 169.336 379.452 169.331 380.057 169.265C380.098 169.124 380.144 168.965 380.185 168.824C379.787 168.61 379.364 168.426 378.922 168.276C375.106 167.127 371.258 166.083 367.478 164.886C364.281 163.85 361.161 162.552 358.02 161.564C350.535 159.237 343.039 156.946 335.467 154.752C334.398 154.463 333.353 154.122 332.336 153.729C329.811 152.72 327.358 151.598 324.989 150.37C322.314 149.027 319.995 147.282 318.159 145.234C317.396 144.328 316.547 143.471 315.619 142.669C315.101 142.203 314.441 141.988 313.91 142.687C313.869 142.828 313.934 143.008 314.024 143.098C317.665 146.901 321.992 150.256 326.866 153.054C327.487 153.492 328.047 153.981 328.54 154.513C326.845 155.202 326.242 155.35 325.364 154.762C323.726 153.829 321.958 153.048 320.094 152.436C316.757 151.004 313.569 149.377 310.054 148.154C303.106 145.741 296.291 143.037 289.417 140.452C289.172 140.369 288.935 140.269 288.711 140.155C284.504 137.897 280.04 135.956 275.379 134.357C274.101 133.861 272.893 133.286 271.647 132.76L260.824 128.278C259.912 127.887 258.945 127.523 258.016 127.11L240.455 119.178ZM226.665 116.635L234.593 118.802L234.711 118.397C232.082 117.653 230.446 114.865 226.58 116.527L226.665 116.635ZM164.346 98.3702C161.64 98.1306 158.942 98.0223 156.188 97.8667C155.46 100.367 158.532 101.267 158.975 103.111C160.784 104.103 162.765 104.88 164.856 105.421C166.729 105.682 168.584 106.024 170.411 106.445C172.385 106.83 174.383 107.136 176.395 107.363C178.91 107.697 181.435 107.996 183.967 108.277C185.096 108.485 186.293 108.298 187.416 108.524C193.407 109.74 199.366 111.062 205.366 112.243C208.133 112.753 210.951 113.087 213.726 113.488C213.591 113.073 213.373 112.94 213.135 112.878C209.317 111.97 205.458 111.128 201.683 110.153C195.881 108.694 190.147 107.08 184.304 105.761C178.959 104.506 173.527 103.504 168.034 102.76C166.677 102.478 165.348 102.121 164.054 101.692C164.679 100.509 165.58 100.935 166.41 101.051C169.509 101.622 172.669 101.983 175.768 102.554C180.484 103.424 185.221 104.297 189.884 105.343C196.458 106.797 202.485 109.244 209.278 109.866C207.557 109.289 205.81 108.8 204.063 108.311C197.204 106.397 190.334 104.517 183.513 102.554C177.372 100.503 170.935 99.0667 164.35 98.2773L164.346 98.3702ZM215.571 109.321C218.269 111.639 221.847 113.192 225.759 113.741C222.595 111.928 219.177 110.415 215.576 109.228L215.571 109.321ZM199.553 93.3809C200.702 95.381 202.232 97.228 204.092 98.8557C205.365 100.167 206.406 101.638 207.777 102.856C208.354 103.477 209.089 103.996 209.934 104.379C210.778 104.761 211.713 104.999 212.68 105.077L199.553 93.3809ZM202.472 100.171C203.168 100.744 203.983 101.228 204.738 101.757L204.992 101.525C203.189 99.7095 201.366 97.9628 199.589 96.0589C197.302 92.9622 194.784 89.9763 192.049 87.1183C191.414 86.5293 190.9 85.8645 190.524 85.1484C190.348 84.8746 190.56 84.4689 190.613 84.1259L191.089 84.0102L198.039 92.1735C198.129 92.044 198.178 91.8982 198.181 91.7499C198.183 91.6016 198.14 91.455 198.054 91.323C195.227 87.5143 192.759 83.5434 190.672 79.4438C189.466 77.4136 188.099 75.4453 186.582 73.5511C186.41 73.3311 186.179 73.1429 185.907 72.9995C185.634 72.857 185.327 72.762 185.004 72.722C184.019 72.7441 183.951 73.455 183.894 74.1312C183.505 77.2938 184.529 80.4647 186.787 83.0864C188.02 84.5382 189.057 86.1024 190.141 87.5819C191.666 89.7123 193.329 91.7776 195.125 93.7695C197.428 96.0312 200.007 98.0646 202.472 100.171ZM165.788 86.2254C166.733 87.08 167.744 87.8866 168.816 88.6394C169.903 89.2512 171.045 89.7971 172.236 90.2712C168.707 90.2142 166.485 88.395 164.147 86.8136C162.354 88.0039 162.313 88.7013 164.024 89.7954C168.455 92.4799 173.287 94.717 178.41 96.4556C184.448 98.6268 190.507 100.728 196.545 102.898C198.655 103.659 200.73 104.542 202.959 105.38C202.261 104.669 201.413 104.06 200.451 103.582C198.066 102.4 195.654 101.232 193.227 100.116C189.342 98.3237 185.434 96.5273 181.51 94.783C179.133 93.7329 176.655 92.7935 174.252 91.7564C173.879 91.5951 173.694 91.1894 173.299 90.7828C176.149 90.7706 186.165 94.6584 192.018 97.9457L196.505 99.9971C195.295 98.8655 194.095 97.698 192.018 97.9457C191.832 97.54 191.772 97.0283 191.409 96.8312C188.474 95.1399 185.566 93.4347 182.479 91.9381C178.392 89.96 174.252 88.1579 170.112 86.3549C169.49 85.9932 168.746 85.7871 167.975 85.7635C167.205 85.7407 166.443 85.9012 165.788 86.2254ZM132.57 74.7935C132.532 74.8848 132.504 74.9793 132.488 75.0754L146.289 78.863C146.315 78.775 146.345 78.6699 146.371 78.5819L132.57 74.7935ZM126.462 71.1812C118.767 69.6507 110.901 68.5522 103.533 66.0617C97.7584 64.1063 91.7623 62.5921 85.8289 60.9413C81.1283 59.7034 76.3542 58.6373 71.5953 57.5184C70.6782 57.2595 69.7028 57.1571 68.7326 57.2178C67.7623 57.2786 66.8191 57.5012 65.9642 57.8711C64.2174 58.6619 63.92 59.4419 65.5384 60.3711C67.5997 61.7079 69.8669 62.8305 72.2851 63.7116C77.9507 65.4801 83.7871 66.9832 89.5519 68.4916C91.4257 68.9206 93.3379 69.236 95.2711 69.4353C101.524 70.3103 107.83 71.0837 114.062 72.0292C118.22 72.6477 122.297 73.5478 126.467 74.2061C124.935 73.5201 123.309 72.9775 121.621 72.5884C118.85 71.929 116.042 71.3184 113.267 70.6767C112.316 70.5012 111.42 70.132 110.485 69.9781C105.563 69.1814 100.582 68.5039 95.6952 67.5841C91.2677 66.7676 86.9176 65.6869 82.4398 64.5643C78.0351 63.7427 73.9014 62.1835 70.3146 59.9906C71.6771 58.7578 72.7642 59.5891 73.726 59.9705C76.0479 60.9961 78.4456 61.9092 80.9061 62.7047C86.4393 64.2075 92.0136 65.5695 97.6682 66.8165C100.953 67.552 104.339 67.9356 107.747 68.4899C109.539 68.8205 111.416 68.944 113.194 69.3276C119.895 70.8233 126.485 72.7063 133.384 73.6823C135.654 74.1458 137.869 74.765 140.005 75.5341L147.232 77.6279C147.498 77.6768 147.859 77.5578 148.683 77.4503C146.603 76.5842 145.054 75.816 143.395 75.2685C137.887 73.5715 132.227 72.2052 126.462 71.1812ZM155.384 70.7093L153.764 65.8656C153.232 64.1721 152.606 62.4798 152.249 60.7444C150.941 55.9804 151.047 51.0394 152.562 46.3142C152.883 45.2187 152.945 44.0851 152.743 42.9715C152.501 40.6823 153.939 38.8699 154.898 36.5424C155.239 36.9378 155.446 37.3965 155.5 37.8743C155.552 38.3521 155.448 38.8326 155.199 39.2692C154.429 41.062 154.115 42.9585 154.272 44.8488C154.3 45.8302 154.179 46.8106 153.911 47.7687C153.141 50.3708 152.918 53.0561 153.249 55.7161C153.467 56.8879 153.349 58.0906 153.447 59.2772C153.505 59.9559 153.702 60.6413 153.845 61.4284C154.104 61.1795 154.273 61.0807 154.304 60.9751C155.276 56.2015 156.298 51.4184 157.149 46.6595C157.437 44.4594 158.037 42.2924 158.94 40.2002C159.332 39.1218 159.614 38.02 159.784 36.9056C160.364 33.3273 159.822 29.6905 158.206 26.319C157.852 25.6392 157.407 24.9914 156.881 24.3864C155.545 24.71 154.331 25.2939 153.351 26.0849C152.371 26.876 151.655 27.8492 151.268 28.9163C150.786 30.2653 150.469 31.648 150.32 33.0453C149.371 39.9575 148.902 46.9061 148.915 53.8594C148.775 59.879 151.04 65.7787 155.384 70.7093ZM148.128 69.0369L148.832 68.703C148.38 68.1743 147.922 67.6633 147.497 67.1211C145.945 65.1653 144.393 63.2094 142.872 61.2225C142.09 60.2249 141.46 59.1069 140.668 58.1446C139.54 56.7309 138.167 55.4389 137.221 53.9658C135.796 51.7365 133.515 49.7949 133.216 47.1426C131.3 45.7133 131.194 43.5975 130.098 41.8371C129.315 40.524 128.4 39.2608 127.485 37.9977C126.571 36.7345 125.513 35.4821 124.681 34.1784C124.233 33.6519 123.938 33.0525 123.818 32.4238C123.699 31.7952 123.758 31.1533 123.991 30.5451C124.533 31.1645 124.894 31.5278 125.156 31.91C125.799 32.9861 126.513 34.0342 127.296 35.0502C130.567 38.7886 132.319 43.1001 134.863 47.0939C136.685 49.9652 138.525 52.8274 140.383 55.6805C140.624 55.9423 140.909 56.176 141.23 56.3748C138.881 50.6731 136.38 45.0919 133.491 39.6431C131.267 35.4302 128.615 31.3238 126.032 27.3043C124.921 25.5601 123.116 24.1575 120.897 23.315C118.819 26.3634 117.421 29.3149 119.746 32.5447C121.541 35.0275 123.343 37.5674 125.438 39.9017C128.057 42.8116 130.274 45.9384 132.048 49.2275C132.919 51.0456 133.965 52.8077 135.177 54.4977C138.286 58.3918 141.582 62.2088 144.882 66.0082C145.915 67.1076 147.064 68.0432 148.128 69.0369ZM116.533 55.1587C116.935 55.3238 117.361 55.4462 117.802 55.5228C116.809 54.5311 115.691 53.6224 114.465 52.811C110.525 50.0077 106.224 47.5419 101.635 45.4546C97.7973 43.5852 94.2118 41.4071 90.9346 38.9546C89.7351 38.0285 88.4385 37.1958 87.1537 36.4023C84.3987 34.6512 81.5192 33.0072 78.8615 31.1628C75.8173 29.0431 72.8808 26.7948 70.0482 24.5101C69.218 23.8375 67.9226 23.3204 67.8155 21.9279C68.3904 22.0822 68.9406 22.2895 69.4548 22.5456C71.6243 23.9846 73.7343 25.4682 75.8713 26.9383C78.3386 28.6362 80.7786 30.3477 83.3003 32.0186C85.475 33.4399 87.7896 34.7017 89.954 36.1582C92.1185 37.6148 93.7129 38.7065 95.5763 39.9962C98.3843 41.8985 101.417 43.5821 104.63 45.0238C107.369 46.2709 110.042 47.5802 112.827 48.91C111.906 47.6702 110.861 46.4912 109.703 45.3843C107.609 43.6068 105.303 41.9944 103.035 40.3332C98.3085 36.8644 93.55 33.4267 88.8179 29.9754C87.0707 28.6885 85.3505 27.3881 83.5656 26.1499C78.9936 22.9507 74.3723 19.761 69.7951 16.5795L62.8069 11.7474C61.6813 12.5284 60.854 13.5452 60.4195 14.6818C59.9849 15.8183 59.9605 17.0292 60.3489 18.1763C62.0727 21.1928 64.5202 23.9126 67.5543 26.1834C70.0532 28.3324 73.0517 30.1283 75.7569 32.1299C79.2517 34.7061 83.0337 37.0242 87.0564 39.0556C87.6288 39.3835 88.1707 39.7438 88.678 40.1338C91.4738 41.9851 94.2323 43.8851 97.0648 45.6877C98.2931 46.3639 99.5686 46.9833 100.886 47.5425L116.533 55.1587ZM132.395 66.1165C131.421 65.5372 130.535 64.8696 129.756 64.1273C128.962 63.0904 127.625 63.4374 126.589 62.9868C126.413 62.9541 126.359 62.7401 126.213 62.6763C124.925 62.097 123.599 61.5737 122.239 61.1084C120.097 60.4537 117.759 59.9112 115.526 59.3323C113.358 58.7656 111.303 58.2938 109.245 57.6731C104.474 56.1993 99.7171 54.6728 94.9719 53.1855C93.5623 52.74 92.1271 52.3826 90.6938 51.8585C86.6696 50.3 82.7514 48.5385 78.6147 47.1263C75.2253 45.97 71.9119 44.6779 68.6872 43.2547C65.5668 41.9411 62.6701 40.3158 60.0674 38.4186C61.4036 37.7561 62.1761 38.3066 63.09 38.772C66.661 40.7081 70.3627 42.487 74.1787 44.1006C77.8913 45.5274 81.7541 46.7592 85.4683 48.2605C90.8728 50.4445 96.528 52.2482 102.139 54.0436C106.756 55.4888 111.49 56.6957 116.175 57.9866C116.605 58.0435 117.043 58.0494 117.476 58.0039C117.517 57.863 117.563 57.7047 117.605 57.5638C115.909 57.0188 114.251 56.4033 112.637 55.7201C108.537 53.9091 104.213 52.4401 99.7335 51.3367C95.3356 50.2229 91.0639 48.8146 86.9652 47.1268C83.081 45.4086 79.4184 43.4902 75.6263 41.6964C70.7277 39.4572 65.7387 37.3683 60.8503 35.094C59.6954 34.5263 58.3826 34.1934 57.0276 34.1246C55.6727 34.0558 54.3172 34.2534 53.081 34.6999C53.3329 35.3786 53.7109 36.0236 54.2025 36.6134C55.6749 37.8327 57.2307 38.9867 58.8626 40.07C63.3578 43.0312 68.3896 45.4352 73.7878 47.2006C81.7139 50.0167 89.7339 52.5904 97.8014 55.0801C103.218 56.7467 108.792 58.1088 114.317 59.5548C114.605 59.6078 115.025 59.3698 115.398 59.2902C116.312 59.8833 117.29 60.4112 118.32 60.868C122.657 62.3915 127.276 63.4289 131.109 65.8052C131.383 65.9857 131.758 65.9806 132.328 66.1043L132.395 66.1165ZM135.284 66.4455L134.719 66.7863L136.093 68.1528L136.609 67.8215L135.284 66.4455ZM80.9315 2.0679C80.4798 3.61706 81.6535 4.6312 82.4681 5.59768C84.4781 7.82344 86.7317 10.0941 88.786 12.3281C92.5646 16.5681 96.0927 20.9475 99.9855 25.1158C103.878 29.2842 106.946 33.2446 110.133 37.4313C110.959 38.661 111.883 39.8476 112.9 40.9837C115.339 43.294 117.312 45.8922 118.747 48.6849C119.601 50.7432 120.883 52.6728 122.54 54.3932C126.36 57.9358 129.727 61.7475 133.311 65.4509C133.507 65.3239 133.713 65.2069 133.927 65.1007C132.481 63.424 130.918 61.8189 129.631 60.0787C126.876 56.3244 125.232 52.1255 122.221 48.4537C120.49 46.3906 119.06 44.2534 117.34 42.2297C114.796 39.2002 112.081 36.2696 109.459 33.2631C106.837 30.2566 104.42 27.3437 101.861 24.4416L90.8597 11.616C89.9499 10.5764 89.1288 9.55305 88.185 8.46999C87.7718 7.96715 87.6056 7.41707 88.9332 6.86429C97.1058 15.7919 105.006 24.8547 112.634 34.0527C111.348 31.1635 109.542 28.4374 107.273 25.9592C103.165 21.0091 99.0932 16.1769 94.9576 11.2404C92.752 8.52759 90.051 6.09114 86.9427 4.01137C85.254 2.86623 83.146 2.18465 80.9315 2.0679ZM365.324 156.994C365.247 156.775 365.231 156.513 365.079 156.392C357.014 150.563 348.929 144.744 340.827 138.933C340.57 138.748 340.274 138.598 339.952 138.494C339.952 138.494 339.628 138.564 339.102 138.69C339.532 139.272 340.027 139.823 340.581 140.335C343.111 142.323 345.741 144.292 348.469 146.242C353.475 149.874 358.54 153.461 363.574 157.079C364.256 157.539 364.758 157.575 365.324 156.994ZM345.883 175.668C345.559 175.738 345.446 176.367 345.001 177.175C352.262 176.27 358.105 173.749 364.407 172.295C365.006 172.165 365.491 171.698 366.357 171.209C365.56 171.061 365.402 170.883 365.254 170.912C358.735 172.468 352.255 174.055 345.811 175.674L345.883 175.668ZM288.15 150.718C285.799 151.003 283.469 151.384 281.168 151.86C278.853 152.253 276.567 152.747 274.322 153.343C268.246 155.06 261.806 155.784 255.888 157.92C254.138 158.562 252.251 158.955 250.501 159.597C247.11 160.827 243.808 162.073 240.483 163.315C239.139 163.846 237.828 164.42 236.478 164.97L236.636 165.388C237.093 165.502 237.573 165.541 238.05 165.5C240.722 164.912 243.307 164.095 245.757 163.063C250.99 160.735 256.544 158.895 262.308 157.583C269.096 155.662 276.111 154.322 283.046 152.782C284.65 152.452 286.28 152.207 287.924 152.049C292.021 151.599 296.13 151.188 300.221 150.755L300.37 150.245C299.614 150.021 298.826 149.876 298.024 149.812C294.729 150.15 291.399 150.371 288.078 150.723L288.15 150.718ZM218.812 87.7318C214.785 84.9072 211.309 81.6215 208.499 77.9831C207.694 76.9533 206.775 75.983 205.752 75.0835L205.073 75.2546C205.072 75.7369 204.744 76.3814 205.098 76.6877C208.059 79.8121 211.048 82.9234 214.066 85.9289C215.394 87.2128 217.098 88.2499 218.545 89.4451C220.633 91.1658 222.634 92.9443 224.639 94.7056C224.91 95.0136 225.262 95.271 225.668 95.4617C226.076 95.6515 226.53 95.7704 227 95.8087L225.733 93.5162C224.869 92.9614 224.046 92.3699 223.264 91.7434C221.825 90.439 220.426 88.9938 218.812 87.7318ZM365.112 183.797C365.112 183.797 365.183 184.033 365.296 184.368C368.714 184.123 372.062 183.444 375.212 182.358C371.939 181.902 368.957 183.171 365.806 183.257C365.547 183.265 365.289 183.589 365.112 183.797Z" fill="#101A24"/>
</g>
</svg>
