<svg width="89" height="95" viewBox="0 0 89 95" fill="none" xmlns="http://www.w3.org/2000/svg">
<path d="M70.3348 23.5026C79.674 17.9652 84.5937 11.0216 81.3233 7.99377C78.053 4.96591 67.831 7.00038 58.4919 12.5378C49.1528 18.0753 44.2331 25.0188 47.5033 28.0467C50.7736 31.0745 60.9956 29.04 70.3348 23.5026Z" fill="#29C16E"/>
<path d="M39.0125 28.9404C41.8234 26.8578 37.8459 20.5342 30.1286 14.8163C22.4114 9.09834 13.8767 6.15134 11.0659 8.23394C8.25505 10.3165 12.2325 16.6402 19.9498 22.3581C27.667 28.076 36.2017 31.023 39.0125 28.9404Z" fill="#29C16E"/>
<path d="M76.8375 59.7077C80.9244 57.2851 78.1783 49.7113 70.7048 42.7915C63.2313 35.8719 53.8597 32.2267 49.7732 34.6498C45.6866 37.0728 48.4324 44.6465 55.9061 51.566C63.3795 58.4857 72.7512 62.1308 76.8375 59.7077Z" fill="#EF3C56"/>
<path d="M9.16284 62.3174C9.16284 69.5255 13.0275 76.4385 19.9065 81.5352C26.7856 86.6323 36.1157 89.4956 45.8441 89.4956C66.1032 89.4956 96.3426 64.8754 77.0815 60.2319C55.9493 55.1383 46.2033 35.6666 41.8236 35.3027C21.6916 33.6288 9.16284 47.3074 9.16284 62.3174Z" fill="#EF3C56"/>
<path d="M0.0177757 4.102C0.0281398 9.96212 2.15271 15.7137 6.17149 20.7609C10.1902 25.8082 15.957 29.9676 22.8747 32.8085C19.2492 34.2984 15.9228 36.1565 12.9919 38.3289C6.41705 43.1956 2.07421 49.4711 0.577975 56.2671C-0.918257 63.0631 0.507888 70.0359 4.65459 76.1983C8.80127 82.3607 15.4585 87.4012 23.6843 90.6061C31.9101 93.8105 41.2877 95.0178 50.4903 94.0561C59.6929 93.0943 68.2546 90.0131 74.9634 85.2477C81.6723 80.4824 86.1882 74.2748 87.8731 67.5029C89.558 60.7311 88.3263 53.7381 84.3515 47.5136C80.3773 41.2893 73.8613 36.1485 65.7267 32.8188C72.6537 29.9819 78.4284 25.8225 82.452 20.7727C86.4757 15.7229 88.601 9.96703 88.6071 4.1029C88.6071 3.56412 88.4643 3.03059 88.1859 2.5328C87.9081 2.035 87.5001 1.58269 86.9861 1.20169C86.4714 0.820693 85.861 0.518478 85.1891 0.31231C84.5178 0.106141 83.7977 5.80319e-05 83.0703 0.000116691C77.2509 -0.0114185 71.4858 0.832373 66.1099 2.48266C60.7335 4.13295 55.8521 6.55693 51.7486 9.61435C48.8168 11.7859 46.3092 14.2506 44.2986 16.9368C40.4674 11.8093 34.8543 7.53487 28.0415 4.55697C21.2287 1.57904 13.4645 0.00613214 5.55452 0.00145201C4.82758 0.00133473 4.10774 0.10731 3.43607 0.313318C2.76441 0.519326 2.15409 0.821336 1.63995 1.20211C1.12582 1.58288 0.717942 2.03495 0.439608 2.53252C0.161274 3.03008 0.0179339 3.5634 0.0177757 4.102ZM50.4132 28.2932C51.646 23.4138 54.8406 18.9245 59.5781 15.4142C64.3154 11.904 70.3746 9.53675 76.9599 8.62314C75.7179 13.4995 72.5199 17.9851 67.7846 21.4942C63.0487 25.0033 56.9946 27.3727 50.4132 28.2932ZM67.7918 44.1386C72.5307 47.6445 75.7269 52.1312 76.9599 57.0082C70.3818 56.0867 64.3304 53.7181 59.5967 50.2104C54.8627 46.7028 51.6653 42.2198 50.4217 37.3458C57.0043 38.2592 63.0595 40.6273 67.7918 44.1386ZM20.821 44.1306C25.7879 40.4311 32.2232 38.0072 39.1842 37.214C40.4891 44.3318 44.9075 50.9364 51.7626 56.0157C58.6176 61.0949 67.5309 64.369 77.1377 65.3361C76.3284 69.1764 74.303 72.8202 71.2273 75.9688C68.1522 79.1175 64.1141 81.6821 59.4437 83.452C54.7735 85.2223 49.6039 86.1479 44.3581 86.1532C39.1123 86.1581 33.9394 85.2433 29.2627 83.4823C24.5861 81.7214 20.5387 79.1652 17.4518 76.0224C14.3649 72.88 12.3263 69.2402 11.5028 65.4018C10.6793 61.5633 11.0944 57.6347 12.7139 53.9377C14.3336 50.2408 17.1117 46.881 20.821 44.1324V44.1306ZM11.6614 8.62895C18.2399 9.55032 24.291 11.9194 29.0251 15.427C33.7592 18.9347 36.9566 23.4181 38.2002 28.2923C31.622 27.3707 25.5713 25.0016 20.8377 21.4939C16.104 17.9863 12.907 13.503 11.6638 8.62895H11.6614Z" fill="#0E1E28" fill-opacity="0.2"/>
</svg>
