<svg width="32" height="56" viewBox="0 0 32 56" fill="none" xmlns="http://www.w3.org/2000/svg">
<path fill-rule="evenodd" clip-rule="evenodd" d="M16 0C24.8366 0 32 7.74284 32 17.2941C32 26.2899 25.6456 33.6814 17.5238 34.5108V52.7059C17.5238 53.6155 16.8416 54.3529 16 54.3529C15.1584 54.3529 14.4762 53.6155 14.4762 52.7059V34.5108C6.35439 33.6814 0 26.2899 0 17.2941C0 7.74284 7.16344 0 16 0Z" fill="#FF0000"/>
<path opacity="0.3" d="M16 56C18.1039 56 19.8095 55.0782 19.8095 53.9412C19.8095 52.8041 18.1039 51.8824 16 51.8824C13.8961 51.8824 12.1905 52.8041 12.1905 53.9412C12.1905 55.0782 13.8961 56 16 56Z" fill="#FF0000"/>
<g clip-path="url(#clip0_102_5)">
<path d="M19.8476 24.0127H20.9016C21.4349 24.0127 21.873 23.5735 21.9365 23.0108L22.9841 11.701H19.8095V8.92157H18.5587V11.701H15.4032L15.5936 13.3069C16.6794 13.6294 17.6952 14.2127 18.3048 14.8578C19.219 15.8324 19.8476 16.8412 19.8476 18.4882V24.0127ZM9.01587 23.3265V22.6471H18.5587V23.3265C18.5587 23.7039 18.273 24.0127 17.9175 24.0127H9.65714C9.30158 24.0127 9.01587 23.7039 9.01587 23.3265ZM18.5587 18.5225C18.5587 13.0324 9.01587 13.0324 9.01587 18.5225H18.5587ZM9.02857 19.902H18.5524V21.2745H9.02857V19.902Z" fill="white"/>
</g>
<defs>
<clipPath id="clip0_102_5">
<rect width="15.2381" height="16.4706" fill="white" transform="translate(8.38095 8.23529)"/>
</clipPath>
</defs>
</svg>
