<svg width="34" height="34" viewBox="0 0 34 39" fill="none" xmlns="http://www.w3.org/2000/svg">
<path fill-rule="evenodd" clip-rule="evenodd" d="M6 0C2.68629 0 0 2.68629 0 6V28C0 31.3137 2.68629 34 6 34H11.6184L15.6716 38.644C15.7759 38.756 15.9036 38.8456 16.0463 38.907C16.1891 38.9683 16.3436 39 16.5 39C16.6563 39 16.8109 38.9683 16.9537 38.907C17.0964 38.8456 17.2241 38.756 17.3284 38.644L21.3816 34H28C31.3137 34 34 31.3137 34 28V6C34 2.68629 31.3137 0 28 0H6Z" fill="white"/>
<path fill-rule="evenodd" clip-rule="evenodd" d="M13.1252 33.0831C12.7454 32.6423 12.196 32.3893 11.6184 32.3893H6C3.79086 32.3893 2 30.5752 2 28.3374V6.05191C2 3.8141 3.79086 2 6 2H28C30.2091 2 32 3.8141 32 6.05191V28.3374C32 30.5752 30.2091 32.3893 28 32.3893H21.3816C20.804 32.3893 20.2546 32.6423 19.8748 33.0831L16.5 37L13.1252 33.0831Z" fill="#FFAB33"/>
<g clip-path="url(#clip0_17_233)">
<path d="M22.05 26.1583H23.4333C24.1333 26.1583 24.7083 25.625 24.7917 24.9417L26.1667 11.2083H22V7.83333H20.3583V11.2083H16.2167L16.4667 13.1583C17.8917 13.55 19.225 14.2583 20.025 15.0417C21.225 16.225 22.05 17.45 22.05 19.45V26.1583ZM7.83334 25.325V24.5H20.3583V25.325C20.3583 25.7833 19.9833 26.1583 19.5167 26.1583H8.67501C8.20834 26.1583 7.83334 25.7833 7.83334 25.325ZM20.3583 19.4917C20.3583 12.825 7.83334 12.825 7.83334 19.4917H20.3583ZM7.85001 21.1667H20.35V22.8333H7.85001V21.1667Z" fill="white"/>
</g>
<defs>
<clipPath id="clip0_17_233">
<rect width="20" height="20" fill="white" transform="translate(7 7)"/>
</clipPath>
</defs>
</svg>
