<svg xmlns="http://www.w3.org/2000/svg" viewBox="0 0 500 500"><g id="freepik--Background--inject-22"><path id="freepik--background--inject-22" d="M32.85,175.37a276,276,0,0,0-11.08,44.76l228.09,70.16ZM223.45,11.12l26.41,279.17,26.4-279.17ZM123,50.67,249.86,290.29,168.31,25.14A223.18,223.18,0,0,0,123,50.67ZM54,128.28l195.87,162L82.49,88A256.06,256.06,0,0,0,54,128.28Zm412.88,47.09-217,114.92,228.08-70.16A277,277,0,0,0,466.87,175.37Zm-217,114.92H480.44q.94-10.85,1.06-21.92Zm-230.59,0H249.86L18.21,268.37Q18.33,279.46,19.27,290.29ZM417.22,88,249.86,290.29l195.86-162A256.06,256.06,0,0,0,417.22,88ZM331.4,25.14,249.86,290.29,376.75,50.67A223.52,223.52,0,0,0,331.4,25.14Z" style="fill:#E91E63;opacity:0.2"></path></g><g id="freepik--Shadow--inject-22"><ellipse id="freepik--shadow--inject-22" cx="418.29" cy="353.4" rx="60.51" ry="34.94" style="fill:#e0e0e0"></ellipse><ellipse id="freepik--shadow--inject-22" cx="245.94" cy="434.52" rx="81.24" ry="46.9" style="fill:#e0e0e0"></ellipse><ellipse id="freepik--shadow--inject-22" cx="120.52" cy="326.59" rx="107.71" ry="62.19" style="fill:#e0e0e0"></ellipse><polygon id="freepik--shadow--inject-22" points="392.23 380.88 362.44 398.08 294.35 358.77 324.14 341.57 392.23 380.88" style="fill:#e0e0e0"></polygon></g><g id="freepik--Drink--inject-22"><g id="freepik--Soda--inject-22"><g id="freepik--Coffe--inject-22"><path d="M358,195.73l120.66.15L466.29,354.45h-.11c-.53,5.77-5.07,11.47-13.71,15.88-18.43,9.4-48.83,9.4-67.89,0-8.94-4.41-13.63-10.11-14.19-15.88h-.11Z" style="fill:#455a64"></path><path d="M352.32,196.1V171H366a58.76,58.76,0,0,1,6-3.28c26.2-12.48,68-12.48,93.29,0A55.76,55.76,0,0,1,471,171h13.26V196.1h0c0,8.17-6.33,16.35-19,22.58-25.33,12.48-67.09,12.48-93.29,0C358.87,212.45,352.32,204.27,352.32,196.1Z" style="fill:#e6e6e6"></path><path d="M372,148.42c26.2-12.47,68-12.47,93.29,0s25.32,32.7,0,45.17-67.09,12.48-93.29,0S345.77,160.9,372,148.42Z" style="fill:#f5f5f5"></path></g><path d="M367.25,315.34c40.95,3.5,88.33-23.25,106.78-60.53l1.75-22.5c-17.22,39.68-67.36,68.56-110,64.14Z" style="fill:#E91E63"></path><path d="M368.27,328.48c39.85,2.91,85.49-22.53,104.57-58.27l1.19-15.4c-18.45,37.28-65.83,64-106.78,60.53Z" style="fill:#E91E63"></path><path d="M368.27,328.48c39.85,2.91,85.49-22.53,104.57-58.27l1.19-15.4c-18.45,37.28-65.83,64-106.78,60.53Z" style="fill:#fff;opacity:0.30000000000000004"></path><path d="M369.06,338.74c39,2.47,83.4-22,102.85-56.67l.93-11.86c-19.08,35.74-64.72,61.18-104.57,58.27Z" style="fill:#E91E63"></path><path d="M369.06,338.74c39,2.47,83.4-22,102.85-56.67l.93-11.86c-19.08,35.74-64.72,61.18-104.57,58.27Z" style="fill:#fff;opacity:0.6000000000000001"></path><path d="M411.88,167.88a16.77,16.77,0,0,1,12.9,0c3.5,1.73,3.5,4.53,0,6.25a16.77,16.77,0,0,1-12.9,0C408.26,172.41,408.26,169.61,411.88,167.88Z" style="fill:#37474f"></path><path d="M404.8,107l-18.1,13.6,5.05,8.83L409,116.56c2-1.51,4.61.19,4.63,3l.5,51.44h8.1V118.43C422.19,107.82,412.35,101.37,404.8,107Z" style="fill:#37474f"></path><path d="M391.31,123.43c1.36,2.45,1.56,5.15.44,6s-3.13-.4-4.49-2.85-1.56-5.15-.44-6S390,121,391.31,123.43Z" style="fill:#263238"></path></g></g><g id="freepik--Fries--inject-22"><g id="freepik--fries--inject-22"><path d="M315.6,261.7h0c0-27.78,16.9-40.55,37.74-28.52s37.73,44.31,37.73,72.09h0l-9.82,72.17-55.83-32.23L315.6,261.7Z" style="fill:#E91E63"></path><path d="M315.6,261.7h0c0-27.78,16.9-40.55,37.74-28.52s37.73,44.31,37.73,72.09h0l-9.82,72.17-55.83-32.23L315.6,261.7Z" style="fill:#fff;opacity:0.15"></path><polygon points="325.42 345.21 302.42 358.48 292.61 274.98 315.61 261.7 325.42 345.21" style="fill:#E91E63"></polygon><polygon points="316.03 334.28 321.37 247.06 312.26 244.65 307.94 330.22 316.03 334.28" style="fill:#ffbda7"></polygon><polygon points="321.37 247.06 327.42 245.99 323.51 325.56 316.03 334.28 321.37 247.06" style="fill:#f0997a"></polygon><polygon points="327.42 245.99 316.03 240.79 312.26 244.65 321.37 247.06 327.42 245.99" style="fill:#ffbda7"></polygon><polygon points="327.42 245.99 316.03 240.79 312.26 244.65 321.37 247.06 327.42 245.99" style="fill:#fff;opacity:0.30000000000000004"></polygon><polygon points="359.96 360.49 384.86 276.73 376.52 272.32 352.99 354.7 359.96 360.49" style="fill:#ffbda7"></polygon><polygon points="384.86 276.73 390.99 277.06 369.21 353.68 359.96 360.49 384.86 276.73" style="fill:#f0997a"></polygon><polygon points="390.99 277.06 381.07 269.42 376.52 272.32 384.86 276.73 390.99 277.06" style="fill:#ffbda7"></polygon><polygon points="390.99 277.06 381.07 269.42 376.52 272.32 384.86 276.73 390.99 277.06" style="fill:#fff;opacity:0.30000000000000004"></polygon><polygon points="331.58 332.39 356.5 248.64 348.17 244.23 324.62 326.61 331.58 332.39" style="fill:#ffbda7"></polygon><polygon points="356.5 248.64 362.63 248.97 340.84 325.58 331.58 332.39 356.5 248.64" style="fill:#f0997a"></polygon><polygon points="362.63 248.97 352.71 241.33 348.17 244.23 356.5 248.64 362.63 248.97" style="fill:#ffbda7"></polygon><polygon points="362.63 248.97 352.71 241.33 348.17 244.23 356.5 248.64 362.63 248.97" style="fill:#fff;opacity:0.30000000000000004"></polygon><polygon points="331.77 325.23 337.12 238.01 328 234.07 323.68 321.17 331.77 325.23" style="fill:#ffbda7"></polygon><polygon points="337.12 238.01 343.16 234.88 339.25 316.51 331.77 325.23 337.12 238.01" style="fill:#f0997a"></polygon><polygon points="343.16 234.88 334.58 232.28 328 234.07 337.12 238.01 343.16 234.88" style="fill:#ffbda7"></polygon><polygon points="343.16 234.88 334.58 232.28 328 234.07 337.12 238.01 343.16 234.88" style="fill:#fff;opacity:0.30000000000000004"></polygon><polygon points="309.2 347.88 305.84 260.56 297.16 257.96 303.18 344.24 309.2 347.88" style="fill:#ffbda7"></polygon><polygon points="305.84 260.56 313.17 252.23 315.77 338.46 309.2 347.88 305.84 260.56" style="fill:#f0997a"></polygon><polygon points="313.17 252.23 303.07 251.16 297.16 257.96 305.84 260.56 313.17 252.23" style="fill:#ffbda7"></polygon><polygon points="313.17 252.23 303.07 251.16 297.16 257.96 305.84 260.56 313.17 252.23" style="fill:#fff;opacity:0.30000000000000004"></polygon><polygon points="342.33 356.4 365.98 272.28 356.35 263.7 335.28 350.72 342.33 356.4" style="fill:#ffbda7"></polygon><polygon points="365.98 272.28 375.52 266.6 351.48 349.45 342.33 356.4 365.98 272.28" style="fill:#f0997a"></polygon><polygon points="375.52 266.6 364.06 259.05 356.35 263.7 365.98 272.28 375.52 266.6" style="fill:#ffbda7"></polygon><polygon points="375.52 266.6 364.06 259.05 356.35 263.7 365.98 272.28 375.52 266.6" style="fill:#fff;opacity:0.30000000000000004"></polygon><polygon points="340.12 358.34 319.85 273.34 310.77 271.05 334.7 357.32 340.12 358.34" style="fill:#ffbda7"></polygon><polygon points="319.85 273.34 323.86 265.68 343.16 349.76 340.12 358.34 319.85 273.34" style="fill:#f0997a"></polygon><polygon points="323.86 265.68 315.25 263.23 310.77 271.05 319.85 273.34 323.86 265.68" style="fill:#ffbda7"></polygon><polygon points="323.86 265.68 315.25 263.23 310.77 271.05 319.85 273.34 323.86 265.68" style="fill:#fff;opacity:0.30000000000000004"></polygon><polygon points="354.59 373.45 371.99 287.82 363.3 284.17 347.14 368.31 354.59 373.45" style="fill:#ffbda7"></polygon><polygon points="371.99 287.82 378.13 287.61 363.2 365.85 354.59 373.45 371.99 287.82" style="fill:#f0997a"></polygon><polygon points="378.13 287.61 367.57 280.88 363.3 284.17 371.99 287.82 378.13 287.61" style="fill:#ffbda7"></polygon><polygon points="378.13 287.61 367.57 280.88 363.3 284.17 371.99 287.82 378.13 287.61" style="fill:#fff;opacity:0.30000000000000004"></polygon><polygon points="381.25 377.44 358.25 390.71 368.07 318.54 391.07 305.27 381.25 377.44" style="fill:#E91E63"></polygon><polygon points="302.42 358.48 358.25 390.71 368.07 318.54 292.61 274.98 302.42 358.48" style="fill:#E91E63"></polygon><polygon points="302.42 358.48 358.25 390.71 368.07 318.54 292.61 274.98 302.42 358.48" style="fill:#fff;opacity:0.30000000000000004"></polygon></g></g><g id="freepik--Burger--inject-22"><g id="freepik--burger--inject-22"><path d="M187.37,265.62c-36.8-21.24-96.45-21.24-133.25,0C35.76,276.22,26.62,290.1,26.61,304c0,3,0,14.89,0,17.85-.05,13.93,9.09,27.87,27.51,38.5,36.8,21.25,96.45,21.25,133.25,0,18.36-10.6,27.5-24.48,27.51-38.37,0-3,0-14.92,0-17.9C214.9,290.15,205.76,276.24,187.37,265.62Z" style="fill:#ffbda7"></path><ellipse cx="120.74" cy="304.09" rx="94.22" ry="54.4" style="fill:#f0997a"></ellipse><path d="M187.37,243.25c-36.8-21.25-96.45-21.25-133.25,0-18.36,10.6-27.5,24.48-27.51,38.37,0,3,0,14.88,0,17.84C26.56,313.4,35.7,327.33,54.12,338c36.8,21.24,96.45,21.24,133.25,0,18.36-10.6,27.5-24.49,27.51-38.38,0-3,0-14.92,0-17.9C214.9,267.78,205.76,253.86,187.37,243.25Z" style="fill:#b16668"></path><ellipse cx="120.74" cy="281.71" rx="94.22" ry="54.4" style="fill:#9a4a4d"></ellipse><path d="M187.53,261.7H54C39.08,283.43,39.1,318,39.08,324.81S39.9,335.9,51,333.47s40.94-8.39,69.76-8.39,58.67,5.95,69.76,8.39,11.92-1.88,11.9-8.66S202.41,283.43,187.53,261.7Z" style="fill:#f0f0f0"></path><path d="M42.39,310.22c3.11,4.49,6.72,8.43,13.09,10,5.32,1.34,10.92.84,16.35,1.65,11.19,1.69,18.72,9.32,28.74,13.35A30.44,30.44,0,0,0,114,337.39a49,49,0,0,0,14.74-3.87c7.55-3,14.81-6.8,22.6-9.13,6.07-1.83,12.56-2.73,18.86-1.63,5.25.92,10.57.78,15.58-1.59,9.29-4.39,12.43-16.4,20.85-22.28,6.64-4.64,16.44-5.45,20.34-12.55,2.8-5.09,1.15-11.75-2.62-16.17s-9.25-7-14.72-9c-10.19-3.67-21-5.33-31.7-6.44-24.23-2.5-48.56-3.94-72.9-4.58-24.14-.63-47.35-1.41-70.63,6.05-5.3,1.69-10.61,3.75-14.84,7.35s-7.27,9-6.74,14.55c.49,5.21,5.26,9.38,9.38,12.18,2.85,1.93,6.12,3.21,8.85,5.31C36.17,299.61,39,305.26,42.39,310.22Z" style="fill:#E91E63"></path><path d="M218,253.17l-.21-.75c-8.6-32.9-48.79-57.67-97-57.67s-88.51,24.77-97.11,57.67l-.2.75A32.79,32.79,0,0,0,22,264.32c.42,14.32,10.05,28.49,28.91,39.3,38.6,22.3,101.16,22.3,139.77,0,18.79-10.81,28.49-25,28.9-39.3A32.78,32.78,0,0,0,218,253.17Z" style="fill:#ffbda7"></path><path d="M198.11,286.68c-24.63,18.78-87.62,25-127.07,5.07s-41.19-53.6-28.64-69.24c-9.23,8.62-15.82,18.78-18.73,29.91l-.2.75A32.79,32.79,0,0,0,22,264.32c.42,14.32,10.05,28.49,28.91,39.3,38.6,22.3,101.16,22.3,139.77,0,18.79-10.81,28.49-25,28.9-39.3A32.78,32.78,0,0,0,218,253.17S219.56,270.33,198.11,286.68Z" style="fill:#f0997a"></path><g style="opacity:0.7000000000000001"><path d="M197.68,274.25a3.79,3.79,0,1,1,.84,5.29A3.79,3.79,0,0,1,197.68,274.25Z" style="fill:#fff"></path><path d="M203.35,240.14a3.79,3.79,0,1,1,.84,5.3A3.79,3.79,0,0,1,203.35,240.14Z" style="fill:#fff"></path><path d="M167,290.17a3.79,3.79,0,1,1,.84,5.3A3.79,3.79,0,0,1,167,290.17Z" style="fill:#fff"></path><path d="M172.67,256.07a3.79,3.79,0,1,1,.84,5.3A3.79,3.79,0,0,1,172.67,256.07Z" style="fill:#fff"></path><path d="M147.65,237.9a3.79,3.79,0,1,1,.84,5.29A3.79,3.79,0,0,1,147.65,237.9Z" style="fill:#fff"></path><path d="M178.34,222a3.79,3.79,0,1,1,.83,5.29A3.79,3.79,0,0,1,178.34,222Z" style="fill:#fff"></path><path d="M153.32,203.8a3.79,3.79,0,1,1,.84,5.29A3.78,3.78,0,0,1,153.32,203.8Z" style="fill:#fff"></path><path d="M136.32,306.1a3.79,3.79,0,1,1,.84,5.3A3.79,3.79,0,0,1,136.32,306.1Z" style="fill:#fff"></path><path d="M111.3,287.93a3.79,3.79,0,1,1,.84,5.29A3.79,3.79,0,0,1,111.3,287.93Z" style="fill:#fff"></path><path d="M142,272a3.79,3.79,0,1,1,.83,5.29A3.79,3.79,0,0,1,142,272Z" style="fill:#fff"></path><path d="M117,253.83a3.79,3.79,0,1,1,.84,5.29A3.78,3.78,0,0,1,117,253.83Z" style="fill:#fff"></path><path d="M80.62,303.86a3.79,3.79,0,1,1,.84,5.29A3.79,3.79,0,0,1,80.62,303.86Z" style="fill:#fff"></path><path d="M122.64,219.72a3.79,3.79,0,1,1,.84,5.3A3.78,3.78,0,0,1,122.64,219.72Z" style="fill:#fff"></path><path d="M97.62,201.55a3.79,3.79,0,1,1,.84,5.29A3.8,3.8,0,0,1,97.62,201.55Z" style="fill:#fff"></path><path d="M86.29,269.75a3.79,3.79,0,1,1,.84,5.3A3.79,3.79,0,0,1,86.29,269.75Z" style="fill:#fff"></path><path d="M61.27,251.58a3.79,3.79,0,1,1,.84,5.29A3.8,3.8,0,0,1,61.27,251.58Z" style="fill:#fff"></path><path d="M92,235.65a3.79,3.79,0,1,1,.83,5.29A3.79,3.79,0,0,1,92,235.65Z" style="fill:#fff"></path><path d="M66.94,217.48a3.79,3.79,0,1,1,.84,5.29A3.78,3.78,0,0,1,66.94,217.48Z" style="fill:#fff"></path><path d="M55.61,285.68a3.79,3.79,0,1,1,.84,5.29A3.79,3.79,0,0,1,55.61,285.68Z" style="fill:#fff"></path><path d="M30.59,267.51a3.79,3.79,0,1,1,.84,5.29A3.79,3.79,0,0,1,30.59,267.51Z" style="fill:#fff"></path><path d="M36.26,233.4a3.79,3.79,0,1,1,.84,5.3A3.79,3.79,0,0,1,36.26,233.4Z" style="fill:#fff"></path></g></g></g><g id="freepik--speech-bubble--inject-22"><g id="freepik--speech-bubble--inject-22"><path d="M197.37,110.18c-6.11,18.95-22.68,33.63-83.59,43.61h0l3.45,18.35L95.79,155.79c-.36.05-36.64,3.45-54-9.77-17-13-21-34.41-13.67-49.54,14-28.77,54.11-35,89.43-39.39,37.82-4.71,61.11.29,73.69,15.72C203.65,88,198.53,106.6,197.37,110.18Z" style="fill:#fff"></path><path d="M117.21,173.14a1,1,0,0,1-.6-.21L95.49,156.82c-4.19.36-37.63,2.69-54.27-10-18.51-14.11-21-36.22-14-50.77,13.73-28.2,50.5-35,90.2-39.95,38.08-4.74,61.79.37,74.6,16.09s7.46,34.65,6.27,38.3c-6.19,19.21-22.77,34.07-83.39,44.13L118.19,172a1,1,0,0,1-.45,1A1,1,0,0,1,117.21,173.14ZM95.78,154.79a1.07,1.07,0,0,1,.62.2l19.35,14.77-3-15.79a1,1,0,0,1,.9-1.18c60.38-9.9,76.74-24.32,82.74-42.92h0c1.13-3.49,6.15-21.63-5.92-36.43-12.34-15.13-35.47-20-72.8-15.36C78.57,63,42.34,69.61,29.05,96.91c-6.55,13.48-4.08,35,13.38,48.31,17.09,13,52.89,9.62,53.24,9.58Z" style="fill:#E91E63"></path></g></g><g id="freepik--text-3--inject-22"><path d="M360.58,449.1a2.41,2.41,0,0,1,2.18,0l4.26,2.46a.67.67,0,0,1,0,1.26l-12,6.95L360.5,463l11.23-6.48a2.41,2.41,0,0,1,2.18,0l4.26,2.46a.74.74,0,0,1,.45.63.72.72,0,0,1-.45.62l-11.23,6.49,8.7,5a.66.66,0,0,1,0,1.25L370.37,476a2.5,2.5,0,0,1-2.18,0l-26-15a.73.73,0,0,1-.44-.62.74.74,0,0,1,.44-.63Z" style="fill:#e0e0e0"></path><path d="M377.93,439.08a29,29,0,0,1,5.31-2.41,21.89,21.89,0,0,1,5.26-1.08,17.67,17.67,0,0,1,5.13.36,16.94,16.94,0,0,1,4.87,1.9c2,1.17,3.27,2.37,3.76,3.62a4,4,0,0,1-.5,3.8l14.57,2.65a1.6,1.6,0,0,1,.56.18.6.6,0,0,1,.37.51.63.63,0,0,1-.37.51l-5.47,3.16a3,3,0,0,1-1.51.46,9.39,9.39,0,0,1-1.27-.11l-13.08-2.39-3.7,2.14,8.61,5a.72.72,0,0,1,.44.63.71.71,0,0,1-.44.62l-5.27,3a2.5,2.5,0,0,1-2.18,0l-26-15a.67.67,0,0,1,0-1.26Zm7.65,9.67,4.55-2.62a5.06,5.06,0,0,0,2.15-2c.31-.67-.1-1.34-1.23-2a5.21,5.21,0,0,0-3.44-.71,9.88,9.88,0,0,0-3.44,1.25l-4.55,2.62Z" style="fill:#e0e0e0"></path><path d="M435.81,430.77a2.14,2.14,0,0,1,1.09-.26,2.11,2.11,0,0,1,1.08.26l4.27,2.46a.72.72,0,0,1,.44.63.74.74,0,0,1-.44.62l-19.08,11a2.14,2.14,0,0,1-1.09.25,2.11,2.11,0,0,1-1.08-.25l-26-15a.67.67,0,0,1,0-1.26l18.75-10.83a2.5,2.5,0,0,1,2.18,0l4.26,2.47a.66.66,0,0,1,0,1.25l-12.39,7.16,4.34,2.51,11.51-6.65a2.5,2.5,0,0,1,2.18,0l4.26,2.46a.75.75,0,0,1,.45.63.74.74,0,0,1-.45.63l-11.51,6.65,4.51,2.6Z" style="fill:#e0e0e0"></path><path d="M461.69,415.82a2.14,2.14,0,0,1,1.09-.25,2.11,2.11,0,0,1,1.08.25l4.27,2.47a.72.72,0,0,1,.44.62.74.74,0,0,1-.44.63l-19.08,11a2.48,2.48,0,0,1-2.17,0l-26-15a.67.67,0,0,1,0-1.26l18.75-10.83a2.5,2.5,0,0,1,2.18,0l4.26,2.46a.76.76,0,0,1,.45.63.74.74,0,0,1-.45.63l-12.39,7.16,4.34,2.51,11.51-6.65a2.17,2.17,0,0,1,1.09-.26,2.28,2.28,0,0,1,1.09.26l4.26,2.46a.67.67,0,0,1,0,1.26l-11.51,6.64,4.51,2.61Z" style="fill:#e0e0e0"></path></g><g id="freepik--text-2--inject-22"><path d="M81.94,405a.64.64,0,0,1,.39.55.65.65,0,0,1-.39.56l-3.78,2.17a2.26,2.26,0,0,1-1,.27c-.38,0-.71,0-1,0l-8.65,0a6,6,0,0,1,2.12,4c0,1.32-.87,2.52-2.72,3.58a14.59,14.59,0,0,1-8.83,1.89,24,24,0,0,1-9.78-3.3,16.7,16.7,0,0,1-3.93-3A7,7,0,0,1,42.69,409a3.55,3.55,0,0,1,.18-2.5,4.45,4.45,0,0,1,1.81-1.93,1.52,1.52,0,0,1,.79-.19,1.46,1.46,0,0,1,.78.19l4.48,2.58c.5.29.77.58.8.86s.09.59.15.92a2.94,2.94,0,0,0,.51,1.14A5.74,5.74,0,0,0,54,411.51a10.66,10.66,0,0,0,3.4,1.3,4.13,4.13,0,0,0,2.94-.4c.82-.48,1.06-1,.69-1.69a5.89,5.89,0,0,0-2.26-2l-3-1.71a.64.64,0,0,1-.4-.55.65.65,0,0,1,.4-.56l3.06-1.76a2.13,2.13,0,0,1,1-.27c.38,0,.73,0,1.06,0l7.58,0-9.28-5.36a.68.68,0,0,1-.4-.56.65.65,0,0,1,.4-.55L63,395.2a2.12,2.12,0,0,1,1.92,0Z" style="fill:#e0e0e0"></path><path d="M98.3,414.06a12.15,12.15,0,0,1,3.81,3.1,4.85,4.85,0,0,1,1.08,3,4.66,4.66,0,0,1-1.19,2.86,12.71,12.71,0,0,1-3,2.55c-1,.62-2,1.25-3.13,1.89s-2.18,1.23-3.2,1.77A23,23,0,0,1,88.3,431a19.28,19.28,0,0,1-5,.69,21.15,21.15,0,0,1-5.28-.63,20.39,20.39,0,0,1-5.38-2.19,12.22,12.22,0,0,1-3.8-3.11,4.9,4.9,0,0,1-1.09-3.05A4.8,4.8,0,0,1,69,419.83a12.77,12.77,0,0,1,3-2.55c.92-.59,1.94-1.2,3.06-1.85s2.2-1.24,3.27-1.8a22.71,22.71,0,0,1,4.41-1.71,19.42,19.42,0,0,1,5-.69,21.2,21.2,0,0,1,5.28.63A20.37,20.37,0,0,1,98.3,414.06Zm-12,11.32c2.11-1.11,4.11-2.27,6-3.46a9.12,9.12,0,0,0,1.37-1.1,2.32,2.32,0,0,0,.68-1.1,1.5,1.5,0,0,0-.27-1.16,4.27,4.27,0,0,0-1.46-1.22,7.32,7.32,0,0,0-2.1-.84,6.93,6.93,0,0,0-2-.15,8.23,8.23,0,0,0-1.94.38,10.62,10.62,0,0,0-1.88.8,66.64,66.64,0,0,0-6,3.45,7.64,7.64,0,0,0-1.41,1.08,2.08,2.08,0,0,0-.65,1.12,1.54,1.54,0,0,0,.28,1.17,4.37,4.37,0,0,0,1.46,1.21,7.27,7.27,0,0,0,4.13,1,8,8,0,0,0,1.94-.38A14.36,14.36,0,0,0,86.31,425.38Z" style="fill:#e0e0e0"></path><path d="M130.79,434a6.68,6.68,0,0,1,1,0,2.56,2.56,0,0,1,.94.34l2.92,1.69c.26.15.4.3.43.47s-.07.31-.29.43a.76.76,0,0,1-.21.08,1.52,1.52,0,0,1-.32.06l-40.7,3.21a5.7,5.7,0,0,1-1,0,2.63,2.63,0,0,1-.94-.34l-2.92-1.69c-.26-.15-.4-.3-.42-.47s.07-.31.28-.43a1.17,1.17,0,0,1,.21-.08,1.65,1.65,0,0,1,.32-.06Zm-13.1-2.71a21.46,21.46,0,0,1-2.7,1.56,11.81,11.81,0,0,1-2.38.91,11.22,11.22,0,0,1-2.64.33,11.48,11.48,0,0,1-2.81-.37,11.3,11.3,0,0,1-2.81-1.18,7,7,0,0,1-2-1.62,2.58,2.58,0,0,1-.62-1.61,2.54,2.54,0,0,1,.57-1.52,6.1,6.1,0,0,1,1.55-1.39c.42-.3.85-.57,1.26-.81s.9-.49,1.44-.75a11.7,11.7,0,0,1,2.4-.89,10.85,10.85,0,0,1,2.64-.33,10.48,10.48,0,0,1,2.79.36,10.9,10.9,0,0,1,2.81,1.17,6.85,6.85,0,0,1,2,1.62,2.36,2.36,0,0,1,0,3.13A6.1,6.1,0,0,1,117.69,431.29ZM121.75,448a23,23,0,0,1-2.7,1.56,11.9,11.9,0,0,1-2.39.91,10.24,10.24,0,0,1-2.63.33,11.18,11.18,0,0,1-5.62-1.54,7,7,0,0,1-2-1.63,2.5,2.5,0,0,1-.62-1.61,2.56,2.56,0,0,1,.57-1.52,6,6,0,0,1,1.54-1.39c.43-.3.85-.57,1.27-.81s.89-.49,1.44-.75a11.7,11.7,0,0,1,2.4-.89,11.34,11.34,0,0,1,2.63-.33,10.55,10.55,0,0,1,2.8.36,11.81,11.81,0,0,1,2.81,1.17,6.79,6.79,0,0,1,2,1.62,2.56,2.56,0,0,1,.63,1.62,2.73,2.73,0,0,1-.57,1.52A6.46,6.46,0,0,1,121.75,448Zm-13.63-19.33a2.48,2.48,0,0,0-1,1c-.11.29.1.59.62.89a2.48,2.48,0,0,0,1.55.36,5.71,5.71,0,0,0,1.76-.58,17.65,17.65,0,0,0,2.35-1.36,2.49,2.49,0,0,0,1-1c.11-.29-.1-.59-.62-.89a2.48,2.48,0,0,0-1.55-.36,5.51,5.51,0,0,0-1.76.59A17.62,17.62,0,0,0,108.12,428.68Zm4.06,16.72a2.54,2.54,0,0,0-1,1c-.11.29.1.59.62.89a2.39,2.39,0,0,0,1.54.36,5.58,5.58,0,0,0,1.77-.58,16.5,16.5,0,0,0,2.34-1.36,2.59,2.59,0,0,0,1-1c.11-.3-.1-.6-.62-.9a2.5,2.5,0,0,0-1.55-.36,5.51,5.51,0,0,0-1.76.59A17,17,0,0,0,112.18,445.4Z" style="fill:#e0e0e0"></path><path d="M49.07,434.56a19.36,19.36,0,0,1,4.63-1.66,21.5,21.5,0,0,1,5.23-.52,24.49,24.49,0,0,1,5.48.79,21.86,21.86,0,0,1,5.41,2.23,13.34,13.34,0,0,1,3.86,3.12,5.9,5.9,0,0,1,1.37,3.17,4.72,4.72,0,0,1-.89,3,10,10,0,0,1-2.89,2.67q-1.45.93-3.12,1.89T64.94,451a19.44,19.44,0,0,1-4.62,1.66,22.18,22.18,0,0,1-5.25.53,22.92,22.92,0,0,1-5.5-.8,21.89,21.89,0,0,1-5.37-2.23,13.69,13.69,0,0,1-3.9-3.12A5.63,5.63,0,0,1,39,443.92a4.75,4.75,0,0,1,.91-3,9.85,9.85,0,0,1,2.88-2.67c.93-.59,1.94-1.21,3.06-1.85S48,435.12,49.07,434.56Zm9.47,12.58,1.49-.79c.55-.28,1.09-.58,1.64-.9s1.06-.63,1.55-.93l1.29-.84a5,5,0,0,0,1.27-1.16,2.11,2.11,0,0,0,.44-1.24,2.08,2.08,0,0,0-.5-1.29,5.3,5.3,0,0,0-1.6-1.3,9,9,0,0,0-4.48-1.21,8.55,8.55,0,0,0-2.15.26,9.47,9.47,0,0,0-2,.73c-.45.2-.94.45-1.46.73s-1.06.59-1.6.91-1.08.62-1.59.93-.95.6-1.33.88a3.3,3.3,0,0,0-1.72,2.41c-.06.87.64,1.73,2.11,2.58a8.33,8.33,0,0,0,4.45,1.21A10.51,10.51,0,0,0,58.54,447.14Z" style="fill:#e0e0e0"></path><path d="M101.94,454.37a.65.65,0,0,1,.4.55.67.67,0,0,1-.39.56l-3.78,2.17a2.12,2.12,0,0,1-1.92,0l-10.64-6.14-4.87,2.81,9.93,5.74a.58.58,0,0,1,0,1.1l-3.77,2.18a2,2,0,0,1-1,.23,1.89,1.89,0,0,1-1-.23l-9.92-5.73-7.69,4.44a2.2,2.2,0,0,1-1.92,0l-4.66-2.69a.65.65,0,0,1-.39-.56.64.64,0,0,1,.39-.55l23-13.27a1.92,1.92,0,0,1,1-.23,1.89,1.89,0,0,1,1,.23Z" style="fill:#e0e0e0"></path><path d="M123.9,467a.59.59,0,0,1,0,1.11l-3.77,2.18a1.89,1.89,0,0,1-1,.22,1.93,1.93,0,0,1-1-.22l-10.63-6.15L102.69,467l9.93,5.73a.59.59,0,0,1,0,1.11L108.85,476a2.2,2.2,0,0,1-1.92,0L97,470.29l-7.69,4.43a2.12,2.12,0,0,1-1.92,0L82.73,472a.64.64,0,0,1-.39-.55.65.65,0,0,1,.39-.56l23-13.27a2.2,2.2,0,0,1,1.92,0Z" style="fill:#e0e0e0"></path></g><g id="freepik--Character--inject-22"><g id="freepik--character--inject-22"><g id="freepik--Bottom--inject-22"><path d="M198.8,409.15c2.36-16.28,1.43-29,4.63-54.42h0c.59-6.54,1.33-13.54,2.22-19.74,3-20.87,6.73-27.81,7.32-31.83,0,0,2.9-32.6,7.57-78.39,2.19-21.54,8.92-27.63,14.74-38.73l59.42,4.27c4.61,28.75,2.06,90.55-.23,119.68-1.17,14.85-12.88,93.9-13.13,95.72-.89,6.46-.51,9.06,1.84,12,4.91,6.09,12.24,12.08,18.55,17.54-1.15,2.48-9.16,1.81-13-.41A101.58,101.58,0,0,1,274.6,424.3c-5.18-4.45-12-8.21-11.6-14.39a6.42,6.42,0,0,0-.11-1.12c.16-3.61-4.42-57.38-4.24-69.77.16-10.65,2.75-28.56,2.75-28.56L257.78,265s-6.12,26.26-11.7,44.09c-4.53,14.51-12.07,39.29-17.29,57.18h0c-5.26,20.65-11.85,35.15-13.55,45.56-.47,2.48-5.07,26.83-6.64,32.37s-13.84,4.81-13.94-4.92C194.6,432.83,198.35,412.21,198.8,409.15Z" style="fill:#c8856a"></path><path d="M257.78,265l7.34-32s19.51-.91,27-7.16c0,0-9.77,11.88-23,13l-7.44,26.47-.29,44.8Z" style="fill:#f28f8f"></path><path d="M312.61,442.56c.34,0,.63,3.8-1.31,5.27-2.24,1.71-8.68,4.34-16.87,2.77s-12.5-4.4-15.64-7.37-7.52-7.14-11.21-8.2c-3.42-1-7.09-2.78-8.13-3.92s-.6-5.89-.6-5.89Z" style="fill:#263238"></path><path d="M262.85,407s-.63,0-.91,1.07c-.33,1.3-.84,5.1-1.52,7.23-.94,3-1.82,9.06-1.52,11.53s5.86,4.51,9.39,6.11,7.7,4.79,11.25,8.11,11.65,7.14,17,7.55c8.21.62,13.66-1.28,15.48-4.14,2.26-3.52.8-5.74-8.38-10.69-1.73-.93-7.78-5-9.84-6.51a49.61,49.61,0,0,1-6.13-5.17,37.08,37.08,0,0,1-2.71-3,12.85,12.85,0,0,1-2.2-3.2c-.09-.26-.15-.55-.23-.82a13.25,13.25,0,0,1-.48-2.25c-.1-.79-.13-1.94-.85-2.46a6.26,6.26,0,0,0-3.35-.6,26.57,26.57,0,0,0-3.67.29c-1.41.23-3,.25-3.93,1.51a7,7,0,0,0-1,3.37c-.06.55-.08,1.11-.12,1.66,0,.23.06.66-.27.54s-.6-.95-.71-1.24c-.22-.64-.35-1.31-.6-1.93a9.83,9.83,0,0,0-1.05-2.07,9.35,9.35,0,0,0-1.4-1.61,15.18,15.18,0,0,1-1.55-1.15A3.79,3.79,0,0,1,262.85,407Z" style="fill:#37474f"></path><path d="M305.15,434.63c-11.94.09-16.13,7.2-16.92,11.72a28.42,28.42,0,0,0,8.34,2.29c8.21.62,14-1.26,15.82-4.11C314.52,441.2,313.39,438.34,305.15,434.63Z" style="fill:#fafafa"></path><path d="M287.32,433.66a.57.57,0,0,1-.36-.16.57.57,0,0,1,0-.82,14,14,0,0,1,11-3.58.58.58,0,0,1-.2,1.15c-4-.68-8.55,1.69-10,3.22A.55.55,0,0,1,287.32,433.66Z" style="fill:#f0f0f0"></path><path d="M282.38,430.36a.61.61,0,0,1-.36-.15.59.59,0,0,1,0-.83,14,14,0,0,1,11-3.58.58.58,0,0,1-.2,1.15c-4-.68-8.55,1.7-10,3.23A.58.58,0,0,1,282.38,430.36Z" style="fill:#f0f0f0"></path><path d="M277.84,426.66a.61.61,0,0,1-.36-.15.58.58,0,0,1,0-.82,14,14,0,0,1,11-3.59.58.58,0,1,1-.19,1.15c-4-.68-8.56,1.7-10,3.23A.58.58,0,0,1,277.84,426.66Z" style="fill:#f0f0f0"></path><path d="M273.4,423a.59.59,0,0,1-.4-1c2.46-2.74,7.72-4.32,12-3.58a.57.57,0,0,1,.47.67.58.58,0,0,1-.67.48c-3.86-.66-8.76.78-10.94,3.21A.57.57,0,0,1,273.4,423Z" style="fill:#f0f0f0"></path><path d="M212.13,448.89c-.73,5.58-1.86,9.23-4.09,12.38s-6,3.91-9.78,2.67-8.41-4.16-9.15-9.07-1.14-8.27.09-13.41Z" style="fill:#263238"></path><path d="M199.08,407.16c-1.58,0-2.58,7.5-4,15-1.54,8-4.19,11.17-5.54,17.73-1.53,7.5-.52,11,1.8,15.73s11.39,9.93,16.48,3.71c4.16-5.07,4.74-11,4.94-18.56a168.45,168.45,0,0,1,1.88-19.11c.71-5.64,2.38-11.26,1.06-12-.16.82-.34,1.87-.51,2.68a13.65,13.65,0,0,1-.72,3c-.19.41-.57.83-.67.14a4.44,4.44,0,0,1,.11-1.41c.37-2.07-.66-2.32-1.22-2.52a68,68,0,0,0-7.19-1.55c-1.19-.17-5.3-.65-5.89,0a4.6,4.6,0,0,0-.68,2.15c-.22,1.12-.54,1.94-.55,1.58,0-.82.3-2.93.35-3.44s.19-1.15.23-1.64S199,407.64,199.08,407.16Z" style="fill:#37474f"></path><path d="M188.77,444.22a18.88,18.88,0,0,0,2.1,11.7c2.32,4.77,12.14,10,17.23,3.78,2.54-3.09,3.43-6.9,4-10.81C209.72,443.64,193.45,440.23,188.77,444.22Z" style="fill:#fafafa"></path><path d="M209.31,440.41a.6.6,0,0,1-.19-.06c-.06,0-7.09-3.55-14.26-2.43a.58.58,0,1,1-.18-1.15c7.58-1.18,14.75,2.42,15,2.56a.59.59,0,0,1,.22.8A.56.56,0,0,1,209.31,440.41Z" style="fill:#f0f0f0"></path><path d="M195.61,432.31a.59.59,0,0,1-.46-.43.59.59,0,0,1,.42-.71c7.19-1.87,14.72,2.26,15,2.43a.58.58,0,0,1,.19.8.59.59,0,0,1-.8.19c-.07,0-7.41-4-14.1-2.29A.69.69,0,0,1,195.61,432.31Z" style="fill:#f0f0f0"></path><path d="M196.24,427a.61.61,0,0,1-.46-.42.58.58,0,0,1,.41-.71c7.91-2.22,15,2.22,15.29,2.4a.59.59,0,0,1,.14.81.57.57,0,0,1-.81.14c-.06,0-6.94-4.29-14.31-2.23A.76.76,0,0,1,196.24,427Z" style="fill:#f0f0f0"></path><path d="M197,421.8a.56.56,0,0,1-.45-.41.57.57,0,0,1,.39-.72c7.43-2.19,15.1,2.38,15.38,2.58a.58.58,0,1,1-.65,1c-.06,0-7.5-4.46-14.4-2.42A.62.62,0,0,1,197,421.8Z" style="fill:#ebebeb"></path><path d="M227.59,185.68C217.78,200,217.12,208,214.67,246.19c-2.65,41.23-2.49,49.3-3,53.9S208,312.71,204,335.21s-3.14,49.72-3.14,49.72,1.36,3.76,10,5.16c7.94,1.29,12.12-1.42,12.12-1.42s14.14-43.36,18.15-56.8,16.06-57.7,16.06-57.7L259.74,311s-3.34,12.33-2.33,32.39,3.85,40.73,3.85,40.73A36.13,36.13,0,0,0,273.39,387c6.85.39,11-2,11-2s11.05-58.67,12.67-81.2,3.76-79-.93-112.88Z" style="fill:#37474f"></path><path d="M267.38,231.35l-10.25,42.82L259.74,311l.43-37.06,8.93-35.1c5.53-.91,18.36-6.54,22.43-15.6C282.53,231.35,267.38,231.35,267.38,231.35ZM223.62,345.44q-4.43,17.37-8.41,34.86,5.34-17.13,10.22-34.37c3.3-11.5,6.44-23,9.58-34.56s5.29-23.38,7.3-35.18,3.74-23.62,5.31-35.47c-2.49,11.7-4.82,23.42-7.15,35.13s-4.78,23.39-7.79,34.91S226.54,333.85,223.62,345.44Zm65.88-54.85c-.13,5.18-.2,10.4-.65,15.5s-1.17,10.31-1.8,15.46L285.15,337q-1.92,15.49-3.47,31,2.94-15.36,5.33-30.79c1.6-10.3,3.13-20.56,4.24-31,.72-10.51.57-20.9.39-31.33s-.73-20.83-1.59-31.21L289.76,275C289.68,280.19,289.64,285.39,289.5,290.59Z" style="fill:#263238"></path></g><g id="freepik--Top--inject-22"><path d="M333.77,113.33a21.55,21.55,0,0,0,.94-5.3c.17-6.53,2.61-11.24,5.92-16.72.57-.94,1.15-1.87,1.73-2.8a12.55,12.55,0,0,0,.8-1.37c.21-.46.4-.84,1-.75a1.87,1.87,0,0,1,1.1.72,5.35,5.35,0,0,1,.88,4.24,25.82,25.82,0,0,1-1.33,4.25c-.37,1.08.87.68,1.42.41,2.74-1.33,5.33-5.4,7-7.91a40.76,40.76,0,0,1,3.14-5,6,6,0,0,1,3-1.95c.8-.19,1.61-.1,1.74.93a4.24,4.24,0,0,1-.38,1.87c-.44,1.25-.8,2.38-.19,3.64a10.22,10.22,0,0,1,1.11,2.4c.21,1.11-.23,2.24-.13,3.37a23.53,23.53,0,0,0,.88,2.73,8.34,8.34,0,0,1-.68,3.38,27.33,27.33,0,0,1-3,6.43,51.57,51.57,0,0,1-6.83,8.35,14.37,14.37,0,0,0-3.54,4.8,31,31,0,0,0-1.3,5.89c-.37,2.49-.69,5-1.07,7.49-4,27-6.67,29.56-9.9,32.72-2.28,2.23-6.36,2.15-16.53-3.19-14.22-7.48-34.21-18.48-34.21-18.48l-9.71-32.16s12.57,1.31,17.95,5.05c9.59,6.66,30.75,22.29,30.75,22.29S332.8,116.85,333.77,113.33Z" style="fill:#c8856a"></path><path d="M344.61,100.08c.54,3.66-.65,8.78-1.89,10.74,0,0,1.91-.65,3-5.08A6,6,0,0,0,344.61,100.08Z" style="fill:#af6152"></path><path d="M324.33,138.69l-2.42-1.77A20.41,20.41,0,0,0,320.32,152,41.19,41.19,0,0,1,324.33,138.69Z" style="fill:#af6152"></path><g id="freepik--Chest--inject-22"><path d="M265.28,110.33l-22.69.58a152.83,152.83,0,0,0-16.46,3.48c-3.65,1.08-1.74,14.75-1.39,28.25.76,28.52-3.85,46.51-3.85,46.51,15.08,17.43,70.78,12.19,78.69,2.68,0,0,.18-12.56-.3-30-.33-11.76-.55-24.18-4.44-31.24-8-14.47-19.21-19.24-19.21-19.24Z" style="fill:#E91E63"></path><g style="opacity:0.5"><path d="M265.28,110.33l-22.69.58a152.83,152.83,0,0,0-16.46,3.48c-3.65,1.08-1.74,14.75-1.39,28.25.76,28.52-3.85,46.51-3.85,46.51,15.08,17.43,70.78,12.19,78.69,2.68,0,0,.18-12.56-.3-30-.33-11.76-.55-24.18-4.44-31.24-8-14.47-19.21-19.24-19.21-19.24Z" style="fill:#fff"></path></g><path d="M233.78,56.68c-5.16,1.48-7.58,3.32-8.71,4.57-2.27,2.49-3.26,6.59-3.3,10,0,2.84.7,5.24-.69,7.72a14,14,0,0,1-3.16,3.78,6.21,6.21,0,0,0-2.16,4.75,7.21,7.21,0,0,0,2,4.43c1.16,1.26,2.25,3,1.68,4.58a2.76,2.76,0,0,1-4,1.29,5.91,5.91,0,0,0,8.32-.21,5.44,5.44,0,0,0,2,6.27,9.49,9.49,0,0,0,6.8,1.43,10.16,10.16,0,0,1,6,.79c1.14.56,2.19,1.29,3.32,1.87a13.71,13.71,0,0,0,6.86,1.46c1.21-.06,2.4-.28,3.61-.32,2.39-.08,4.73.54,7.11.61s3.91-1.79,6.21-2.06,4.4,0,6.6-.11A14,14,0,0,0,284.91,89a6.35,6.35,0,0,1,5.55,2.74,6.53,6.53,0,0,0-2-5c-1.9-1.8-4.9-2.49-6.06-4.83a6.31,6.31,0,0,1,.4-5.41c.81-1.69,2-3.19,2.73-4.91,4.55-10.35-5.12-21.95-14.08-25.94C258.88,40.1,235.6,41.38,233.78,56.68Z" style="fill:#263238"></path><path d="M274.86,56s6.29,6.13,7.51,25c1,15.7-1.44,19.65-5.54,21.91-2.45,1.34-6.54,2-11.41,2l.64,6.75s13.8,12.53,2.88,14.6c-5.81,1.11-11.7-1.49-16.92-4.37a28.07,28.07,0,0,1-8.83-8.52l-1.4-16.61a5.65,5.65,0,0,1-7.4-.32c-3.93-3.48-5.27-9-2.74-12.61s7-3,9.93,1c0,0,4.46,1.28,3.55-4.48,0,0,9.9-4.94,4.51-20.38,3.48-2.67,10.12,2.9,16.38,2.71C269.23,62.58,272.57,56.6,274.86,56Z" style="fill:#c8856a"></path><path d="M261.12,89.41l7.29,2.22a3.74,3.74,0,0,1-4.69,2.67A4,4,0,0,1,261.12,89.41Z" style="fill:#af6152"></path><path d="M261.93,91.3a3.23,3.23,0,0,1,3.55,2.89,1.2,1.2,0,0,1,0,.19,3.65,3.65,0,0,1-1.76-.08,3.92,3.92,0,0,1-2.61-2.79A3.19,3.19,0,0,1,261.93,91.3Z" style="fill:#f28f8f"></path><path d="M277.53,71,272.75,70a2.34,2.34,0,0,1,2.76-2A2.56,2.56,0,0,1,277.53,71Z" style="fill:#263238"></path><path d="M258.1,70.64l-4.2,2.46a2.34,2.34,0,0,1,.78-3.3A2.55,2.55,0,0,1,258.1,70.64Z" style="fill:#263238"></path><polygon points="264.32 74.23 267.25 86.86 273.55 82.94 264.32 74.23" style="fill:#af6152"></polygon><path d="M265.42,104.9c-11.13-.47-16.62-3.21-18.89-7,0,0,1.25,5,4.95,6.78,6.4,3,14.2,2.93,14.2,2.93Z" style="fill:#af6152"></path><path d="M272.05,75.53a2.25,2.25,0,0,0,2.2,2.2,2.11,2.11,0,0,0,2.17-2.11,2.23,2.23,0,0,0-2.2-2.2A2.1,2.1,0,0,0,272.05,75.53Z" style="fill:#263238"></path><path d="M256.15,76.86a2.24,2.24,0,0,0,2.19,2.2A2.1,2.1,0,0,0,260.51,77a2.23,2.23,0,0,0-2.19-2.2A2.09,2.09,0,0,0,256.15,76.86Z" style="fill:#263238"></path></g><path d="M306.89,160.72c-6-3.46-14.24-3-23.37,2.3-18.25,10.54-33,36.17-33,57.25,0,10.58,3.73,18,9.76,21.42l10.11,5.84c6,3.45,14.23,2.95,23.35-2.31C312,234.68,326.74,209.05,326.74,188c0-10.52-3.69-17.91-9.65-21.37Z" style="fill:#E91E63"></path><path d="M293.69,168.89c18.26-10.54,33.05-2,33.05,19.08S312,234.68,293.69,245.22s-33.05,2-33.05-19.08S275.44,179.43,293.69,168.89Z" style="fill:#E91E63"></path><path d="M293.69,168.89c18.26-10.54,33.05-2,33.05,19.08S312,234.68,293.69,245.22s-33.05,2-33.05-19.08S275.44,179.43,293.69,168.89Z" style="fill:#fff;opacity:0.30000000000000004"></path><polygon points="288.61 183.57 298.78 177.7 298.78 230.54 288.61 236.41 288.61 183.57" style="fill:#fafafa"></polygon><polygon points="316.57 187.97 316.57 199.72 270.81 226.14 270.81 214.39 316.57 187.97" style="fill:#fafafa"></polygon><path d="M267.49,177.59c2.83-3.37,3.66-3.82,7.13-4.53s5.06-1.07,6.44-1.23a29.29,29.29,0,0,1,7.21.53c1.79.74-.31,3.59-2.95,4s-6.13.58-6.13.58Z" style="fill:#af6152"></path><path d="M226.06,114.39c-9.41,2.88-16.22,6.36-17.83,16.86s-6.4,41.58-6.44,49.72,1,10.08,8.12,12.6c5.91,2.09,29.53,5.1,40.36,6.13a9.4,9.4,0,0,0,7.83-3l8.27-9.11-41.14-12.86,4.61-26.84S234.08,122,226.06,114.39Z" style="fill:#c8856a"></path><path d="M254.5,192.7c1.12-.41.72-5.3,2.55-6.31s2.15-.78,2.8-2.81,1.95-3,3.15-3.09.39-2.23,2.52-3.15a39.06,39.06,0,0,1,8.55-1.58c2.05-.14,7.09,2,9.29,3.08s1.06,2.63-.08,3.48-3.66.68-3.66.68,2.31,1.45,2,2.36c-.44,1.19-2.35,2.49-5.44,1.73,2.1,1,2.1,2.29.64,3.19-1.12.68-2.89.74-5.05.33-2.72-.51-6.33-1.09-8.22.08l-1.74,1.9Z" style="fill:#c8856a"></path><path d="M254.5,192.7c.5-.14.69-.71.9-1.12s.31-.91.43-1.35a15.46,15.46,0,0,1,.8-2.54,1.89,1.89,0,0,1,.64-.86l1.19-.72a2.55,2.55,0,0,0,1.07-1.11,4.86,4.86,0,0,0,.32-1.41,7.35,7.35,0,0,1-.75,1.15,2.25,2.25,0,0,1-1,.67c-.42.17-.85.36-1.29.58a2.75,2.75,0,0,0-1.1,1.26,9.2,9.2,0,0,0-.65,2.83l-.14,1.38A1.89,1.89,0,0,1,254.5,192.7Z" style="fill:#af6152"></path><path d="M279.62,183c-1.17-.65-2.33-1.28-3.53-1.85a21.72,21.72,0,0,0-3.76-1.52,17.38,17.38,0,0,0-4.1.1,31,31,0,0,0-3.94.7c1.33.08,2.66.11,4,.1h2a12.2,12.2,0,0,1,1.86.09c1.17.3,2.43.84,3.67,1.26A31.33,31.33,0,0,0,279.62,183Z" style="fill:#af6152"></path><path d="M261.6,185.33c1.26,0,2.54-.21,3.73-.33a10.18,10.18,0,0,1,3.53.42c2.39.6,4.8,1.28,7.3,1.67a34.29,34.29,0,0,0-7.05-2.66,8.5,8.5,0,0,0-3.89-.21A31,31,0,0,0,261.6,185.33Z" style="fill:#af6152"></path></g></g></g></svg>