<svg width="42" height="66" viewBox="0 0 42 66" fill="none" xmlns="http://www.w3.org/2000/svg">
<path opacity="0.3" d="M21 66C23.7614 66 26 64.8807 26 63.5C26 62.1193 23.7614 61 21 61C18.2386 61 16 62.1193 16 63.5C16 64.8807 18.2386 66 21 66Z" fill="#448AFF"/>
<path fill-rule="evenodd" clip-rule="evenodd" d="M21 0C32.598 0 42 9.40202 42 21C42 31.9234 33.6599 40.8989 23 41.906V62C23 63.1046 22.1046 64 21 64C19.8954 64 19 63.1046 19 62V41.906C8.34014 40.8989 0 31.9234 0 21C0 9.40202 9.40202 0 21 0Z" fill="#448AFF"/>
<path d="M38 21C38 11.6112 30.3888 4 21 4C11.6112 4 4 11.6112 4 21C4 30.3888 11.6112 38 21 38C30.3888 38 38 30.3888 38 21Z" fill="#82B1FF"/>
<path d="M28.77 17.8761L28.5525 15.9079C28.2375 13.7621 27.21 12.8882 25.0125 12.8882H23.2425H22.1325H19.8525H18.7425H16.9425C14.7375 12.8882 13.7175 13.7621 13.395 15.9292L13.1925 17.8832C13.1175 18.6434 13.335 19.3824 13.8075 19.9579C14.3775 20.6613 15.255 21.0592 16.23 21.0592C17.175 21.0592 18.0825 20.6116 18.6525 19.8939C19.1625 20.6116 20.0325 21.0592 21 21.0592C21.9675 21.0592 22.815 20.6329 23.3325 19.9224C23.91 20.6258 24.8025 21.0592 25.7325 21.0592C26.73 21.0592 27.63 20.64 28.1925 19.9011C28.6425 19.3326 28.845 18.615 28.77 17.8761Z" fill="white"/>
<path d="M20.5125 23.8374C19.56 23.9297 18.84 24.6971 18.84 25.6066V27.5534C18.84 27.7453 19.005 27.9016 19.2075 27.9016H22.785C22.9875 27.9016 23.1525 27.7453 23.1525 27.5534V25.8553C23.16 24.3703 22.2375 23.6668 20.5125 23.8374Z" fill="white"/>
<path d="M28.0275 22.2316V24.3489C28.0275 26.31 26.3475 27.9016 24.2775 27.9016C24.075 27.9016 23.91 27.7453 23.91 27.5534V25.8553C23.91 24.9458 23.6175 24.2353 23.0475 23.7521C22.545 23.3187 21.8625 23.1055 21.015 23.1055C20.8275 23.1055 20.64 23.1126 20.4375 23.1339C19.1025 23.2618 18.09 24.3276 18.09 25.6066V27.5534C18.09 27.7453 17.925 27.9016 17.7225 27.9016C15.6525 27.9016 13.9725 26.31 13.9725 24.3489V22.2458C13.9725 21.7484 14.49 21.4145 14.9775 21.5779C15.18 21.6418 15.3825 21.6916 15.5925 21.72C15.6825 21.7342 15.78 21.7484 15.87 21.7484C15.99 21.7626 16.11 21.7697 16.23 21.7697C17.1 21.7697 17.955 21.4642 18.63 20.9384C19.275 21.4642 20.115 21.7697 21 21.7697C21.8925 21.7697 22.7175 21.4784 23.3625 20.9526C24.0375 21.4713 24.8775 21.7697 25.7325 21.7697C25.8675 21.7697 26.0025 21.7626 26.13 21.7484C26.22 21.7413 26.3025 21.7342 26.385 21.72C26.6175 21.6916 26.8275 21.6276 27.0375 21.5637C27.525 21.4074 28.0275 21.7484 28.0275 22.2316Z" fill="white"/>
</svg>
