<svg width="50" height="50" viewBox="0 0 683 683" fill="none" xmlns="http://www.w3.org/2000/svg">
        <g clip-path="url(#clip0_1082_6542)">
        <path d="M284.156 144.016C292.521 136.698 293.37 123.979 286.052 115.614C278.729 107.25 266.015 106.401 257.651 113.719L254.187 116.75C245.823 124.068 244.974 136.786 252.291 145.151C256.271 149.698 261.843 152.026 267.448 152.026C272.151 152.026 276.875 150.385 280.692 147.047L284.156 144.016Z" fill="#E11D48"/>
        <path d="M157.198 196.271L153.734 199.302C145.37 206.625 144.521 219.339 151.838 227.703C155.817 232.255 161.39 234.578 166.995 234.578C171.698 234.578 176.422 232.943 180.239 229.604L183.703 226.573C192.067 219.25 192.916 206.537 185.599 198.172C178.281 189.802 165.562 188.953 157.198 196.271Z" fill="#E11D48"/>
        <path d="M288.24 198.005L284.776 201.036C276.417 208.359 275.568 221.073 282.886 229.437C286.865 233.989 292.438 236.312 298.042 236.312C302.745 236.312 307.469 234.672 311.287 231.328L314.75 228.297C323.115 220.979 323.964 208.26 316.641 199.896C309.323 191.531 296.61 190.687 288.24 198.005Z" fill="#E11D48"/>
        <path d="M420.698 129.385L421.036 124.797C421.849 113.708 413.521 104.063 402.437 103.25C391.354 102.438 381.703 110.766 380.89 121.849L380.552 126.438C379.739 137.526 388.067 147.172 399.151 147.984C399.651 148.021 400.151 148.042 400.646 148.042C411.093 148.042 419.922 139.969 420.698 129.385Z" fill="#E11D48"/>
        <path d="M538.093 164.365C531.281 155.578 518.64 153.979 509.854 160.786C501.067 167.599 499.468 180.24 506.276 189.026L509.099 192.667C513.067 197.781 519.01 200.464 525.02 200.464C529.328 200.464 533.666 199.083 537.338 196.24C546.119 189.432 547.724 176.786 540.911 168L538.093 164.365Z" fill="#E11D48"/>
        <path d="M433.932 194.234C422.854 193.396 413.198 201.745 412.38 212.828L412.042 217.417C411.224 228.505 419.552 238.151 430.635 238.969C431.141 239.005 431.641 239.026 432.135 239.026C442.578 239.026 451.406 230.958 452.188 220.375L452.526 215.786C453.344 204.698 445.016 195.052 433.932 194.234Z" fill="#E11D48"/>
        <path d="M639.141 280.656V250.464C639.141 132.208 542.932 36 424.677 36H269.214C150.958 36 54.75 132.208 54.75 250.464V276.974C23.3906 284.484 0 312.734 0 346.359V350.698C0 384.323 23.3906 412.573 54.75 420.083V455.24C54.75 459.693 55.4271 464.036 56.6719 468.156V471.714C56.6719 567.844 134.875 646.047 231.005 646.047H464.807C560.938 646.047 639.141 567.844 639.141 471.714V416.401C664.698 405.531 682.667 380.172 682.667 350.698V346.359C682.667 316.88 664.698 291.526 639.141 280.656ZM95.0052 250.464C95.0052 154.401 173.151 76.2552 269.214 76.2552H424.677C520.74 76.2552 598.885 154.401 598.885 250.464V275H95.0052V250.464ZM598.885 471.714C598.885 477.995 594.646 481.047 592.823 482.068C590.984 483.094 586.125 485.13 580.714 481.812C578.922 480.714 577.161 479.594 575.406 478.474C561.078 469.359 543.25 458.01 510.182 458.01C477.109 458.01 459.281 469.354 444.958 478.474C432.521 486.391 422.693 492.646 401.349 492.646C380.005 492.646 370.182 486.396 357.745 478.474C343.417 469.359 325.594 458.01 292.521 458.01C259.453 458.01 241.625 469.359 227.302 478.474C214.865 486.391 205.042 492.646 183.698 492.646C162.359 492.646 152.531 486.396 140.099 478.474C129.573 471.776 117.646 464.187 99.4792 460.391C97.5781 459.995 96.1042 458.776 95.4219 457.198C95.3802 457.094 95.3437 456.984 95.2969 456.88C95.1146 456.359 95.0052 455.813 95.0052 455.24V422.057H598.885V471.714ZM464.807 605.792H231C167.677 605.792 114.469 561.661 100.505 502.542C106.839 505.026 112.203 508.438 118.479 512.432C132.802 521.552 150.63 532.901 183.698 532.901C216.766 532.901 234.594 521.552 248.917 512.432C261.354 504.516 271.177 498.26 292.521 498.26C313.865 498.26 323.688 504.516 336.125 512.432C350.453 521.552 368.276 532.901 401.349 532.901C434.417 532.901 452.245 521.552 466.573 512.432C479.01 504.516 488.833 498.26 510.177 498.26C531.521 498.26 541.349 504.516 553.786 512.432C555.734 513.672 557.677 514.911 559.661 516.125C568.552 521.578 578.448 524.161 588.312 523.896C567.922 571.979 520.24 605.792 464.807 605.792ZM642.411 350.698C642.411 367.849 628.458 381.802 611.307 381.802H71.3594C54.2083 381.802 40.2552 367.849 40.2552 350.698V346.359C40.2552 329.208 54.2083 315.255 71.3594 315.255H611.307C628.458 315.255 642.411 329.208 642.411 346.359V350.698Z" fill="#E11D48"/>
        </g>
        <defs>
        <clipPath id="clip0_1082_6542">
        <rect width="682.667" height="682.667" fill="white"/>
        </clipPath>
        </defs>
        </svg>
        